<?xml version="1.0" encoding="UTF-8"?>
<svg xmlns="http://www.w3.org/2000/svg" version="1.1" viewBox="0 0 283.46 283.46">
  <defs>
    <style>
      .cls-1 {
        fill: #f27f1f;
      }

      .cls-2 {
        fill: #231f20;
      }

      .cls-3 {
        fill: #abdfea;
      }

      .cls-4 {
        fill: #84bc41;
      }

      .cls-5 {
        fill: #ffe400;
      }
    </style>
  </defs>
  <!-- Generator: Adobe Illustrator 28.6.0, SVG Export Plug-In . SVG Version: 1.2.0 Build 709)  -->
  <g>
    <g id="iconos">
      <g>
        <g>
          <path class="cls-4" d="M159.27,255.01c-.79-.21-1.53-.53-2.2-1-2.66-1.89-3.19-5.79-2.12-8.86,1.07-3.08,3.39-5.53,5.65-7.89-15.91-4.94-32.04,5.23-46.86,12.84-8.51,4.37-17.4,8.01-26.54,10.86-6.44,2.01-13.24,3.64-19.89,2.52-13.21-2.23-21.51-21.03-25.79-32.33-2.73-7.2-4.27-15.23-1.98-22.58,2.29-7.35,9.3-13.61,16.97-13,12.94,1.03,20.22,17.78,30.85,23.86,13.84,7.92,36.89,5.35,49.15-4.33,13.25-10.46,22.88-26.8,39.79-31.95,3.05-.93,6.67-1.32,9.17.66,4.15,3.28,2.59,10.78,6.82,13.95,4.28,3.21,10.1-.65,14.35-3.91,11.98-9.18,26.88-14.5,41.97-14.99,3.98-.13,8.17.13,11.55,2.23,4.13,2.57,6.26,7.37,7.73,12,2.29,7.25,3.52,15.14,1.39,22.44-2.32,7.95-8.41,14.36-15.43,18.75-7.02,4.39-14.98,6.99-22.85,9.56-10.93,3.57-22.42,8.62-33.68,10.87-10.52,2.1-22.6.67-33.41.7-1.54,0-3.15-.01-4.62-.4Z"/>
          <circle class="cls-5" cx="38.25" cy="163.81" r="15.84"/>
          <circle class="cls-5" cx="194.43" cy="196.31" r="15.84"/>
          <circle class="cls-5" cx="158.16" cy="178.83" r="15.84"/>
          <circle class="cls-5" cx="241.42" cy="162.99" r="15.84"/>
          <circle class="cls-5" cx="65.98" cy="196.74" r="15.84"/>
          <path class="cls-1" d="M126.17,68.01c2.55-10.08-5.46-20.55-15.33-23.83-9.86-3.28-20.72-.95-30.44,2.74-13.21,5.02-26.38,13.7-30.58,27.19-.43,1.39-.75,2.92-.18,4.26.76,1.75,2.77,2.55,4.62,3.01,16.79,4.17,33.84-4.92,51.09-6.14"/>
          <path class="cls-3" d="M117.77,130.55c2.62-.03,5.96.54,6.53,3.1.36,1.6-.64,3.18-.76,4.81-.25,3.48,3.74,6.03,7.21,5.7,3.47-.33,6.42-2.57,9.23-4.65,16.55-12.31,34.96-22.1,54.42-28.95,5.45-1.92,11.09-3.62,16.87-3.62,3.29,0,6.97.82,8.72,3.6.98,1.55,1.18,3.46,1.24,5.29.61,18.9-12.33,37.44-30.27,43.39-9.75,3.23-20.26,2.97-30.53,3.01-11.17.04-22.35.48-33.49,1.31-3.23.24-6.51.51-9.67-.21-2.88-.66-5.51-2.12-8.2-3.35-8.46-3.88-19.17-5.35-26.53.35-1.96,1.52-3.58,3.48-5.67,4.83-2.08,1.35-4.93,2-7.02.65-1.12-.72-1.85-1.9-2.45-3.08-2.22-4.37-4.26-12.11-4.23-17.06.04-5.89,6.03-7.55,10.94-8.96,14.12-4.04,28.97-5.99,43.64-6.16Z"/>
          <path class="cls-5" d="M164.86,38.26c-8.38,2.56-16.26,8.99-17.61,17.65-.47,3.03.02,6.46,2.27,8.54,1.62,1.5,3.89,2.07,6.09,2.21,5.54.36,10.93-1.64,16.22-3.33,9.67-3.09,19.64-5.22,29.73-6.35,3.21-.36,6.8-.81,8.82-3.33,6.82-8.47-8.97-16.84-15.38-17.98-8.85-1.59-21.75.01-30.15,2.58Z"/>
        </g>
        <path class="cls-2" d="M73.91,214.01c-1.76-1.33-4.27-.99-5.6.78-17.12,22.61-12.01,46.79-11.78,47.81.29,1.32,1.21,2.33,2.38,2.81.54,1.13,1.58,1.99,2.9,2.22.24.04.47.06.71.06,1.9,0,3.59-1.36,3.93-3.3,3-16.89,19.48-24.35,19.74-24.47,2.02-.88,2.95-3.23,2.08-5.25-.88-2.03-3.23-2.96-5.26-2.08-.63.27-12.01,5.32-19.21,16.86.48-8.04,2.85-19.21,10.89-29.84,1.33-1.76.99-4.27-.78-5.6Z"/>
        <path class="cls-2" d="M270.99,166.35c-1.76-1.33-4.27-.99-5.6.78-3.96,5.23-6.49,10.57-8.08,15.56-1.08-2.66-2.35-5.36-3.83-8.09,2.74-2.45,4.48-6.01,4.48-9.97,0-4.54-2.28-8.55-5.74-10.98.46-.45.88-.94,1.25-1.51,1.7-2.6,2.77-7.24-1.76-14.61-5.17-8.42-25.49-25.92-37.32-35.75-1.47-1.66-3.43-3.25-5.83-4.74-.89-.55-1.79-1.06-2.69-1.53,6.15-13.14,7.04-29.07,7.16-34.43,1.57-.38,2.77-1.67,3.02-3.27.25-1.64-.53-3.26-1.97-4.08l-14.37-8.21-9.33-10.31c-.98-1.08-2.47-1.54-3.89-1.21l-23.69,5.63c-1.55.37-2.73,1.61-3.01,3.18l-2.05,11.28-9.97,14.03c-.96,1.35-.99,3.14-.08,4.52.75,1.14,2.01,1.8,3.34,1.8.28,0,.57-.03.85-.09l.77-.17c.83,3.23,2.1,7.72,3.83,12.54,1.14,3.18,2.33,6.1,3.57,8.74l-2.02,1.07c-.55.29-1.03.71-1.39,1.22-2.25,3.16-11.3,16.14-15.71,26.09-9.52-11.83-11.85-14.32-13.2-15.16-.89-.55-1.79-1.06-2.69-1.53,6.15-13.14,7.04-29.07,7.16-34.43,1.57-.38,2.77-1.67,3.02-3.27.25-1.64-.53-3.26-1.97-4.08l-14.37-8.21-9.33-10.31c-.98-1.08-2.47-1.55-3.89-1.21l-23.69,5.63c-1.55.37-2.73,1.61-3.01,3.18l-2.05,11.28-9.97,14.03c-.96,1.35-.99,3.14-.08,4.52.75,1.14,2.01,1.8,3.34,1.8.28,0,.57-.03.85-.09l.77-.17c.83,3.23,2.1,7.72,3.83,12.54,1.14,3.18,2.33,6.1,3.57,8.74l-2.02,1.07c-.35.19-.67.42-.95.7-1.42,1.42-13.88,14.09-14.28,23.52-.03.63-.51,3.6-.96,6.46-4.43,27.79-5.4,41.73-3.11,48.33-3.22,2.45-5.31,6.31-5.31,10.65,0,2.28.58,4.43,1.59,6.32-6.08,4.72-10.54,12.69-13.78,21.22l.07-42.49c5.44-1.7,9.39-6.79,9.39-12.78,0-7.38-6.01-13.39-13.39-13.39s-13.39,6.01-13.39,13.39c0,5.99,3.95,11.07,9.38,12.78l-.04,20.98c-2.23-3.91-4.93-6.77-8.08-8.53-1.93-1.08-4.37-.39-5.44,1.54-1.08,1.93-.39,4.37,1.54,5.44,3.96,2.21,7.26,8.38,9.27,17.35,1.66,7.39,1.89,14.11,1.89,14.27.02.83.3,1.59.76,2.22l-.04,25.32c0,2.14,1.68,3.9,3.82,4,.06,0,.12,0,.19,0,2.06,0,3.79-1.57,3.98-3.64,1.08-11.86,6.68-43.5,19.67-52.05,1.8.91,3.83,1.43,5.99,1.43,7.38,0,13.39-6.01,13.39-13.39,0,0,0-.02,0-.02,2.5,3.16,6.37,5.19,10.7,5.19.5,0,1-.03,1.49-.08-.05.49-.08.99-.08,1.49,0,7.53,6.13,13.66,13.66,13.66,5.96,0,11.02-3.84,12.89-9.16,5.83,6.47,10.04,12.67,13.05,18.42-19.6-10.12-36.82,1.02-37.02,1.15-1.79,1.19-2.32,3.59-1.19,5.43,12.67,20.58,34.08,21.49,44.37,21.92l.56.02c.06,0,.12,0,.17,0,.09,0,.18-.02.27-.03-.16,4.36-.93,6.99-1.04,7.34-.67,2.1.49,4.34,2.58,5.02.41.13.82.2,1.23.2,1.69,0,3.26-1.08,3.8-2.77.4-1.24,9.04-29.53-21.65-62.94,6.12-1.35,10.71-6.81,10.71-13.33,0-7.53-6.13-13.66-13.66-13.66-.5,0-1,.03-1.49.08.05-.49.08-.99.08-1.49,0-7.53-6.13-13.66-13.66-13.66s-13.66,6.13-13.66,13.66c0,.5.03,1,.08,1.49-.49-.05-.99-.08-1.49-.08-7.53,0-13.66,6.13-13.66,13.66,0,.04,0,.08,0,.12-2.46-3.05-6.22-5.02-10.43-5.02-.21,0-.41.02-.61.03-1.21-2.97-1.4-13.32,3.55-44.37.7-4.4,1.01-6.39,1.06-7.38.19-4.4,6.71-12.87,11.52-17.78l1.55-.82c2.71,4.3,5.61,7.47,8.69,9.48,1.11.73,2.24,1.3,3.38,1.73l-6.83,9.27c-1.31,1.78-.93,4.28.85,5.59.71.53,1.55.78,2.37.78,1.23,0,2.44-.56,3.22-1.63l7.55-10.25,6.4,10.03c.76,1.2,2.06,1.85,3.38,1.85.74,0,1.48-.2,2.15-.63,1.86-1.19,2.41-3.66,1.22-5.52l-6.69-10.49c5.16-2.17,9.19-5.83,12.33-10.27.77.4,1.55.83,2.32,1.3,1.87,1.65,10.67,12.64,13.59,16.28.7.88,1.29,1.61,1.74,2.16,1.29,6.98,9.2,24.71,14.7,33.18-5.03,1.93-8.62,6.79-8.62,12.5,0,4.65,2.38,8.75,5.99,11.15-1.94,9.65-6.42,38.41.72,71.69.4,1.88,2.06,3.16,3.91,3.16.28,0,.56-.03.84-.09,2.16-.46,3.54-2.59,3.07-4.75-6.61-30.8-2.64-58.16-.81-67.78,7.22-.18,13.05-6.1,13.05-13.37,0-5.8-3.71-10.73-8.87-12.59-.12-.72-.42-1.42-.94-2.01-5.21-5.89-14.86-28.88-15.22-32.65.31-4.77,9.4-19.56,16.11-29.1l1.24-.66c2.71,4.3,5.61,7.47,8.69,9.48,1.11.73,2.24,1.3,3.38,1.73l-6.83,9.28c-1.31,1.78-.93,4.28.85,5.59.71.53,1.55.78,2.37.78,1.23,0,2.44-.56,3.22-1.63l7.55-10.25,6.4,10.03c.76,1.2,2.06,1.85,3.38,1.85.74,0,1.48-.2,2.15-.63,1.86-1.19,2.41-3.66,1.22-5.52l-6.69-10.49c5.16-2.17,9.19-5.83,12.33-10.27.82.42,1.66.89,2.47,1.39,1.82,1.13,3.23,2.28,4.19,3.4.15.18.32.34.49.49,19.14,15.89,32.55,28.6,35.87,33.99,2.23,3.63,2.21,5.54,1.88,6.05-.34.52-1.68.96-3.14.84-2.34-1.16-11.75-8.97-31.02-27.53-1.01-.97-2.45-1.34-3.8-.99-1.35.36-2.42,1.39-2.81,2.74l-1.85,6.26c-.12.41-.17.83-.16,1.25l1.06,34.4c.01.35.08.68.17,1-2.55,2.35-4.16,5.71-4.16,9.44,0,5.39,3.34,10.01,8.07,11.92-.02.08-.05.16-.06.25-1.21,9.09-2,16.31-2.51,21.81-1.35-2.35-2.88-4.69-4.62-7,2.44-2.34,3.98-5.63,3.98-9.27,0-7.09-5.77-12.85-12.85-12.85s-12.85,5.76-12.85,12.85,5.76,12.85,12.85,12.85c.53,0,1.04-.04,1.56-.1.09.17.19.34.31.49,3.52,4.55,6.12,9.26,8.03,13.9-12.08-9.6-25.98-7.84-26.17-7.82-1.06.15-2.01.71-2.65,1.57-.64.85-.91,1.93-.75,2.98,3.26,21.95,27.37,40.42,35.79,44.66.03.02.07.03.11.05.05.02.09.04.14.06.22.09.45.17.68.22,0,0,0,0,.01,0,0,0,.02,0,.03,0,.28.06.56.09.84.09,0,0,0,0,0,0,0,0,0,0,0,0,0,0,.02,0,.03,0,.2,0,.39-.02.58-.05.07-.01.14-.03.22-.04.13-.03.26-.06.39-.1.07-.02.15-.05.22-.08.13-.05.25-.11.38-.17.06-.03.12-.06.18-.09.15-.09.3-.19.44-.3.02-.02.04-.03.06-.04.16-.13.31-.27.45-.43.04-.04.07-.09.11-.13.09-.11.19-.23.27-.35.05-.07.09-.15.13-.22.04-.06.08-.12.11-.19.02-.04.03-.07.04-.11.07-.15.13-.3.18-.46.03-.09.06-.18.09-.27,0-.03.02-.06.03-.09.2-.89,3.38-15.93-1.73-33.87.29-.54.47-1.15.48-1.8,0-.11.2-10.95,3.36-34.64.03-.26.04-.52.02-.77,5.59-1.4,9.74-6.44,9.74-12.46,0-7.09-5.77-12.85-12.85-12.85-.31,0-.62.02-.93.05l-.95-30.78c13.67,13.01,20.85,19.15,24.84,22.09-3.44,2.43-5.69,6.42-5.69,10.93,0,7.38,6.01,13.39,13.39,13.39.54,0,1.07-.04,1.6-.1,9.27,16.85,11.13,34.53,5.51,52.56-4.31,13.81-11.62,22.7-11.73,22.84-1.42,1.69-1.2,4.21.49,5.63.75.63,1.66.94,2.57.94,1.14,0,2.27-.49,3.07-1.43.34-.4,8.31-10,13.14-25.28,2.12-6.7,3.8-15.14,3.55-24.7.59-.88.85-1.99.6-3.1-.04-.17-3.69-17.45,8.4-33.42,1.33-1.76.99-4.27-.78-5.6ZM36.48,164.74c2.97,0,5.39,2.42,5.39,5.39s-2.42,5.39-5.39,5.39-5.39-2.42-5.39-5.39,2.42-5.39,5.39-5.39ZM137.57,247.87c-8.87-.37-24.8-1.04-35.41-14.54,6.4-2.63,20.17-5.68,34.3,7.72.65,2.44,1.08,4.73,1.36,6.83h-.26ZM90.07,183.71c1.33,0,2.58.45,3.6,1.29,1.67,1.38,4.13,1.18,5.56-.45.3-.35.64-.67.99-.95.84-.67,1.37-1.65,1.48-2.72.11-1.07-.22-2.13-.91-2.96-.86-1.03-1.31-2.28-1.31-3.62,0-3.12,2.54-5.66,5.66-5.66s5.66,2.54,5.66,5.66c0,1.34-.45,2.59-1.31,3.62-.69.82-1.01,1.89-.91,2.96.11,1.07.64,2.05,1.48,2.72.36.29.69.61.99.95,1.42,1.63,3.89,1.83,5.56.45,1.02-.84,2.27-1.29,3.6-1.29,3.12,0,5.66,2.54,5.66,5.66s-2.54,5.66-5.66,5.66c-1.22,0-2.39-.39-3.38-1.13-1.73-1.3-4.18-.98-5.53.71-.3.38-.65.74-1.02,1.07-1.58,1.37-1.84,3.72-.59,5.4.73.99,1.12,2.15,1.12,3.36,0,3.12-2.54,5.66-5.66,5.66s-5.66-2.54-5.66-5.66c0-1.21.39-2.37,1.12-3.36,1.24-1.68.99-4.03-.59-5.4-.38-.33-.72-.68-1.02-1.07-.79-.99-1.96-1.51-3.13-1.51-.83,0-1.67.26-2.39.8-.99.74-2.16,1.13-3.38,1.13-3.12,0-5.66-2.54-5.66-5.66s2.54-5.66,5.66-5.66ZM71.37,197.86c0,2.97-2.42,5.39-5.39,5.39s-5.39-2.42-5.39-5.39,2.42-5.39,5.39-5.39,5.39,2.42,5.39,5.39ZM92.56,81.34l20.89-4.53c-.01.27-.03.6-.06,1.03-.03.48-.07,1.04-.11,1.69-.58,10.66-3.02,15.04-4.66,16.5-.28.14-.55.31-.79.51-.07.03-.14.06-.2.07-2.25-.44-14.73-3.43-15.08-15.28ZM116.37,103.52l-2.12-.72.06-1.17c4.04-3.88,6.38-11.16,6.95-21.66.03-.61.07-1.14.1-1.59.09-1.33.14-2.32.03-3.29l2.74-.59c-.2,4.18-.83,11.6-2.8,19.22-1,3.88-2.21,7.29-3.62,10.26-.7-.25-1.17-.4-1.35-.46ZM83.96,69.65c.34-.48.57-1.03.67-1.6l1.74-9.59,18.84-4.48,8.17,9.03c.28.31.61.58.98.79l5.87,3.35-40.78,8.84,4.51-6.34ZM79.64,84.14l5-1.08c.4,4.65,2.06,8.42,4.38,11.44,0,.03-.01.07-.02.1l-.41,7.57-2.28,1.2c-3-6.5-5.28-13.83-6.68-19.23ZM101.79,118.13s-.03.01-.05.01c-.02,0-.04,0-.06,0-1.91.41-3.67.02-5.56-1.21-2.16-1.41-4.16-3.72-5.98-6.54l4.21-2.23c1.24-.66,2.05-1.92,2.12-3.32l.21-3.88c3.3,1.87,6.71,2.98,9.47,3.49l-.05.91c-.1,1.79,1.01,3.42,2.7,4l4.6,1.57c-3.23,3.94-7.1,6.34-11.62,7.17ZM158.16,184.9c-.23,0-.45-.04-.68-.07-.34-.21-.7-.38-1.11-.49-.25-.06-.51-.1-.76-.11-1.68-.91-2.84-2.67-2.84-4.72,0-2.97,2.42-5.39,5.39-5.39s5.39,2.42,5.39,5.39-2.42,5.39-5.39,5.39ZM173.37,69.69l20.89-4.53c-.01.27-.03.6-.06,1.03-.03.48-.07,1.04-.11,1.69-.58,10.66-3.02,15.05-4.66,16.5-.28.14-.55.31-.78.51-.07.03-.14.06-.2.07-2.25-.44-14.73-3.43-15.08-15.28ZM197.18,91.87l-2.12-.72.06-1.16c4.04-3.89,6.38-11.16,6.95-21.66.03-.61.07-1.14.1-1.59.09-1.32.14-2.32.03-3.29l2.74-.59c-.2,4.18-.83,11.6-2.8,19.22-1,3.88-2.21,7.29-3.62,10.26-.7-.25-1.17-.4-1.35-.46ZM164.77,58c.34-.48.57-1.03.67-1.6l1.74-9.59,18.84-4.48,8.17,9.03c.28.31.61.58.98.79l5.87,3.35-40.78,8.84,4.51-6.34ZM160.46,72.49l5-1.08c.4,4.65,2.06,8.42,4.38,11.44,0,.03-.01.07-.02.1l-.41,7.57-2.28,1.2c-3-6.5-5.28-13.82-6.68-19.23ZM182.61,106.49s-.03.01-.05.01c-.02,0-.04,0-.06,0-1.91.41-3.67.02-5.56-1.21-2.16-1.41-4.16-3.72-5.98-6.54l4.21-2.23c1.24-.66,2.05-1.92,2.12-3.32l.21-3.88c3.3,1.87,6.71,2.98,9.47,3.49l-.05.91c-.1,1.79,1.01,3.42,2.7,4l4.6,1.57c-3.23,3.94-7.1,6.34-11.62,7.17ZM188.22,192.9c0-2.67,2.18-4.85,4.85-4.85s4.85,2.18,4.85,4.85-2.18,4.85-4.85,4.85-4.85-2.18-4.85-4.85ZM182.36,220.11c6.56.52,18.68,3.75,25.34,19.56.41,4.58.32,8.55.1,11.53-8.59-6.03-21.33-18.11-25.44-31.1ZM218.76,175.2c0,2.67-2.18,4.85-4.85,4.85s-4.85-2.18-4.85-4.85,2.18-4.85,4.85-4.85,4.85,2.18,4.85,4.85ZM239.18,164.64c0-2.97,2.42-5.39,5.39-5.39s5.39,2.42,5.39,5.39-2.42,5.39-5.39,5.39-5.39-2.42-5.39-5.39Z"/>
        <path class="cls-2" d="M166.33,208.71c-2.18-.36-4.24,1.12-4.6,3.3-.2,1.2-4.64,29.51,10.64,50.23.78,1.06,2,1.63,3.22,1.63.82,0,1.66-.25,2.37-.78,1.78-1.31,2.16-3.82.85-5.59-13.22-17.93-9.24-43.81-9.18-44.19.36-2.18-1.12-4.24-3.3-4.59Z"/>
        <path class="cls-2" d="M232.29,209.58c.09,0,.18.01.28.01,7.09,0,12.85-5.76,12.85-12.85s-5.76-12.85-12.85-12.85-12.85,5.77-12.85,12.85c0,4.2,2.03,7.92,5.15,10.26-.08.14-.16.27-.22.42-9.34,22.92-.45,48.7-.07,49.79.58,1.64,2.12,2.67,3.77,2.67.44,0,.89-.07,1.33-.23,2.08-.73,3.18-3.01,2.45-5.1-.08-.24-8.24-24.05-.07-44.11.12-.28.19-.57.24-.86ZM232.57,191.89c2.67,0,4.85,2.18,4.85,4.85s-2.18,4.85-4.85,4.85-4.85-2.18-4.85-4.85,2.18-4.85,4.85-4.85Z"/>
      </g>
    </g>
  </g>
</svg>