<?xml version="1.0" encoding="UTF-8"?>
<svg xmlns="http://www.w3.org/2000/svg" version="1.1" viewBox="0 0 283.46 283.46">
  <defs>
    <style>
      .cls-1 {
        fill: #231f20;
      }
    </style>
  </defs>
  <!-- Generator: Adobe Illustrator 28.6.0, SVG Export Plug-In . SVG Version: 1.2.0 Build 709)  -->
  <g>
    <g id="iconos">
      <path class="cls-1" d="M57.21,165.67c12.49-1.27,21.16-5.85,25.92-9.13,1.09,3.14,3.16,5.88,6.18,8.16,8.05,6.09,16.76,9.39,24.51,9.39.86,0,1.71-.06,2.54-.14-2.15,9.99-.98,24.39,12.82,35.41,12.67,10.12,26.17,16.06,54.33,14.41,9.77-.63,19.92.09,22.09,1.54.72,1.23,2.04,1.98,3.45,1.98.21,0,.42-.02.62-.05,1.79-.28,3.16-1.73,3.35-3.53.11-1.07,2.67-26.34-7.25-47.6-7.98-17.1-29.61-33.56-48.22-36.7-8.7-1.47-16.26-.02-22.14,4.18-.2-.35-.4-.7-.63-1.05,11.17-5.25,38.72-18.78,51.1-30.02,16.24-14.74,15.92-47.21,15.9-48.58-.03-2.19-1.82-3.94-4-3.94h-.06c-15.68.22-30.72,6.37-44.39,17.99,1.46-14.48-1.6-32.96-18.89-42.51-1.39-.77-3.1-.64-4.36.32-.8.61-19.6,15.37-22.54,52.96-1.58,20.15-.27,32.23,1.35,39.2-4.91-.98-10.19-1.01-14.82,1.6-.76-1.54-1.73-3.27-2.94-4.97-4.1-5.8-9.24-9.14-15.03-9.83-1.38-11.67-8.05-29.47-26.48-32.36-2.18-.34-4.23,1.15-4.57,3.33-.34,2.18,1.15,4.23,3.33,4.57,7.87,1.24,13.6,6.23,17.04,14.83,1.58,3.95,2.32,7.82,2.67,10.43-14.43,4.84-24.78,27.67-25.97,30.4-.42.91-4.02,9.1.19,15.01,2.74,3.84,7.74,5.43,14.88,4.7ZM205.39,216.82c-2.57-.62-5.83-1-9.9-1.16-3.66-.15-7.18-.08-9.54,0,9.18-8.11,14.19-16.57,16.93-23.43,2.27,9.56,2.6,18.8,2.51,24.59ZM198.13,178.65c-.31,4.02-2.83,21.09-23.35,35.67-.64.45-1.09,1.06-1.37,1.73-9.31-.09-16.47-1.26-22.52-3.36,24.15-17.77,32.12-42.34,34.15-50.35,5.58,4.94,10.24,10.6,13.08,16.31ZM162.44,148.88c5.31,1.77,10.75,4.61,15.82,8.14-.23.39-.41.82-.5,1.3-.05.29-5.63,29.34-32.41,48.54-.92.66-1.47,1.65-1.62,2.69-3.37-1.81-6.46-3.97-9.54-6.42-1.98-1.58-3.6-3.22-4.94-4.89,23.15-17.47,31.05-41.11,33.19-49.35ZM137.5,152.32c.09-.08.19-.14.28-.23,4.06-4.19,9.73-5.87,16.86-5.01-1.95,7.27-9.12,28.47-29.43,44.19-3.43-8.92-.72-17.34.46-20.29,2.95-1.74,5.53-4.19,7.63-7.28,2.63-3.88,4.03-7.69,4.2-11.38ZM193.69,68.23c-.45,8.71-2.65,28.84-13.16,38.38-10.91,9.9-35.79,22.34-47.49,27.91l35.32-33.54c1.6-1.52,1.67-4.05.15-5.66-1.52-1.6-4.05-1.67-5.65-.15l-37.62,35.72c7.24-16.01,30.21-59.19,68.45-62.67ZM115.54,89.4c2.1-26.81,13.02-40.75,17.5-45.41,8.05,5.48,12.28,14.16,12.59,25.85.22,8.44-1.73,15.82-2.4,18.07-2.71,3.01-5.35,6.25-7.91,9.73-.37.51-.74,1.01-1.1,1.52l.12-19.71c.01-2.21-1.77-4.01-3.98-4.02h-.02c-2.2,0-3.99,1.77-4,3.98l-.2,32.25c-4.05,6.93-6.95,13.04-8.74,17.13-1.5-4.8-3.67-16.19-1.86-39.37ZM95.47,138.68s0,0,0,0c4.48-5.22,11.46-3.77,22,.48,6.26,2.53,10.51,6.17,11.67,9.98.89,2.94.06,6.32-2.49,10.07-2.54,3.75-5.92,5.99-10.04,6.67-6.52,1.08-14.72-1.68-22.48-7.55-2.33-1.76-3.6-3.81-3.87-6.26-.58-5.27,3.55-11.46,5.19-13.39ZM49.44,149.24c2.88-6.61,13.35-25.69,23.32-26.56.34-.03.67-.04,1-.04,8.13,0,12.6,8.85,14.18,12.75-1.63,2.32-4.18,6.51-5.23,11.36-.34.18-.65.41-.94.7-.09.09-8.76,8.58-25.36,10.27-3.89.4-6.64-.11-7.56-1.37-1.21-1.68-.13-5.53.58-7.1Z"/>
    </g>
  </g>
</svg>