<?xml version="1.0" encoding="utf-8"?>
<!-- Generator: Adobe Illustrator 22.1.0, SVG Export Plug-In . SVG Version: 6.00 Build 0)  -->
<svg version="1.1" id="Layer_1" xmlns="http://www.w3.org/2000/svg" xmlns:xlink="http://www.w3.org/1999/xlink" x="0px" y="0px"
	 viewBox="0 0 1429.7 374.1" style="enable-background:new 0 0 1429.7 374.1;" xml:space="preserve">
<style type="text/css">
	.st0{clip-path:url(#SVGID_2_);}
	.st1{fill:#FFE400;}
	.st2{fill:#FDC905;}
	.st3{fill:#F27F1F;}
	.st4{fill:#FFFFFF;}
</style>
<g>
	<g id="fondo">
		<g>
			<defs>
				<rect id="SVGID_1_" y="-803.1" width="1429.7" height="1177.7"/>
			</defs>
			<clipPath id="SVGID_2_">
				<use xlink:href="#SVGID_1_"  style="overflow:visible;"/>
			</clipPath>
			<g class="st0">
				<g>
					<path class="st1" d="M996.4,354.6c-1.4,0-2.8-0.8-3.5-2.1c-17.7-32.3-45.5-64.3-82.5-95.1c-29.7-24.7-65.4-48.7-106.1-71.2
						c-69.4-38.5-130-59.7-130.6-59.9c-2.1-0.7-3.2-3-2.5-5.1s3-3.2,5.1-2.5c0.6,0.2,61.8,21.7,131.8,60.4
						c41.2,22.8,77.3,47.1,107.4,72.1c37.8,31.4,66.2,64.2,84.5,97.4c1.1,1.9,0.3,4.4-1.6,5.4C997.7,354.5,997,354.6,996.4,354.6
						L996.4,354.6z"/>
					<path class="st1" d="M1035,354.6c-1.5,0-2.9-0.9-3.6-2.3c-15.6-33.5-43.6-66.4-83.2-97.7c-31.9-25.2-71.2-49.4-117-72
						c-78.1-38.5-148.7-59.1-149.4-59.3c-2.1-0.6-3.3-2.8-2.7-5c0.6-2.1,2.8-3.3,5-2.7c0.7,0.2,71.9,21,150.6,59.8
						c46.3,22.8,86.2,47.3,118.5,72.9c40.6,32.1,69.4,66,85.6,100.6c0.9,2,0.1,4.4-1.9,5.3C1036.1,354.5,1035.6,354.6,1035,354.6
						L1035,354.6z"/>
					<path class="st1" d="M1081.4,355c-1.2,0-2.4-0.5-3.2-1.6c-31.5-41-72.6-79-122.1-113.1c-39.7-27.3-84.8-52.2-134.2-73.9
						c-84.2-37-152.2-52.2-152.9-52.3c-2.2-0.5-3.5-2.6-3-4.8c0.5-2.2,2.6-3.5,4.8-3c0.7,0.2,69.4,15.4,154.3,52.7
						c49.8,21.9,95.5,47,135.6,74.7c50.2,34.6,92,73.2,124,114.9c1.3,1.8,1,4.3-0.7,5.6C1083.1,354.8,1082.2,355,1081.4,355
						L1081.4,355z"/>
					<g>
						<path class="st2" d="M675,184.1c-0.5,0-1.1-0.1-1.6-0.3c-57.8-25-118-43.1-179.1-53.7c-48.9-8.5-98.4-12.3-147.2-11.2
							c-66.5,1.4-118.3,12-136.4,17.4c-2.1,0.6-4.3-0.6-5-2.7c-0.6-2.1,0.6-4.3,2.7-5c0.5-0.2,54.1-15.8,138.2-17.7
							c49.3-1.1,99.4,2.7,148.8,11.3c61.8,10.7,122.7,29,181.1,54.3c2,0.9,3,3.2,2.1,5.3C678,183.2,676.5,184.1,675,184.1L675,184.1
							z"/>
						<path class="st2" d="M719.6,208c-0.5,0-1.1-0.1-1.6-0.3c-57.8-25.1-118.2-43.2-179.3-53.8c-48.9-8.5-98.5-12.3-147.3-11.2
							c-83,1.8-135.6,17.2-136.1,17.4c-2.1,0.6-4.3-0.6-5-2.7s0.6-4.3,2.7-5c0.5-0.2,54.1-15.8,138.2-17.7
							c49.3-1.1,99.4,2.7,148.8,11.3c61.8,10.7,122.7,29,181.1,54.3c2,0.9,3,3.2,2.1,5.3C722.7,207.1,721.2,208,719.6,208L719.6,208
							z"/>
						<path class="st2" d="M781.6,230.7c-0.5,0-1.1-0.1-1.6-0.3c-57.8-25-118-43.1-179.1-53.7c-48.9-8.5-98.4-12.3-147.2-11.2
							c-66.5,1.4-118.3,12-136.4,17.4c-2.1,0.6-4.3-0.6-5-2.7c-0.6-2.1,0.6-4.3,2.7-5c0.5-0.2,54.1-15.8,138.2-17.7
							c49.3-1.1,99.4,2.7,148.8,11.3c61.8,10.7,122.7,29,181.1,54.3c2,0.9,3,3.2,2.1,5.3C784.6,229.8,783.1,230.7,781.6,230.7
							L781.6,230.7z"/>
						<path class="st2" d="M848.1,262.1c-0.5,0-1.1-0.1-1.6-0.3c-57.8-25.1-118.2-43.2-179.3-53.8c-48.9-8.5-98.5-12.3-147.3-11.2
							c-83,1.8-135.6,17.2-136.1,17.4c-2.1,0.6-4.3-0.6-5-2.7s0.6-4.3,2.7-5c0.5-0.2,54.1-15.8,138.2-17.7
							c49.3-1.1,99.4,2.7,148.8,11.3c61.8,10.7,122.7,29,181.1,54.3c2,0.9,3,3.2,2.1,5.3C851.2,261.2,849.7,262.1,848.1,262.1
							L848.1,262.1z"/>
						<path class="st2" d="M907.7,298.3c-0.5,0-1.1-0.1-1.6-0.3c-57.8-25-118-43.1-179.1-53.7c-48.9-8.5-98.4-12.3-147.2-11.2
							c-66.5,1.4-118.3,12-136.4,17.4c-2.1,0.6-4.3-0.6-5-2.7c-0.6-2.1,0.6-4.3,2.7-5c0.5-0.2,54.1-15.8,138.2-17.7
							c49.3-1.1,99.4,2.7,148.8,11.3c61.8,10.7,122.7,29,181.1,54.3c2,0.9,3,3.2,2.1,5.3C910.7,297.4,909.2,298.3,907.7,298.3
							L907.7,298.3z"/>
						<path class="st2" d="M952.9,338.9c-0.5,0-1.1-0.1-1.6-0.3c-57.8-25-118-43.1-179.1-53.7c-48.9-8.5-98.4-12.3-147.2-11.2
							c-66.5,1.4-118.3,12-136.4,17.4c-2.1,0.6-4.3-0.6-5-2.7c-0.6-2.1,0.6-4.3,2.7-5c0.5-0.2,54.1-15.8,138.2-17.7
							c49.3-1.1,99.4,2.7,148.8,11.3c61.8,10.7,122.7,29,181.1,54.3c2,0.9,3,3.2,2.1,5.3C955.9,338,954.4,338.9,952.9,338.9
							L952.9,338.9z"/>
						<path class="st2" d="M994.6,371.9c-0.5,0-1.1-0.1-1.6-0.3c-57.8-25.1-118.2-43.2-179.3-53.8c-48.9-8.5-98.5-12.3-147.3-11.2
							c-83,1.8-135.6,17.2-136.1,17.4c-2.1,0.6-4.3-0.6-5-2.7s0.6-4.3,2.7-5c0.5-0.2,54.1-15.8,138.2-17.7
							c49.3-1.1,99.4,2.7,148.8,11.3c61.8,10.7,122.7,29,181.1,54.3c2,0.9,3,3.2,2.1,5.3C997.6,371,996.1,371.9,994.6,371.9
							L994.6,371.9z"/>
					</g>
					<g>
						<path class="st2" d="M902.8,137.4c-1.4,0-2.8-0.8-3.5-2.1c-1.1-1.9-0.3-4.4,1.6-5.4c0.5-0.3,51.4-27.9,138.9-47.9
							c51.3-11.7,105-18.6,159.6-20.5c68.2-2.3,138.1,3.2,207.7,16.5c2.2,0.4,3.6,2.5,3.2,4.7c-0.4,2.2-2.5,3.6-4.7,3.2
							c-68.9-13.2-138.1-18.7-205.7-16.4c-54.1,1.8-107.2,8.6-158,20.2c-69.2,15.8-120,37.8-137.2,47.2
							C904.1,137.2,903.4,137.4,902.8,137.4L902.8,137.4z"/>
						<path class="st2" d="M951.7,150.5c-1.4,0-2.7-0.7-3.5-2c-1.1-1.9-0.4-4.4,1.5-5.5c0.5-0.3,49.1-27.8,130.5-48.7
							c47.8-12.3,97.4-20,147.5-22.9c62.6-3.6,126.1,0.3,188.8,11.6c2.2,0.4,3.6,2.5,3.2,4.7c-0.4,2.2-2.5,3.6-4.7,3.2
							c-62-11.2-124.8-15.1-186.7-11.5c-49.5,2.9-98.6,10.5-145.8,22.6c-64.4,16.5-112.5,38.6-128.8,48
							C953.1,150.3,952.4,150.5,951.7,150.5L951.7,150.5z"/>
						<path class="st2" d="M1017.2,158.4c-1.4,0-2.7-0.7-3.5-2c-1.1-1.9-0.4-4.4,1.5-5.5c0.5-0.3,49.1-27.8,130.5-48.7
							c47.8-12.3,97.4-20,147.5-22.9c62.6-3.6,126.1,0.3,188.8,11.6c2.2,0.4,3.6,2.5,3.2,4.7c-0.4,2.2-2.5,3.6-4.7,3.2
							c-62-11.2-124.8-15.1-186.7-11.5c-49.5,2.9-98.6,10.5-145.8,22.6c-64.4,16.5-112.4,38.6-128.8,48
							C1018.6,158.3,1017.9,158.4,1017.2,158.4L1017.2,158.4z"/>
						<path class="st2" d="M1089.2,173.9c-1.4,0-2.7-0.7-3.5-2c-1.1-1.9-0.4-4.4,1.5-5.5c0.5-0.3,49.1-27.8,130.5-48.7
							c47.8-12.3,97.4-20,147.5-22.9c62.6-3.6,126.1,0.3,188.8,11.6c2.2,0.4,3.6,2.5,3.2,4.7c-0.4,2.2-2.5,3.6-4.7,3.2
							c-62-11.2-124.9-15.1-186.9-11.5c-49.6,2.9-98.7,10.5-145.9,22.7c-80.4,20.7-128.1,47.7-128.6,47.9
							C1090.5,173.7,1089.9,173.9,1089.2,173.9z"/>
						<path class="st2" d="M1155.4,195.5c-1.4,0-2.7-0.7-3.5-2c-1.1-1.9-0.4-4.4,1.5-5.5c0.5-0.3,49.1-27.8,130.5-48.7
							c47.8-12.3,97.4-20,147.5-22.9c62.6-3.6,126.1,0.3,188.8,11.6c2.2,0.4,3.6,2.5,3.2,4.7c-0.4,2.2-2.5,3.6-4.7,3.2
							c-62-11.2-124.8-15.1-186.7-11.5c-49.5,2.9-98.6,10.5-145.8,22.6c-64.4,16.5-112.4,38.6-128.8,48
							C1156.8,195.4,1156.1,195.5,1155.4,195.5L1155.4,195.5z"/>
						<path class="st2" d="M1208.7,224.7c-1.4,0-2.7-0.7-3.5-2c-1.1-1.9-0.4-4.4,1.5-5.5c0.5-0.3,49.1-27.8,130.5-48.7
							c47.8-12.3,97.4-20,147.5-22.9c62.6-3.6,126.1,0.3,188.8,11.6c2.2,0.4,3.6,2.5,3.2,4.7c-0.4,2.2-2.5,3.6-4.7,3.2
							c-62-11.2-124.8-15.1-186.7-11.5c-49.5,2.9-98.6,10.5-145.8,22.6c-64.4,16.5-112.4,38.6-128.8,48
							C1210,224.6,1209.3,224.7,1208.7,224.7z"/>
						<path class="st2" d="M1256.8,247.4c-1.4,0-2.7-0.7-3.5-2c-1.1-1.9-0.4-4.4,1.5-5.5c0.5-0.3,49.1-27.8,130.5-48.7
							c47.8-12.3,97.4-20,147.5-22.9c62.6-3.6,126.1,0.3,188.8,11.6c2.2,0.4,3.6,2.5,3.2,4.7c-0.4,2.2-2.5,3.6-4.7,3.2
							c-62-11.2-124.9-15.1-186.9-11.5c-49.6,2.9-98.7,10.5-145.9,22.7c-80.4,20.7-128.1,47.6-128.6,47.9
							C1258.2,247.2,1257.5,247.4,1256.8,247.4L1256.8,247.4z"/>
					</g>
					<path class="st2" d="M0,69.6c0,0,476.4,93.1,619.7,304.5H0V69.6z"/>
					<path class="st2" d="M115,205.8c-0.5-39-1-78,0.7-116.9c0.8-17.8,2.4-36.6,12.8-51c2.7-3.7,6.2-7.2,10.8-7.8
						c5.1-0.6,9.9,2.8,12.6,7.1c2.6,4.3,3.5,9.5,4.2,14.5c6.5,44.2,7.9,89.2,4.3,133.7c-0.6,7.4-1.4,14.9-4.7,21.5
						c-5.9,11.6-18.4,18.1-30.3,23.5"/>
					<path class="st2" d="M209.4,232.9c-0.5-39-1-78,0.7-116.9c0.8-17.8,2.4-36.6,12.8-51c2.7-3.7,6.2-7.2,10.8-7.8
						c5.1-0.6,9.9,2.8,12.6,7.1s3.5,9.5,4.2,14.5c6.5,44.2,8,89.2,4.3,133.7c-0.6,7.4-1.4,14.9-4.7,21.6
						c-5.9,11.6-18.4,18.1-30.3,23.6"/>
					<path class="st1" d="M220.4,150.1c3.1-25.3,11.5-50.6,27.9-70c7.3,36.8,14.3,76,0.6,111c-3.5,9-20.6,49.9-28.4,25.8
						C214.4,198.1,218,169.3,220.4,150.1L220.4,150.1z"/>
					<path class="st2" d="M1287.2,326.1c-0.7-51.9-1.3-103.8,1-155.7c1.1-23.7,3.2-48.8,17.1-68c3.6-4.9,8.3-9.6,14.3-10.3
						c6.7-0.8,13.2,3.7,16.7,9.5c3.5,5.8,4.7,12.7,5.6,19.4c8.6,58.9,10.6,118.8,5.8,178.1c-0.8,9.8-1.8,19.9-6.3,28.7
						c-7.8,15.5-24.5,24.1-40.3,31.4"/>
					<path class="st1" d="M1301.8,215.8c4.1-33.7,15.3-67.3,37.2-93.3c9.8,49,19,101.2,0.9,147.8c-4.7,12-27.4,66.5-37.9,34.3
						C1293.8,279.7,1298.6,241.4,1301.8,215.8L1301.8,215.8z"/>
					<path class="st1" d="M318.5,208.4c-1.7-25.4,1.9-51.8,14.4-74c14,34.8,28.1,72,21.3,108.9c-1.8,9.5-10.9,52.9-23.1,30.6
						C321.5,256.6,319.7,227.7,318.5,208.4L318.5,208.4z"/>
					<path class="st1" d="M355.9,293c-1.7-25.4,1.9-51.8,14.4-74c14,34.8,28.1,72,21.3,108.9c-1.8,9.5-10.9,52.9-23.1,30.6
						C358.9,341.2,357.1,312.3,355.9,293L355.9,293z"/>
					<path class="st2" d="M626.6,129.5c-1.7-25.4,1.9-51.8,14.4-74c14,34.8,28.1,72,21.3,108.9c-1.8,9.5-10.9,52.9-23.2,30.6
						C629.7,177.8,627.8,148.8,626.6,129.5L626.6,129.5z"/>
					<path class="st2" d="M557.8,128c-1.7-25.4,1.9-51.8,14.4-74c14,34.8,28.1,72,21.3,108.9c-1.8,9.5-10.9,52.9-23.2,30.6
						C560.8,176.3,559,147.3,557.8,128L557.8,128z"/>
					<path class="st2" d="M590.5,109.6c-1.7-25.4,1.9-51.8,14.4-74c14,34.8,28.1,72,21.3,108.9c-1.8,9.5-10.9,52.9-23.2,30.6
						C593.6,157.9,591.8,128.9,590.5,109.6L590.5,109.6z"/>
					<path class="st2" d="M523.1,115.7c0.1-16,5.4-33.1,19.3-48c11.5,21.2,22.8,43.8,13.5,67.8c-2.4,6.2-14.4,34.4-25,21
						C522.8,146.2,523,127.9,523.1,115.7L523.1,115.7z"/>
					<path class="st2" d="M455.3,119.5c0.1-16,5.4-33.1,19.3-48c11.5,21.2,22.8,43.8,13.5,67.8c-2.4,6.2-14.4,34.4-25,21
						C455,150,455.2,131.7,455.3,119.5z"/>
					<path class="st2" d="M488.9,105.5c0.1-16,5.4-33.1,19.3-48c11.5,21.2,22.8,43.8,13.5,67.8c-2.4,6.2-14.4,34.4-25,21
						C488.6,136,488.8,117.7,488.9,105.5L488.9,105.5z"/>
					<path class="st1" d="M400.3,260.5c-1.7-25.4,1.9-51.8,14.4-74c14,34.8,28.1,72,21.3,108.9c-1.8,9.5-10.9,52.9-23.1,30.6
						C403.4,308.8,401.6,279.9,400.3,260.5L400.3,260.5z"/>
					<path class="st1" d="M448.8,323.5c-1.7-25.4,1.9-51.8,14.4-74c14,34.8,28.1,72,21.3,108.9c-1.8,9.5-10.9,52.9-23.1,30.6
						C451.8,371.8,450,342.8,448.8,323.5L448.8,323.5z"/>
					<path class="st2" d="M166.3,254.1c-0.5-39-1-78,0.7-116.9c0.8-17.8,2.4-36.6,12.8-51c2.7-3.7,6.2-7.2,10.8-7.8
						c5.1-0.6,9.9,2.8,12.6,7.1s3.5,9.5,4.2,14.5c6.5,44.2,7.9,89.2,4.3,133.7c-0.6,7.4-1.4,14.9-4.7,21.6
						c-5.9,11.6-18.4,18.1-30.3,23.6"/>
					<path class="st2" d="M1264.5,325.9c-0.5-39-1-78,0.7-116.9c0.8-17.8,2.4-36.6,12.8-51c2.7-3.7,6.2-7.2,10.8-7.8
						c5.1-0.6,9.9,2.8,12.6,7.1s3.5,9.5,4.2,14.5c6.5,44.2,7.9,89.2,4.3,133.7c-0.6,7.4-1.4,14.9-4.7,21.6
						c-5.9,11.6-18.4,18.1-30.3,23.6"/>
					<path class="st2" d="M1358.9,353c-0.5-39-1-78,0.7-116.9c0.8-17.8,2.4-36.6,12.8-51c2.7-3.7,6.2-7.2,10.8-7.8
						c5.1-0.6,9.9,2.8,12.6,7.1c2.6,4.3,3.5,9.5,4.2,14.5c6.5,44.2,7.9,89.2,4.3,133.7c-0.6,7.4-1.4,14.9-4.7,21.6
						c-5.9,11.6-18.4,18.1-30.3,23.6"/>
					<path class="st1" d="M1369.8,270.2c3.1-25.3,11.5-50.6,27.9-70c7.3,36.8,14.2,76,0.6,111c-3.5,9-20.6,49.9-28.4,25.8
						C1363.8,318.2,1367.4,289.4,1369.8,270.2L1369.8,270.2z"/>
					<path class="st1" d="M1181.3,135.6c3.1-25.3,11.5-50.6,27.9-70c7.3,36.8,14.2,76,0.6,111c-3.5,9-20.6,49.9-28.4,25.8
						C1175.3,183.6,1178.9,154.8,1181.3,135.6L1181.3,135.6z"/>
					<path class="st1" d="M1153.9,161.9c-8.3-24.1-11.9-50.5-5.8-75.2c22.8,29.8,46.2,62,49.4,99.4c0.8,9.6,3.5,53.9-14.2,35.6
						C1169.7,207.6,1160.2,180.2,1153.9,161.9L1153.9,161.9z"/>
					<path class="st1" d="M1099.4,151.1c-1.6-25.4,2-51.8,14.6-74c14,34.8,28,72.1,21.1,109c-1.8,9.5-11,52.9-23.2,30.6
						C1102.4,199.4,1100.7,170.5,1099.4,151.1L1099.4,151.1z"/>
					<path class="st1" d="M1065.1,162.6c-1.6-25.4,2-51.8,14.6-74c14,34.8,28,72.1,21.1,109c-1.8,9.5-11,52.9-23.2,30.6
						C1068.1,210.9,1066.3,181.9,1065.1,162.6z"/>
					<path class="st1" d="M1315.8,374.2c-0.5-39-1-78,0.7-116.9c0.8-17.8,2.4-36.6,12.8-51c2.7-3.7,6.2-7.2,10.8-7.8
						c5.1-0.6,9.9,2.8,12.6,7.1c2.6,4.3,3.5,9.5,4.2,14.5c6.5,44.2,7.9,89.2,4.3,133.7c-0.6,7.4-1.4,14.9-4.7,21.6
						c-5.9,11.6-18.4,18.1-30.3,23.6"/>
					<path class="st3" d="M73.7,285.9C47.8,221.1,22.7,154,22.7,84.3c0-22.7,3.5-47.4,19.7-63.3c16.2-15.9,48.4-15.9,58,4.8
						c10.9,23.6,13.1,51,17.4,76.5c5.2,31,8.2,62.3,9.1,93.6c0.8,29.2-0.2,58.6-6.6,87.1c-1.9,8.2-4.4,16.8-10.4,22.7
						C92.5,322.6,79.4,300.2,73.7,285.9L73.7,285.9z"/>
					<path class="st2" d="M337.2,112.1c0,0,339.9,122.2,413.5,262h245.6c0,0-182.2-239-452.4-265.6L337.2,112.1L337.2,112.1z"/>
					<path class="st2" d="M714.8,112.1c0,0,339.9,122.2,413.5,262H1374c0,0-182.2-239-452.4-265.6L714.8,112.1L714.8,112.1z"/>
					<path class="st3" d="M698.1,113.9c0,0,314.8,87.1,413.5,262H1219C1219,375.9,1048.8,90.5,698.1,113.9L698.1,113.9z"/>
					<g>
						<path class="st4" d="M86,192.4c-10.6,0-19.2-3.6-25.5-10.7c-14.7-16.5-11.3-46.3-11.2-47.5c0.2-2,2-3.5,4-3.5
							c13.2,0,23.9,7.7,31,22.4c0.8,1.6,1.5,3.2,2.1,4.8c9.1-20.5,33-27,33.3-27.1c1.1-0.3,2.4-0.1,3.3,0.6s1.6,1.8,1.7,2.9
							c0.1,1.2,2.4,30.9-12.8,47.4C105.3,188.8,96.7,192.4,86,192.4L86,192.4z M57,139c-0.3,8,0,26.7,9.5,37.5
							c4.8,5.4,11.2,8,19.5,8s14.9-2.6,19.9-8.1c9.4-10.2,10.8-27.4,10.9-36c-3,1.2-6.9,3.2-10.9,6.1c-10,7.3-15,16.9-15,28.5
							c0,2.1-1.6,3.8-3.7,4c-2.1,0.1-3.9-1.4-4.2-3.5C82.9,175.1,78.2,142.4,57,139L57,139z"/>
						<path class="st4" d="M86,265c-10.6,0-19.2-3.6-25.5-10.7c-14.7-16.6-11.3-46.3-11.2-47.5c0.2-2,2-3.5,4-3.5
							c13.2,0,23.9,7.7,31,22.4c0.8,1.6,1.5,3.2,2.1,4.8c9.1-20.5,33-27,33.3-27.1c1.1-0.3,2.4-0.1,3.3,0.6s1.6,1.8,1.7,2.9
							c0.1,1.2,2.4,30.9-12.8,47.4C105.3,261.4,96.7,265,86,265L86,265z M57,211.6c-0.3,8,0,26.7,9.5,37.5c4.8,5.4,11.2,8,19.5,8
							s14.9-2.6,19.9-8.1c9.4-10.2,10.8-27.4,10.9-36c-3,1.2-6.9,3.2-10.9,6.1c-10,7.3-15,16.9-15,28.5c0,2.1-1.6,3.8-3.7,4
							c-2.1,0.1-3.9-1.4-4.2-3.5C82.9,247.7,78.2,215,57,211.6L57,211.6z"/>
						<path class="st4" d="M86,330.7c-10.6,0-19.2-3.6-25.5-10.7c-14.7-16.6-11.3-46.3-11.2-47.5c0.2-2,2-3.5,4-3.5
							c13.2,0,23.9,7.7,31,22.4c0.8,1.6,1.5,3.2,2.1,4.8c9.1-20.5,33-27,33.3-27.1c1.1-0.3,2.4-0.1,3.3,0.6c1,0.7,1.6,1.8,1.7,2.9
							c0.1,1.2,2.4,30.9-12.8,47.4C105.3,327.1,96.7,330.7,86,330.7z M57,277.3c-0.3,8,0,26.7,9.5,37.4c4.8,5.4,11.2,8,19.5,8
							s14.9-2.6,19.9-8.1c9.4-10.2,10.8-27.4,10.9-36c-3,1.2-6.9,3.2-10.9,6.1c-10,7.3-15,16.9-15,28.5c0,2.1-1.6,3.8-3.7,4
							c-2.1,0.1-3.9-1.4-4.2-3.5C82.9,313.4,78.2,280.7,57,277.3L57,277.3z"/>
						<path class="st4" d="M86,126.1c-10.6,0-19.2-3.6-25.5-10.7C45.9,98.8,49.2,69.1,49.4,67.9c0.2-2,2-3.5,4-3.5
							c13.2,0,23.9,7.7,31,22.4c0.8,1.6,1.5,3.2,2.1,4.8c9.1-20.5,33-27,33.3-27.1c1.1-0.3,2.4-0.1,3.3,0.6s1.6,1.8,1.7,2.9
							c0.1,1.2,2.4,30.9-12.8,47.4C105.3,122.5,96.7,126.1,86,126.1L86,126.1z M57,72.6c-0.3,8,0,26.7,9.5,37.5
							c4.8,5.4,11.2,8,19.5,8s14.9-2.6,19.9-8.1c9.4-10.2,10.8-27.4,10.9-36c-3,1.2-6.9,3.2-10.9,6.1c-10,7.3-15,16.9-15,28.5
							c0,2.1-1.6,3.8-3.7,4c-2.1,0.1-3.9-1.4-4.2-3.5C82.9,108.8,78.2,76.1,57,72.6L57,72.6z"/>
						<path class="st4" d="M101.2,81.2c-1.8,0-3.5-1.3-3.9-3.2c-2-9.1-5.6-16.6-10.8-22.4c-2.7,2.8-7.2,9.3-9.6,22.1
							c-0.4,2.2-2.5,3.6-4.7,3.2c-2.2-0.4-3.6-2.5-3.2-4.7c4.4-22.9,14.7-29,15.9-29.6c1.5-0.8,3.4-0.5,4.6,0.6
							c7.7,7.2,12.9,17,15.5,29c0.5,2.2-0.9,4.3-3.1,4.8C101.8,81.2,101.5,81.2,101.2,81.2L101.2,81.2z"/>
						<rect x="82.9" y="122.1" class="st4" width="8" height="406.7"/>
					</g>
					<path class="st3" d="M208.7,174.9c-4-17.9-11.7-38.1-29.2-43.6c-4.3-1.3-9-1.6-13.1,0.2c-6.2,2.6-9.7,9.1-12.4,15.2
						c-24.6,55.1-25.4,117.5-25.5,177.9c0,17.5,0,35.2,4.4,52.1c0.6,2.5,1.5,5.2,3.6,6.8c1.7,1.3,4,1.7,6.2,1.9
						c17.9,2,50.6,6.3,66.6-4.5c14.3-9.7,10-35.6,10.4-50.2C221.1,278.6,220.2,226,208.7,174.9L208.7,174.9z"/>
					<path class="st3" d="M321.1,201.3c-4-17.9-11.7-38.1-29.2-43.6c-4.3-1.3-9-1.6-13.1,0.2c-6.2,2.6-9.7,9.1-12.4,15.2
						C241.8,228.2,241,290.6,240.9,351c0,17.5,0,35.2,4.4,52.1c0.6,2.5,1.5,5.2,3.6,6.8c1.7,1.3,4,1.7,6.2,1.9
						c17.9,2,50.6,6.3,66.6-4.5c14.3-9.7,10-35.6,10.4-50.2C333.5,305,332.6,252.3,321.1,201.3L321.1,201.3z"/>
					<g>
						<path class="st4" d="M171.6,277c-10.6,0-19.2-3.6-25.5-10.7c-14.7-16.6-11.3-46.3-11.2-47.5c0.2-2,1.9-3.5,4-3.5
							c13.2,0,23.9,7.7,31,22.4c0.8,1.6,1.5,3.2,2.1,4.8c9.1-20.5,33-27,33.3-27.1c1.1-0.3,2.4-0.1,3.3,0.6s1.6,1.8,1.7,2.9
							c0.1,1.2,2.4,30.9-12.8,47.4C190.9,273.4,182.2,277,171.6,277L171.6,277z M142.6,223.5c-0.4,8,0,26.7,9.5,37.4
							c4.8,5.4,11.2,8,19.5,8s14.9-2.6,19.9-8.1c9.4-10.2,10.8-27.4,10.9-36c-3,1.2-6.9,3.2-10.9,6.1c-10,7.3-15,16.9-15,28.5
							c0,2.1-1.6,3.8-3.7,4c-2.1,0.1-3.9-1.4-4.2-3.5C168.4,259.7,163.8,227,142.6,223.5L142.6,223.5z"/>
						<path class="st4" d="M171.6,349.6c-10.6,0-19.2-3.6-25.5-10.7c-14.7-16.6-11.3-46.3-11.2-47.5c0.2-2,1.9-3.5,4-3.5
							c13.2,0,23.9,7.7,31,22.4c0.8,1.6,1.5,3.2,2.1,4.8c9.1-20.5,33-27,33.3-27.1c1.1-0.3,2.4-0.1,3.3,0.6c1,0.7,1.6,1.8,1.7,2.9
							c0.1,1.2,2.4,30.9-12.8,47.4C190.9,346,182.2,349.6,171.6,349.6L171.6,349.6z M142.6,296.2c-0.4,8,0,26.7,9.5,37.4
							c4.8,5.4,11.2,8,19.5,8s14.9-2.6,19.9-8.1c9.4-10.2,10.8-27.4,10.9-36c-3,1.2-6.9,3.2-10.9,6.1c-10,7.3-15,16.9-15,28.5
							c0,2.1-1.6,3.8-3.7,4c-2.1,0.1-3.9-1.4-4.2-3.5C168.4,332.3,163.8,299.6,142.6,296.2L142.6,296.2z"/>
						<path class="st4" d="M171.6,415.3c-10.6,0-19.2-3.6-25.5-10.7c-14.7-16.6-11.3-46.3-11.2-47.5c0.2-2,1.9-3.5,4-3.5
							c13.2,0,23.9,7.7,31,22.4c0.8,1.6,1.5,3.2,2.1,4.8c9.1-20.5,33-27,33.3-27.1c1.1-0.3,2.4-0.1,3.3,0.6c1,0.7,1.6,1.8,1.7,2.9
							c0.1,1.2,2.4,30.9-12.8,47.4C190.9,411.7,182.2,415.3,171.6,415.3L171.6,415.3z M142.6,361.9c-0.4,8,0,26.7,9.5,37.4
							c4.8,5.4,11.2,8,19.5,8s14.9-2.6,19.9-8.1c9.4-10.2,10.8-27.4,10.9-36c-3,1.2-6.9,3.2-10.9,6.1c-10,7.3-15,16.9-15,28.5
							c0,2.1-1.6,3.8-3.7,4c-2.1,0.1-3.9-1.4-4.2-3.5C168.4,398,163.8,365.3,142.6,361.9L142.6,361.9z"/>
						<path class="st4" d="M171.6,210.7c-10.6,0-19.2-3.6-25.5-10.7c-14.7-16.5-11.3-46.3-11.2-47.5c0.2-2,1.9-3.5,4-3.5
							c13.2,0,23.9,7.7,31,22.4c0.8,1.6,1.5,3.2,2.1,4.8c9.1-20.5,33-27,33.3-27.1c1.1-0.3,2.4-0.1,3.3,0.6s1.6,1.8,1.7,2.9
							c0.1,1.2,2.4,30.9-12.8,47.4C190.9,207.1,182.2,210.7,171.6,210.7L171.6,210.7z M142.6,157.2c-0.4,8,0,26.7,9.5,37.5
							c4.8,5.4,11.2,8,19.5,8s14.9-2.6,19.9-8.1c9.4-10.2,10.8-27.4,10.9-36c-3,1.2-6.9,3.2-10.9,6.1c-10,7.3-15,16.9-15,28.5
							c0,2.1-1.6,3.8-3.7,4c-2.1,0.1-3.9-1.4-4.2-3.5C168.4,193.4,163.8,160.7,142.6,157.2L142.6,157.2z"/>
						<path class="st4" d="M186.8,165.8c-1.8,0-3.5-1.3-3.9-3.2c-2-9.1-5.6-16.6-10.8-22.4c-2.7,2.8-7.1,9.3-9.6,22.1
							c-0.4,2.2-2.5,3.6-4.7,3.2c-2.2-0.4-3.6-2.5-3.2-4.7c4.4-22.9,14.7-29,15.9-29.6c1.5-0.8,3.4-0.5,4.6,0.6
							c7.7,7.2,12.9,17,15.5,29c0.5,2.2-0.9,4.3-3.1,4.8C187.4,165.8,187.1,165.8,186.8,165.8L186.8,165.8z"/>
						<rect x="168.4" y="206.7" class="st4" width="8" height="406.7"/>
					</g>
					<g>
						<path class="st4" d="M775.9,365.9c-10.6,0-19.2-3.6-25.5-10.7c-14.7-16.6-11.3-46.3-11.2-47.5c0.2-2,2-3.5,4-3.5
							c13.2,0,23.9,7.7,31,22.4c0.8,1.6,1.5,3.2,2.1,4.8c9.1-20.5,33-27,33.3-27.1c1.2-0.3,2.4-0.1,3.3,0.6c1,0.7,1.6,1.8,1.7,2.9
							c0.1,1.2,2.4,30.9-12.8,47.4C795.2,362.3,786.5,365.9,775.9,365.9z M746.9,312.4c-0.3,8,0,26.7,9.5,37.4
							c4.8,5.4,11.2,8,19.5,8s14.9-2.6,19.9-8.1c9.4-10.2,10.8-27.4,10.9-36c-3,1.2-7,3.2-10.9,6.1c-10,7.3-15,16.9-15,28.5
							c0,2.1-1.6,3.8-3.7,4c-2.1,0.1-4-1.4-4.2-3.5C772.7,348.6,768.1,315.9,746.9,312.4L746.9,312.4z"/>
						<path class="st4" d="M775.9,299.5c-10.6,0-19.2-3.6-25.5-10.7c-14.7-16.6-11.3-46.3-11.2-47.5c0.2-2,2-3.5,4-3.5
							c13.2,0,23.9,7.7,31,22.4c0.8,1.6,1.5,3.2,2.1,4.8c9.1-20.5,33-27,33.3-27.1c1.2-0.3,2.4-0.1,3.3,0.6c1,0.7,1.6,1.8,1.7,2.9
							c0.1,1.2,2.4,30.9-12.8,47.4C795.2,295.9,786.5,299.5,775.9,299.5z M746.9,246.1c-0.3,8,0,26.7,9.5,37.4
							c4.8,5.4,11.2,8,19.5,8s14.9-2.6,19.9-8.1c9.4-10.2,10.8-27.4,10.9-36c-3,1.2-7,3.2-10.9,6.1c-10,7.3-15,16.9-15,28.5
							c0,2.1-1.6,3.8-3.7,4c-2.1,0.1-4-1.4-4.2-3.5C772.7,282.2,768.1,249.5,746.9,246.1L746.9,246.1z"/>
						<path class="st4" d="M791.1,254.7c-1.8,0-3.5-1.3-3.9-3.2c-2-9.1-5.6-16.6-10.8-22.4c-2.7,2.8-7.2,9.3-9.6,22.1
							c-0.4,2.2-2.5,3.6-4.7,3.2c-2.2-0.4-3.6-2.5-3.2-4.7c4.4-22.9,14.7-29,15.9-29.6c1.5-0.8,3.4-0.5,4.6,0.6
							c7.7,7.2,12.9,17,15.5,29c0.5,2.2-0.9,4.3-3,4.8C791.7,254.6,791.4,254.7,791.1,254.7L791.1,254.7z"/>
						<rect x="772.7" y="295.5" class="st4" width="8" height="406.7"/>
					</g>
					<g>
						<g>
							<path class="st1" d="M428.7,88.7c0,0-4.6,38.2,23.3,38.2s24.6-38.2,24.6-38.2s-24,6.3-24,28.7
								C452.6,117.3,448.8,88.7,428.7,88.7L428.7,88.7z"/>
							<path class="st3" d="M452,130.9c-7.9,0-14.3-2.7-19-8c-10.8-12.2-8.4-33.8-8.2-34.7c0.2-2,2-3.5,4-3.5
								c9.9,0,17.8,5.7,23.1,16.6c0.2,0.4,0.4,0.8,0.6,1.2c5.7-10.3,16.6-15.9,23.3-17.7c1.1-0.3,2.4-0.1,3.3,0.6
								c1,0.7,1.6,1.8,1.7,2.9c0.1,0.9,1.7,22.5-9.4,34.6C466.3,128.2,459.9,130.9,452,130.9L452,130.9z M432.4,93.1
								c-0.1,6.1,0.5,17.7,6.5,24.5c3.2,3.6,7.4,5.3,13,5.3s10-1.8,13.3-5.4c5.8-6.3,7.1-16.7,7.4-23.1c-1.8,0.8-3.9,2-5.9,3.5
								c-6.8,5-10.2,11.5-10.2,19.3c0,2.1-1.6,3.8-3.7,4c-2.1,0.1-4-1.4-4.2-3.5C448.6,117.6,445.6,96.5,432.4,93.1L432.4,93.1z"/>
						</g>
						<g>
							<path class="st1" d="M428.7,140.3c0,0-4.6,38.2,23.3,38.2s24.6-38.2,24.6-38.2s-24,6.3-24,28.7
								C452.6,169,448.8,140.3,428.7,140.3L428.7,140.3z"/>
							<path class="st3" d="M452,182.6c-7.9,0-14.3-2.7-19-8c-10.8-12.2-8.4-33.8-8.2-34.7c0.2-2,2-3.5,4-3.5
								c9.9,0,17.8,5.7,23.1,16.6c0.2,0.4,0.4,0.8,0.6,1.2c5.7-10.3,16.6-15.9,23.3-17.7c1.1-0.3,2.4-0.1,3.3,0.6s1.6,1.8,1.7,2.9
								c0.1,0.9,1.7,22.5-9.4,34.6C466.3,179.9,459.9,182.6,452,182.6L452,182.6z M432.4,144.8c-0.1,6.1,0.5,17.7,6.5,24.5
								c3.2,3.6,7.4,5.3,13,5.3s10-1.8,13.3-5.4c5.8-6.3,7.1-16.7,7.4-23.1c-1.8,0.8-3.9,2-5.9,3.5c-6.8,5-10.2,11.5-10.2,19.3
								c0,2.1-1.6,3.8-3.7,4s-4-1.4-4.2-3.5C448.6,169.3,445.6,148.2,432.4,144.8L432.4,144.8z"/>
						</g>
						<g>
							<path class="st1" d="M428.7,187.1c0,0-4.6,38.2,23.3,38.2s24.6-38.2,24.6-38.2s-24,6.3-24,28.7
								C452.6,215.8,448.8,187.1,428.7,187.1L428.7,187.1z"/>
							<path class="st3" d="M452,229.3c-7.9,0-14.3-2.7-19-8c-10.8-12.2-8.4-33.8-8.2-34.7c0.2-2,2-3.5,4-3.5
								c9.9,0,17.8,5.7,23.1,16.6c0.2,0.4,0.4,0.8,0.6,1.2c5.7-10.3,16.6-15.9,23.3-17.7c1.1-0.3,2.4-0.1,3.3,0.6
								c1,0.7,1.6,1.8,1.7,2.9c0.1,0.9,1.7,22.5-9.4,34.6C466.3,226.6,459.9,229.3,452,229.3L452,229.3z M432.4,191.6
								c-0.1,6.1,0.5,17.7,6.5,24.5c3.2,3.6,7.4,5.3,13,5.3s10-1.8,13.3-5.4c5.8-6.3,7.1-16.7,7.4-23.1c-1.8,0.8-3.9,2-5.9,3.5
								c-6.8,5-10.2,11.5-10.2,19.3c0,2.1-1.6,3.8-3.7,4c-2.1,0.1-4-1.4-4.2-3.5C448.6,216,445.6,195,432.4,191.6L432.4,191.6z"/>
						</g>
						<g>
							<path class="st1" d="M428.7,41.5c0,0-4.6,38.2,23.3,38.2s24.6-38.2,24.6-38.2s-24,6.3-24,28.7
								C452.6,70.1,448.8,41.5,428.7,41.5L428.7,41.5z"/>
							<path class="st3" d="M452,83.7c-7.9,0-14.3-2.7-19-8c-10.8-12.2-8.4-33.8-8.2-34.7c0.2-2,2-3.5,4-3.5
								c9.9,0,17.8,5.7,23.1,16.6c0.2,0.4,0.4,0.8,0.6,1.2c5.7-10.3,16.6-15.9,23.3-17.7c1.1-0.3,2.4-0.1,3.3,0.6
								c1,0.7,1.6,1.8,1.7,2.9c0.1,0.9,1.7,22.5-9.4,34.6C466.3,81,459.9,83.7,452,83.7L452,83.7z M432.4,45.9
								c-0.1,6.1,0.5,17.7,6.5,24.5c3.2,3.6,7.4,5.3,13,5.3s10-1.8,13.3-5.4c5.8-6.3,7.1-16.7,7.4-23.1c-1.8,0.8-3.9,2-5.9,3.5
								c-6.8,5-10.2,11.5-10.2,19.3c0,2.1-1.6,3.8-3.7,4c-2.1,0.1-4-1.4-4.2-3.5C448.6,70.4,445.6,49.3,432.4,45.9L432.4,45.9z"/>
						</g>
						<path class="st3" d="M462.8,51.8c-1.8,0-3.5-1.3-3.9-3.2c-1.2-5.7-3.5-10.6-6.5-14.4c-1.8,2.3-4.2,6.6-5.7,14.2
							c-0.4,2.2-2.5,3.6-4.7,3.2c-2.2-0.4-3.6-2.5-3.2-4.7c3.2-16.8,11-21.4,11.9-21.8c1.5-0.8,3.4-0.5,4.6,0.6
							c5.6,5.3,9.5,12.5,11.4,21.3c0.5,2.2-0.9,4.3-3,4.8C463.4,51.7,463.1,51.8,462.8,51.8L462.8,51.8z"/>
						<rect x="448.6" y="79.7" class="st3" width="8" height="210.7"/>
					</g>
					<g>
						<path class="st3" d="M540.9,206c-7.9,0-14.3-2.7-19-8c-10.8-12.2-8.3-33.8-8.2-34.7c0.2-2,2-3.5,4-3.5
							c9.8,0,17.8,5.7,23.1,16.6c0.2,0.4,0.4,0.8,0.6,1.2c5.7-10.3,16.6-15.9,23.3-17.7c1.1-0.3,2.4-0.1,3.3,0.6s1.6,1.8,1.7,2.9
							c0.1,0.9,1.7,22.5-9.4,34.6C555.2,203.3,548.8,206,540.9,206L540.9,206z M521.3,168.3c-0.1,6.1,0.5,17.7,6.5,24.5
							c3.2,3.6,7.4,5.3,13,5.3s10-1.8,13.3-5.4c5.8-6.3,7.2-16.7,7.4-23c-1.8,0.8-3.9,2-5.9,3.5c-6.8,5-10.2,11.5-10.2,19.3
							c0,2.1-1.6,3.8-3.7,4c-2.1,0.1-4-1.4-4.2-3.5C537.5,192.7,534.5,171.7,521.3,168.3L521.3,168.3z"/>
						<path class="st3" d="M540.9,257.7c-7.9,0-14.3-2.7-19-8c-10.8-12.2-8.3-33.8-8.2-34.7c0.2-2,2-3.5,4-3.5
							c9.8,0,17.8,5.7,23.1,16.6c0.2,0.4,0.4,0.8,0.6,1.2c5.7-10.3,16.6-15.9,23.3-17.7c1.1-0.3,2.4-0.1,3.3,0.6s1.6,1.8,1.7,2.9
							c0.1,0.9,1.7,22.5-9.4,34.6C555.2,255,548.8,257.7,540.9,257.7L540.9,257.7z M521.3,219.9c-0.1,6.1,0.5,17.7,6.5,24.5
							c3.2,3.6,7.4,5.3,13,5.3s10-1.8,13.3-5.4c5.8-6.3,7.2-16.7,7.4-23.1c-1.8,0.8-3.9,2-5.9,3.5c-6.8,5-10.2,11.5-10.2,19.3
							c0,2.1-1.6,3.8-3.7,4c-2.1,0.2-4-1.4-4.2-3.5C537.5,244.4,534.5,223.4,521.3,219.9L521.3,219.9z"/>
						<path class="st3" d="M540.9,304.5c-7.9,0-14.3-2.7-19-8c-10.8-12.2-8.3-33.8-8.2-34.7c0.2-2,2-3.5,4-3.5
							c9.8,0,17.8,5.7,23.1,16.6c0.2,0.4,0.4,0.8,0.6,1.2c5.7-10.3,16.6-15.9,23.3-17.7c1.1-0.3,2.4-0.1,3.3,0.6s1.6,1.8,1.7,2.9
							c0.1,0.9,1.7,22.5-9.4,34.6C555.2,301.8,548.8,304.5,540.9,304.5L540.9,304.5z M521.3,266.7c-0.1,6.1,0.5,17.7,6.5,24.5
							c3.2,3.6,7.4,5.3,13,5.3s10-1.8,13.3-5.4c5.8-6.3,7.2-16.7,7.4-23.1c-1.8,0.8-3.9,2-5.9,3.5c-6.8,5-10.2,11.5-10.2,19.3
							c0,2.1-1.6,3.8-3.7,4c-2.1,0.1-4-1.4-4.2-3.5C537.5,291.2,534.5,270.1,521.3,266.7L521.3,266.7z"/>
						<path class="st3" d="M540.9,158.8c-7.9,0-14.3-2.7-19-8c-10.8-12.2-8.3-33.8-8.2-34.7c0.2-2,2-3.5,4-3.5
							c9.8,0,17.8,5.7,23.1,16.6c0.2,0.4,0.4,0.8,0.6,1.2c5.7-10.3,16.6-15.9,23.3-17.7c1.1-0.3,2.4-0.1,3.3,0.6s1.6,1.8,1.7,2.9
							c0.1,0.9,1.7,22.5-9.4,34.6C555.2,156.1,548.8,158.8,540.9,158.8L540.9,158.8z M521.3,121.1c-0.1,6.1,0.5,17.7,6.5,24.5
							c3.2,3.6,7.4,5.3,13,5.3s10-1.8,13.3-5.4c5.8-6.3,7.2-16.7,7.4-23c-1.8,0.8-3.9,2-5.9,3.5c-6.8,5-10.2,11.5-10.2,19.3
							c0,2.1-1.6,3.8-3.7,4c-2.1,0.1-4-1.4-4.2-3.5C537.5,145.5,534.5,124.5,521.3,121.1L521.3,121.1z"/>
						<path class="st3" d="M551.7,126.9c-1.8,0-3.5-1.3-3.9-3.2c-1.2-5.7-3.5-10.6-6.5-14.4c-1.8,2.3-4.2,6.6-5.7,14.2
							c-0.4,2.2-2.5,3.6-4.7,3.2c-2.2-0.4-3.6-2.5-3.2-4.7c3.2-16.8,11-21.4,11.9-21.8c1.5-0.8,3.4-0.5,4.6,0.6
							c5.6,5.3,9.5,12.5,11.4,21.3c0.5,2.2-0.9,4.3-3,4.8C552.3,126.9,552,126.9,551.7,126.9L551.7,126.9z"/>
						<rect x="537.5" y="154.8" class="st3" width="8" height="200.7"/>
					</g>
					<g>
						<path class="st3" d="M625.6,293.8c-7.9,0-14.3-2.7-19-8c-10.8-12.2-8.3-33.8-8.2-34.7c0.2-2,2-3.5,4-3.5
							c9.8,0,17.8,5.7,23.1,16.6c0.2,0.4,0.4,0.8,0.6,1.2c5.7-10.3,16.6-15.9,23.3-17.7c1.1-0.3,2.4-0.1,3.3,0.6
							c1,0.7,1.6,1.8,1.7,2.9c0.1,0.9,1.7,22.5-9.4,34.6C640,291.1,633.5,293.8,625.6,293.8L625.6,293.8z M606.1,256.1
							c-0.1,6.1,0.5,17.7,6.5,24.5c3.2,3.6,7.4,5.3,13,5.3s10-1.8,13.3-5.4c5.8-6.3,7.2-16.7,7.4-23.1c-1.8,0.8-3.9,2-5.9,3.5
							c-6.8,5-10.2,11.5-10.2,19.3c0,2.1-1.6,3.8-3.7,4c-2.1,0.1-4-1.4-4.2-3.5C622.2,280.6,619.2,259.5,606.1,256.1L606.1,256.1z"
							/>
						<path class="st3" d="M625.6,345.5c-7.9,0-14.3-2.7-19-8c-10.8-12.2-8.3-33.8-8.2-34.7c0.2-2,2-3.5,4-3.5
							c9.8,0,17.8,5.7,23.1,16.6c0.2,0.4,0.4,0.8,0.6,1.2c5.7-10.3,16.6-15.9,23.3-17.7c1.1-0.3,2.4-0.1,3.3,0.6
							c1,0.7,1.6,1.8,1.7,2.9c0.1,0.9,1.7,22.5-9.4,34.6C640,342.8,633.5,345.5,625.6,345.5L625.6,345.5z M606.1,307.7
							c-0.1,6.1,0.5,17.7,6.5,24.5c3.2,3.6,7.4,5.3,13,5.3s10-1.8,13.3-5.4c5.8-6.3,7.2-16.7,7.4-23.1c-1.8,0.8-3.9,2-5.9,3.5
							c-6.8,5-10.2,11.5-10.2,19.3c0,2.1-1.6,3.8-3.7,4c-2.1,0.1-4-1.4-4.2-3.5C622.2,332.2,619.2,311.2,606.1,307.7L606.1,307.7z"
							/>
						<path class="st3" d="M625.6,392.3c-7.9,0-14.3-2.7-19-8c-10.8-12.2-8.3-33.8-8.2-34.7c0.2-2,2-3.5,4-3.5
							c9.8,0,17.8,5.7,23.1,16.6c0.2,0.4,0.4,0.8,0.6,1.2c5.7-10.3,16.6-15.9,23.3-17.7c1.1-0.3,2.4-0.1,3.3,0.6
							c1,0.7,1.6,1.8,1.7,2.9c0.1,0.9,1.7,22.5-9.4,34.6C640,389.6,633.5,392.3,625.6,392.3L625.6,392.3z M606.1,354.5
							c-0.1,6.1,0.5,17.7,6.5,24.5c3.2,3.6,7.4,5.3,13,5.3s10-1.8,13.3-5.4c5.8-6.3,7.2-16.7,7.4-23.1c-1.8,0.8-3.9,2-5.9,3.5
							c-6.8,5-10.2,11.5-10.2,19.3c0,2.1-1.6,3.8-3.7,4c-2.1,0.2-4-1.4-4.2-3.5C622.2,379,619.2,357.9,606.1,354.5L606.1,354.5z"/>
						<path class="st3" d="M625.6,246.6c-7.9,0-14.3-2.7-19-8c-10.8-12.2-8.3-33.8-8.2-34.7c0.2-2,2-3.5,4-3.5
							c9.8,0,17.8,5.7,23.1,16.6c0.2,0.4,0.4,0.8,0.6,1.2c5.7-10.3,16.6-15.9,23.3-17.7c1.1-0.3,2.4-0.1,3.3,0.6s1.6,1.8,1.7,2.9
							c0.1,0.9,1.7,22.5-9.4,34.6C640,243.9,633.5,246.6,625.6,246.6L625.6,246.6z M606.1,208.9c-0.1,6.1,0.5,17.7,6.5,24.5
							c3.2,3.6,7.4,5.3,13,5.3s10-1.8,13.3-5.4c5.8-6.3,7.2-16.7,7.4-23c-1.8,0.8-3.9,2-5.9,3.5c-6.8,5-10.2,11.5-10.2,19.3
							c0,2.1-1.6,3.8-3.7,4c-2.1,0.1-4-1.4-4.2-3.5C622.2,233.4,619.2,212.3,606.1,208.9L606.1,208.9z"/>
						<path class="st3" d="M636.4,214.7c-1.8,0-3.5-1.3-3.9-3.2c-1.2-5.7-3.5-10.6-6.5-14.4c-1.8,2.3-4.2,6.6-5.7,14.2
							c-0.4,2.2-2.5,3.6-4.7,3.2c-2.2-0.4-3.6-2.5-3.2-4.7c3.2-16.8,11-21.4,11.9-21.8c1.5-0.8,3.4-0.5,4.6,0.6
							c5.6,5.3,9.5,12.5,11.4,21.3c0.5,2.2-0.9,4.3-3,4.8C637,214.7,636.7,214.7,636.4,214.7L636.4,214.7z"/>
						<rect x="622.2" y="242.6" class="st3" width="8" height="203.3"/>
					</g>
					<g>
						<g>
							<path class="st2" d="M823.8,174.6c0,0-4.3,36.3,22.1,36.3s23.4-36.3,23.4-36.3s-22.8,6-22.8,27.2
								C846.5,201.8,842.9,174.6,823.8,174.6z"/>
							<path class="st1" d="M845.9,214.9c-7.6,0-13.7-2.6-18.2-7.7c-10.3-11.6-8-32.3-7.9-33.2c0.2-2,2-3.5,4-3.5
								c9.5,0,17.1,5.5,22.1,15.9c0.1,0.3,0.2,0.5,0.4,0.8c5.5-9.7,15.8-14.9,22.1-16.5c1.2-0.3,2.4-0.1,3.3,0.6s1.6,1.8,1.7,2.9
								c0.1,0.9,1.7,21.5-9,33C859.7,212.3,853.5,214.9,845.9,214.9L845.9,214.9z M827.6,179.1c-0.1,5.8,0.5,16.6,6.2,22.9
								c3,3.3,7,5,12.2,5s9.4-1.7,12.5-5c5.4-5.9,6.7-15.5,7-21.5c-5.9,2.8-14.9,9.2-14.9,21.5c0,2.1-1.6,3.8-3.7,4
								c-2.1,0.1-4-1.4-4.2-3.5C842.5,202.1,839.7,182.5,827.6,179.1L827.6,179.1z"/>
						</g>
						<g>
							<path class="st2" d="M823.8,223.7c0,0-4.3,36.3,22.1,36.3s23.4-36.3,23.4-36.3s-22.8,6-22.8,27.2
								C846.5,250.9,842.9,223.7,823.8,223.7z"/>
							<path class="st1" d="M845.9,264c-7.6,0-13.7-2.6-18.2-7.7c-10.3-11.6-8-32.3-7.9-33.2c0.2-2,2-3.5,4-3.5
								c9.5,0,17.1,5.5,22.1,15.9c0.1,0.3,0.2,0.5,0.4,0.8c5.5-9.7,15.8-14.9,22.1-16.5c1.2-0.3,2.4-0.1,3.3,0.6
								c1,0.7,1.6,1.8,1.7,2.9c0.1,0.9,1.7,21.4-9,33C859.7,261.4,853.5,264,845.9,264L845.9,264z M827.6,228.2
								c-0.1,5.8,0.5,16.6,6.2,22.9c3,3.3,7,5,12.2,5s9.4-1.7,12.5-5.1c5.4-5.9,6.7-15.5,7-21.5c-5.9,2.8-14.9,9.2-14.9,21.4
								c0,2.1-1.6,3.8-3.7,4c-2.1,0.1-4-1.4-4.2-3.5C842.5,251.2,839.7,231.6,827.6,228.2L827.6,228.2z"/>
						</g>
						<g>
							<path class="st2" d="M823.8,268.1c0,0-4.3,36.3,22.1,36.3s23.4-36.3,23.4-36.3s-22.8,6-22.8,27.2
								C846.5,295.4,842.9,268.1,823.8,268.1z"/>
							<path class="st1" d="M845.9,308.5c-7.6,0-13.7-2.6-18.2-7.7c-10.3-11.6-8-32.3-7.9-33.2c0.2-2,2-3.5,4-3.5
								c9.5,0,17.1,5.5,22.1,15.9c0.1,0.3,0.2,0.5,0.4,0.8c5.5-9.7,15.8-14.9,22.1-16.5c1.2-0.3,2.4-0.1,3.3,0.6
								c1,0.7,1.6,1.8,1.7,2.9c0.1,0.9,1.7,21.4-9,33C859.7,305.9,853.5,308.5,845.9,308.5L845.9,308.5z M827.6,272.6
								c-0.1,5.8,0.5,16.6,6.2,22.9c3,3.3,7,5,12.2,5s9.4-1.7,12.5-5.1c5.4-5.9,6.7-15.5,7-21.5c-5.9,2.8-14.9,9.2-14.9,21.4
								c0,2.1-1.6,3.8-3.7,4s-4-1.4-4.2-3.5C842.5,295.7,839.7,276.1,827.6,272.6L827.6,272.6z"/>
						</g>
						<g>
							<path class="st2" d="M823.8,129.7c0,0-4.3,36.3,22.1,36.3s23.4-36.3,23.4-36.3s-22.8,6-22.8,27.2
								C846.5,156.9,842.9,129.7,823.8,129.7z"/>
							<path class="st1" d="M845.9,170c-7.6,0-13.7-2.6-18.2-7.7c-10.3-11.6-8-32.3-7.9-33.2c0.2-2,2-3.5,4-3.5
								c9.5,0,17.1,5.5,22.1,15.9c0.1,0.3,0.2,0.5,0.4,0.8c5.5-9.7,15.8-14.9,22.1-16.5c1.2-0.3,2.4-0.1,3.3,0.6s1.6,1.8,1.7,2.9
								c0.1,0.9,1.7,21.5-9,33C859.7,167.4,853.5,170,845.9,170L845.9,170z M827.6,134.2c-0.1,5.8,0.5,16.6,6.2,22.9
								c3,3.3,7,5,12.2,5s9.4-1.7,12.5-5c5.4-5.9,6.7-15.5,7-21.5c-5.9,2.8-14.9,9.2-14.9,21.5c0,2.1-1.6,3.8-3.7,4s-4-1.4-4.2-3.5
								C842.5,157.2,839.7,137.6,827.6,134.2L827.6,134.2z"/>
						</g>
						<path class="st1" d="M856.2,139.7c-1.8,0-3.5-1.3-3.9-3.2c-1.2-5.3-3.2-9.8-6-13.4c-1.7,2.2-3.9,6.2-5.2,13.2
							c-0.4,2.2-2.5,3.6-4.7,3.2c-2.2-0.4-3.6-2.5-3.2-4.7c3.1-16.1,10.6-20.5,11.4-20.9c1.5-0.8,3.4-0.5,4.6,0.6
							c5.4,5.1,9,11.9,10.9,20.3c0.5,2.2-0.9,4.3-3,4.8C856.8,139.7,856.5,139.7,856.2,139.7L856.2,139.7z"/>
						<rect x="842.5" y="166" class="st1" width="8" height="190.8"/>
					</g>
					<g>
						<path class="st2" d="M766.4,136.3c-7.6,0-13.7-2.6-18.2-7.7c-10.3-11.6-8-32.3-7.9-33.2c0.2-2,2-3.5,4-3.5
							c9.5,0,17.1,5.5,22.1,15.9c0.1,0.3,0.2,0.5,0.4,0.8c5.5-9.7,15.8-14.9,22.1-16.5c1.2-0.3,2.4-0.1,3.3,0.6s1.6,1.8,1.7,2.9
							c0.1,0.9,1.7,21.5-9,33C780.2,133.7,774,136.3,766.4,136.3L766.4,136.3z M748.1,100.5c-0.1,5.8,0.5,16.6,6.2,22.9
							c3,3.3,7,5,12.2,5s9.4-1.7,12.5-5c5.4-5.9,6.7-15.5,7-21.5c-5.9,2.8-14.9,9.2-14.9,21.5c0,2.1-1.6,3.8-3.7,4s-4-1.4-4.2-3.5
							C763,123.5,760.2,103.9,748.1,100.5L748.1,100.5z"/>
						<path class="st2" d="M766.4,185.4c-7.6,0-13.7-2.6-18.2-7.7c-10.3-11.6-8-32.3-7.9-33.2c0.2-2,2-3.5,4-3.5
							c9.5,0,17.1,5.5,22.1,15.9c0.1,0.3,0.2,0.5,0.4,0.8c5.5-9.7,15.8-14.9,22.1-16.5c1.2-0.3,2.4-0.1,3.3,0.6s1.6,1.8,1.7,2.9
							c0.1,0.9,1.7,21.5-9,33C780.2,182.8,774,185.4,766.4,185.4L766.4,185.4z M748.1,149.6c-0.1,5.8,0.5,16.6,6.2,22.9
							c3,3.3,7,5,12.2,5s9.4-1.7,12.5-5c5.4-5.9,6.7-15.5,7-21.5c-5.9,2.8-14.9,9.2-14.9,21.5c0,2.1-1.6,3.8-3.7,4s-4-1.4-4.2-3.5
							C763,172.6,760.2,153,748.1,149.6L748.1,149.6z"/>
						<path class="st2" d="M766.4,91.4c-7.6,0-13.7-2.6-18.2-7.7c-10.3-11.6-8-32.3-7.9-33.2c0.2-2,2-3.5,4-3.5
							c9.5,0,17.1,5.5,22.1,15.9c0.1,0.3,0.2,0.5,0.4,0.8c5.5-9.7,15.8-14.9,22.1-16.5c1.2-0.3,2.4-0.1,3.3,0.6s1.6,1.8,1.7,2.9
							c0.1,0.9,1.7,21.5-9,33C780.2,88.8,774,91.4,766.4,91.4L766.4,91.4z M748.1,55.6c-0.1,5.8,0.5,16.6,6.2,22.9c3,3.3,7,5,12.2,5
							s9.4-1.7,12.5-5c5.4-5.9,6.7-15.5,7-21.5C780,59.7,771,66.1,771,78.3c0,2.1-1.6,3.8-3.7,4c-2.1,0.1-4-1.4-4.2-3.5
							C763,78.6,760.2,59,748.1,55.6L748.1,55.6z"/>
						<path class="st2" d="M776.7,61.1c-1.8,0-3.5-1.3-3.9-3.2c-1.2-5.3-3.2-9.8-6-13.4c-1.7,2.2-3.9,6.2-5.2,13.2
							c-0.4,2.2-2.5,3.6-4.7,3.2c-2.2-0.4-3.6-2.5-3.2-4.7c3.1-16.1,10.6-20.5,11.4-20.9c1.5-0.8,3.4-0.5,4.6,0.6
							c5.4,5.1,9,11.9,10.9,20.3c0.5,2.2-0.9,4.3-3,4.8C777.3,61.1,777,61.1,776.7,61.1L776.7,61.1z"/>
						<rect x="763" y="87.4" class="st2" width="8" height="129.3"/>
					</g>
					<g>
						<path class="st2" d="M950.8,256.7c-7.6,0-13.7-2.6-18.2-7.7c-10.3-11.6-8-32.3-7.9-33.2c0.2-2,2-3.5,4-3.5
							c9.5,0,17.1,5.5,22.1,15.9c0.1,0.3,0.2,0.5,0.4,0.8c5.5-9.7,15.8-14.9,22.1-16.5c1.2-0.3,2.4-0.1,3.3,0.6s1.6,1.8,1.7,2.9
							c0.1,0.9,1.7,21.5-9,33C964.5,254.1,958.3,256.7,950.8,256.7L950.8,256.7z M932.4,220.9c-0.1,5.8,0.5,16.6,6.2,22.9
							c3,3.3,7,5,12.2,5s9.4-1.7,12.5-5.1c5.4-5.9,6.7-15.5,7-21.5c-5.9,2.8-14.9,9.2-14.9,21.4c0,2.1-1.6,3.8-3.7,4
							c-2.1,0.1-4-1.4-4.2-3.5C947.3,243.9,944.5,224.3,932.4,220.9L932.4,220.9z"/>
						<path class="st2" d="M950.8,305.8c-7.6,0-13.7-2.6-18.2-7.7c-10.3-11.6-8-32.3-7.9-33.2c0.2-2,2-3.5,4-3.5
							c9.5,0,17.1,5.5,22.1,15.9c0.1,0.3,0.2,0.5,0.4,0.8c5.5-9.7,15.8-14.9,22.1-16.5c1.1-0.3,2.4-0.1,3.3,0.6
							c1,0.7,1.6,1.8,1.7,2.9c0.1,0.9,1.7,21.4-9,33C964.5,303.2,958.3,305.8,950.8,305.8L950.8,305.8z M932.4,270
							c-0.1,5.8,0.5,16.6,6.2,22.9c3,3.3,7,5,12.2,5s9.4-1.7,12.5-5.1c5.4-5.9,6.7-15.5,7-21.5c-5.9,2.8-14.9,9.2-14.9,21.4
							c0,2.1-1.6,3.8-3.7,4c-2.1,0.1-4-1.4-4.2-3.5C947.3,293,944.5,273.4,932.4,270L932.4,270z"/>
						<path class="st2" d="M950.8,350.3c-7.6,0-13.7-2.6-18.2-7.7c-10.3-11.6-8-32.3-7.9-33.2c0.2-2,2-3.5,4-3.5
							c9.5,0,17.1,5.5,22.1,15.9c0.1,0.3,0.2,0.5,0.4,0.8c5.5-9.7,15.8-14.9,22.1-16.5c1.2-0.3,2.4-0.1,3.3,0.6
							c1,0.7,1.6,1.8,1.7,2.9c0.1,0.9,1.7,21.4-9,33C964.5,347.7,958.3,350.3,950.8,350.3L950.8,350.3z M932.4,314.5
							c-0.1,5.8,0.5,16.6,6.2,22.9c3,3.3,7,5,12.2,5s9.4-1.7,12.5-5.1c5.4-5.9,6.7-15.5,7-21.5c-5.9,2.8-14.9,9.2-14.9,21.4
							c0,2.1-1.6,3.8-3.7,4c-2.1,0.1-4-1.4-4.2-3.5C947.3,337.5,944.5,317.9,932.4,314.5L932.4,314.5z"/>
						<path class="st2" d="M950.8,211.9c-7.6,0-13.7-2.6-18.2-7.7c-10.3-11.6-8-32.3-7.9-33.2c0.2-2,2-3.5,4-3.5
							c9.5,0,17.1,5.5,22.1,15.9c0.1,0.3,0.2,0.5,0.4,0.8c5.5-9.7,15.8-14.9,22.1-16.5c1.1-0.3,2.4-0.1,3.3,0.6s1.6,1.8,1.7,2.9
							c0.1,0.9,1.7,21.5-9,33C964.5,209.3,958.3,211.8,950.8,211.9L950.8,211.9z M932.4,176c-0.1,5.8,0.5,16.6,6.2,22.9
							c3,3.3,7,5,12.2,5s9.4-1.7,12.5-5c5.4-5.9,6.7-15.5,7-21.5c-5.9,2.8-14.9,9.2-14.9,21.5c0,2.1-1.6,3.8-3.7,4
							c-2.1,0.1-4-1.4-4.2-3.5C947.3,199.1,944.5,179.4,932.4,176L932.4,176z"/>
						<path class="st2" d="M961.1,181.5c-1.8,0-3.5-1.3-3.9-3.2c-1.2-5.3-3.2-9.8-6-13.4c-1.7,2.2-3.9,6.2-5.2,13.2
							c-0.4,2.2-2.5,3.6-4.7,3.2c-2.2-0.4-3.6-2.5-3.2-4.7c3.1-16.1,10.6-20.5,11.4-20.9c1.5-0.8,3.4-0.5,4.6,0.6
							c5.4,5.1,9,11.9,10.9,20.3c0.5,2.2-0.9,4.3-3,4.8C961.6,181.5,961.3,181.5,961.1,181.5L961.1,181.5z"/>
						<rect x="947.3" y="207.9" class="st2" width="8" height="193.2"/>
					</g>
					<g>
						<path class="st2" d="M1037.6,303.3c-7.6,0-13.7-2.6-18.2-7.7c-10.3-11.6-8-32.3-7.9-33.2c0.2-2,2-3.5,4-3.5
							c9.5,0,17.1,5.5,22.1,15.9c0.1,0.3,0.2,0.5,0.4,0.8c5.5-9.7,15.8-14.9,22.1-16.5c1.1-0.3,2.4-0.1,3.3,0.6
							c1,0.7,1.6,1.8,1.7,2.9c0.1,0.9,1.7,21.4-9,33C1051.4,300.7,1045.2,303.3,1037.6,303.3L1037.6,303.3z M1019.2,267.4
							c-0.1,5.8,0.5,16.6,6.2,22.9c3,3.3,7,5,12.2,5s9.4-1.7,12.5-5.1c5.1-5.6,6.7-15,7-21.5c-5.9,2.8-14.9,9.2-14.9,21.4
							c0,2.1-1.6,3.8-3.7,4c-2.1,0.1-3.9-1.4-4.2-3.5C1034.2,290.5,1031.4,270.9,1019.2,267.4L1019.2,267.4z"/>
						<path class="st2" d="M1037.6,352.4c-7.6,0-13.7-2.6-18.2-7.7c-10.3-11.6-8-32.3-7.9-33.2c0.2-2,2-3.5,4-3.5
							c9.5,0,17.1,5.5,22.1,15.9c0.1,0.3,0.2,0.5,0.4,0.8c5.5-9.7,15.8-14.9,22.1-16.5c1.1-0.3,2.4-0.1,3.3,0.6
							c1,0.7,1.6,1.8,1.7,2.9c0.1,0.9,1.7,21.5-9,33C1051.4,349.8,1045.2,352.4,1037.6,352.4L1037.6,352.4z M1019.2,316.6
							c-0.1,5.8,0.5,16.6,6.2,22.9c3,3.3,7,5,12.2,5s9.4-1.7,12.5-5.1c5.4-5.9,6.7-15.5,7-21.5c-5.9,2.8-14.9,9.2-14.9,21.4
							c0,2.1-1.6,3.8-3.7,4c-2.1,0.1-3.9-1.4-4.2-3.5C1034.2,339.6,1031.4,320,1019.2,316.6L1019.2,316.6z"/>
						<path class="st2" d="M1037.6,396.9c-7.6,0-13.7-2.6-18.2-7.7c-10.3-11.6-8-32.3-7.9-33.2c0.2-2,2-3.5,4-3.5
							c9.5,0,17.1,5.5,22.1,15.9c0.1,0.3,0.2,0.5,0.4,0.8c5.5-9.7,15.8-14.9,22.1-16.5c1.1-0.3,2.4-0.1,3.3,0.6
							c1,0.7,1.6,1.8,1.7,2.9c0.1,0.9,1.7,21.5-9,33C1051.4,394.3,1045.2,396.8,1037.6,396.9L1037.6,396.9z M1019.2,361
							c-0.1,5.8,0.5,16.6,6.2,22.9c3,3.3,7,5,12.2,5s9.4-1.7,12.5-5.1c5.4-5.9,6.7-15.5,7-21.5c-5.9,2.8-14.9,9.2-14.9,21.4
							c0,2.1-1.6,3.8-3.7,4c-2.1,0.2-3.9-1.4-4.2-3.5C1034.2,384.1,1031.4,364.4,1019.2,361L1019.2,361z"/>
						<path class="st2" d="M1037.6,258.4c-7.6,0-13.7-2.6-18.2-7.7c-10.3-11.6-8-32.3-7.9-33.2c0.2-2,2-3.5,4-3.5
							c9.5,0,17.1,5.5,22.1,15.9c0.1,0.3,0.2,0.5,0.4,0.8c5.5-9.7,15.8-14.9,22.1-16.5c1.1-0.3,2.4-0.1,3.3,0.6s1.6,1.8,1.7,2.9
							c0.1,0.9,1.7,21.5-9,33C1051.4,255.8,1045.2,258.4,1037.6,258.4L1037.6,258.4z M1019.2,222.6c-0.1,5.8,0.5,16.6,6.2,22.9
							c3,3.3,7,5,12.2,5s9.4-1.7,12.5-5.1c5.4-5.9,6.7-15.5,7-21.5c-5.9,2.8-14.9,9.2-14.9,21.4c0,2.1-1.6,3.8-3.7,4
							c-2.1,0.1-3.9-1.4-4.2-3.5C1034.2,245.6,1031.4,226,1019.2,222.6L1019.2,222.6z"/>
						<path class="st2" d="M1047.9,228.1c-1.8,0-3.5-1.3-3.9-3.2c-1.2-5.3-3.2-9.8-6-13.4c-1.7,2.2-3.9,6.2-5.2,13.2
							c-0.4,2.2-2.5,3.6-4.7,3.2c-2.2-0.4-3.6-2.5-3.2-4.7c3.1-16.1,10.6-20.5,11.4-20.9c1.5-0.8,3.4-0.5,4.6,0.6
							c5.4,5.1,9,11.9,10.9,20.3c0.5,2.2-0.9,4.3-3.1,4.8C1048.5,228.1,1048.2,228.1,1047.9,228.1L1047.9,228.1z"/>
						<rect x="1034.2" y="254.4" class="st2" width="8" height="193.2"/>
					</g>
					<g>
						<path class="st3" d="M1198,163.4c-6.9,0-12.4-2.3-16.5-7c-9.3-10.5-7.2-29.1-7.1-29.8c0.2-2,1.9-3.5,4-3.5
							c8.6,0,15.5,5,20.1,14.3c5.1-8.3,13.9-12.8,19.5-14.2c1.1-0.3,2.4-0.1,3.3,0.6s1.6,1.8,1.7,2.9c0.1,0.8,1.5,19.3-8.1,29.7
							C1210.5,161.1,1204.8,163.4,1198,163.4L1198,163.4z M1182.1,131.7c0,5.2,0.7,14.2,5.4,19.5c2.6,2.9,6,4.3,10.5,4.3
							s8.1-1.4,10.8-4.3c4.5-4.9,5.8-12.8,6-18.1c-5.1,2.6-12.3,8.1-12.3,18.4c0,2.1-1.6,3.8-3.7,4c-2.1,0.1-3.9-1.4-4.2-3.5
							c0,0-0.8-5.7-3.4-11.1C1188.7,135.9,1185.7,132.9,1182.1,131.7L1182.1,131.7z"/>
						<path class="st3" d="M1198,207.1c-6.9,0-12.4-2.3-16.5-7c-9.3-10.5-7.2-29.1-7.1-29.8c0.2-2,1.9-3.5,4-3.5
							c8.6,0,15.5,5,20.1,14.3c5.1-8.3,13.9-12.8,19.5-14.2c1.1-0.3,2.4-0.1,3.3,0.6s1.6,1.8,1.7,2.9c0.1,0.8,1.5,19.3-8.1,29.7
							C1210.5,204.8,1204.8,207.1,1198,207.1L1198,207.1z M1182.1,175.4c0,5.2,0.7,14.2,5.4,19.5c2.6,2.9,6,4.3,10.5,4.3
							s8.1-1.4,10.8-4.4c4.3-4.7,5.7-12.4,6.1-18.1c-5.1,2.6-12.4,8.1-12.4,18.4c0,2.1-1.6,3.8-3.7,4c-2.1,0.1-3.9-1.4-4.2-3.5
							c0,0-0.8-5.7-3.4-11.1C1188.7,179.7,1185.7,176.6,1182.1,175.4L1182.1,175.4z"/>
						<path class="st3" d="M1198,246.7c-6.9,0-12.4-2.3-16.5-7c-9.3-10.5-7.2-29.1-7.1-29.8c0.2-2,1.9-3.5,4-3.5
							c8.6,0,15.5,5,20.1,14.3c5.1-8.3,13.9-12.8,19.5-14.2c1.1-0.3,2.4-0.1,3.3,0.6s1.6,1.8,1.7,2.9c0.1,0.8,1.5,19.3-8.1,29.7
							C1210.5,244.4,1204.8,246.7,1198,246.7L1198,246.7z M1182.1,215c0,5.2,0.7,14.2,5.4,19.5c2.6,2.9,6,4.3,10.5,4.3
							s8.1-1.4,10.8-4.3c4.5-4.9,5.8-12.8,6-18.1c-5.1,2.6-12.3,8.1-12.3,18.4c0,2.1-1.6,3.8-3.7,4c-2.1,0.1-3.9-1.4-4.2-3.5
							c0-0.1-0.8-5.7-3.4-11.1C1188.7,219.2,1185.7,216.2,1182.1,215L1182.1,215z"/>
						<path class="st3" d="M1198,123.5c-6.9,0-12.4-2.3-16.5-7c-9.3-10.5-7.2-29.1-7.1-29.8c0.2-2,1.9-3.5,4-3.5
							c8.6,0,15.5,5,20.1,14.3c5.1-8.3,13.9-12.8,19.5-14.2c1.1-0.3,2.4-0.1,3.3,0.6s1.6,1.8,1.7,2.9c0.1,0.8,1.5,19.3-8.1,29.7
							C1210.5,121.2,1204.8,123.5,1198,123.5L1198,123.5z M1182.1,91.7c0,5.2,0.7,14.2,5.4,19.5c2.6,2.9,6,4.3,10.5,4.3
							s8.1-1.4,10.8-4.3c4.5-4.9,5.8-12.8,6-18.1c-5.1,2.6-12.3,8.1-12.3,18.4c0,2.1-1.6,3.8-3.7,4c-2.1,0.1-3.9-1.4-4.2-3.5
							c0,0-0.8-5.7-3.4-11.1C1188.7,96,1185.7,92.9,1182.1,91.7L1182.1,91.7z"/>
						<path class="st3" d="M1207.2,96.5c-1.8,0-3.5-1.3-3.9-3.2c-1-4.5-2.6-8.2-4.9-11.3c-1.4,2-3.1,5.4-4.2,11.1
							c-0.4,2.2-2.5,3.6-4.7,3.2c-2.2-0.4-3.6-2.5-3.2-4.7c2.8-14.5,9.6-18.5,10.4-18.9c1.5-0.8,3.4-0.5,4.6,0.6
							c4.8,4.6,8.2,10.7,9.8,18.3c0.5,2.2-0.9,4.3-3.1,4.8C1207.7,96.5,1207.4,96.5,1207.2,96.5L1207.2,96.5z"/>
						<rect x="1194.5" y="119.5" class="st3" width="8" height="178.3"/>
					</g>
					<g>
						<g>
							<path class="st1" d="M1265.6,183.1c0,0-3.9,32.3,19.7,32.3s20.8-32.3,20.8-32.3s-20.3,5.3-20.3,24.2
								C1285.8,207.3,1282.6,183.1,1265.6,183.1z"/>
							<path class="st3" d="M1285.3,219.4c-6.9,0-12.4-2.3-16.5-7c-9.3-10.5-7.2-29.1-7.1-29.8c0.2-2,1.9-3.5,4-3.5
								c8.6,0,15.5,5,20.1,14.3c5.1-8.3,13.9-12.8,19.5-14.2c1.1-0.3,2.4-0.1,3.3,0.6s1.6,1.8,1.7,2.9c0.1,0.8,1.5,19.3-8.1,29.7
								C1297.8,217.1,1292.2,219.4,1285.3,219.4z M1269.4,187.7c0,5.2,0.7,14.2,5.4,19.5c2.6,2.9,6,4.3,10.5,4.3s8.1-1.4,10.8-4.3
								c4.5-4.9,5.8-12.8,6-18.1c-5.1,2.6-12.3,8.1-12.3,18.4c0,2.1-1.6,3.8-3.7,4s-3.9-1.4-4.2-3.5c0,0-0.8-5.7-3.4-11.1
								C1276,191.9,1273,188.9,1269.4,187.7L1269.4,187.7z"/>
						</g>
						<g>
							<path class="st1" d="M1265.6,226.8c0,0-3.9,32.3,19.7,32.3s20.8-32.3,20.8-32.3s-20.3,5.3-20.3,24.2
								C1285.8,251,1282.6,226.8,1265.6,226.8z"/>
							<path class="st3" d="M1285.3,263.1c-6.9,0-12.4-2.3-16.5-7c-9.3-10.5-7.2-29.1-7.1-29.8c0.2-2,1.9-3.5,4-3.5
								c8.6,0,15.5,5,20.1,14.3c5.1-8.3,13.9-12.8,19.5-14.2c1.1-0.3,2.4-0.1,3.3,0.6c1,0.7,1.6,1.8,1.7,2.9
								c0.1,0.8,1.5,19.3-8.1,29.7C1297.8,260.8,1292.2,263.1,1285.3,263.1L1285.3,263.1z M1269.4,231.4c0,5.2,0.7,14.2,5.4,19.5
								c2.6,2.9,6,4.3,10.5,4.3s8.1-1.4,10.8-4.4c4.3-4.7,5.7-12.4,6-18.1c-5.1,2.6-12.4,8.1-12.4,18.4c0,2.1-1.6,3.8-3.7,4
								c-2.1,0.2-3.9-1.4-4.2-3.5c0-0.1-0.8-5.7-3.4-11.1C1276,235.7,1273,232.6,1269.4,231.4L1269.4,231.4z"/>
						</g>
						<g>
							<path class="st1" d="M1265.6,266.4c0,0-3.9,32.3,19.7,32.3s20.8-32.3,20.8-32.3s-20.3,5.3-20.3,24.2
								C1285.8,290.6,1282.6,266.4,1265.6,266.4z"/>
							<path class="st3" d="M1285.3,302.7c-6.9,0-12.4-2.3-16.5-7c-9.3-10.5-7.2-29.1-7.1-29.8c0.2-2,1.9-3.5,4-3.5
								c8.6,0,15.5,5,20.1,14.3c5.1-8.3,13.9-12.8,19.5-14.2c1.1-0.3,2.4-0.1,3.3,0.6c1,0.7,1.6,1.8,1.7,2.9
								c0.1,0.8,1.5,19.3-8.1,29.7C1297.8,300.4,1292.2,302.7,1285.3,302.7z M1269.4,271c0,5.2,0.7,14.2,5.4,19.5
								c2.6,2.9,6,4.3,10.5,4.3s8.1-1.4,10.8-4.3c4.5-4.9,5.8-12.8,6-18.1c-5.1,2.6-12.3,8.1-12.3,18.4c0,2.1-1.6,3.8-3.7,4
								s-3.9-1.4-4.2-3.5c0-0.1-0.8-5.7-3.4-11.1C1276,275.2,1273,272.2,1269.4,271L1269.4,271z"/>
						</g>
						<g>
							<path class="st1" d="M1265.6,143.1c0,0-3.9,32.3,19.7,32.3s20.8-32.3,20.8-32.3s-20.3,5.3-20.3,24.2
								C1285.8,167.4,1282.6,143.1,1265.6,143.1z"/>
							<path class="st3" d="M1285.3,179.5c-6.9,0-12.4-2.3-16.5-7c-9.3-10.5-7.2-29.1-7.1-29.8c0.2-2,1.9-3.5,4-3.5
								c8.6,0,15.5,5,20.1,14.3c5.1-8.3,13.9-12.8,19.5-14.2c1.2-0.3,2.4-0.1,3.3,0.6s1.6,1.8,1.7,2.9c0.1,0.8,1.5,19.3-8.1,29.7
								C1297.8,177.2,1292.2,179.5,1285.3,179.5z M1269.4,147.7c0,5.2,0.7,14.2,5.4,19.5c2.6,2.9,6,4.3,10.5,4.3s8.1-1.4,10.8-4.3
								c4.5-4.9,5.8-12.8,6-18.1c-5.1,2.6-12.3,8.1-12.3,18.4c0,2.1-1.6,3.8-3.7,4c-2.1,0.1-3.9-1.4-4.2-3.5c0,0-0.8-5.7-3.4-11.1
								C1276,152,1273,148.9,1269.4,147.7L1269.4,147.7z"/>
						</g>
						<g>
							<path class="st1" d="M1294.5,148.5c-1.2-5.4-3.7-11.5-8.7-16.2c0,0-5.8,3.1-8.3,16.1"/>
							<path class="st3" d="M1294.4,152.5c-1.8,0-3.5-1.3-3.9-3.2c-1-4.5-2.6-8.2-4.9-11.3c-1.4,2-3.1,5.4-4.2,11.1
								c-0.4,2.2-2.5,3.6-4.7,3.2c-2.2-0.4-3.6-2.5-3.2-4.7c2.8-14.5,9.6-18.5,10.4-18.9c1.5-0.8,3.4-0.5,4.6,0.6
								c4.8,4.6,8.2,10.7,9.8,18.3c0.5,2.2-0.9,4.3-3.1,4.8C1295,152.5,1294.7,152.5,1294.4,152.5L1294.4,152.5z"/>
						</g>
						<rect x="1281.8" y="175.5" class="st3" width="8" height="169.8"/>
					</g>
					<g>
						<path class="st3" d="M1357,278.3c-6.9,0-12.4-2.3-16.5-7c-9.3-10.5-7.2-29.1-7.1-29.8c0.2-2,1.9-3.5,4-3.5
							c8.6,0,15.5,5,20.1,14.3c5.1-8.3,13.9-12.8,19.5-14.2c1.1-0.3,2.4-0.1,3.3,0.6c1,0.7,1.6,1.8,1.7,2.9
							c0.1,0.8,1.5,19.3-8.1,29.7C1369.5,275.9,1363.8,278.3,1357,278.3L1357,278.3z M1341.1,246.5c0,5.2,0.7,14.2,5.4,19.5
							c2.6,2.9,6,4.3,10.5,4.3s8.1-1.4,10.8-4.4c4.3-4.7,5.7-12.4,6-18.1c-5.1,2.6-12.4,8.1-12.4,18.4c0,2.1-1.6,3.8-3.7,4
							c-2.1,0.1-3.9-1.4-4.2-3.5c0-0.1-0.8-5.7-3.4-11.1C1347.7,250.8,1344.7,247.7,1341.1,246.5L1341.1,246.5z"/>
						<path class="st3" d="M1357,322c-6.9,0-12.4-2.3-16.5-7c-9.3-10.5-7.2-29.1-7.1-29.8c0.2-2,1.9-3.5,4-3.5
							c8.6,0,15.5,5,20.1,14.3c5.1-8.3,13.9-12.8,19.5-14.2c1.1-0.3,2.4-0.1,3.3,0.6c1,0.7,1.6,1.8,1.7,2.9
							c0.1,0.8,1.5,19.3-8.1,29.7C1369.5,319.7,1363.8,322,1357,322z M1341.1,290.2c0,5.2,0.7,14.2,5.4,19.5c2.6,2.9,6,4.3,10.5,4.3
							s8.1-1.4,10.8-4.3c4.5-4.9,5.8-12.8,6-18.1c-5.1,2.6-12.3,8.1-12.3,18.4c0,2.1-1.6,3.8-3.7,4c-2.1,0.1-3.9-1.4-4.2-3.5
							c0-0.1-0.8-5.7-3.4-11.1C1347.7,294.5,1344.7,291.4,1341.1,290.2L1341.1,290.2z"/>
						<path class="st3" d="M1357,361.6c-6.9,0-12.4-2.3-16.5-7c-9.3-10.5-7.2-29.1-7.1-29.8c0.2-2,1.9-3.5,4-3.5
							c8.6,0,15.5,5,20.1,14.3c5.1-8.3,13.9-12.8,19.5-14.2c1.2-0.3,2.4-0.1,3.3,0.6c1,0.7,1.6,1.8,1.7,2.9
							c0.1,0.8,1.5,19.3-8.1,29.7C1369.5,359.2,1363.8,361.6,1357,361.6z M1341.1,329.8c0,5.2,0.7,14.2,5.4,19.5
							c2.6,2.9,6,4.3,10.5,4.3s8.1-1.4,10.8-4.3c4.5-4.9,5.8-12.8,6-18.1c-5.1,2.6-12.3,8.1-12.3,18.4c0,2.1-1.6,3.8-3.7,4
							c-2.1,0.1-3.9-1.4-4.2-3.5c0-0.1-0.8-5.7-3.4-11.1C1347.7,334.1,1344.7,331,1341.1,329.8L1341.1,329.8z"/>
						<path class="st3" d="M1357,238.3c-6.9,0-12.4-2.3-16.5-7c-9.3-10.5-7.2-29.1-7.1-29.8c0.2-2,1.9-3.5,4-3.5
							c8.6,0,15.5,5,20.1,14.3c5.1-8.3,13.9-12.8,19.5-14.2c1.1-0.3,2.4-0.1,3.3,0.6s1.6,1.8,1.7,2.9c0.1,0.8,1.5,19.3-8.1,29.7
							C1369.5,236,1363.8,238.3,1357,238.3L1357,238.3z M1341.1,206.6c0,5.2,0.7,14.2,5.4,19.5c2.6,2.9,6,4.3,10.5,4.3
							s8.1-1.4,10.8-4.4c4.3-4.7,5.7-12.4,6-18.1c-5.1,2.6-12.4,8.1-12.4,18.4c0,2.1-1.6,3.8-3.7,4c-2.1,0.1-3.9-1.4-4.2-3.5
							c0-0.1-0.8-5.7-3.4-11.1C1347.7,210.9,1344.7,207.8,1341.1,206.6L1341.1,206.6z"/>
						<path class="st3" d="M1366.2,211.4c-1.8,0-3.5-1.3-3.9-3.2c-1-4.5-2.6-8.2-4.9-11.3c-1.4,2-3.1,5.4-4.2,11.1
							c-0.4,2.2-2.5,3.6-4.7,3.2c-2.2-0.4-3.6-2.5-3.2-4.7c2.8-14.5,9.6-18.5,10.4-18.9c1.5-0.8,3.4-0.5,4.6,0.6
							c4.8,4.6,8.2,10.7,9.8,18.3c0.5,2.2-0.9,4.3-3.1,4.8C1366.7,211.3,1366.4,211.3,1366.2,211.4L1366.2,211.4z"/>
						<rect x="1353.5" y="234.3" class="st3" width="8" height="172"/>
					</g>
					<path class="st1" d="M576.2,78.7c3.1-15.7,11.5-31.5,27.9-43.6c7.3,22.9,14.2,47.3,0.6,69c-3.5,5.6-20.5,31.1-28.4,16
						C570.2,108.6,573.9,90.7,576.2,78.7L576.2,78.7z"/>
					<path class="st1" d="M616.7,100.3c0.5-16,6.1-32.9,20.3-47.6c11,21.4,21.9,44.3,12.1,68c-2.5,6.1-15.1,34-25.4,20.5
						C615.7,130.8,616.3,112.5,616.7,100.3z"/>
					<path class="st1" d="M656.8,147.2c-0.2-16,4.8-33.1,18.5-48.3c11.8,20.9,23.5,43.4,14.6,67.5c-2.3,6.2-13.8,34.6-24.6,21.5
						C657,177.7,656.9,159.4,656.8,147.2L656.8,147.2z"/>
					<path class="st1" d="M691.9,207.9c0.6-16,6.5-32.8,20.8-47.4c10.8,21.5,21.4,44.5,11.3,68.1c-2.6,6.1-15.5,33.9-25.6,20.2
						C690.6,238.4,691.4,220.1,691.9,207.9L691.9,207.9z"/>
				</g>
			</g>
		</g>
	</g>
</g>
</svg>
