<?xml version="1.0" encoding="UTF-8"?>
<svg xmlns="http://www.w3.org/2000/svg" xmlns:xlink="http://www.w3.org/1999/xlink" version="1.1" viewBox="0 0 1429.71 1177.07">
  <defs>
    <style>
      .cls-1 {
        fill: none;
      }

      .cls-2 {
        fill: #f27f1f;
      }

      .cls-3 {
        fill: #fdc905;
      }

      .cls-4 {
        fill: #fff;
      }

      .cls-5 {
        fill: #ffe400;
      }

      .cls-6 {
        clip-path: url(#clippath);
      }
    </style>
    <clipPath id="clippath">
      <rect class="cls-1" x="0" y="-.11" width="1429.71" height="1177.72"/>
    </clipPath>
  </defs>
  <!-- Generator: Adobe Illustrator 28.6.0, SVG Export Plug-In . SVG Version: 1.2.0 Build 709)  -->
  <g>
    <g id="fondo">
      <path class="cls-3" d="M1404.71,24.89v1127.72H25V24.89h1379.71M1429.71-.11H0v1177.72h1429.71V-.11h0Z"/>
      <g class="cls-6">
        <g>
          <path class="cls-5" d="M996.37,1157.63c-1.41,0-2.78-.75-3.51-2.08-17.74-32.33-45.5-64.33-82.5-95.09-29.72-24.71-65.42-48.68-106.11-71.23-69.4-38.46-130.02-59.72-130.62-59.93-2.09-.73-3.19-3.01-2.46-5.09.73-2.08,3-3.19,5.09-2.46.61.21,61.77,21.65,131.75,60.42,41.15,22.8,77.29,47.05,107.41,72.09,37.8,31.42,66.22,64.21,84.45,97.44,1.06,1.94.35,4.37-1.58,5.43-.61.33-1.27.49-1.92.49Z"/>
          <path class="cls-5" d="M1035.01,1157.63c-1.51,0-2.95-.86-3.63-2.31-15.63-33.52-43.63-66.39-83.23-97.7-31.86-25.19-71.23-49.41-117-71.98-78.11-38.51-148.68-59.1-149.38-59.31-2.12-.61-3.35-2.83-2.73-4.95.61-2.12,2.83-3.34,4.95-2.73.71.21,71.86,20.96,150.58,59.76,46.31,22.82,86.17,47.35,118.49,72.9,40.62,32.11,69.41,65.96,85.57,100.63.93,2,.07,4.38-1.93,5.32-.55.25-1.12.38-1.69.38Z"/>
          <path class="cls-5" d="M1081.38,1158.02c-1.2,0-2.38-.54-3.17-1.56-31.52-40.96-72.62-79.02-122.13-113.13-39.69-27.33-84.84-52.2-134.21-73.9-84.15-37-152.24-52.15-152.92-52.3-2.16-.47-3.52-2.61-3.05-4.76.47-2.16,2.6-3.53,4.76-3.05.68.15,69.41,15.43,154.26,52.72,49.85,21.91,95.48,47.02,135.6,74.65,50.24,34.59,91.97,73.25,124.02,114.9,1.35,1.75,1.02,4.26-.73,5.61-.73.56-1.58.83-2.44.83Z"/>
          <g>
            <path class="cls-3" d="M674.95,987.09c-.53,0-1.07-.11-1.59-.33-57.78-25.03-118.04-43.11-179.13-53.73-48.88-8.5-98.4-12.29-147.16-11.23-66.48,1.44-118.29,11.99-136.4,17.36-2.12.63-4.34-.58-4.97-2.69-.63-2.12.58-4.34,2.69-4.97.53-.16,54.13-15.84,138.2-17.69,49.32-1.09,99.39,2.71,148.82,11.3,61.78,10.73,122.72,29,181.14,54.31,2.03.88,2.96,3.23,2.08,5.26-.65,1.51-2.13,2.41-3.67,2.41Z"/>
            <path class="cls-3" d="M719.64,1010.97c-.53,0-1.07-.11-1.59-.33-57.84-25.06-118.18-43.15-179.33-53.77-48.92-8.5-98.47-12.26-147.27-11.18-83,1.83-135.57,17.2-136.09,17.36-2.12.63-4.34-.58-4.97-2.69s.58-4.34,2.69-4.97c.53-.16,54.13-15.84,138.2-17.69,49.32-1.09,99.39,2.71,148.82,11.3,61.78,10.73,122.72,29,181.14,54.31,2.03.88,2.96,3.23,2.08,5.26-.65,1.51-2.13,2.41-3.67,2.41Z"/>
            <path class="cls-3" d="M781.56,1033.65c-.53,0-1.07-.11-1.59-.33-57.78-25.03-118.04-43.11-179.13-53.73-48.88-8.5-98.39-12.29-147.17-11.23-66.48,1.44-118.29,11.99-136.4,17.36-2.12.63-4.34-.58-4.97-2.69-.63-2.12.58-4.34,2.69-4.97.53-.16,54.13-15.84,138.2-17.69,49.33-1.09,99.39,2.72,148.82,11.3,61.78,10.73,122.72,29,181.14,54.31,2.03.88,2.96,3.23,2.08,5.26-.65,1.51-2.13,2.41-3.67,2.41Z"/>
            <path class="cls-3" d="M848.14,1065.12c-.53,0-1.07-.11-1.59-.33-57.84-25.06-118.18-43.15-179.33-53.77-48.92-8.5-98.47-12.26-147.27-11.18-83,1.83-135.57,17.2-136.09,17.36-2.12.63-4.34-.58-4.97-2.69s.58-4.34,2.69-4.97c.53-.16,54.13-15.84,138.2-17.69,49.32-1.08,99.39,2.72,148.82,11.3,61.78,10.73,122.72,29,181.14,54.31,2.03.88,2.96,3.23,2.08,5.26-.65,1.51-2.13,2.41-3.67,2.41Z"/>
            <path class="cls-3" d="M907.66,1101.3c-.53,0-1.07-.11-1.59-.33-57.78-25.03-118.04-43.11-179.13-53.73-48.88-8.5-98.39-12.29-147.16-11.23-66.48,1.44-118.29,11.99-136.4,17.36-2.12.63-4.34-.58-4.97-2.69-.63-2.12.58-4.34,2.69-4.97.53-.16,54.13-15.84,138.2-17.69,49.32-1.09,99.39,2.71,148.82,11.3,61.78,10.73,122.72,29,181.14,54.31,2.03.88,2.96,3.23,2.08,5.26-.65,1.51-2.13,2.41-3.67,2.41Z"/>
            <path class="cls-3" d="M952.87,1141.85c-.53,0-1.07-.11-1.59-.33-57.78-25.03-118.04-43.11-179.13-53.73-48.88-8.5-98.4-12.28-147.16-11.23-66.48,1.44-118.29,11.99-136.4,17.36-2.12.63-4.34-.58-4.97-2.69-.63-2.12.58-4.34,2.69-4.97.53-.16,54.13-15.84,138.2-17.69,49.32-1.09,99.39,2.72,148.82,11.3,61.78,10.73,122.72,29,181.14,54.31,2.03.88,2.96,3.23,2.08,5.26-.65,1.51-2.13,2.41-3.67,2.41Z"/>
            <path class="cls-3" d="M994.59,1174.89c-.53,0-1.07-.11-1.59-.33-57.84-25.06-118.18-43.15-179.33-53.77-48.92-8.5-98.47-12.27-147.27-11.18-83,1.83-135.57,17.2-136.09,17.36-2.12.63-4.34-.58-4.97-2.69s.58-4.34,2.69-4.97c.53-.16,54.13-15.84,138.2-17.69,49.32-1.09,99.39,2.71,148.82,11.3,61.78,10.73,122.72,29,181.14,54.31,2.03.88,2.96,3.23,2.08,5.26-.65,1.51-2.13,2.41-3.67,2.41Z"/>
          </g>
          <g>
            <path class="cls-3" d="M902.78,940.4c-1.41,0-2.79-.75-3.51-2.08-1.06-1.94-.35-4.37,1.59-5.43.5-.28,51.44-27.86,138.88-47.87,51.28-11.73,104.98-18.63,159.58-20.49,68.24-2.33,138.11,3.23,207.67,16.53,2.17.42,3.59,2.51,3.18,4.68-.42,2.17-2.51,3.59-4.68,3.18-68.9-13.17-138.09-18.68-205.66-16.4-54.06,1.83-107.21,8.64-157.97,20.23-69.18,15.79-119.96,37.75-137.15,47.16-.61.33-1.27.49-1.92.49Z"/>
            <path class="cls-3" d="M951.74,953.45c-1.39,0-2.74-.72-3.48-2.02-1.1-1.92-.43-4.36,1.49-5.46.48-.28,49.1-27.76,130.53-48.72,47.77-12.3,97.39-20.01,147.47-22.92,62.6-3.64,126.1.26,188.76,11.59,2.17.39,3.62,2.47,3.22,4.65-.39,2.17-2.47,3.61-4.65,3.22-61.96-11.2-124.76-15.07-186.66-11.49-49.53,2.86-98.6,10.47-145.85,22.62-64.4,16.55-112.45,38.64-128.85,48-.62.36-1.31.53-1.98.53Z"/>
            <path class="cls-3" d="M1017.2,961.43c-1.39,0-2.74-.72-3.48-2.02-1.1-1.92-.43-4.36,1.49-5.46.48-.28,49.1-27.76,130.53-48.72,47.77-12.3,97.39-20.01,147.47-22.92,62.6-3.64,126.1.26,188.76,11.59,2.17.39,3.62,2.47,3.22,4.65-.39,2.17-2.47,3.61-4.65,3.22-61.96-11.2-124.76-15.07-186.66-11.49-49.53,2.86-98.6,10.47-145.85,22.62-64.4,16.55-112.45,38.64-128.85,48-.62.36-1.31.53-1.98.53Z"/>
            <path class="cls-3" d="M1089.19,976.89c-1.39,0-2.74-.72-3.48-2.02-1.1-1.92-.43-4.36,1.49-5.46.48-.28,49.1-27.76,130.53-48.72,47.77-12.3,97.39-20.01,147.47-22.92,62.6-3.64,126.1.26,188.76,11.59,2.17.39,3.62,2.47,3.22,4.65-.39,2.17-2.47,3.62-4.65,3.22-62.03-11.21-124.9-15.08-186.87-11.47-49.57,2.88-98.67,10.51-145.94,22.68-80.4,20.7-128.08,47.65-128.55,47.92-.63.36-1.31.53-1.98.53Z"/>
            <path class="cls-3" d="M1155.4,998.54c-1.39,0-2.74-.72-3.48-2.02-1.1-1.92-.43-4.36,1.49-5.46.48-.28,49.1-27.76,130.53-48.72,47.77-12.3,97.39-20.01,147.47-22.92,62.6-3.64,126.1.26,188.76,11.59,2.17.39,3.62,2.47,3.22,4.65-.39,2.17-2.47,3.62-4.65,3.22-61.96-11.2-124.76-15.07-186.66-11.49-49.53,2.86-98.6,10.47-145.85,22.62-64.4,16.55-112.45,38.64-128.85,48-.62.36-1.31.53-1.98.53Z"/>
            <path class="cls-3" d="M1208.66,1027.72c-1.39,0-2.74-.72-3.48-2.02-1.1-1.92-.43-4.36,1.49-5.46.48-.28,49.1-27.76,130.53-48.72,47.77-12.3,97.39-20.01,147.47-22.92,62.6-3.64,126.1.26,188.76,11.59,2.17.39,3.62,2.47,3.22,4.65-.39,2.17-2.47,3.61-4.65,3.22-61.96-11.2-124.76-15.07-186.66-11.49-49.53,2.86-98.6,10.47-145.85,22.62-64.4,16.55-112.45,38.64-128.85,48-.62.36-1.31.53-1.98.53Z"/>
            <path class="cls-3" d="M1256.81,1050.38c-1.39,0-2.74-.72-3.48-2.02-1.1-1.92-.43-4.36,1.49-5.46.48-.28,49.1-27.76,130.53-48.72,47.77-12.3,97.39-20.01,147.47-22.92,62.6-3.63,126.1.26,188.76,11.59,2.17.39,3.62,2.47,3.22,4.65-.39,2.17-2.47,3.62-4.65,3.22-62.03-11.21-124.9-15.08-186.87-11.47-49.57,2.88-98.67,10.51-145.94,22.68-80.4,20.7-128.08,47.65-128.55,47.92-.63.36-1.31.53-1.98.53Z"/>
          </g>
          <path class="cls-3" d="M0,872.61s476.43,93.07,619.72,304.46H0v-304.46Z"/>
          <path class="cls-3" d="M115.03,1008.78c-.49-38.97-.98-77.96.74-116.9.79-17.79,2.39-36.61,12.81-51.05,2.66-3.69,6.24-7.21,10.76-7.77,5.05-.62,9.92,2.76,12.55,7.11,2.64,4.35,3.49,9.51,4.23,14.55,6.49,44.22,7.95,89.18,4.34,133.73-.6,7.38-1.39,14.94-4.72,21.55-5.88,11.64-18.4,18.13-30.26,23.55"/>
          <path class="cls-3" d="M209.44,1035.86c-.49-38.97-.98-77.96.74-116.9.79-17.79,2.39-36.61,12.81-51.05,2.66-3.69,6.24-7.21,10.76-7.77,5.05-.62,9.92,2.76,12.55,7.11s3.49,9.51,4.23,14.55c6.49,44.22,7.95,89.18,4.34,133.73-.6,7.38-1.39,14.94-4.72,21.55-5.88,11.64-18.4,18.13-30.26,23.55"/>
          <path class="cls-5" d="M220.35,953.05c3.1-25.3,11.47-50.56,27.92-70.02,7.34,36.8,14.25,76,.64,110.97-3.5,8.99-20.55,49.93-28.43,25.76-6.1-18.71-2.49-47.48-.14-66.72Z"/>
          <path class="cls-3" d="M1287.24,1129.05c-.65-51.9-1.3-103.83.99-155.68,1.05-23.69,3.19-48.75,17.06-67.99,3.55-4.92,8.31-9.6,14.33-10.34,6.72-.83,13.21,3.67,16.72,9.46,3.51,5.79,4.65,12.67,5.63,19.37,8.64,58.89,10.58,118.76,5.79,178.09-.79,9.82-1.85,19.9-6.29,28.7-7.83,15.5-24.5,24.14-40.3,31.36"/>
          <path class="cls-5" d="M1301.77,1018.78c4.13-33.69,15.28-67.33,37.19-93.25,9.77,49.01,18.98,101.22.86,147.79-4.66,11.98-27.37,66.49-37.87,34.31-8.13-24.91-3.32-63.23-.18-88.85Z"/>
          <path class="cls-5" d="M318.46,1011.36c-1.66-25.43,1.87-51.81,14.42-73.99,14.05,34.8,28.13,72.03,21.26,108.92-1.77,9.49-10.91,52.88-23.15,30.6-9.47-17.25-11.28-46.19-12.54-65.53Z"/>
          <path class="cls-5" d="M355.86,1095.95c-1.66-25.43,1.87-51.81,14.42-73.99,14.05,34.8,28.13,72.03,21.26,108.92-1.77,9.49-10.91,52.88-23.15,30.6-9.47-17.25-11.28-46.19-12.54-65.53Z"/>
          <path class="cls-3" d="M626.59,932.5c-1.66-25.43,1.87-51.81,14.42-73.99,14.05,34.8,28.13,72.03,21.26,108.92-1.77,9.49-10.91,52.88-23.15,30.6-9.47-17.25-11.28-46.19-12.54-65.53Z"/>
          <path class="cls-3" d="M557.77,930.99c-1.66-25.43,1.87-51.81,14.42-73.99,14.05,34.8,28.13,72.03,21.26,108.92-1.77,9.49-10.91,52.88-23.15,30.6-9.47-17.25-11.28-46.19-12.54-65.53Z"/>
          <path class="cls-3" d="M590.55,912.59c-1.66-25.43,1.87-51.81,14.42-73.99,14.05,34.8,28.13,72.03,21.26,108.92-1.77,9.49-10.91,52.88-23.15,30.6-9.47-17.25-11.28-46.19-12.54-65.53Z"/>
          <path class="cls-3" d="M523.08,918.7c.12-16.05,5.42-33.06,19.34-48.02,11.47,21.15,22.8,43.84,13.47,67.76-2.4,6.15-14.42,34.36-24.96,21.04-8.16-10.31-7.94-28.58-7.85-40.78Z"/>
          <path class="cls-3" d="M455.27,922.49c.12-16.05,5.42-33.06,19.34-48.02,11.47,21.15,22.8,43.84,13.47,67.76-2.4,6.15-14.42,34.36-24.96,21.04-8.16-10.31-7.94-28.58-7.85-40.78Z"/>
          <path class="cls-3" d="M488.89,908.54c.12-16.05,5.42-33.06,19.34-48.02,11.47,21.15,22.8,43.84,13.47,67.76-2.4,6.15-14.42,34.36-24.96,21.04-8.16-10.31-7.94-28.58-7.85-40.78Z"/>
          <path class="cls-5" d="M400.31,1063.52c-1.66-25.43,1.87-51.81,14.42-73.99,14.05,34.8,28.13,72.03,21.26,108.92-1.77,9.49-10.91,52.88-23.15,30.6-9.47-17.25-11.28-46.19-12.54-65.53Z"/>
          <path class="cls-5" d="M448.75,1126.48c-1.66-25.43,1.87-51.81,14.42-73.99,14.05,34.8,28.13,72.03,21.26,108.92-1.77,9.49-10.91,52.88-23.15,30.6-9.47-17.25-11.28-46.19-12.54-65.53Z"/>
          <path class="cls-3" d="M166.34,1057.08c-.49-38.97-.98-77.96.74-116.9.79-17.79,2.39-36.61,12.81-51.05,2.66-3.69,6.24-7.21,10.76-7.77,5.05-.62,9.92,2.76,12.55,7.11s3.49,9.51,4.23,14.55c6.49,44.22,7.95,89.18,4.34,133.73-.6,7.38-1.39,14.94-4.72,21.55-5.88,11.64-18.4,18.13-30.26,23.55"/>
          <path class="cls-3" d="M1264.46,1128.87c-.49-38.97-.98-77.96.74-116.9.79-17.79,2.39-36.61,12.81-51.05,2.66-3.69,6.24-7.21,10.76-7.77,5.05-.62,9.92,2.76,12.55,7.11s3.49,9.51,4.23,14.55c6.49,44.22,7.95,89.18,4.34,133.73-.6,7.38-1.39,14.94-4.72,21.55-5.88,11.64-18.4,18.13-30.26,23.55"/>
          <path class="cls-3" d="M1358.87,1155.95c-.49-38.97-.98-77.96.74-116.9.79-17.79,2.39-36.61,12.81-51.05,2.66-3.69,6.24-7.21,10.76-7.77,5.05-.62,9.92,2.76,12.55,7.11,2.64,4.35,3.49,9.51,4.23,14.55,6.49,44.22,7.95,89.18,4.34,133.73-.6,7.38-1.39,14.94-4.72,21.55-5.88,11.64-18.4,18.13-30.26,23.55"/>
          <path class="cls-5" d="M1369.78,1073.15c3.1-25.3,11.47-50.56,27.92-70.02,7.34,36.8,14.25,76,.64,110.97-3.5,8.99-20.55,49.93-28.43,25.76-6.1-18.71-2.49-47.48-.14-66.72Z"/>
          <path class="cls-5" d="M1181.3,938.55c3.1-25.3,11.47-50.56,27.92-70.02,7.34,36.8,14.25,76,.64,110.97-3.5,8.99-20.55,49.93-28.43,25.76-6.1-18.71-2.49-47.48-.14-66.72Z"/>
          <path class="cls-5" d="M1153.9,964.9c-8.35-24.08-11.95-50.45-5.75-75.17,22.79,29.82,46.25,61.97,49.42,99.36.82,9.62,3.52,53.88-14.19,35.65-13.71-14.11-23.14-41.54-29.49-59.85Z"/>
          <path class="cls-5" d="M1099.42,954.14c-1.61-25.44,1.96-51.81,14.55-73.97,13.99,34.82,28.01,72.08,21.08,108.96-1.78,9.49-11,52.86-23.2,30.56-9.44-17.26-11.2-46.21-12.43-65.55Z"/>
          <path class="cls-5" d="M1065.09,965.59c-1.61-25.44,1.96-51.81,14.55-73.97,13.99,34.82,28.01,72.08,21.08,108.96-1.78,9.49-11,52.86-23.2,30.56-9.44-17.26-11.2-46.21-12.43-65.55Z"/>
          <path class="cls-5" d="M1315.77,1177.18c-.49-38.97-.98-77.96.74-116.9.79-17.79,2.39-36.61,12.81-51.05,2.66-3.69,6.24-7.21,10.76-7.77,5.05-.62,9.92,2.76,12.55,7.11,2.64,4.35,3.49,9.51,4.23,14.55,6.49,44.22,7.95,89.18,4.34,133.73-.6,7.38-1.39,14.94-4.72,21.55-5.88,11.64-18.4,18.13-30.26,23.55"/>
          <path class="cls-2" d="M73.74,1088.91c-25.91-64.79-51-131.87-51.08-201.65-.02-22.72,3.54-47.38,19.74-63.3,16.21-15.92,48.45-15.88,57.96,4.75,10.88,23.63,13.13,51,17.37,76.55,5.15,30.95,8.18,62.25,9.07,93.61.83,29.19-.23,58.63-6.64,87.12-1.86,8.25-4.4,16.81-10.44,22.73-17.23,16.89-30.29-5.55-35.99-19.81Z"/>
          <path class="cls-3" d="M337.18,915.11s339.86,122.22,413.55,261.96h245.64s-182.18-238.96-452.39-265.57l-206.8,3.61Z"/>
          <path class="cls-3" d="M714.85,915.11s339.86,122.22,413.55,261.96h245.64s-182.18-238.96-452.39-265.57l-206.8,3.61Z"/>
          <path class="cls-2" d="M698.11,916.94s314.85,87.14,413.55,261.96h107.32s-170.15-285.41-520.87-261.96Z"/>
          <g>
            <path class="cls-4" d="M86.04,995.4c-10.61,0-19.19-3.6-25.49-10.69-14.69-16.55-11.34-46.26-11.19-47.51.24-2.01,1.95-3.53,3.97-3.53,13.18,0,23.88,7.74,30.96,22.39.78,1.62,1.48,3.24,2.1,4.82,9.13-20.5,32.97-27,33.27-27.08,1.14-.3,2.36-.08,3.32.6.96.68,1.58,1.76,1.68,2.93.1,1.25,2.39,30.88-12.8,47.38-6.52,7.09-15.21,10.69-25.82,10.69ZM57.04,941.96c-.35,8.02-.02,26.73,9.51,37.45,4.78,5.38,11.16,7.99,19.49,7.99s14.9-2.64,19.92-8.09c9.36-10.16,10.78-27.38,10.86-36.03-2.98,1.25-6.95,3.23-10.88,6.11-9.98,7.34-15.04,16.94-15.04,28.54,0,2.11-1.63,3.85-3.74,3.99-2.1.14-3.95-1.38-4.23-3.47-.05-.34-4.7-33.04-25.88-36.5Z"/>
            <path class="cls-4" d="M86.04,1068.01c-10.61,0-19.19-3.6-25.49-10.69-14.69-16.55-11.34-46.26-11.19-47.51.24-2.01,1.95-3.53,3.97-3.53,13.18,0,23.88,7.74,30.96,22.39.78,1.62,1.48,3.24,2.1,4.82,9.13-20.5,32.97-27,33.27-27.08,1.14-.3,2.36-.08,3.32.6.96.68,1.58,1.76,1.68,2.93.1,1.25,2.39,30.88-12.8,47.38-6.52,7.09-15.21,10.69-25.82,10.69ZM57.04,1014.57c-.35,8.02-.02,26.73,9.51,37.45,4.78,5.38,11.16,7.99,19.49,7.99s14.9-2.64,19.92-8.09c9.36-10.16,10.78-27.38,10.86-36.03-2.98,1.25-6.95,3.23-10.88,6.11-9.98,7.34-15.04,16.94-15.04,28.54,0,2.11-1.63,3.85-3.74,3.99-2.1.13-3.95-1.38-4.23-3.47-.05-.34-4.7-33.04-25.88-36.5Z"/>
            <path class="cls-4" d="M86.04,1133.73c-10.61,0-19.19-3.6-25.49-10.69-14.69-16.55-11.34-46.26-11.19-47.51.24-2.01,1.95-3.53,3.97-3.53,13.18,0,23.88,7.74,30.96,22.39.78,1.62,1.48,3.24,2.1,4.82,9.13-20.5,32.97-27,33.27-27.08,1.14-.3,2.36-.08,3.32.6.96.68,1.58,1.76,1.68,2.93.1,1.25,2.39,30.88-12.8,47.38-6.52,7.09-15.21,10.69-25.82,10.69ZM57.04,1080.29c-.35,8.02-.02,26.73,9.51,37.45,4.78,5.38,11.16,7.99,19.49,7.99s14.9-2.64,19.92-8.09c9.36-10.16,10.78-27.38,10.86-36.03-2.98,1.25-6.95,3.23-10.88,6.11-9.98,7.34-15.04,16.94-15.04,28.54,0,2.11-1.63,3.85-3.74,3.99-2.1.14-3.95-1.38-4.23-3.47-.05-.34-4.7-33.04-25.88-36.5Z"/>
            <path class="cls-4" d="M86.04,929.07c-10.61,0-19.19-3.6-25.49-10.69-14.69-16.55-11.34-46.26-11.19-47.51.24-2.01,1.95-3.53,3.97-3.53,13.18,0,23.88,7.74,30.96,22.39.78,1.62,1.48,3.24,2.1,4.82,9.13-20.5,32.97-27,33.27-27.08,1.14-.3,2.36-.08,3.32.6.96.68,1.58,1.76,1.68,2.93.1,1.25,2.39,30.88-12.8,47.38-6.52,7.09-15.21,10.69-25.82,10.69ZM57.04,875.63c-.35,8.02-.02,26.73,9.51,37.45,4.78,5.38,11.16,7.99,19.49,7.99s14.9-2.64,19.92-8.09c9.36-10.16,10.78-27.38,10.86-36.03-2.98,1.25-6.95,3.23-10.88,6.11-9.98,7.34-15.04,16.94-15.04,28.54,0,2.11-1.63,3.85-3.74,3.99-2.1.14-3.95-1.38-4.23-3.47-.05-.34-4.7-33.04-25.88-36.5Z"/>
            <path class="cls-4" d="M101.24,884.23c-1.84,0-3.49-1.28-3.9-3.15-1.98-9.06-5.59-16.58-10.75-22.41-2.67,2.83-7.15,9.26-9.63,22.11-.42,2.17-2.52,3.59-4.68,3.17-2.17-.42-3.59-2.51-3.17-4.68,4.41-22.89,14.74-28.96,15.91-29.57,1.52-.8,3.37-.55,4.62.62,7.67,7.24,12.89,17.01,15.53,29.04.47,2.16-.89,4.29-3.05,4.76-.29.06-.58.09-.86.09Z"/>
            <rect class="cls-4" x="82.88" y="925.07" width="8" height="406.67"/>
          </g>
          <path class="cls-2" d="M208.72,977.91c-4.02-17.91-11.71-38.11-29.24-43.57-4.26-1.33-9.01-1.6-13.11.16-6.17,2.63-9.66,9.1-12.39,15.23-24.57,55.13-25.41,117.51-25.46,177.87-.02,17.47.02,35.16,4.35,52.08.65,2.54,1.51,5.23,3.59,6.83,1.74,1.33,4.03,1.66,6.22,1.9,17.85,2,50.61,6.35,66.6-4.52,14.27-9.7,9.97-35.64,10.37-50.23,1.43-52.07.53-104.71-10.92-155.75Z"/>
          <path class="cls-2" d="M321.11,1004.28c-4.02-17.91-11.71-38.11-29.24-43.57-4.26-1.33-9.01-1.6-13.11.16-6.17,2.63-9.66,9.1-12.39,15.23-24.57,55.13-25.41,117.51-25.46,177.87-.02,17.47.02,35.16,4.35,52.08.65,2.54,1.51,5.23,3.59,6.83,1.74,1.33,4.03,1.66,6.22,1.9,17.85,2,50.61,6.35,66.6-4.52,14.27-9.7,9.97-35.64,10.37-50.23,1.43-52.07.53-104.71-10.92-155.75Z"/>
          <g>
            <path class="cls-4" d="M171.58,1079.98c-10.61,0-19.19-3.6-25.49-10.69-14.69-16.55-11.34-46.26-11.19-47.51.24-2.01,1.95-3.53,3.97-3.53,13.18,0,23.88,7.74,30.96,22.39.78,1.62,1.48,3.24,2.1,4.82,9.13-20.5,32.97-27,33.27-27.08,1.14-.3,2.36-.08,3.32.6.96.68,1.58,1.76,1.68,2.93.1,1.25,2.39,30.88-12.8,47.38-6.52,7.09-15.21,10.69-25.82,10.69ZM142.58,1026.54c-.35,8.02-.02,26.73,9.51,37.45,4.78,5.38,11.16,7.99,19.49,7.99s14.9-2.64,19.92-8.09c9.36-10.16,10.78-27.38,10.86-36.03-2.98,1.25-6.95,3.23-10.88,6.11-9.98,7.34-15.04,16.94-15.04,28.54,0,2.11-1.63,3.85-3.74,3.99-2.1.13-3.95-1.38-4.23-3.47-.05-.34-4.7-33.04-25.88-36.5Z"/>
            <path class="cls-4" d="M171.58,1152.59c-10.61,0-19.19-3.6-25.49-10.69-14.69-16.55-11.34-46.26-11.19-47.51.24-2.01,1.95-3.53,3.97-3.53,13.18,0,23.88,7.74,30.96,22.39.78,1.62,1.48,3.24,2.1,4.82,9.13-20.5,32.97-27,33.27-27.08,1.14-.3,2.36-.08,3.32.6.96.68,1.58,1.76,1.68,2.93.1,1.25,2.39,30.88-12.8,47.38-6.52,7.09-15.21,10.69-25.82,10.69ZM142.58,1099.15c-.35,8.02-.02,26.73,9.51,37.45,4.78,5.38,11.16,7.99,19.49,7.99s14.9-2.64,19.92-8.09c9.36-10.16,10.78-27.38,10.86-36.03-2.98,1.25-6.95,3.23-10.88,6.11-9.98,7.34-15.04,16.94-15.04,28.54,0,2.11-1.63,3.85-3.74,3.99-2.1.14-3.95-1.38-4.23-3.47-.05-.34-4.7-33.04-25.88-36.5Z"/>
            <path class="cls-4" d="M171.58,1218.32c-10.61,0-19.19-3.6-25.49-10.69-14.69-16.55-11.34-46.26-11.19-47.51.24-2.01,1.95-3.53,3.97-3.53,13.18,0,23.88,7.74,30.96,22.39.78,1.62,1.48,3.24,2.1,4.82,9.13-20.5,32.97-27,33.27-27.08,1.14-.3,2.36-.08,3.32.6.96.68,1.58,1.76,1.68,2.93.1,1.25,2.39,30.88-12.8,47.38-6.52,7.09-15.21,10.69-25.82,10.69ZM142.58,1164.88c-.35,8.02-.02,26.73,9.51,37.45,4.78,5.38,11.16,7.99,19.49,7.99s14.9-2.64,19.92-8.09c9.36-10.16,10.78-27.38,10.86-36.03-2.98,1.25-6.95,3.23-10.88,6.11-9.98,7.34-15.04,16.94-15.04,28.54,0,2.11-1.63,3.85-3.74,3.99-2.1.13-3.95-1.38-4.23-3.47-.05-.34-4.7-33.04-25.88-36.5Z"/>
            <path class="cls-4" d="M171.58,1013.65c-10.61,0-19.19-3.6-25.49-10.69-14.69-16.55-11.34-46.26-11.19-47.51.24-2.01,1.95-3.53,3.97-3.53,13.18,0,23.88,7.74,30.96,22.39.78,1.62,1.48,3.24,2.1,4.82,9.13-20.5,32.97-27,33.27-27.08,1.14-.3,2.36-.08,3.32.6.96.68,1.58,1.76,1.68,2.93.1,1.25,2.39,30.88-12.8,47.38-6.52,7.09-15.21,10.69-25.82,10.69ZM142.58,960.21c-.35,8.02-.02,26.73,9.51,37.45,4.78,5.38,11.16,7.99,19.49,7.99s14.9-2.64,19.92-8.09c9.36-10.16,10.78-27.38,10.86-36.03-2.98,1.25-6.95,3.23-10.88,6.11-9.98,7.34-15.04,16.94-15.04,28.54,0,2.11-1.63,3.85-3.74,3.99-2.1.13-3.95-1.38-4.23-3.47-.05-.34-4.7-33.04-25.88-36.5Z"/>
            <path class="cls-4" d="M186.78,968.82c-1.84,0-3.49-1.28-3.9-3.15-1.98-9.06-5.59-16.58-10.75-22.41-2.67,2.83-7.15,9.26-9.63,22.11-.42,2.17-2.52,3.59-4.68,3.17-2.17-.42-3.59-2.51-3.17-4.68,4.41-22.88,14.74-28.96,15.91-29.57,1.52-.8,3.37-.55,4.62.62,7.67,7.24,12.89,17.01,15.53,29.04.47,2.16-.89,4.29-3.05,4.76-.29.06-.58.09-.86.09Z"/>
            <rect class="cls-4" x="168.42" y="1009.65" width="8" height="406.67"/>
          </g>
          <g>
            <path class="cls-4" d="M775.87,1168.86c-10.61,0-19.19-3.6-25.49-10.69-14.69-16.55-11.34-46.26-11.19-47.51.24-2.01,1.95-3.53,3.97-3.53,13.18,0,23.88,7.74,30.96,22.39.78,1.62,1.48,3.24,2.1,4.82,9.13-20.5,32.97-27,33.27-27.08,1.15-.3,2.36-.08,3.32.6.96.68,1.58,1.76,1.68,2.93.1,1.25,2.39,30.88-12.8,47.38-6.52,7.09-15.21,10.69-25.82,10.69ZM746.87,1115.42c-.35,8.02-.02,26.73,9.51,37.45,4.78,5.38,11.16,7.99,19.49,7.99s14.9-2.64,19.92-8.09c9.36-10.16,10.78-27.38,10.86-36.03-2.98,1.25-6.95,3.23-10.88,6.11-9.98,7.34-15.04,16.94-15.04,28.54,0,2.11-1.63,3.85-3.74,3.99-2.11.12-3.95-1.38-4.23-3.47-.05-.34-4.7-33.04-25.88-36.5Z"/>
            <path class="cls-4" d="M775.87,1102.53c-10.61,0-19.19-3.6-25.49-10.69-14.69-16.55-11.34-46.26-11.19-47.51.24-2.01,1.95-3.53,3.97-3.53,13.18,0,23.88,7.74,30.96,22.39.78,1.62,1.48,3.24,2.1,4.82,9.13-20.5,32.97-27,33.27-27.08,1.15-.3,2.36-.08,3.32.6.96.68,1.58,1.76,1.68,2.93.1,1.25,2.39,30.88-12.8,47.38-6.52,7.09-15.21,10.69-25.82,10.69ZM746.87,1049.09c-.35,8.02-.02,26.73,9.51,37.45,4.78,5.38,11.16,7.99,19.49,7.99s14.9-2.64,19.92-8.09c9.36-10.16,10.78-27.38,10.86-36.03-2.98,1.25-6.95,3.23-10.88,6.11-9.98,7.34-15.04,16.94-15.04,28.54,0,2.11-1.63,3.85-3.74,3.99-2.11.13-3.95-1.38-4.23-3.47-.05-.34-4.7-33.04-25.88-36.5Z"/>
            <path class="cls-4" d="M791.08,1057.69c-1.84,0-3.49-1.28-3.9-3.15-1.98-9.06-5.59-16.58-10.75-22.41-2.67,2.83-7.15,9.26-9.63,22.11-.42,2.17-2.51,3.59-4.68,3.17-2.17-.42-3.59-2.51-3.17-4.68,4.41-22.88,14.74-28.96,15.91-29.57,1.51-.8,3.37-.55,4.62.62,7.67,7.24,12.89,17.01,15.53,29.04.47,2.16-.89,4.29-3.05,4.76-.29.06-.58.09-.86.09Z"/>
            <rect class="cls-4" x="772.72" y="1098.53" width="8" height="406.67"/>
          </g>
          <g>
            <g>
              <path class="cls-5" d="M428.69,891.66s-4.56,38.24,23.27,38.24,24.64-38.24,24.64-38.24c0,0-24.04,6.29-24.04,28.66,0,0-3.8-28.66-23.87-28.66Z"/>
              <path class="cls-2" d="M451.96,933.9c-7.9,0-14.29-2.69-19-8-10.79-12.16-8.35-33.8-8.24-34.71.24-2.01,1.95-3.53,3.97-3.53,9.85,0,17.83,5.74,23.07,16.59.19.4.38.8.56,1.19,5.71-10.35,16.61-15.91,23.28-17.65,1.14-.3,2.36-.08,3.32.6.96.68,1.58,1.76,1.68,2.93.08.91,1.74,22.48-9.41,34.59-4.87,5.29-11.34,7.98-19.22,7.98ZM432.43,896.13c-.13,6.09.49,17.69,6.53,24.47,3.17,3.56,7.42,5.29,13.01,5.29s9.98-1.76,13.32-5.38c5.82-6.31,7.15-16.72,7.39-23.07-1.78.85-3.87,2-5.93,3.53-6.75,4.99-10.18,11.49-10.18,19.33,0,2.11-1.63,3.85-3.74,3.99-2.11.13-3.95-1.38-4.23-3.47-.03-.23-3.04-21.28-16.17-24.71Z"/>
            </g>
            <g>
              <path class="cls-5" d="M428.69,943.33s-4.56,38.24,23.27,38.24,24.64-38.24,24.64-38.24c0,0-24.04,6.29-24.04,28.66,0,0-3.8-28.66-23.87-28.66Z"/>
              <path class="cls-2" d="M451.96,985.57c-7.9,0-14.29-2.69-19-8-10.79-12.16-8.35-33.8-8.24-34.71.24-2.01,1.95-3.53,3.97-3.53,9.85,0,17.83,5.74,23.07,16.59.19.4.38.8.56,1.19,5.71-10.35,16.61-15.91,23.28-17.65,1.14-.3,2.36-.08,3.32.6s1.58,1.76,1.68,2.93c.08.91,1.74,22.48-9.41,34.59-4.87,5.29-11.34,7.98-19.22,7.98ZM432.43,947.8c-.13,6.09.49,17.69,6.53,24.47,3.17,3.56,7.42,5.29,13.01,5.29s9.98-1.76,13.32-5.38c5.82-6.31,7.15-16.72,7.39-23.07-1.78.85-3.87,2-5.93,3.53-6.75,4.99-10.18,11.49-10.18,19.33,0,2.11-1.63,3.85-3.74,3.99-2.11.14-3.95-1.38-4.23-3.47-.03-.23-3.04-21.28-16.17-24.71Z"/>
            </g>
            <g>
              <path class="cls-5" d="M428.69,990.1s-4.56,38.24,23.27,38.24,24.64-38.24,24.64-38.24c0,0-24.04,6.29-24.04,28.66,0,0-3.8-28.66-23.87-28.66Z"/>
              <path class="cls-2" d="M451.96,1032.34c-7.9,0-14.29-2.69-19-8-10.79-12.16-8.35-33.8-8.24-34.71.24-2.01,1.95-3.53,3.97-3.53,9.85,0,17.83,5.74,23.07,16.59.19.4.38.8.56,1.19,5.71-10.35,16.61-15.91,23.28-17.65,1.14-.3,2.36-.08,3.32.6.96.68,1.58,1.76,1.68,2.93.08.91,1.74,22.48-9.41,34.59-4.87,5.29-11.34,7.98-19.22,7.98ZM432.43,994.57c-.13,6.09.49,17.69,6.53,24.47,3.17,3.56,7.42,5.29,13.01,5.29s9.98-1.76,13.32-5.38c5.82-6.31,7.15-16.72,7.39-23.07-1.78.85-3.87,2-5.93,3.53-6.75,4.99-10.18,11.49-10.18,19.33,0,2.11-1.63,3.85-3.74,3.99-2.11.13-3.95-1.38-4.23-3.47-.03-.23-3.04-21.28-16.17-24.71Z"/>
            </g>
            <g>
              <path class="cls-5" d="M428.69,844.46s-4.56,38.24,23.27,38.24,24.64-38.24,24.64-38.24c0,0-24.04,6.29-24.04,28.66,0,0-3.8-28.66-23.87-28.66Z"/>
              <path class="cls-2" d="M451.96,886.69c-7.9,0-14.29-2.69-19-8-10.79-12.16-8.35-33.8-8.24-34.71.24-2.01,1.95-3.53,3.97-3.53,9.85,0,17.83,5.74,23.07,16.59.19.4.38.8.56,1.19,5.71-10.35,16.61-15.91,23.28-17.65,1.14-.3,2.36-.08,3.32.6.96.68,1.58,1.76,1.68,2.93.08.91,1.74,22.48-9.41,34.59-4.87,5.29-11.34,7.98-19.22,7.98ZM432.43,848.93c-.13,6.09.49,17.69,6.53,24.47,3.17,3.56,7.42,5.29,13.01,5.29s9.98-1.76,13.32-5.38c5.82-6.31,7.15-16.72,7.39-23.07-1.78.85-3.87,2-5.93,3.53-6.75,4.99-10.18,11.49-10.18,19.33,0,2.11-1.63,3.85-3.74,3.99-2.11.13-3.95-1.38-4.23-3.47-.03-.23-3.04-21.28-16.17-24.71Z"/>
            </g>
            <path class="cls-2" d="M462.78,854.79c-1.84,0-3.49-1.28-3.9-3.15-1.25-5.73-3.45-10.57-6.53-14.41-1.79,2.26-4.25,6.56-5.71,14.17-.42,2.17-2.52,3.59-4.68,3.17-2.17-.42-3.59-2.51-3.17-4.68,3.24-16.81,11.03-21.38,11.91-21.85,1.51-.8,3.37-.55,4.62.62,5.63,5.31,9.46,12.47,11.39,21.26.47,2.16-.89,4.29-3.05,4.76-.29.06-.58.09-.86.09Z"/>
            <rect class="cls-2" x="448.56" y="882.69" width="8" height="210.75"/>
          </g>
          <g>
            <path class="cls-2" d="M540.87,1009.02c-7.9,0-14.29-2.69-19-8-10.79-12.16-8.35-33.8-8.24-34.71.24-2.01,1.95-3.53,3.97-3.53,9.85,0,17.83,5.74,23.07,16.59.19.4.38.8.56,1.19,5.71-10.35,16.61-15.91,23.28-17.65,1.14-.3,2.36-.08,3.32.6.96.68,1.58,1.76,1.68,2.93.08.91,1.74,22.48-9.41,34.59-4.87,5.29-11.34,7.98-19.22,7.98ZM521.33,971.25c-.13,6.09.49,17.69,6.53,24.47,3.17,3.56,7.42,5.29,13.01,5.29s10-1.76,13.33-5.39c5.83-6.34,7.16-16.72,7.38-23.05-1.79.85-3.87,2.01-5.94,3.53-6.75,4.99-10.18,11.49-10.18,19.34,0,2.11-1.63,3.85-3.74,3.99-2.1.14-3.95-1.38-4.23-3.47-.03-.23-3.04-21.28-16.17-24.71Z"/>
            <path class="cls-2" d="M540.87,1060.69c-7.9,0-14.29-2.69-19-8-10.79-12.16-8.35-33.8-8.24-34.71.24-2.01,1.95-3.53,3.97-3.53,9.85,0,17.83,5.74,23.07,16.59.19.4.38.8.56,1.19,5.71-10.35,16.61-15.91,23.28-17.65,1.14-.3,2.36-.08,3.32.6.96.68,1.58,1.76,1.68,2.93.08.91,1.74,22.48-9.41,34.59-4.87,5.29-11.34,7.98-19.22,7.98ZM521.33,1022.92c-.13,6.09.49,17.69,6.53,24.47,3.17,3.56,7.42,5.29,13.01,5.29s10-1.76,13.33-5.39c5.83-6.34,7.16-16.72,7.38-23.05-1.79.85-3.87,2.01-5.94,3.53-6.75,4.99-10.18,11.49-10.18,19.34,0,2.11-1.63,3.85-3.74,3.99-2.1.15-3.95-1.38-4.23-3.47-.03-.23-3.04-21.28-16.17-24.71Z"/>
            <path class="cls-2" d="M540.87,1107.46c-7.9,0-14.29-2.69-19-8-10.79-12.16-8.35-33.8-8.24-34.71.24-2.01,1.95-3.53,3.97-3.53,9.85,0,17.83,5.74,23.07,16.59.19.4.38.8.56,1.19,5.71-10.35,16.61-15.91,23.28-17.65,1.14-.3,2.36-.08,3.32.6s1.58,1.76,1.68,2.93c.08.91,1.74,22.48-9.41,34.59-4.87,5.29-11.34,7.98-19.22,7.98ZM521.33,1069.69c-.13,6.09.49,17.69,6.53,24.47,3.17,3.56,7.42,5.29,13.01,5.29s10-1.76,13.33-5.39c5.83-6.34,7.16-16.72,7.38-23.05-1.79.85-3.87,2.01-5.94,3.53-6.75,4.99-10.18,11.49-10.18,19.34,0,2.11-1.63,3.85-3.74,3.99-2.1.14-3.95-1.38-4.23-3.47-.03-.23-3.04-21.28-16.17-24.71Z"/>
            <path class="cls-2" d="M540.87,961.81c-7.9,0-14.29-2.69-19-8-10.79-12.16-8.35-33.8-8.24-34.71.24-2.01,1.95-3.53,3.97-3.53,9.85,0,17.83,5.74,23.07,16.59.19.4.38.8.56,1.19,5.71-10.35,16.61-15.91,23.28-17.65,1.14-.3,2.36-.08,3.32.6.96.68,1.58,1.76,1.68,2.93.08.91,1.74,22.48-9.41,34.59-4.87,5.29-11.34,7.98-19.22,7.98ZM521.33,924.05c-.13,6.09.49,17.69,6.53,24.47,3.17,3.56,7.42,5.29,13.01,5.29s10-1.76,13.33-5.39c5.83-6.34,7.16-16.72,7.38-23.05-1.79.85-3.87,2.01-5.94,3.53-6.75,4.99-10.18,11.49-10.18,19.34,0,2.11-1.63,3.85-3.74,3.99-2.1.14-3.95-1.38-4.23-3.47-.03-.23-3.04-21.28-16.17-24.71Z"/>
            <path class="cls-2" d="M551.69,929.91c-1.84,0-3.49-1.28-3.9-3.15-1.25-5.73-3.45-10.56-6.53-14.41-1.79,2.26-4.25,6.56-5.71,14.17-.42,2.17-2.51,3.58-4.68,3.17-2.17-.42-3.59-2.51-3.17-4.68,3.24-16.81,11.03-21.38,11.91-21.85,1.52-.8,3.37-.55,4.62.63,5.63,5.31,9.46,12.47,11.38,21.26.47,2.16-.89,4.29-3.05,4.76-.29.06-.58.09-.86.09Z"/>
            <rect class="cls-2" x="537.47" y="957.81" width="8" height="200.73"/>
          </g>
          <g>
            <path class="cls-2" d="M625.61,1096.84c-7.9,0-14.29-2.69-19-8-10.79-12.16-8.35-33.8-8.24-34.71.24-2.01,1.95-3.53,3.97-3.53,9.85,0,17.83,5.74,23.07,16.59.19.4.38.8.56,1.19,5.71-10.35,16.61-15.91,23.28-17.65,1.14-.3,2.36-.08,3.32.6.96.68,1.58,1.76,1.68,2.93.08.91,1.74,22.48-9.41,34.59-4.87,5.29-11.34,7.98-19.22,7.98ZM606.08,1059.07c-.13,6.09.49,17.69,6.53,24.47,3.17,3.56,7.42,5.29,13.01,5.29s10-1.76,13.33-5.39c5.83-6.34,7.16-16.72,7.38-23.05-1.79.85-3.87,2.01-5.94,3.53-6.75,4.99-10.18,11.49-10.18,19.34,0,2.11-1.63,3.85-3.74,3.99-2.1.13-3.95-1.38-4.23-3.47-.03-.23-3.04-21.28-16.17-24.71Z"/>
            <path class="cls-2" d="M625.61,1148.51c-7.9,0-14.29-2.69-19-8-10.79-12.16-8.35-33.8-8.24-34.71.24-2.01,1.95-3.53,3.97-3.53,9.85,0,17.83,5.74,23.07,16.59.19.4.38.8.56,1.19,5.71-10.35,16.61-15.91,23.28-17.65,1.14-.3,2.36-.08,3.32.6.96.68,1.58,1.76,1.68,2.93.08.91,1.74,22.48-9.41,34.59-4.87,5.29-11.34,7.98-19.22,7.98ZM606.08,1110.74c-.13,6.09.49,17.69,6.53,24.47,3.17,3.56,7.42,5.29,13.01,5.29s10-1.76,13.33-5.39c5.83-6.34,7.16-16.72,7.38-23.05-1.79.85-3.87,2.01-5.94,3.53-6.75,4.99-10.18,11.49-10.18,19.34,0,2.11-1.63,3.85-3.74,3.99-2.1.13-3.95-1.38-4.23-3.47-.03-.23-3.04-21.28-16.17-24.71Z"/>
            <path class="cls-2" d="M625.61,1195.28c-7.9,0-14.29-2.69-19-8-10.79-12.16-8.35-33.8-8.24-34.71.24-2.01,1.95-3.53,3.97-3.53,9.85,0,17.83,5.74,23.07,16.59.19.4.38.8.56,1.19,5.71-10.35,16.61-15.91,23.28-17.65,1.14-.3,2.36-.08,3.32.6.96.68,1.58,1.76,1.68,2.93.08.91,1.74,22.48-9.41,34.59-4.87,5.29-11.34,7.98-19.22,7.98ZM606.08,1157.51c-.13,6.09.49,17.69,6.53,24.47,3.17,3.56,7.42,5.29,13.01,5.29s10-1.76,13.33-5.39c5.83-6.34,7.16-16.72,7.38-23.05-1.79.85-3.87,2.01-5.94,3.53-6.75,4.99-10.18,11.49-10.18,19.34,0,2.11-1.63,3.85-3.74,3.99-2.1.15-3.95-1.38-4.23-3.47-.03-.23-3.04-21.28-16.17-24.71Z"/>
            <path class="cls-2" d="M625.61,1049.63c-7.9,0-14.29-2.69-19-8-10.79-12.16-8.35-33.8-8.24-34.71.24-2.01,1.95-3.53,3.97-3.53,9.85,0,17.83,5.74,23.07,16.59.19.4.38.8.56,1.19,5.71-10.35,16.61-15.91,23.28-17.65,1.14-.3,2.36-.08,3.32.6.96.68,1.58,1.76,1.68,2.93.08.91,1.74,22.48-9.41,34.59-4.87,5.29-11.34,7.98-19.22,7.98ZM606.08,1011.87c-.13,6.09.49,17.69,6.53,24.47,3.17,3.56,7.42,5.29,13.01,5.29s10-1.76,13.33-5.39c5.83-6.34,7.16-16.72,7.38-23.05-1.79.85-3.87,2.01-5.94,3.53-6.75,4.99-10.18,11.49-10.18,19.34,0,2.11-1.63,3.85-3.74,3.99-2.1.13-3.95-1.38-4.23-3.47-.03-.23-3.04-21.28-16.17-24.71Z"/>
            <path class="cls-2" d="M636.43,1017.73c-1.84,0-3.49-1.28-3.9-3.15-1.25-5.74-3.45-10.57-6.53-14.41-1.79,2.26-4.25,6.56-5.71,14.17-.42,2.17-2.52,3.59-4.68,3.17-2.17-.42-3.59-2.51-3.17-4.68,3.24-16.81,11.03-21.38,11.91-21.85,1.52-.8,3.37-.55,4.62.62,5.63,5.31,9.46,12.47,11.38,21.26.47,2.16-.89,4.29-3.05,4.76-.29.06-.58.09-.86.09Z"/>
            <rect class="cls-2" x="622.21" y="1045.63" width="8" height="203.29"/>
          </g>
          <g>
            <g>
              <path class="cls-3" d="M823.81,977.55s-4.34,36.35,22.12,36.35,23.42-36.35,23.42-36.35c0,0-22.85,5.98-22.85,27.24,0,0-3.61-27.24-22.69-27.24Z"/>
              <path class="cls-5" d="M845.93,1017.89c-7.57,0-13.69-2.58-18.21-7.67-10.32-11.62-7.99-32.28-7.88-33.15.24-2.01,1.95-3.53,3.97-3.53,9.45,0,17.09,5.49,22.11,15.88.13.26.25.52.37.78,5.51-9.67,15.76-14.88,22.06-16.53,1.15-.3,2.36-.08,3.32.6.96.68,1.58,1.76,1.68,2.93.07.87,1.66,21.45-8.99,33.03-4.67,5.07-10.86,7.65-18.42,7.65ZM827.56,982.06c-.1,5.82.55,16.57,6.16,22.87,2.97,3.34,6.97,4.97,12.21,4.97s9.38-1.65,12.51-5.05c5.4-5.86,6.71-15.48,6.96-21.51-5.89,2.84-14.9,9.18-14.9,21.45,0,2.11-1.63,3.85-3.74,3.99-2.11.13-3.95-1.38-4.23-3.47-.03-.21-2.83-19.83-14.98-23.26Z"/>
            </g>
            <g>
              <path class="cls-3" d="M823.81,1026.66s-4.34,36.35,22.12,36.35,23.42-36.35,23.42-36.35c0,0-22.85,5.98-22.85,27.24,0,0-3.61-27.24-22.69-27.24Z"/>
              <path class="cls-5" d="M845.93,1067.01c-7.57,0-13.69-2.58-18.21-7.67-10.32-11.62-7.99-32.28-7.88-33.15.24-2.01,1.95-3.53,3.97-3.53,9.45,0,17.09,5.49,22.11,15.88.13.26.25.52.37.78,5.51-9.67,15.76-14.88,22.06-16.53,1.15-.3,2.36-.08,3.32.6.96.68,1.58,1.76,1.68,2.93.07.87,1.66,21.45-8.99,33.03-4.67,5.07-10.86,7.65-18.42,7.65ZM827.56,1031.17c-.1,5.82.55,16.57,6.16,22.87,2.97,3.34,6.97,4.97,12.21,4.97s9.38-1.65,12.51-5.05c5.4-5.86,6.71-15.48,6.96-21.51-5.89,2.84-14.9,9.18-14.9,21.45,0,2.11-1.63,3.85-3.74,3.99-2.11.13-3.95-1.38-4.23-3.47-.03-.21-2.83-19.83-14.98-23.25Z"/>
            </g>
            <g>
              <path class="cls-3" d="M823.81,1071.12s-4.34,36.35,22.12,36.35,23.42-36.35,23.42-36.35c0,0-22.85,5.98-22.85,27.24,0,0-3.61-27.24-22.69-27.24Z"/>
              <path class="cls-5" d="M845.93,1111.47c-7.57,0-13.69-2.58-18.21-7.67-10.32-11.62-7.99-32.28-7.88-33.15.24-2.01,1.95-3.53,3.97-3.53,9.45,0,17.09,5.49,22.11,15.88.13.26.25.52.37.78,5.51-9.67,15.76-14.88,22.06-16.53,1.15-.3,2.36-.08,3.32.6.96.68,1.58,1.76,1.68,2.93.07.87,1.66,21.45-8.99,33.03-4.67,5.07-10.86,7.65-18.42,7.65ZM827.56,1075.63c-.1,5.82.55,16.57,6.16,22.87,2.97,3.34,6.97,4.97,12.21,4.97s9.38-1.65,12.51-5.05c5.4-5.86,6.71-15.48,6.96-21.51-5.89,2.84-14.9,9.18-14.9,21.45,0,2.11-1.63,3.85-3.74,3.99-2.11.14-3.95-1.38-4.23-3.47-.03-.21-2.83-19.83-14.98-23.26Z"/>
            </g>
            <g>
              <path class="cls-3" d="M823.81,932.68s-4.34,36.35,22.12,36.35,23.42-36.35,23.42-36.35c0,0-22.85,5.98-22.85,27.24,0,0-3.61-27.24-22.69-27.24Z"/>
              <path class="cls-5" d="M845.93,973.03c-7.57,0-13.69-2.58-18.21-7.67-10.32-11.62-7.99-32.28-7.88-33.15.24-2.01,1.95-3.53,3.97-3.53,9.45,0,17.09,5.49,22.11,15.88.13.26.25.52.37.78,5.51-9.67,15.76-14.88,22.06-16.53,1.15-.3,2.36-.08,3.32.6.96.68,1.58,1.76,1.68,2.93.07.87,1.66,21.45-8.99,33.03-4.67,5.07-10.86,7.65-18.42,7.65ZM827.56,937.19c-.1,5.82.55,16.57,6.16,22.87,2.97,3.34,6.97,4.97,12.21,4.97s9.38-1.65,12.51-5.05c5.4-5.86,6.71-15.48,6.96-21.51-5.89,2.84-14.9,9.18-14.9,21.45,0,2.11-1.63,3.85-3.74,3.99-2.11.14-3.95-1.38-4.23-3.47-.03-.21-2.83-19.83-14.98-23.25Z"/>
            </g>
            <path class="cls-5" d="M856.22,942.7c-1.84,0-3.49-1.28-3.9-3.15-1.17-5.32-3.18-9.82-6.01-13.42-1.66,2.17-3.89,6.2-5.24,13.19-.42,2.17-2.51,3.59-4.68,3.17-2.17-.42-3.59-2.51-3.17-4.68,3.09-16.07,10.58-20.46,11.42-20.9,1.51-.8,3.37-.55,4.62.62,5.38,5.08,9.04,11.91,10.88,20.31.47,2.16-.89,4.29-3.05,4.76-.29.06-.58.09-.86.09Z"/>
            <rect class="cls-5" x="842.5" y="969.03" width="8" height="190.79"/>
          </g>
          <g>
            <path class="cls-3" d="M766.43,939.29c-7.57,0-13.69-2.58-18.21-7.67-10.32-11.62-7.99-32.28-7.88-33.15.24-2.01,1.95-3.53,3.97-3.53,9.45,0,17.09,5.49,22.11,15.88.13.26.25.52.37.78,5.51-9.67,15.76-14.88,22.06-16.53,1.15-.3,2.36-.08,3.32.6.96.68,1.58,1.76,1.68,2.93.07.87,1.66,21.45-8.99,33.03-4.67,5.07-10.86,7.65-18.42,7.65ZM748.06,903.45c-.1,5.82.55,16.57,6.16,22.87,2.97,3.34,6.97,4.97,12.21,4.97s9.38-1.65,12.51-5.05c5.4-5.86,6.71-15.48,6.96-21.51-5.89,2.84-14.9,9.18-14.9,21.45,0,2.11-1.63,3.85-3.74,3.99-2.11.14-3.95-1.38-4.23-3.47-.03-.21-2.83-19.83-14.98-23.26Z"/>
            <path class="cls-3" d="M766.43,988.41c-7.57,0-13.69-2.58-18.21-7.67-10.32-11.62-7.99-32.28-7.88-33.15.24-2.01,1.95-3.53,3.97-3.53,9.45,0,17.09,5.49,22.11,15.88.13.26.25.52.37.78,5.51-9.67,15.76-14.88,22.06-16.53,1.15-.3,2.36-.08,3.32.6.96.68,1.58,1.76,1.68,2.93.07.87,1.66,21.45-8.99,33.03-4.67,5.07-10.86,7.65-18.42,7.65ZM748.06,952.57c-.1,5.82.55,16.57,6.16,22.87,2.97,3.34,6.97,4.97,12.21,4.97s9.38-1.65,12.51-5.05c5.4-5.86,6.71-15.48,6.96-21.51-5.89,2.84-14.9,9.18-14.9,21.45,0,2.11-1.63,3.85-3.74,3.99-2.11.14-3.95-1.38-4.23-3.47-.03-.21-2.83-19.83-14.98-23.26Z"/>
            <path class="cls-3" d="M766.43,894.43c-7.57,0-13.69-2.58-18.21-7.67-10.32-11.62-7.99-32.28-7.88-33.15.24-2.01,1.95-3.53,3.97-3.53,9.45,0,17.09,5.49,22.11,15.88.13.26.25.52.37.78,5.51-9.67,15.76-14.88,22.06-16.53,1.15-.3,2.36-.08,3.32.6.96.68,1.58,1.76,1.68,2.93.07.87,1.66,21.45-8.99,33.03-4.67,5.07-10.86,7.65-18.42,7.65ZM748.06,858.59c-.1,5.82.55,16.57,6.16,22.87,2.97,3.34,6.97,4.97,12.21,4.97s9.38-1.65,12.51-5.05c5.4-5.86,6.71-15.48,6.96-21.51-5.89,2.84-14.9,9.18-14.9,21.45,0,2.11-1.63,3.85-3.74,3.99-2.11.12-3.95-1.38-4.23-3.47-.03-.21-2.83-19.83-14.98-23.26Z"/>
            <path class="cls-3" d="M776.72,864.1c-1.84,0-3.49-1.28-3.9-3.15-1.17-5.32-3.18-9.82-6.01-13.42-1.66,2.17-3.89,6.2-5.24,13.19-.42,2.17-2.52,3.59-4.68,3.17-2.17-.42-3.59-2.51-3.17-4.68,3.09-16.07,10.58-20.46,11.42-20.9,1.52-.8,3.37-.55,4.62.63,5.38,5.08,9.04,11.91,10.88,20.31.47,2.16-.89,4.29-3.05,4.76-.29.06-.58.09-.86.09Z"/>
            <rect class="cls-3" x="763" y="890.43" width="8" height="129.33"/>
          </g>
          <g>
            <path class="cls-3" d="M950.77,1059.72c-7.57,0-13.69-2.58-18.21-7.67-10.32-11.62-7.99-32.28-7.88-33.15.24-2.01,1.95-3.53,3.97-3.53,9.45,0,17.09,5.49,22.11,15.88.13.26.25.52.37.78,5.51-9.67,15.76-14.88,22.06-16.53,1.15-.3,2.36-.08,3.32.6s1.58,1.76,1.68,2.93c.07.87,1.66,21.45-8.99,33.03-4.67,5.07-10.86,7.65-18.42,7.65ZM932.4,1023.88c-.1,5.82.55,16.57,6.16,22.87,2.97,3.34,6.97,4.97,12.21,4.97s9.38-1.65,12.51-5.05c5.4-5.86,6.71-15.48,6.96-21.51-5.89,2.84-14.9,9.18-14.9,21.45,0,2.11-1.63,3.85-3.74,3.99-2.1.14-3.95-1.38-4.23-3.47-.03-.21-2.83-19.83-14.98-23.25Z"/>
            <path class="cls-3" d="M950.77,1108.83c-7.57,0-13.69-2.58-18.21-7.67-10.32-11.62-7.99-32.28-7.88-33.15.24-2.01,1.95-3.53,3.97-3.53,9.45,0,17.09,5.49,22.11,15.88.13.26.25.52.37.78,5.51-9.67,15.76-14.88,22.06-16.53,1.14-.3,2.36-.08,3.32.6.96.68,1.58,1.76,1.68,2.93.07.87,1.66,21.45-8.99,33.03-4.67,5.07-10.86,7.65-18.42,7.65ZM932.4,1073c-.1,5.82.55,16.57,6.16,22.87,2.97,3.34,6.97,4.97,12.21,4.97s9.38-1.65,12.51-5.05c5.4-5.86,6.71-15.48,6.96-21.51-5.89,2.84-14.9,9.18-14.9,21.45,0,2.11-1.63,3.85-3.74,3.99-2.09.14-3.95-1.38-4.23-3.47-.03-.21-2.83-19.83-14.98-23.25Z"/>
            <path class="cls-3" d="M950.77,1153.29c-7.57,0-13.69-2.58-18.21-7.67-10.32-11.62-7.99-32.28-7.88-33.15.24-2.01,1.95-3.53,3.97-3.53,9.45,0,17.09,5.49,22.11,15.88.13.26.25.52.37.78,5.51-9.67,15.76-14.88,22.06-16.53,1.15-.3,2.36-.08,3.32.6.96.68,1.58,1.76,1.68,2.93.07.87,1.66,21.45-8.99,33.03-4.67,5.07-10.86,7.65-18.42,7.65ZM932.4,1117.45c-.1,5.82.55,16.57,6.16,22.87,2.97,3.34,6.97,4.97,12.21,4.97s9.38-1.65,12.51-5.05c5.4-5.86,6.71-15.48,6.96-21.51-5.89,2.84-14.9,9.18-14.9,21.45,0,2.11-1.63,3.85-3.74,3.99-2.1.13-3.95-1.38-4.23-3.47-.03-.21-2.83-19.83-14.98-23.26Z"/>
            <path class="cls-3" d="M950.77,1014.85c-7.57,0-13.69-2.58-18.21-7.67-10.32-11.62-7.99-32.28-7.88-33.15.24-2.01,1.95-3.53,3.97-3.53,9.45,0,17.09,5.49,22.11,15.88.13.26.25.52.37.78,5.51-9.67,15.76-14.88,22.06-16.53,1.14-.3,2.36-.08,3.32.6.96.68,1.58,1.76,1.68,2.93.07.87,1.66,21.45-8.99,33.03-4.67,5.07-10.86,7.65-18.42,7.65ZM932.4,979.01c-.1,5.82.55,16.57,6.16,22.87,2.97,3.34,6.97,4.97,12.21,4.97s9.38-1.65,12.51-5.05c5.4-5.86,6.71-15.48,6.96-21.51-5.89,2.84-14.9,9.18-14.9,21.45,0,2.11-1.63,3.85-3.74,3.99-2.09.14-3.95-1.38-4.23-3.47-.03-.21-2.83-19.83-14.98-23.25Z"/>
            <path class="cls-3" d="M961.06,984.53c-1.84,0-3.49-1.28-3.9-3.15-1.17-5.32-3.18-9.82-6.01-13.42-1.66,2.17-3.89,6.2-5.24,13.19-.42,2.17-2.51,3.59-4.68,3.17-2.17-.42-3.59-2.51-3.17-4.68,3.09-16.07,10.58-20.46,11.42-20.9,1.51-.8,3.37-.55,4.62.62,5.38,5.08,9.04,11.91,10.88,20.31.47,2.16-.89,4.29-3.05,4.76-.29.06-.58.09-.86.09Z"/>
            <rect class="cls-3" x="947.34" y="1010.85" width="8" height="193.23"/>
          </g>
          <g>
            <path class="cls-3" d="M1037.6,1106.28c-7.57,0-13.69-2.58-18.21-7.67-10.32-11.62-7.99-32.28-7.88-33.15.24-2.01,1.95-3.53,3.97-3.53,9.45,0,17.09,5.49,22.11,15.88.13.26.25.52.37.78,5.51-9.67,15.76-14.88,22.06-16.53,1.14-.3,2.36-.08,3.32.6.96.68,1.58,1.76,1.68,2.93.07.87,1.66,21.45-8.99,33.03-4.67,5.07-10.86,7.65-18.42,7.65ZM1019.23,1070.44c-.1,5.82.55,16.57,6.16,22.87,2.97,3.34,6.97,4.97,12.21,4.97s9.39-1.66,12.53-5.06c5.11-5.56,6.67-14.98,6.96-21.5-5.89,2.83-14.92,9.17-14.92,21.45,0,2.11-1.63,3.85-3.74,3.99-2.12.13-3.95-1.38-4.23-3.47-.03-.21-2.83-19.83-14.98-23.25Z"/>
            <path class="cls-3" d="M1037.6,1155.39c-7.57,0-13.69-2.58-18.21-7.67-10.32-11.62-7.99-32.28-7.88-33.15.24-2.01,1.95-3.53,3.97-3.53,9.45,0,17.09,5.49,22.11,15.88.13.26.25.52.37.78,5.51-9.67,15.76-14.88,22.06-16.53,1.14-.3,2.36-.08,3.32.6.96.68,1.58,1.76,1.68,2.93.07.87,1.66,21.46-8.99,33.03-4.67,5.07-10.86,7.65-18.42,7.65ZM1019.23,1119.55c-.1,5.82.55,16.57,6.16,22.87,2.97,3.34,6.97,4.97,12.21,4.97s9.38-1.65,12.51-5.05c5.4-5.86,6.71-15.48,6.96-21.51-5.89,2.84-14.9,9.18-14.9,21.45,0,2.11-1.63,3.85-3.74,3.99-2.12.13-3.95-1.38-4.23-3.47-.03-.21-2.83-19.83-14.98-23.26Z"/>
            <path class="cls-3" d="M1037.6,1199.85c-7.57,0-13.69-2.58-18.21-7.67-10.32-11.62-7.99-32.28-7.88-33.15.24-2.01,1.95-3.53,3.97-3.53,9.45,0,17.09,5.49,22.11,15.88.13.26.25.52.37.78,5.51-9.67,15.76-14.88,22.06-16.53,1.14-.3,2.36-.08,3.32.6.96.68,1.58,1.76,1.68,2.93.07.87,1.66,21.46-8.99,33.03-4.67,5.07-10.86,7.65-18.42,7.65ZM1019.23,1164.01c-.1,5.82.55,16.57,6.16,22.87,2.97,3.34,6.97,4.97,12.21,4.97s9.38-1.65,12.51-5.05c5.4-5.86,6.71-15.48,6.96-21.51-5.89,2.84-14.9,9.18-14.9,21.45,0,2.11-1.63,3.85-3.74,3.99-2.12.15-3.95-1.38-4.23-3.47-.03-.21-2.83-19.83-14.98-23.25Z"/>
            <path class="cls-3" d="M1037.6,1061.41c-7.57,0-13.69-2.58-18.21-7.67-10.32-11.62-7.99-32.28-7.88-33.15.24-2.01,1.95-3.53,3.97-3.53,9.45,0,17.09,5.49,22.11,15.88.13.26.25.52.37.78,5.51-9.67,15.76-14.88,22.06-16.53,1.14-.3,2.36-.08,3.32.6.96.68,1.58,1.76,1.68,2.93.07.87,1.66,21.46-8.99,33.03-4.67,5.07-10.86,7.65-18.42,7.65ZM1019.23,1025.57c-.1,5.82.55,16.57,6.16,22.87,2.97,3.34,6.97,4.97,12.21,4.97s9.38-1.65,12.51-5.05c5.4-5.86,6.71-15.48,6.96-21.51-5.89,2.84-14.9,9.18-14.9,21.45,0,2.11-1.63,3.85-3.74,3.99-2.12.14-3.95-1.38-4.23-3.47-.03-.21-2.83-19.83-14.98-23.26Z"/>
            <path class="cls-3" d="M1047.89,1031.09c-1.84,0-3.49-1.28-3.9-3.15-1.17-5.32-3.18-9.82-6.02-13.42-1.66,2.17-3.89,6.2-5.24,13.19-.42,2.17-2.51,3.58-4.68,3.17-2.17-.42-3.59-2.51-3.17-4.68,3.09-16.07,10.58-20.46,11.42-20.9,1.51-.8,3.37-.55,4.62.63,5.38,5.08,9.04,11.91,10.88,20.31.47,2.16-.89,4.29-3.05,4.76-.29.06-.58.09-.86.09Z"/>
            <rect class="cls-3" x="1034.17" y="1057.41" width="8" height="193.23"/>
          </g>
          <g>
            <path class="cls-2" d="M1197.99,966.43c-6.87,0-12.43-2.35-16.54-6.97-9.31-10.49-7.22-29.07-7.12-29.85.24-2.01,1.95-3.53,3.97-3.53,8.57,0,15.5,4.96,20.05,14.33,5.06-8.27,13.95-12.75,19.48-14.2,1.14-.3,2.36-.08,3.32.6.96.68,1.58,1.76,1.68,2.93.07.78,1.49,19.29-8.12,29.74-4.24,4.61-9.86,6.95-16.71,6.95ZM1182.07,934.67c-.04,5.23.66,14.18,5.38,19.48,2.56,2.87,6.01,4.27,10.54,4.27s8.11-1.42,10.81-4.35c4.5-4.88,5.75-12.8,6.04-18.12-5.13,2.62-12.35,8.14-12.35,18.36,0,2.11-1.63,3.85-3.74,3.99-2.1.12-3.95-1.38-4.23-3.47,0-.05-.79-5.65-3.44-11.06-2.37-4.85-5.4-7.9-9.02-9.11Z"/>
            <path class="cls-2" d="M1197.99,1010.14c-6.87,0-12.43-2.35-16.54-6.97-9.31-10.49-7.22-29.06-7.12-29.85.24-2.01,1.95-3.53,3.97-3.53,8.57,0,15.5,4.96,20.05,14.33,5.06-8.27,13.95-12.75,19.48-14.2,1.14-.3,2.36-.08,3.32.6.96.68,1.58,1.76,1.68,2.93.07.78,1.49,19.29-8.12,29.74-4.24,4.61-9.86,6.95-16.71,6.95ZM1182.07,978.39c-.04,5.23.66,14.18,5.38,19.48,2.56,2.87,6.01,4.27,10.54,4.27s8.13-1.43,10.83-4.36c4.28-4.65,5.71-12.43,6.05-18.11-5.13,2.62-12.37,8.13-12.37,18.37,0,2.11-1.63,3.85-3.74,3.99-2.09.14-3.95-1.38-4.23-3.47,0-.05-.79-5.65-3.44-11.06-2.37-4.85-5.4-7.9-9.02-9.11Z"/>
            <path class="cls-2" d="M1197.99,1049.71c-6.87,0-12.43-2.35-16.54-6.97-9.31-10.49-7.22-29.07-7.12-29.85.24-2.01,1.95-3.53,3.97-3.53,8.57,0,15.5,4.96,20.05,14.33,5.06-8.27,13.95-12.75,19.48-14.2,1.14-.3,2.36-.08,3.32.6.96.68,1.58,1.76,1.68,2.93.07.78,1.49,19.29-8.12,29.74-4.24,4.61-9.86,6.95-16.71,6.95ZM1182.07,1017.96c-.04,5.23.66,14.18,5.38,19.48,2.56,2.87,6.01,4.27,10.54,4.27s8.11-1.42,10.81-4.35c4.5-4.88,5.75-12.8,6.04-18.12-5.13,2.62-12.35,8.13-12.35,18.36,0,2.11-1.63,3.85-3.74,3.99-2.1.14-3.95-1.38-4.23-3.47,0-.05-.79-5.65-3.44-11.06-2.37-4.85-5.4-7.9-9.02-9.11Z"/>
            <path class="cls-2" d="M1197.99,926.49c-6.87,0-12.43-2.35-16.54-6.97-9.31-10.49-7.22-29.07-7.12-29.85.24-2.01,1.95-3.53,3.97-3.53,8.57,0,15.5,4.96,20.05,14.33,5.06-8.27,13.95-12.75,19.48-14.2,1.14-.3,2.36-.08,3.32.6.96.68,1.58,1.76,1.68,2.93.07.78,1.49,19.29-8.12,29.74-4.24,4.61-9.86,6.95-16.71,6.95ZM1182.07,894.74c-.04,5.23.66,14.18,5.38,19.48,2.56,2.87,6.01,4.27,10.54,4.27s8.11-1.42,10.81-4.35c4.5-4.88,5.75-12.8,6.04-18.12-5.13,2.62-12.35,8.14-12.35,18.36,0,2.11-1.63,3.85-3.74,3.99-2.1.14-3.95-1.38-4.23-3.47,0-.05-.79-5.65-3.44-11.06-2.37-4.85-5.4-7.9-9.02-9.11Z"/>
            <path class="cls-2" d="M1207.15,899.5c-1.84,0-3.49-1.28-3.9-3.15-.97-4.45-2.62-8.23-4.92-11.31-1.39,1.97-3.14,5.41-4.24,11.09-.42,2.17-2.52,3.6-4.68,3.17-2.17-.42-3.59-2.51-3.17-4.68,2.79-14.51,9.62-18.5,10.39-18.91,1.52-.8,3.37-.55,4.62.62,4.85,4.58,8.15,10.74,9.81,18.3.47,2.16-.89,4.29-3.05,4.76-.29.06-.58.09-.86.09Z"/>
            <rect class="cls-2" x="1194.5" y="922.49" width="8" height="178.3"/>
          </g>
          <g>
            <g>
              <path class="cls-5" d="M1265.61,986.08s-3.86,32.35,19.69,32.35,20.85-32.35,20.85-32.35c0,0-20.34,5.33-20.34,24.24,0,0-3.21-24.24-20.2-24.24Z"/>
              <path class="cls-2" d="M1285.3,1022.43c-6.87,0-12.43-2.35-16.54-6.97-9.31-10.49-7.22-29.07-7.12-29.85.24-2.01,1.95-3.53,3.97-3.53,8.57,0,15.5,4.96,20.05,14.33,5.06-8.27,13.95-12.75,19.48-14.2,1.14-.3,2.36-.08,3.32.6.96.68,1.58,1.76,1.68,2.93.07.78,1.49,19.29-8.12,29.74-4.24,4.61-9.87,6.95-16.72,6.95ZM1269.38,990.67c-.04,5.23.66,14.18,5.38,19.48,2.56,2.87,6.01,4.27,10.54,4.27s8.11-1.42,10.81-4.35c4.5-4.88,5.75-12.8,6.04-18.12-5.13,2.62-12.35,8.14-12.35,18.36,0,2.11-1.63,3.85-3.74,3.99-2.11.14-3.95-1.38-4.23-3.47,0-.05-.79-5.65-3.44-11.06-2.37-4.85-5.4-7.9-9.02-9.11Z"/>
            </g>
            <g>
              <path class="cls-5" d="M1265.61,1029.79s-3.86,32.35,19.69,32.35,20.85-32.35,20.85-32.35c0,0-20.34,5.33-20.34,24.24,0,0-3.21-24.24-20.2-24.24Z"/>
              <path class="cls-2" d="M1285.3,1066.14c-6.87,0-12.43-2.35-16.54-6.97-9.31-10.49-7.22-29.06-7.12-29.85.24-2.01,1.95-3.53,3.97-3.53,8.57,0,15.5,4.96,20.05,14.33,5.06-8.27,13.95-12.75,19.48-14.2,1.14-.3,2.36-.08,3.32.6.96.68,1.58,1.76,1.68,2.93.07.78,1.49,19.29-8.12,29.73-4.24,4.61-9.87,6.95-16.72,6.95ZM1269.38,1034.39c-.04,5.23.66,14.18,5.38,19.48,2.56,2.87,6.01,4.27,10.54,4.27s8.13-1.43,10.83-4.36c4.28-4.65,5.71-12.43,6.04-18.11-5.13,2.62-12.36,8.13-12.36,18.37,0,2.11-1.63,3.85-3.74,3.99-2.12.15-3.95-1.38-4.23-3.47,0-.05-.79-5.65-3.44-11.06-2.37-4.85-5.4-7.9-9.02-9.11Z"/>
            </g>
            <g>
              <path class="cls-5" d="M1265.61,1069.36s-3.86,32.35,19.69,32.35,20.85-32.35,20.85-32.35c0,0-20.34,5.33-20.34,24.24,0,0-3.21-24.24-20.2-24.24Z"/>
              <path class="cls-2" d="M1285.3,1105.71c-6.87,0-12.43-2.35-16.54-6.97-9.31-10.49-7.22-29.07-7.12-29.85.24-2.01,1.95-3.53,3.97-3.53,8.57,0,15.5,4.96,20.05,14.33,5.06-8.27,13.95-12.75,19.48-14.2,1.14-.3,2.36-.08,3.32.6.96.68,1.58,1.76,1.68,2.93.07.78,1.49,19.29-8.12,29.74-4.24,4.61-9.87,6.95-16.72,6.95ZM1269.38,1073.96c-.04,5.23.66,14.18,5.38,19.48,2.56,2.87,6.01,4.27,10.54,4.27s8.11-1.42,10.81-4.35c4.5-4.88,5.75-12.8,6.04-18.12-5.13,2.62-12.35,8.14-12.35,18.36,0,2.11-1.63,3.85-3.74,3.99-2.11.14-3.95-1.38-4.23-3.47,0-.05-.79-5.65-3.44-11.06-2.37-4.85-5.4-7.9-9.02-9.11Z"/>
            </g>
            <g>
              <path class="cls-5" d="M1265.61,946.14s-3.86,32.35,19.69,32.35,20.85-32.35,20.85-32.35c0,0-20.34,5.33-20.34,24.24,0,0-3.21-24.24-20.2-24.24Z"/>
              <path class="cls-2" d="M1285.3,982.49c-6.87,0-12.43-2.35-16.54-6.97-9.31-10.49-7.22-29.07-7.12-29.85.24-2.01,1.95-3.53,3.97-3.53,8.57,0,15.5,4.96,20.05,14.33,5.06-8.27,13.95-12.75,19.48-14.2,1.15-.3,2.36-.08,3.32.6.96.68,1.58,1.76,1.68,2.93.07.78,1.49,19.29-8.12,29.74-4.24,4.61-9.87,6.95-16.72,6.95ZM1269.38,950.74c-.04,5.23.66,14.18,5.38,19.48,2.56,2.87,6.01,4.27,10.54,4.27s8.11-1.42,10.81-4.35c4.5-4.88,5.75-12.8,6.04-18.12-5.13,2.62-12.35,8.14-12.35,18.36,0,2.11-1.63,3.85-3.74,3.99-2.11.13-3.95-1.38-4.23-3.47,0-.05-.79-5.65-3.44-11.06-2.37-4.85-5.4-7.9-9.02-9.11Z"/>
            </g>
            <g>
              <path class="cls-5" d="M1294.46,951.5c-1.19-5.42-3.65-11.53-8.65-16.25,0,0-5.83,3.09-8.34,16.13"/>
              <path class="cls-2" d="M1294.45,955.5c-1.84,0-3.49-1.28-3.9-3.15-.97-4.45-2.62-8.23-4.92-11.31-1.39,1.97-3.14,5.41-4.24,11.09-.42,2.17-2.52,3.6-4.68,3.17-2.17-.42-3.59-2.51-3.17-4.68,2.79-14.51,9.62-18.5,10.39-18.91,1.52-.8,3.37-.55,4.62.62,4.85,4.58,8.16,10.74,9.81,18.3.47,2.16-.89,4.29-3.05,4.76-.29.06-.58.09-.86.09Z"/>
            </g>
            <rect class="cls-2" x="1281.81" y="978.49" width="8" height="169.82"/>
          </g>
          <g>
            <path class="cls-2" d="M1356.99,1081.27c-6.87,0-12.43-2.35-16.54-6.97-9.31-10.49-7.22-29.06-7.12-29.85.24-2.01,1.95-3.53,3.97-3.53,8.57,0,15.5,4.96,20.05,14.33,5.06-8.27,13.95-12.75,19.48-14.2,1.14-.3,2.36-.08,3.32.6.96.68,1.58,1.76,1.68,2.93.07.78,1.49,19.29-8.12,29.73-4.24,4.61-9.87,6.95-16.72,6.95ZM1341.07,1049.52c-.04,5.23.66,14.18,5.38,19.48,2.56,2.87,6.01,4.27,10.54,4.27s8.13-1.43,10.83-4.36c4.28-4.65,5.71-12.43,6.04-18.11-5.13,2.62-12.36,8.13-12.36,18.37,0,2.11-1.63,3.85-3.74,3.99-2.12.14-3.95-1.38-4.23-3.47,0-.05-.79-5.65-3.44-11.06-2.37-4.85-5.4-7.9-9.02-9.11Z"/>
            <path class="cls-2" d="M1356.99,1124.99c-6.87,0-12.43-2.35-16.54-6.97-9.31-10.49-7.22-29.07-7.12-29.85.24-2.01,1.95-3.53,3.97-3.53,8.57,0,15.5,4.96,20.05,14.33,5.06-8.27,13.95-12.75,19.48-14.2,1.14-.3,2.36-.08,3.32.6.96.68,1.58,1.76,1.68,2.93.07.78,1.49,19.29-8.12,29.74-4.24,4.61-9.87,6.95-16.72,6.95ZM1341.07,1093.24c-.04,5.23.66,14.18,5.38,19.48,2.56,2.87,6.01,4.27,10.54,4.27s8.11-1.42,10.81-4.35c4.5-4.88,5.75-12.8,6.04-18.12-5.13,2.62-12.35,8.14-12.35,18.36,0,2.11-1.63,3.85-3.74,3.99-2.1.12-3.95-1.38-4.23-3.47,0-.05-.79-5.65-3.44-11.06-2.37-4.85-5.4-7.9-9.02-9.11Z"/>
            <path class="cls-2" d="M1356.99,1164.56c-6.87,0-12.43-2.35-16.54-6.97-9.31-10.49-7.22-29.07-7.12-29.85.24-2.01,1.95-3.53,3.97-3.53,8.57,0,15.5,4.96,20.05,14.33,5.06-8.27,13.95-12.75,19.48-14.2,1.15-.3,2.36-.08,3.32.6.96.68,1.58,1.76,1.68,2.93.07.78,1.49,19.29-8.12,29.74-4.24,4.61-9.87,6.95-16.72,6.95ZM1341.07,1132.81c-.04,5.23.66,14.18,5.38,19.48,2.56,2.87,6.01,4.27,10.54,4.27s8.11-1.42,10.81-4.35c4.5-4.88,5.75-12.8,6.04-18.12-5.13,2.62-12.35,8.14-12.35,18.36,0,2.11-1.63,3.85-3.74,3.99-2.1.13-3.95-1.38-4.23-3.47,0-.05-.79-5.65-3.44-11.06-2.37-4.85-5.4-7.9-9.02-9.11Z"/>
            <path class="cls-2" d="M1356.99,1041.34c-6.87,0-12.43-2.35-16.54-6.97-9.31-10.49-7.22-29.06-7.12-29.85.24-2.01,1.95-3.53,3.97-3.53,8.57,0,15.5,4.96,20.05,14.33,5.06-8.27,13.95-12.75,19.48-14.2,1.14-.3,2.36-.08,3.32.6.96.68,1.58,1.76,1.68,2.93.07.78,1.49,19.29-8.12,29.73-4.24,4.61-9.87,6.95-16.72,6.95ZM1341.07,1009.59c-.04,5.23.66,14.18,5.38,19.48,2.56,2.87,6.01,4.27,10.54,4.27s8.13-1.43,10.83-4.36c4.28-4.65,5.71-12.43,6.04-18.11-5.13,2.62-12.36,8.13-12.36,18.37,0,2.11-1.63,3.85-3.74,3.99-2.12.13-3.95-1.38-4.23-3.47,0-.05-.79-5.65-3.44-11.06-2.37-4.85-5.4-7.9-9.02-9.11Z"/>
            <path class="cls-2" d="M1366.15,1014.35c-1.84,0-3.49-1.28-3.9-3.15-.97-4.45-2.62-8.23-4.92-11.31-1.39,1.97-3.14,5.41-4.24,11.09-.42,2.17-2.51,3.59-4.68,3.17-2.17-.42-3.59-2.51-3.17-4.68,2.79-14.5,9.62-18.5,10.39-18.91,1.52-.8,3.37-.55,4.62.62,4.85,4.58,8.16,10.74,9.81,18.3.47,2.16-.89,4.29-3.05,4.76-.29.06-.58.09-.86.09Z"/>
            <rect class="cls-2" x="1353.5" y="1037.34" width="8" height="171.99"/>
          </g>
          <path class="cls-5" d="M576.22,881.72c3.1-15.74,11.47-31.46,27.92-43.57,7.34,22.9,14.25,47.29.64,69.04-3.5,5.6-20.55,31.06-28.43,16.03-6.1-11.64-2.49-29.54-.14-41.51Z"/>
          <path class="cls-5" d="M616.65,903.32c.45-16.04,6.11-32.92,20.33-47.59,11.03,21.37,21.88,44.28,12.06,67.99-2.53,6.1-15.13,34.04-25.39,20.51-7.94-10.47-7.35-28.72-7-40.91Z"/>
          <path class="cls-5" d="M656.81,950.2c-.16-16.04,4.85-33.13,18.5-48.33,11.83,20.93,23.55,43.41,14.64,67.48-2.29,6.19-13.82,34.59-24.59,21.47-8.34-10.16-8.44-28.42-8.56-40.62Z"/>
          <path class="cls-5" d="M691.89,1010.92c.63-16.03,6.46-32.85,20.84-47.36,10.79,21.48,21.4,44.51,11.33,68.11-2.59,6.07-15.49,33.87-25.61,20.24-7.83-10.55-7.04-28.8-6.56-40.99Z"/>
        </g>
      </g>
    </g>
  </g>
</svg>