<?xml version="1.0" encoding="UTF-8"?>
<svg xmlns="http://www.w3.org/2000/svg" xmlns:xlink="http://www.w3.org/1999/xlink" version="1.1" viewBox="0 0 1429.71 1177.07">
  <defs>
    <style>
      .cls-1 {
        fill: none;
      }

      .cls-2 {
        fill: #fff;
      }

      .cls-3 {
        fill: #abdfea;
      }

      .cls-4 {
        fill: #007b3c;
      }

      .cls-5 {
        fill: #a0c86a;
      }

      .cls-6 {
        fill: #84bc41;
      }

      .cls-7 {
        fill: #009d5a;
      }

      .cls-8 {
        clip-path: url(#clippath);
      }
    </style>
    <clipPath id="clippath">
      <rect class="cls-1" y="-.65" width="1429.71" height="1178.04"/>
    </clipPath>
  </defs>
  <!-- Generator: Adobe Illustrator 28.6.0, SVG Export Plug-In . SVG Version: 1.2.0 Build 709)  -->
  <g>
    <g id="fondo">
      <path class="cls-4" d="M1404.71,24.35v1127.72H25V24.35h1379.71M1429.71-.65H0v1177.72h1429.71V-.65h0Z"/>
      <g class="cls-8">
        <path class="cls-4" d="M1273.46,762.25c-64.27-8.36-129.69-4.44-192.9,11.55-10.37,2.62-22.92,8.54-23.41,20.96-.31,7.88,4.67,14.45,8.39,21.03,1.64,2.91,3.04,6.93,1.18,9.65-1.12,1.64-3.03,2.14-4.79,2.53-14.58,3.23-29.16,6.47-43.73,9.7-11.81,2.62-24.44,5.74-32.73,15.95-8.29,10.21-8.8,29.99,1.96,36.28-20.4,1.94-40.42,9.16-58.23,21-6.45,4.29-13.39,13.49-8.85,20.36,1.84,2.79,4.99,3.83,7.92,4.64,65.47,18.04,133.8,4.97,200.69-3.28,59.23-7.31,118.78-10.78,178.32-12.46,12.93-.37,28.44-2.46,34.15-16.07,2.17-5.17,2.41-11.11,2.61-16.87.69-19.51,1.38-39.02,2.06-58.53.31-8.74.58-17.79-2.17-25.92-2.95-8.73-9.02-15.4-14.9-21.76-9.82-10.61-21.42-21.97-34.7-20.32"/>
        <path class="cls-5" d="M1428.18,677.43c-25.9,2.95-51.76,6.4-77.55,10.34-16.49,2.52-50.23,2.61-54.49,25.18-2.21,11.69,5.73,24.47,16.75,26.96-12.76-.77-26.37.57-36.68,8.57-10.3,8-15.57,24.39-8.42,35.6-9.93,3.64-20.71,3.18-31.21,3.62-10.5.45-21.58,2.11-29.77,9.07-8.19,6.96-11.95,20.79-5.4,29.49-10.53-1.27-21.45-1.79-31.49,1.8-10.04,3.6-19.1,12.11-20.97,23.15-2.63,15.54,12.52,31.27,27.16,28.19-6.62,5.46-12.5,12.83-13.53,21.65-1.87,16.05,13.62,22.11,25.69,24.09,35.96,5.91,194.95-2.07,241.44-8.63"/>
        <path class="cls-3" d="M1403.32,1163.05h-838.27c-.41,0-2.49-6.88-2.64-10.41-.87-20.86-1.74-41.73-2.61-62.59-.37-8.89.53-18.72-.98-27.36-1.84-10.6-6.7-20.04-7.31-31.07-.67-12,2.44-24.75,10.95-33.23,15.96-15.91,42.57-11.1,63.97-18.16,11.25-3.71,21.08-10.8,32.09-15.18,11.28-4.49,23.48-6.03,35.53-7.53,12.55-1.56,24.94-4.12,37.28-6.08,12.86-2.05,26.09.31,39.13-1.96,13.3-2.32,25.9-7.93,39.28-9.8,9.64-1.35,19.44-.71,29.15.08,17.94,1.45,36.3,3.35,53.69-1.3,8.36-2.24,16.35-5.97,24.92-7.22,9.54-1.38,250.62-17.7,260.09-15.93,36.51,6.85-156.14,37.3-119.33,33.35,42.5-4.56,87.86-.18,130.62-.18h203.3l11.14,214.57Z"/>
        <path class="cls-5" d="M1429.71,1177.07s-210.6,5.69-334.72-.91c-34.2-1.82-61.84-2.42-76.69-1.01-68.72,6.57-128.37-10.51-133.55-21.02-5.19-10.51,97.94-34.16,114.1-39.59,3.89-1.31,7.78-14.28,7.78-14.28l-20.75-9.2s-55.76-7.88-80.39-18.39c-24.64-10.51-136.15-34.16-136.15-34.16l-9.08-32.85,12.97-13.14c41.49-7.58,656.47-13.14,656.47-13.14"/>
        <path class="cls-7" d="M760.27,1005.66l5.09,34.69s75.86,19.99,94.55,26.22c18.68,6.23,111.75,24.17,111.75,24.17,0,0,33.74,3.52,23.77,24.85,0,0,13.07-1.62,13.07-10.34,0-17.03-2.84-26.71-2.84-26.71,0,0-25.25-11.83-45.93-18.61-11.86-3.88-102.54-20.32-140.34-30.3-44.48-11.75-59.13-23.98-59.13-23.98Z"/>
        <path class="cls-4" d="M600.91,1160.67c42.63,3.69,24.97,15.06,42.63,3.69,16.69-10.75,33.42-21.52,51.08-30.61,9.73-5.01,20.25-9.95,26.1-19.2,5.84-9.25,3.92-24.26-6.44-27.76-5.49-1.85-11.57-.01-17.28-1.04-11.77-2.12-20.19-15.94-32.06-14.49-1.95.24-4.03.88-5.78,0-2.42-1.21-2.74-4.46-2.75-7.16-.02-8.17-.04-16.34-.06-24.51-12.15,8.44-24.31,16.88-36.46,25.31-.59.41-3.09-19.24-9.07-9.08-3.22-11.5-12.26-21.21-23.5-25.24-11.24-4.03-24.39-2.27-34.18,4.57-.59-11.95-4.91-23.97-13.34-32.46-4.32-4.35-9.74-7.64-15.61-9.41-5.1-1.54-11.71.35-16.3-1.4-4.74-1.81-4.52-6.75-7.05-10.84-2.79-4.52-7.04-8.17-11.71-10.64-8.05-4.25-17.33-5.45-26.41-6.05-18.72-1.23-37.58-.16-56.04,3.14-9.23,1.65-18.36,3.85-27.33,6.6-7.49,2.3-17.64,1.36-23.99,6.36-2.51,1.98-4.59,5.02-7.77,5.32-5.08.47-7.95-6.2-12.86-7.58-3.67-1.03-7.38,1.12-11.04,2.2-9.61,2.82-20.92-3.01-24.2-12.48-4.01,4.99-8.26,10.16-14.16,12.64-5.9,2.47-13.92,1.15-16.85-4.54-3.25,5.42-11.27-.29-17.58-.64-5.65-.32-10.21,4.19-14.88,7.39-12.08,8.29-44.42,8.99-56.86.29-5.03-3.51-8.51-8.82-11.29-14.29-.76,6.25-7.75,10.93-13.82,9.25-5.59-1.55-8.95-7.06-13.25-10.96-4.3-3.9-12.2-5.72-15.15-.73-1.91,3.23-1.31,8.62-4.94,9.58-1.62.43-3.27-.41-4.9-.78-3.8-.86-7.68.84-11.08,2.75-3.71,2.08-7.26,4.46-10.6,7.11-1.5,1.19-2.99,2.45-4.79,3.1-1.62.58-3.38.62-5.09.59-18.66-.31-37.3-6.46-55.47,2.1-3.29,1.55-17.65.22-16.07-3.05l-.64,178.92,588.85-5.96Z"/>
        <path class="cls-6" d="M1429.71,885.81c-8.13-6.27-48.52-19.91-58.04-12.55-4.27,3.3-7.64,7.88-9.69,12.86-.68,1.64-4.31,12.75-2.18,13.9-3.58-1.93-7.33-3.8-11.39-4.08-4.05-.28-8.51,1.42-10.34,5.05-4.34-8.68-15.4-12.23-25-10.79-9.62,1.44-16.34,8.53-25.27,10.78-8.11,2.05-16.55-2.52-23.96-5.12-7.55-2.65-18.58-.82-19.47,7.7-6.13-1.21-13.22-3.33-19.18-1.26-4.28,1.49-11.43,10.01-15.43,10.02-3.67.01-7.64.12-10.55,2.36-1.97,1.51-3.34,3.94-5.71,4.66-2.45.75-5.01-.59-7.21-1.92-2.66-1.61-5.84-3.33-8.7-2.11-5.85,2.49-6.93,3.33-13.03,2.24-3.45-.62-4.58-.89-7.8.53-1.43.63-13.29,9.36-11.66,10.04-13.61-5.62-29.92-4.16-42.32,3.79-10.48-3.37-22.57-6.58-31.93-.78-3.66,2.27-6.44,5.7-9.92,8.24-9,6.54-19.66-.56-28.97,4.72-1.46.83-2.84,1.87-4.48,2.23-1.5.33-3.07.05-4.59-.19-7.83-1.23-17.17-.84-21.89,5.53-1.54,2.08-2.46,4.67-4.45,6.33-4.36,3.64-10.93.99-16.55,1.73-7,.92-12.49,8.21-11.45,15.19-11.61-.93-25.03-1.18-32.8,7.5-1.58,1.76-2.86,3.95-2.91,6.31-.12,5.27,5.73,8.77,10.99,9.2,37.77,3.09,74.58-4.96,111.94-9,64.04-6.93,128.64,3.89,192.93.7,54.8-2.72,154.46-4.26,180.99-10.24"/>
        <path class="cls-6" d="M0,785.78c13.83-3.63,38.63,4.1,48.55,14.4,9.92,10.3,15.85,23.7,21.58,36.8,16.81-1.75,33.61,12.36,34.8,29.22,6.88-4.7,14.15-9.56,22.44-10.37,8.29-.81,17.77,3.99,19.12,12.21,9.69-7.08,23.5-7.99,34.03-2.24,10.53,5.75,17.24,17.86,16.52,29.84,13.26-2.79,27.93,5.95,31.78,18.94,2.25,7.58,1.19,16.03,4.53,23.19,1.85,3.96,4.93,7.24,6.73,11.22,5.07,11.19-1.71,24.88-11.94,31.68-10.23,6.8-19.66,22.92-31.86,24.36l-196.29-2.85"/>
        <path class="cls-5" d="M444.23,903.18c.11-11.59-8.69-21.88-19.29-26.57-10.6-4.69-22.65-4.74-34.19-3.62-3.17-10.44-11.58-19.16-21.9-22.71-10.32-3.55-22.31-1.85-31.23,4.43-2.09,1.47-4.04,3.18-6.29,4.39-2.04,1.09-4.27,1.74-6.42,2.58-12.72,4.94-21.83,16.53-24.61,29.76-16.45-4.37-43.82-3.67-61.02-1.36-18.77,2.52-38.69,18.9-33.54,37.13-12.41-3.54-26.28-1.55-37.2,5.33-3.14,1.98-6.13,4.38-9.72,5.37-7.01,1.94-15.7-1.63-21.14,3.2-3.46,3.07-3.9,8.22-4.09,12.84-.37,8.89-.58,18.45,4.31,25.9,7.85,11.96,24.66,13.06,38.97,12.91,60-.65,120.01-1.3,180.01-1.95,3.87-.04,7.88-.12,11.36-1.82,4.12-2.01,6.87-6,10.55-8.74,5.71-4.25,13.14-5.18,20.21-5.98,12.86-1.45,25.72-2.89,38.58-4.34,2.68-.3,5.57-.7,7.49-2.59,2.06-2.03,2.4-5.16,3.55-7.81,5.88-13.66,26.49-8.57,40.28-14.12,6.19-9.71,5.02-23.51-2.72-32.03-7.74-8.52-21.36-11.01-31.62-5.78"/>
        <path class="cls-2" d="M129.64,969.47c-19.61,0-29.35-2.42-31.22-9.18-3.68-10.35-1-22.55,6.69-30.4,6.35-6.49,15.72-9.62,24.68-8.56.38-6.45,3.82-12.7,9.34-16.19,5.79-3.67,13.35-3.98,19.51-1.15,2.11-3.38,5.53-6.41,10.11-8.93,12.25-6.74,31.83-9.34,43.93-6.01-.48-1.06-.5-2.32.06-3.45.99-1.98,3.39-2.78,5.37-1.79,6.27,3.14,10.81,9.93,12.12,18.17.85,5.34.38,10.73-.33,15.74,6.17.52,13.05,1.61,18.9,5.27,7.59,4.75,12.98,15.34,8.46,24.17-4.32,8.44-11.67,17.11-33.36,17.47-13.33.22-29.44,1.35-45.03,2.44-20.65,1.44-36.89,2.4-49.23,2.4ZM126.4,929.14c-5.76,0-11.6,2.27-15.59,6.34-5.54,5.66-7.52,14.81-4.82,22.25.05.13.09.27.12.4.17.28,2.5,3.28,22.78,3.37,13.79.07,31.89-1.2,49.41-2.42,15.69-1.1,31.91-2.23,45.45-2.45,19.81-.33,23.92-8.34,26.37-13.12,2.34-4.57-1.06-10.91-5.58-13.74-5.57-3.49-12.98-3.96-19.53-4.38-1.12-.07-2.17-.62-2.87-1.5-.7-.88-1-2.01-.83-3.13.93-5.84,1.89-11.88.99-17.53-.71-4.45-2.64-8.22-5.34-10.61.12.65.08,1.34-.15,2.01-.72,2.09-2.99,3.2-5.08,2.48-8.76-3.01-27.37-1.54-39.14,4.94-3.25,1.79-7.33,4.75-8.27,8.68-.32,1.35-1.32,2.44-2.64,2.87-1.32.44-2.77.15-3.83-.74-3.92-3.3-10.13-3.72-14.46-.98-4.33,2.74-6.6,8.54-5.29,13.49.38,1.42-.06,2.94-1.14,3.95-1.08,1-2.62,1.34-4.02.87-2.1-.71-4.32-1.05-6.56-1.05Z"/>
        <g>
          <path class="cls-7" d="M181.88,1027.3c-2.21,0-4-1.79-4-4v-50.51c0-1.35.68-2.6,1.8-3.34.25-.17,25.4-17.04,26.15-38.71.08-2.21,1.96-3.9,4.14-3.86,2.21.08,3.94,1.93,3.86,4.14-.77,22.33-21.57,39.19-27.95,43.85v48.44c0,2.21-1.79,4-4,4Z"/>
          <path class="cls-7" d="M199.18,960.59c-.26,0-.53-.03-.79-.08-.21-.04-20.54-4.51-17.6-33.96.22-2.2,2.17-3.81,4.38-3.58,2.2.22,3.8,2.18,3.58,4.38-2.2,22,10.72,25.21,11.27,25.33,2.14.49,3.51,2.61,3.05,4.75-.4,1.87-2.04,3.16-3.88,3.16Z"/>
          <path class="cls-7" d="M181.89,976.79c-.18,0-.36-.01-.55-.04-.26-.04-25.77-3.87-29.36-34.51-.26-2.19,1.31-4.18,3.51-4.44,2.2-.26,4.18,1.31,4.44,3.51,2.85,24.34,21.72,27.4,22.52,27.52,2.18.32,3.7,2.34,3.39,4.52-.28,2-1.99,3.44-3.95,3.44Z"/>
        </g>
        <path class="cls-4" d="M298.25,948.07h-.05c-10.94-.13-20-6.53-26.18-18.5-4.42-8.55-5.82-16.96-5.88-17.32-.35-2.18,1.12-4.24,3.31-4.59,2.18-.35,4.23,1.12,4.59,3.3.03.18,1.33,7.72,5.17,15.09,4.71,9.02,10.98,13.73,18.64,14,2.16-.63,19.02-6.9,17.36-48.36-.09-2.21,1.63-4.07,3.84-4.16.05,0,.11,0,.16,0,2.13,0,3.91,1.69,3.99,3.84,2.08,51.87-23.25,56.48-24.33,56.65-.21.03-.42.05-.62.05Z"/>
        <path class="cls-4" d="M294.23,1006.18c-2.21,0-4-1.79-4-4v-81.56c0-2.21,1.79-4,4-4s4,1.79,4,4v81.56c0,2.21-1.79,4-4,4Z"/>
        <path class="cls-4" d="M318.71,919.57c-.68,0-1.11-.03-1.19-.04-2.2-.17-3.85-2.09-3.68-4.29.17-2.2,2.08-3.87,4.28-3.68.16,0,7.96.44,13.29-4.55,3.59-3.36,5.41-8.56,5.41-15.46,0-2.21,1.79-4,4-4s4,1.79,4,4c0,9.25-2.7,16.44-8.03,21.38-6.53,6.05-14.98,6.65-18.08,6.65Z"/>
        <path class="cls-4" d="M393.39,934.72c-.91,0-1.6-.08-2-.15-29.62-2.36-27.83-31.03-27.8-31.32.16-2.2,2.09-3.83,4.29-3.69,2.2.17,3.85,2.08,3.69,4.27-.15,2.17-.79,21.17,20.63,22.77.18.01.37.04.55.08.05,0,3.26.52,6.9-2.44,4.62-3.74,10.32-13.21,11.26-37.03.09-2.21,1.92-3.91,4.15-3.84,2.21.09,3.93,1.95,3.84,4.15-.86,21.85-5.77,36.39-14.59,43.23-4.3,3.33-8.43,3.96-10.92,3.96Z"/>
        <path class="cls-4" d="M391.9,990.78c-2.21,0-4-1.79-4-4v-56.18l-.67-30.98c-.05-2.21,1.7-4.04,3.91-4.08,2.23-.08,4.04,1.7,4.08,3.91l.67,31.07v56.26c0,2.21-1.79,4-4,4Z"/>
        <path class="cls-7" d="M812.05,972.93c-2.38,0-4.79-.32-7.23-1.1-2.11-.67-3.27-2.91-2.61-5.02.67-2.11,2.92-3.27,5.02-2.61,6.27,1.98,13.07-.54,20.26-3.22,6.74-2.5,13.71-5.1,21.18-4.47,5.24.44,9.89,2.4,14.39,4.3,1.51.64,2.93,1.24,4.37,1.78,6.29,2.38,11.24,2.58,14.69.62,1.31-.75,2.55-1.89,3.87-3.11.63-.58,1.25-1.16,1.9-1.71,14.62-12.53,35.65-10.85,54.22-8.29,2.19.3,3.72,2.32,3.42,4.51-.3,2.19-2.33,3.72-4.51,3.42-17.62-2.43-35.83-3.92-47.92,6.44-.57.49-1.12,1-1.68,1.51-1.52,1.4-3.23,2.99-5.34,4.19-5.62,3.2-12.85,3.17-21.48-.09-1.58-.6-3.14-1.26-4.65-1.89-4.11-1.73-7.99-3.37-11.95-3.7-5.7-.49-11.54,1.69-17.73,3.99-5.91,2.2-11.96,4.45-18.23,4.45Z"/>
        <path class="cls-7" d="M761.2,1062.53c-.62,0-1.25-.14-1.84-.45-7.21-3.73-14.66-7.59-22.39-9.98-1.88-.58-3.78-1.08-5.78-1.6-4.67-1.22-9.51-2.49-14.05-4.86-7.85-4.1-13.92-11.27-17.09-20.18-.86-2.41-1.13-5.28-1.4-8.05-.38-3.96-.81-8.45-2.89-9.49-.81-.4-2.09-.48-3.46-.57-1.82-.11-3.88-.24-5.96-1.12-1.13-.48-1.98-1.45-2.3-2.63-1.48-5.4-2.5-11.6,1.12-16.61,3.09-4.27,8.58-6.25,15.92-5.7,1.06.08,2.13.19,3.19.31,3.22.35,6.27.68,8.82-.14,2.05-.66,4.06-2.14,6.19-3.71,3.3-2.44,7.04-5.2,11.95-5.44,2.21-.1,4.08,1.6,4.19,3.8.11,2.21-1.6,4.08-3.8,4.19-2.49.12-4.85,1.86-7.58,3.88-2.43,1.8-5.19,3.84-8.5,4.89-4.17,1.33-8.39.88-12.12.47-.98-.11-1.95-.21-2.92-.28-2.03-.15-6.95-.21-8.84,2.41-1.31,1.81-1.08,4.67-.45,7.57.5.05,1.05.09,1.6.12,2,.13,4.27.27,6.53,1.4,6.05,3.02,6.73,10.15,7.28,15.88.23,2.39.45,4.66.97,6.14,2.49,7,7.2,12.6,13.26,15.76,3.74,1.95,7.93,3.05,12.37,4.21,2,.52,4.07,1.06,6.12,1.7,8.42,2.6,16.19,6.62,23.71,10.52,1.96,1.02,2.73,3.43,1.71,5.39-.71,1.37-2.11,2.16-3.55,2.16Z"/>
        <path class="cls-7" d="M702.97,1061.21c-5.9,0-11.66-3.71-16.23-10.47-.92-1.36-1.76-2.74-2.57-4.09-1.93-3.17-3.75-6.17-6.23-8.27-2.7-2.28-6.27-3.59-10.06-4.99-1.38-.51-2.81-1.03-4.21-1.61-8.81-3.64-16.63-9.5-22.59-16.94-.25-.31-.5-.62-.74-.94-1.19-1.52-2.32-2.96-3.6-3.75-2.42-1.51-6.11-1.2-9.99-.71-2.21.27-4.19-1.28-4.47-3.47-.28-2.19,1.28-4.19,3.47-4.47,4.06-.51,10.19-1.28,15.23,1.87,2.46,1.54,4.16,3.69,5.65,5.59.23.29.46.58.69.87,5.13,6.39,11.84,11.42,19.41,14.55,1.26.52,2.55,1,3.92,1.5,4.28,1.57,8.7,3.19,12.47,6.39,3.48,2.94,5.73,6.65,7.9,10.23.8,1.32,1.56,2.56,2.36,3.76,1.76,2.6,5.34,6.95,9.6,6.95.04,0,.07,0,.11,0,2.19,0,3.98,1.76,4,3.96.02,2.21-1.75,4.02-3.96,4.04-.05,0-.1,0-.15,0Z"/>
        <path class="cls-7" d="M887.09,1119.6c-1.39,0-2.73-.72-3.47-2.01-1.1-1.92-.44-4.36,1.48-5.46,4.32-2.48,6.48-4.75,6.24-6.57-.08-.62-.47-1.34-1.1-2.04-2.78-3.08-7.48-3.5-12.93-3.99-4.34-.39-8.82-.79-13-2.62-4.91-2.16-8.5-5.89-11.97-9.5-3.54-3.69-6.89-7.17-11.04-8.14-3.4-.8-7.21.12-11.25,1.1-1.88.46-3.83.93-5.83,1.25-4.91.78-9.78.57-14.48.37-4.7-.21-9.13-.4-13.4.37-2.18.38-4.25-1.06-4.64-3.23-.39-2.17,1.06-4.25,3.23-4.64,5.14-.92,10.23-.7,15.16-.48,4.5.2,8.76.38,12.87-.27,1.68-.27,3.39-.68,5.2-1.12,4.77-1.16,9.7-2.35,14.96-1.12,6.46,1.51,10.79,6.03,14.98,10.39,3.07,3.19,5.96,6.21,9.42,7.72,2.98,1.31,6.63,1.64,10.5,1.98,6.22.56,13.28,1.19,18.16,6.6,1.73,1.92,2.8,4.12,3.09,6.36,1.05,8.08-7.41,12.95-10.19,14.54-.63.36-1.31.53-1.99.53Z"/>
        <path class="cls-7" d="M857.09,1145.25c-.21,0-.42-.02-.64-.05-2.18-.35-3.67-2.4-3.32-4.58.8-5-2.29-10.74-7.51-13.94-4.58-2.81-10.79-4.04-18.46-3.65l-.75.04c-3.42.19-7.68.42-11.4-1.88-1.53-.95-2.66-2.14-3.66-3.19-.48-.51-.94-.99-1.38-1.38-2.54-2.22-6.38-2.96-10.45-3.73-1.01-.19-2.02-.38-3.01-.6-8.53-1.84-14.04-6.14-15.52-12.09-.53-2.14.78-4.31,2.92-4.84,2.14-.53,4.31.78,4.84,2.92.98,3.96,6.93,5.65,9.44,6.19.93.2,1.87.38,2.82.56,4.71.9,10.05,1.91,14.23,5.57.72.63,1.36,1.3,1.92,1.89.73.77,1.41,1.49,2.06,1.89,1.58.97,4.09.84,6.75.69l.78-.04c9.31-.47,17.06,1.16,23.04,4.82,8.04,4.93,12.54,13.78,11.22,22.02-.32,1.97-2.01,3.37-3.94,3.37Z"/>
        <path class="cls-7" d="M927.42,1120.63c-1.28,0-2.54-.61-3.31-1.76-1.24-1.83-.76-4.32,1.07-5.55,4.25-2.88,7.71-5.35,10.29-8.62,2.52-3.19,3.69-6.88,3.18-9.96l-7.89.07h-.04c-2.19,0-3.98-1.77-4-3.97-.02-2.21,1.76-4.01,3.97-4.03l8.2-.07c.96-.01,2.75-.02,4.42,1.04,1.56.99,2.59,2.62,3.08,4.86,1.21,5.55-.48,11.75-4.64,17.02-3.28,4.16-7.41,7.12-12.08,10.28-.69.47-1.47.69-2.24.69ZM939.54,1094.76h0Z"/>
        <path class="cls-2" d="M57.45,1164.44c-2.21,0-4-1.79-4-4v-190.04c-.4-3.58-3.52-37.22,18.2-59.53,3.32-3.41,8.93-8.82,15.42-15.08,14.17-13.66,43.58-42.01,45.5-47.91.16-2.07,1.88-3.69,3.99-3.69s4,1.79,4,4c0,5.61-10.3,17.08-47.94,53.36-6.44,6.21-12,11.57-15.24,14.9-19.82,20.36-16,52.89-15.96,53.22.02.17.03.33.03.5v190.27c0,2.21-1.79,4-4,4ZM132.56,848.18h0s0,0,0,0ZM132.6,847.79h0s0,0,0,0Z"/>
        <path class="cls-2" d="M61.89,833.48c-.75,0-1.5-.21-2.15-.63-26.79-17.07-32.27-50.8-32.49-52.23-.34-2.18,1.16-4.23,3.34-4.56,2.19-.34,4.22,1.16,4.56,3.34h0c.05.29,4.58,27.88,24.71,43.74,3.76-11.12,12.27-38.21,11.19-52.94-.16-2.2,1.49-4.12,3.7-4.28,2.22-.15,4.12,1.49,4.28,3.7,1.51,20.47-12.78,59.59-13.39,61.25-.42,1.14-1.33,2.02-2.47,2.41-.42.14-.85.21-1.28.21Z"/>
        <path class="cls-2" d="M84.68,907.66c-1.27,0-2.52-.6-3.3-1.73-14.82-21.52-23.1-73.62-23.45-75.83-.34-2.18,1.15-4.23,3.33-4.57,2.18-.34,4.23,1.15,4.57,3.33.08.52,8.34,52.5,22.13,72.53,1.25,1.82.79,4.31-1.03,5.56-.69.48-1.48.71-2.26.71Z"/>
        <path class="cls-2" d="M105.47,887.53c-1.33,0-2.64-.67-3.4-1.88-.54-.86-13.12-21.5-9.22-56.6.24-2.2,2.21-3.78,4.42-3.53,2.2.24,3.78,2.22,3.53,4.42-3.59,32.37,7.94,51.3,8.06,51.48,1.17,1.87.6,4.34-1.28,5.51-.66.41-1.39.61-2.11.61Z"/>
        <path class="cls-2" d="M60.85,941.23c-.1,0-.19,0-.29,0-13.84-.99-24.4-14.93-31.4-41.43-4.94-18.74-6.28-36.89-6.33-37.66-.16-2.2,1.5-4.12,3.71-4.27,2.21-.16,4.12,1.5,4.27,3.71.01.18,1.35,18.26,6.11,36.28,7.5,28.36,17.31,34.91,24.21,35.4,2.2.16,3.86,2.07,3.71,4.28-.15,2.11-1.91,3.71-3.99,3.71Z"/>
        <g>
          <path class="cls-4" d="M1199.24,1019.56c-2.21,0-4-1.79-4-4v-56.36c0-.17.01-.33.03-.5.02-.2,2.31-20.33-9.78-32.76-1.12-1.15-3.74-1.75-6.77-2.45-12.58-2.88-33.63-7.71-41.11-66.48-.28-2.19,1.27-4.19,3.46-4.47,2.19-.29,4.19,1.27,4.47,3.46,6.78,53.23,23.74,57.12,34.96,59.69,4.08.94,7.94,1.82,10.71,4.66,14.14,14.53,12.32,36.26,12.02,39.07v56.13c0,2.21-1.79,4-4,4Z"/>
          <path class="cls-4" d="M1196.41,873.46c-.43,0-.86-.07-1.28-.21-1.15-.39-2.06-1.27-2.47-2.41-.39-1.07-9.61-26.31-8.62-39.68.16-2.2,2.07-3.85,4.28-3.7,2.2.16,3.86,2.08,3.7,4.28-.58,7.83,3.49,22.34,6.38,31.19,11.03-9.89,13.61-25.48,13.64-25.65.34-2.18,2.37-3.68,4.57-3.33,2.18.34,3.67,2.38,3.34,4.56-.14.94-3.74,23.08-21.38,34.32-.65.41-1.4.63-2.15.63Z"/>
          <path class="cls-4" d="M1181.87,920.77c-.78,0-1.57-.23-2.26-.71-1.82-1.25-2.28-3.74-1.03-5.56,8.61-12.5,13.83-45.34,13.88-45.67.34-2.18,2.4-3.67,4.57-3.33,2.18.34,3.67,2.39,3.33,4.57-.22,1.42-5.56,34.97-15.19,48.97-.78,1.13-2.03,1.73-3.3,1.73Z"/>
          <path class="cls-4" d="M1146.34,893.83c-1.36,0-2.69-.7-3.44-1.96-1.13-1.89-.51-4.34,1.38-5.47.2-.12,11.88-7.43,19.03-26.11.79-2.06,3.1-3.1,5.17-2.3,2.06.79,3.09,3.1,2.3,5.17-8.24,21.5-21.83,29.77-22.4,30.11-.64.38-1.34.56-2.04.56Z"/>
          <path class="cls-4" d="M1197.07,942.19c-2.08,0-3.83-1.61-3.99-3.71-.16-2.2,1.5-4.12,3.71-4.28,11.25-.8,16.99-30.25,18-44.38.16-2.2,2.09-3.85,4.28-3.7,2.2.16,3.86,2.07,3.71,4.27-.37,5.14-4.19,50.28-25.41,51.8-.1,0-.19,0-.29,0Z"/>
        </g>
        <g>
          <path class="cls-2" d="M1357.35,1059.44c-2.21,0-4-1.79-4-4v-41.35c-.4-3.58-3.52-37.22,18.2-59.53,3.32-3.42,8.93-8.82,15.43-15.08,14.17-13.66,43.58-42.01,45.5-47.9.16-2.07,1.88-3.69,3.99-3.69s4,1.79,4,4c0,5.61-10.3,17.08-47.93,53.36-6.45,6.21-12.01,11.58-15.25,14.9-19.75,20.29-16,52.9-15.96,53.22.02.16.03.33.03.49v41.59c0,2.21-1.79,4-4,4ZM1432.46,891.87h0s0,0,0,0Z"/>
          <path class="cls-2" d="M1361.79,877.16c-.75,0-1.5-.21-2.15-.63-26.79-17.07-32.27-50.8-32.49-52.23-.34-2.18,1.16-4.23,3.34-4.56,2.19-.34,4.22,1.16,4.56,3.34h0c.05.29,4.58,27.88,24.71,43.74,3.76-11.12,12.27-38.21,11.19-52.94-.16-2.2,1.49-4.12,3.7-4.28,2.22-.14,4.12,1.49,4.28,3.7,1.51,20.47-12.78,59.59-13.39,61.25-.42,1.14-1.33,2.02-2.47,2.41-.42.14-.85.21-1.28.21Z"/>
          <path class="cls-2" d="M1384.58,951.34c-1.27,0-2.52-.6-3.3-1.73-14.82-21.52-23.1-73.62-23.45-75.83-.34-2.18,1.15-4.23,3.33-4.57,2.18-.34,4.23,1.15,4.57,3.33.08.52,8.34,52.5,22.13,72.53,1.25,1.82.79,4.31-1.03,5.56-.69.48-1.48.71-2.26.71Z"/>
          <path class="cls-2" d="M1405.36,931.2c-1.33,0-2.63-.67-3.39-1.88-.54-.86-13.12-21.5-9.22-56.6.25-2.2,2.21-3.78,4.42-3.53,2.2.24,3.78,2.22,3.53,4.42-3.57,32.16,7.95,51.3,8.07,51.49,1.16,1.88.58,4.34-1.29,5.5-.66.41-1.39.6-2.11.6Z"/>
          <path class="cls-2" d="M1360.75,984.91c-.1,0-.19,0-.29,0-13.84-.99-24.4-14.93-31.4-41.43-4.94-18.74-6.28-36.89-6.33-37.66-.16-2.2,1.5-4.12,3.71-4.27,2.22-.16,4.12,1.5,4.28,3.7.01.18,1.35,18.26,6.11,36.28,7.5,28.36,17.31,34.91,24.21,35.4,2.2.16,3.86,2.07,3.71,4.28-.15,2.11-1.91,3.71-3.99,3.71Z"/>
        </g>
        <g>
          <path class="cls-2" d="M1323.49,1059.44c-2.21,0-4-1.79-4-4v-98.99c0-.16,0-.32.03-.48.04-.32,3.67-32.98-15.42-53.29-3.12-3.32-8.5-8.69-14.72-14.9-36.33-36.27-46.28-47.73-46.28-53.31,0-2.21,1.79-4,4-4s3.85,1.64,3.99,3.72c1.79,5.84,30.23,34.24,43.94,47.93,6.27,6.26,11.68,11.67,14.9,15.08,20.97,22.32,17.95,55.95,17.56,59.47v98.77c0,2.21-1.79,4-4,4ZM1251.11,834.47h0s0,0,0,0Z"/>
          <path class="cls-2" d="M1319.21,819.76c-.43,0-.86-.07-1.27-.21-1.17-.39-2.09-1.3-2.5-2.45-.59-1.65-14.37-40.75-12.92-61.2.16-2.2,2.07-3.86,4.27-3.71,2.2.16,3.86,2.07,3.71,4.27-1.04,14.68,7.08,41.58,10.75,52.82,19.31-15.92,23.59-43.29,23.63-43.58.33-2.18,2.37-3.7,4.54-3.37,2.19.33,3.69,2.36,3.37,4.54-.21,1.43-5.5,35.14-31.38,52.22-.66.44-1.43.66-2.2.66Z"/>
          <path class="cls-2" d="M1297.2,893.93c-.76,0-1.53-.22-2.21-.67-1.84-1.22-2.34-3.71-1.12-5.55,13.33-20.05,21.3-72.04,21.38-72.56.33-2.18,2.36-3.69,4.55-3.36,2.18.33,3.69,2.37,3.36,4.55-.33,2.21-8.33,54.28-22.63,75.79-.77,1.16-2.04,1.79-3.33,1.79Z"/>
          <path class="cls-2" d="M1277.13,873.8c-.7,0-1.41-.19-2.06-.58-1.89-1.14-2.5-3.59-1.37-5.48.14-.24,11.25-19.4,7.8-51.56-.24-2.2,1.35-4.17,3.55-4.4,2.2-.24,4.17,1.35,4.4,3.55,3.76,35.06-8.38,55.67-8.9,56.53-.75,1.25-2.07,1.94-3.43,1.94Z"/>
          <path class="cls-2" d="M1320.21,927.51c-2.08,0-3.83-1.6-3.99-3.71-.16-2.2,1.49-4.12,3.69-4.28,19.88-1.47,27.92-53.54,29.16-71.67.15-2.2,2.04-3.88,4.26-3.72,2.2.15,3.87,2.06,3.72,4.26-.05.76-1.34,18.91-6.11,37.63-6.76,26.52-17,40.47-30.44,41.47-.1,0-.2.01-.3.01Z"/>
        </g>
        <path class="cls-6" d="M171.85,1013.47s-35.8,26.17-37.26,58.32c-1.46,32.15,8.04,50.41,8.04,50.41,0,0,65.76-33.34,29.22-108.73Z"/>
        <path class="cls-5" d="M477.69,1122.96c-1.45,0-2.84-.79-3.55-2.16-.41-.79-9.98-19.6-8.48-52.44.64-14.05,7.61-29.14,20.15-43.65,9.32-10.78,18.37-17.44,18.75-17.72.96-.7,2.18-.94,3.33-.65,1.15.29,2.12,1.07,2.63,2.14,10.87,22.43,19.49,55.67-1.19,86.6-12.31,18.42-29.12,27.08-29.83,27.44-.58.29-1.2.43-1.81.43ZM505.43,1016.54c-3.37,2.85-8.52,7.54-13.69,13.53-7.87,9.13-17.39,23.24-18.09,38.65-1.01,22.21,3.42,37.63,5.95,44.45,5.35-3.46,15.44-10.99,23.25-22.8,13.98-21.11,14.84-45.92,2.58-73.83Z"/>
        <path class="cls-2" d="M1030.47,1033.64c-.44,0-.89-.07-1.34-.23-.44-.16-10.84-3.95-21.84-16.87-11.54-13.56-7.33-36.41-7.15-37.37.22-1.17.95-2.17,1.99-2.75s2.28-.66,3.38-.23c42.24,16.33,28.85,54.45,28.71,54.83-.59,1.62-2.12,2.63-3.76,2.63ZM1007.41,985.73c-.47,6.65-.25,18.32,5.97,25.62,5.59,6.57,10.96,10.43,14.45,12.5,1.56-8.5,1.99-27.14-20.42-38.12Z"/>
        <path class="cls-2" d="M966.13,1041.66c-.15,0-.3,0-.46-.03-.46-.05-11.45-1.41-25.08-11.52-14.29-10.61-15.34-33.83-15.38-34.81-.04-1.19.44-2.33,1.32-3.12s2.07-1.15,3.24-.99c44.84,6.41,40.36,46.56,40.31,46.96-.25,2.02-1.97,3.51-3.96,3.51ZM933.77,1000.06c1.03,6.58,3.88,17.91,11.58,23.62,7,5.2,13.06,7.73,16.89,8.94-.38-8.62-4.15-26.91-28.48-32.57Z"/>
        <path class="cls-2" d="M1176.07,990.72c-.31,0-.63-.04-.95-.11-.45-.11-11.19-2.82-23.45-14.56-12.86-12.31-11-35.47-10.92-36.45.1-1.18.73-2.26,1.7-2.93s2.2-.89,3.34-.58c43.69,11.95,34.24,51.22,34.14,51.62-.46,1.81-2.09,3.02-3.87,3.02ZM1148.66,945.39c.2,6.66,1.62,18.25,8.55,24.88,6.3,6.03,12,9.3,15.65,10.98.69-8.6-.76-27.22-24.2-35.86Z"/>
        <path class="cls-2" d="M1174.91,1027.86c-1.73,0-3.33-1.13-3.84-2.88-.13-.45-3.14-11.1.9-27.58,4.24-17.29,25.24-27.25,26.13-27.67,1.07-.5,2.32-.5,3.39,0,1.07.5,1.87,1.46,2.17,2.61,11.47,43.81-27.27,55.25-27.66,55.36-.36.1-.73.15-1.08.15ZM1197.02,979.47c-5.67,3.5-15,10.52-17.29,19.83-2.08,8.47-2.07,15.04-1.7,19.04,7.8-3.69,23.2-14.25,18.98-38.87Z"/>
        <path class="cls-2" d="M1273.26,1002.61c-1.73,0-3.33-1.13-3.84-2.88-.13-.45-3.14-11.1.9-27.58,4.24-17.29,25.23-27.25,26.13-27.67,1.07-.5,2.32-.5,3.39,0,1.07.5,1.87,1.46,2.17,2.61,11.47,43.81-27.27,55.25-27.66,55.36-.36.1-.73.15-1.08.15ZM1295.38,954.22c-5.67,3.5-15,10.52-17.29,19.83-2.06,8.38-2.04,14.99-1.68,19.03,7.8-3.7,23.17-14.27,18.96-38.86Z"/>
        <path class="cls-2" d="M1280.57,1034.83c-.26,0-.53-.03-.79-.08-.46-.09-11.29-2.37-24.02-13.59-13.35-11.78-12.43-35-12.39-35.98.06-1.18.63-2.28,1.58-3,.95-.72,2.16-.98,3.32-.71,44.13,10.16,36.3,49.79,36.21,50.19-.4,1.88-2.06,3.17-3.91,3.17ZM1251.5,990.64c.47,6.65,2.36,18.17,9.55,24.51,6.47,5.71,12.34,8.76,16.08,10.31.34-8.63-1.89-27.15-25.63-34.83Z"/>
        <path class="cls-2" d="M1047.86,1012.1c-1.45,0-2.84-.79-3.55-2.16-.21-.41-5.24-10.28-4.47-27.23.81-17.78,19.47-31.62,20.27-32.21.96-.7,2.18-.94,3.33-.65,1.15.29,2.12,1.07,2.63,2.14,19.75,40.76-16.04,59.49-16.4,59.68-.58.29-1.2.43-1.81.43ZM1060.95,960.26c-4.88,4.54-12.68,13.23-13.11,22.81-.4,8.71.89,15.15,2.03,19.01,6.93-5.14,19.99-18.48,11.08-41.82Z"/>
        <path class="cls-2" d="M1105.19,1030.2c-1.45,0-2.84-.79-3.55-2.16-.21-.41-5.24-10.28-4.47-27.23.81-17.78,19.47-31.62,20.27-32.21.96-.7,2.18-.94,3.33-.65,1.15.29,2.12,1.07,2.63,2.14,19.75,40.76-16.04,59.49-16.4,59.68-.58.29-1.2.43-1.81.43ZM1118.28,978.37c-4.88,4.54-12.68,13.23-13.11,22.81-.39,8.62.91,15.1,2.05,19,6.94-5.15,19.97-18.49,11.07-41.8Z"/>
        <path class="cls-5" d="M505.3,1149.93c-4.94,0-8.07-.42-8.38-.47-2.17-.31-3.69-2.31-3.4-4.48.12-.88,3.07-21.78,23.13-47.82,8.58-11.14,22.95-19.51,41.54-24.2,13.82-3.48,25.05-3.75,25.52-3.76.03,0,.05,0,.08,0,1.16,0,2.26.5,3.02,1.38.78.9,1.12,2.09.93,3.26-3.96,24.61-15.96,56.78-50.64,70.26-12.48,4.85-24.25,5.84-31.79,5.84ZM502.37,1141.86c6.37.24,18.95-.15,32.13-5.34,23.55-9.27,38.49-29.11,44.46-58.99-11.74,1.09-41.46,5.68-55.96,24.51-13.57,17.62-18.78,32.79-20.62,39.82Z"/>
        <path class="cls-5" d="M358.96,1089.47c-.34,0-.68-.04-1.02-.13-.86-.22-21.22-5.77-44.55-28.93-9.98-9.91-16.49-25.21-18.81-44.24-1.73-14.15-.59-25.32-.54-25.79.12-1.18.77-2.24,1.75-2.9.99-.66,2.21-.85,3.35-.52,23.92,7.01,54.34,22.94,63.37,59.04,5.38,21.49.51,39.76.3,40.53-.49,1.78-2.1,2.95-3.86,2.95ZM301.71,996.15c-.38,11.79.45,41.85,17.31,58.59,15.78,15.66,30.18,22.73,36.93,25.44,1.03-6.29,2.22-18.82-1.28-32.54-6.25-24.53-24.06-41.83-52.97-51.49Z"/>
        <path class="cls-5" d="M276.4,1076.78c-2.23,0-4.53-.05-6.9-.16-14.05-.64-29.14-7.61-43.65-20.15-10.78-9.32-17.44-18.37-17.72-18.75-.7-.96-.94-2.18-.65-3.33.29-1.15,1.07-2.12,2.14-2.63,22.43-10.87,55.67-19.49,86.6,1.19,18.42,12.31,27.08,29.12,27.44,29.83.99,1.96.22,4.35-1.72,5.36-.73.38-16.97,8.64-45.54,8.64ZM217.69,1036.85c2.85,3.37,7.54,8.52,13.53,13.69,9.13,7.87,23.24,17.39,38.65,18.09,22.33,1.02,37.68-3.41,44.46-5.94-3.46-5.35-10.99-15.44-22.81-23.27-21.11-13.97-45.92-14.84-73.83-2.58ZM211.37,1035.37h0,0Z"/>
        <path class="cls-6" d="M83.44,1067.84s-13.6,69.71,38.86,93.09c0,0,21.78-64.89-38.86-93.09Z"/>
        <path class="cls-5" d="M126.11,1224.84c-2.15,0-3.93-1.71-4-3.88-1.17-39.62,31.32-154.17,32.71-159.03.61-2.13,2.82-3.36,4.94-2.75,2.12.61,3.36,2.82,2.75,4.94-.33,1.18-33.54,118.21-32.4,156.6.07,2.21-1.67,4.05-3.88,4.12-.04,0-.08,0-.12,0Z"/>
        <path class="cls-5" d="M129.88,1188.25c-1.62,0-3.15-1-3.75-2.61l-25.9-69.87c-.77-2.07.29-4.37,2.36-5.14,2.07-.77,4.37.29,5.14,2.36l25.9,69.87c.77,2.07-.29,4.37-2.36,5.14-.46.17-.93.25-1.39.25Z"/>
        <path class="cls-5" d="M222.95,1128.22c-20.93,0-35.28-2.21-36.02-2.32-2.18-.34-3.67-2.39-3.33-4.57.34-2.18,2.4-3.67,4.57-3.33.87.14,87.52,13.13,143.94-26.36,1.81-1.27,4.3-.83,5.57.98,1.27,1.81.83,4.3-.98,5.57-30.96,21.67-70.07,28.05-97.42,29.58-5.77.32-11.25.45-16.34.45Z"/>
        <path class="cls-5" d="M239.44,1148.59c-.13,0-.27,0-.4-.02-15.77-1.58-37.02-21.23-37.92-22.07-1.03-.96-1.48-2.4-1.18-3.78.3-1.38,1.3-2.5,2.64-2.94,15.92-5.3,38.18-27.48,38.4-27.7,1.56-1.56,4.09-1.57,5.66,0s1.57,4.09,0,5.66c-.86.86-18.91,18.84-35.34,27.03,7.52,6.19,19.9,14.98,28.52,15.84,2.2.22,3.8,2.18,3.58,4.38-.21,2.06-1.95,3.6-3.98,3.6Z"/>
        <path class="cls-5" d="M283.19,1135.6c-19.76,0-39.95-8.06-40.87-8.43-1.56-.63-2.55-2.16-2.5-3.84s1.15-3.14,2.75-3.67c13.67-4.51,26.13-26.48,26.26-26.71,1.08-1.93,3.52-2.61,5.44-1.53,1.93,1.08,2.61,3.52,1.54,5.44-.46.83-9.58,16.93-21.97,25.78,8.37,2.52,21.58,5.66,33.54,4.8,2.21-.14,4.12,1.5,4.28,3.71.16,2.2-1.5,4.12-3.71,4.28-1.57.11-3.16.16-4.75.16Z"/>
        <path class="cls-5" d="M305.74,1121.17c-9.29,0-15.71-1.93-16.16-2.07-1.71-.53-2.86-2.13-2.82-3.92.05-1.79,1.28-3.33,3.01-3.78,8.91-2.27,13.47-20.92,14.37-27.27.31-2.19,2.33-3.71,4.52-3.4,2.19.31,3.71,2.33,3.41,4.51-.04.29-1.04,7.29-3.79,14.83-1.98,5.41-4.35,9.72-7.09,12.9,6.33.48,15.23.15,24.47-3.44,2.06-.8,4.38.22,5.18,2.28.8,2.06-.22,4.38-2.28,5.18-8.3,3.22-16.27,4.18-22.82,4.18Z"/>
        <g>
          <path class="cls-4" d="M720.94,1154.07s-5.96-42.23,45.29-74.41c0,0-43.19-5.8-58.55,51.93"/>
          <path class="cls-4" d="M720.94,1158.07c-1.96,0-3.67-1.44-3.95-3.44-.24-1.67-4.83-38.15,34.94-69.76-12.89,3.31-31.42,14.08-40.37,47.75-.57,2.13-2.76,3.4-4.89,2.84-2.13-.57-3.41-2.76-2.84-4.89,4.6-17.29,14.79-40.05,37.24-50.23,13.61-6.17,25.21-4.7,25.7-4.64,1.67.22,3.02,1.47,3.38,3.12.36,1.65-.36,3.34-1.78,4.24-20,12.56-33.85,28.72-40.06,46.73-4.69,13.61-3.41,23.64-3.4,23.74.29,2.18-1.24,4.2-3.42,4.5-.19.03-.37.04-.55.04Z"/>
        </g>
        <g>
          <path class="cls-4" d="M731.36,1139.17s-26.48-26.71-7.22-76.5c0,0-33.6,18.68-14,67.59"/>
          <path class="cls-4" d="M731.35,1143.16c-1.03,0-2.05-.39-2.83-1.18-1.04-1.05-22.94-23.8-12.78-65.94-6.75,9.46-12.5,26.25-1.89,52.73.82,2.05-.17,4.38-2.23,5.2-2.05.82-4.38-.17-5.2-2.23-5.91-14.75-10.73-36.36-.13-55.56,6.43-11.66,15.52-16.8,15.91-17.02,1.47-.82,3.3-.63,4.57.48,1.27,1.11,1.71,2.89,1.1,4.46-18.01,46.55,5.34,71.22,6.34,72.25,1.54,1.58,1.52,4.11-.05,5.65-.78.77-1.79,1.15-2.81,1.15Z"/>
        </g>
        <g>
          <path class="cls-4" d="M675.22,1106.92s-26.48-26.71-7.22-76.5c0,0-33.6,18.68-14,67.59"/>
          <path class="cls-4" d="M675.22,1110.91c-1.03,0-2.05-.39-2.83-1.18-1.04-1.05-22.94-23.8-12.78-65.94-6.75,9.46-12.5,26.25-1.89,52.73.82,2.05-.17,4.38-2.23,5.2-2.05.82-4.38-.17-5.2-2.23-5.91-14.75-10.73-36.36-.13-55.56,6.43-11.66,15.52-16.8,15.91-17.02,1.47-.82,3.3-.63,4.57.48,1.27,1.11,1.71,2.89,1.1,4.46-18.01,46.55,5.34,71.22,6.34,72.25,1.54,1.58,1.52,4.11-.05,5.65-.78.77-1.79,1.15-2.81,1.15Z"/>
        </g>
        <g>
          <path class="cls-4" d="M638.74,1113.33s-26.48-26.71-7.22-76.5c0,0-33.6,18.68-14,67.59"/>
          <path class="cls-4" d="M638.73,1117.32c-1.03,0-2.05-.39-2.83-1.18-1.04-1.05-22.94-23.8-12.78-65.94-6.75,9.46-12.5,26.25-1.89,52.73.82,2.05-.17,4.38-2.23,5.2-2.05.82-4.38-.17-5.2-2.23-5.91-14.75-10.73-36.36-.13-55.56,6.43-11.66,15.52-16.8,15.91-17.02,1.47-.82,3.3-.63,4.57.48,1.27,1.11,1.71,2.89,1.1,4.46-18.01,46.55,5.34,71.22,6.34,72.25,1.54,1.58,1.52,4.11-.05,5.65-.78.77-1.79,1.15-2.81,1.15Z"/>
        </g>
        <path class="cls-6" d="M647.86,1117.25c-2.21,0-4-1.79-4-4,0-20.14,3.56-48.01,20.53-66.44,10.48-11.38,21.14-13.73,21.59-13.83,2.16-.46,4.28.93,4.74,3.09.45,2.15-.92,4.27-3.07,4.73-.19.04-9.05,2.16-17.77,11.86-11.79,13.1-18.02,34.05-18.02,60.58,0,2.21-1.79,4-4,4Z"/>
        <path class="cls-6" d="M432.13,1079.08s-.05,0-.08,0c-2.21-.04-3.96-1.87-3.92-4.08,1.42-74.88-15.67-91.18-15.84-91.33-1.7-1.41-1.91-3.9-.51-5.6,1.41-1.7,3.96-1.92,5.67-.51,2.07,1.71,20.17,18.95,18.68,97.6-.04,2.18-1.82,3.92-4,3.92Z"/>
        <path class="cls-6" d="M431.09,1040.9c-.19,0-.38-.01-.57-.04-2.19-.31-3.7-2.34-3.39-4.52.2-1.42,5.21-35.1,24.01-52.5,1.62-1.5,4.15-1.4,5.65.22,1.5,1.62,1.4,4.15-.22,5.65-16.7,15.45-21.48,47.44-21.52,47.76-.29,1.99-2,3.43-3.95,3.43Z"/>
        <path class="cls-6" d="M674.08,1123.75c-1.72,0-3.3-1.11-3.82-2.84-.46-1.52-10.85-37.58,23.74-66.42,1.7-1.41,4.22-1.19,5.63.51,1.42,1.7,1.19,4.22-.51,5.63-30.42,25.36-21.59,56.66-21.2,57.98.63,2.11-.58,4.34-2.69,4.97-.38.11-.77.17-1.15.17Z"/>
        <path class="cls-6" d="M653.79,1120.94c-1,0-2.01-.38-2.78-1.13-1.14-1.11-27.71-27.61-11.42-69.61.8-2.06,3.11-3.08,5.18-2.28,2.06.8,3.08,3.12,2.28,5.18-14.32,36.92,8.57,60.02,9.55,60.99,1.57,1.55,1.6,4.08.06,5.65-.78.8-1.82,1.21-2.86,1.21Z"/>
        <path class="cls-6" d="M697.24,1152.25c-1.72,0-3.3-1.11-3.82-2.84-.46-1.52-10.85-37.58,23.74-66.42,1.7-1.41,4.22-1.19,5.63.51,1.42,1.7,1.19,4.22-.51,5.63-30.42,25.36-21.59,56.66-21.2,57.98.63,2.11-.58,4.34-2.69,4.97-.38.11-.77.17-1.15.17Z"/>
        <path class="cls-6" d="M456.85,1069.84c-2.06,0-3.81-1.58-3.98-3.67-.05-.56-1.13-14.01,1.05-30.23,3-22.26,10.46-38.24,22.18-47.49,1.74-1.37,4.25-1.07,5.62.66,1.37,1.73,1.07,4.25-.66,5.62-24.25,19.14-20.26,70.26-20.21,70.77.18,2.2-1.45,4.14-3.65,4.32-.11,0-.23.01-.34.01Z"/>
        <path class="cls-6" d="M370.09,1114.89s-52.86,7.47-78.88,78.37h54.72s26.7-34.68,24.16-78.37Z"/>
        <path class="cls-6" d="M381.49,1120.81s-15.42,68.04,40.29,74.4l30.92-2.61s-16.53-54.63-71.2-71.78Z"/>
        <path class="cls-6" d="M455.02,1186.65s-5.81-24.51,18.73-47.19c0,0,27.71,19.78,28.99,47.19"/>
        <path class="cls-4" d="M0,810.6c3.77-.23,19.64.59,23.04-1.05,3.4-1.64,6.26-5.01,6.11-8.79-.07-1.71-.73-3.35-.9-5.06,12.01-1.51,24.09-2.42,36.19-2.74,3.22-.09,24.82-2.52,17.92,7.48-.8,1.17-2.12,1.87-3.07,2.92-1.91,2.08-2.16,5.17-1.97,7.99.13,1.91.44,3.86,1.4,5.53.95,1.66,2.66,3,4.58,3.06,1.97.07,3.89-1.18,5.81-.77.06,3.45-5.27,3.58-7.3,5.69-3.47,3.64-4.09,10.43.08,13.24,2.69,1.82,6.24,1.38,9.48,1.19,10.69-.64,21.55,2.22,30.54,8.04,1.64,1.06,3.34,2.39,3.75,4.3.36,1.66-.35,3.38-.24,5.08.34,5.3,7.37,6.8,12.68,6.8,15.24.01,30.48.02,45.72.03,12.28,0,24.06,3.24,34.92-4.56,1.53-1.1,2.99-2.38,3.97-3.99,1.21-2,1.61-4.39,1.74-6.73.44-8.39-2.62-17.01-8.63-22.88-2.05-2-4.46-3.7-7.19-4.54-2.59-.8-5.34-.8-8.05-.8-5.97,0-24.29,3.6-20.8-4.98,2.7-6.64,10.2-10.82,4.28-19.27-2.27-3.23-5.82-5.33-9.43-6.93-10.61-4.71-22.3-5.82-33.8-5.64-5.86.1-13.83,3.66-16.06-3.65-1.07-3.51,1.08-8.97.8-12.78-.32-4.46-1.47-8.85-4.01-12.59-6.45-9.53-19.15-12.04-30.53-13.76,3.42-2.77,6.85-5.54,10.27-8.31.97-.79,2.02-1.7,2.2-2.94.15-1.08-.4-2.12-1.02-3.02-4.5-6.52-12.75-9.22-20.55-10.59-23.65-4.16-47.88.1-71.52,4.36.92,7.29-9.94-5.72-10.42,1.61"/>
        <path class="cls-7" d="M56.19,840.71c-6.92-4.44-16.35-4.61-23.43-.43.71-2.37-2.12-4.22-4.51-4.83-5.7-1.46-11.85-1.11-17.35.98-.89.34-1.81.76-2.33,1.56-.49.75-.52,1.69-.55,2.59-.26,9.8-.53,19.61-.79,29.41,10.58.56,21.2.52,31.78-.14,2.68-.17,5.43-.39,7.86-1.54,2.43-1.16,4.49-3.46,4.59-6.14.12-3.35-2.74-6.08-5.75-7.56,3.68-1.38,7.82-1.02,11.51-2.37,3.69-1.35,6.86-5.83,4.66-9.08"/>
        <g>
          <path class="cls-4" d="M759.99,1109.06c-10.61,2.68-20.81,6.96-30.15,12.66,9.54,3.24,36.83,8.2,44.08,15.2-4,.25-32.01,10.75-35.54,12.66-3.53,1.9-.89-3.91,0,0,.19.83.53,1.64.49,2.49-.15,3.25-4.29,24.86-7.51,24.36-27.03-4.22-92.65,2.33-119.98,1.29-4.22-.16-64.86-7.14-66.54-11.02-2.25-5.22,96.75-23.97,101.75-26.66,18.35-9.86,37.82-15.33,57.18-22.59,7.72-2.9,15.35-5.92,23.38-7.91,5.71-1.41,11.54-2.44,17.44-2.52,4.15-.05,11.84,2.93,15.41,2.03Z"/>
          <path class="cls-4" d="M618.1,1178.33c-2.44,0-4.7-.04-6.74-.11-2.83-.11-65.06-6.88-66.98-11.32-.08-.19-.14-.5.05-.87,1.86-3.63,33.39-10.83,71.29-19.16,15.54-3.42,28.97-6.37,30.63-7.26,13.29-7.14,27.44-12.08,41.13-16.86,5.28-1.84,10.74-3.75,16.11-5.76l2.77-1.04c6.67-2.52,13.57-5.12,20.66-6.88,6.72-1.66,12.3-2.47,17.55-2.53,1.82,0,4.27.51,6.83,1.08,3.21.71,6.53,1.45,8.45.97,0,0,0,0,0,0h0l.24.97s0,0-.01,0c-10.24,2.58-20.01,6.63-29.07,12.04,2.63.83,6.27,1.75,10.4,2.81,12.27,3.14,27.54,7.05,32.84,12.16l.82.79-1.13.07c-3.61.22-30.19,10.08-34.99,12.42.03.11.06.21.09.32.17.61.35,1.25.32,1.93-.13,2.93-3.62,21.75-6.92,24.45-.38.31-.77.44-1.17.38-16.36-2.55-47.3-1.13-74.6.12-14.4.66-28.16,1.29-38.58,1.29ZM744.7,1107.53s-.07,0-.1,0c-5.18.06-10.68.86-17.32,2.5-7.04,1.74-13.91,4.34-20.55,6.84l-2.77,1.04c-5.38,2.02-10.85,3.93-16.13,5.77-13.65,4.76-27.77,9.69-40.99,16.79-1.79.96-14.63,3.79-30.89,7.36-24.54,5.4-70.23,15.44-70.63,18.68,1.46,3.39,60.36,10.48,66.09,10.7,10.72.41,27.49-.37,45.24-1.18,27.35-1.25,58.34-2.68,74.8-.11.13.03.28-.08.38-.17,2.84-2.32,6.4-20.41,6.55-23.72.02-.52-.13-1.05-.28-1.62-.01-.05-.03-.1-.04-.14-.72.28-1.26.25-1.62-.09-.37-.35-.43-.97-.15-1.58s.79-.97,1.29-.92c.49.05.88.44,1.14,1.17,4.82-2.27,27.8-10.91,34.1-12.27-5.79-4.62-20.63-8.42-31.61-11.23-4.72-1.21-8.79-2.25-11.5-3.17l-1.01-.34.91-.56c8.33-5.09,17.28-9.03,26.64-11.74-1.58-.21-3.31-.6-5.02-.97-2.46-.54-4.78-1.06-6.5-1.06ZM737.11,1149.47s.2.05.68-.16c-.17-.53-.34-.62-.34-.62-.02,0-.16.1-.27.34-.11.24-.09.4-.07.44h0Z"/>
        </g>
        <path class="cls-5" d="M320.1,1068.59c-.35,0-.7-.04-1.05-.14l-59.11-16.04c-2.13-.58-3.39-2.78-2.81-4.91.58-2.13,2.78-3.39,4.91-2.81l59.11,16.04c2.13.58,3.39,2.78,2.81,4.91-.48,1.78-2.1,2.95-3.86,2.95Z"/>
        <path class="cls-5" d="M527.04,1059.9c-.82,0-1.65-.25-2.37-.78-1.78-1.31-2.16-3.81-.85-5.59,29.59-40.25,30.65-79.6,30.66-79.99.04-2.21,1.9-3.94,4.07-3.93,2.21.04,3.97,1.85,3.93,4.06-.03,1.7-1.03,42.19-32.21,84.6-.78,1.07-2,1.63-3.23,1.63Z"/>
        <path class="cls-5" d="M540.2,1039c-.1,0-.2,0-.3-.01-2.2-.16-3.86-2.08-3.7-4.28,2.44-33.12-6.24-55.89-6.33-56.11-.8-2.06.22-4.38,2.27-5.18,2.06-.81,4.37.21,5.18,2.26.39.99,9.44,24.57,6.86,59.61-.15,2.1-1.91,3.71-3.99,3.71Z"/>
        <path class="cls-5" d="M602.33,1164.44c-1,0-2-.37-2.78-1.12-1.59-1.53-1.63-4.06-.11-5.65.34-.36,27.04-29.34,16.49-92.09-.37-2.18,1.1-4.24,3.28-4.61,2.17-.38,4.24,1.1,4.61,3.28,11.28,67.11-17.39,97.7-18.62,98.97-.78.81-1.83,1.22-2.88,1.22Z"/>
        <path class="cls-5" d="M596.69,1132.05c-2.14,0-3.91-1.69-3.99-3.84-.02-.58-.53-14.32,2.63-32,5.34-29.85,16.9-46.85,25.67-55.85,1.54-1.58,4.07-1.62,5.66-.08s1.62,4.07.08,5.66c-27.79,28.55-26.06,81.43-26.04,81.96.09,2.21-1.63,4.07-3.84,4.15-.05,0-.11,0-.16,0Z"/>
        <path class="cls-5" d="M637.62,1162c-1.76,0-3.36-1.16-3.85-2.94-.34-1.23-7.86-30.54,24.91-64.09,1.54-1.58,4.08-1.61,5.66-.07,1.58,1.54,1.61,4.08.07,5.66-29.37,30.08-23.19,55.35-22.91,56.41.56,2.13-.71,4.32-2.83,4.89-.35.09-.7.14-1.04.14Z"/>
        <path class="cls-7" d="M1084.29,1181.72c-1.08,0-2.17-.44-2.95-1.3-7.59-8.31-8.91-19.23-3.54-29.23,6.1-11.35,18.8-17.95,30.88-16.07,5.69.89,11.03,3.27,15.49,6.81,2.75-6.77,9.08-14.29,15.42-17.94,12.94-7.45,23.02-5.05,30.36-.94,2.8-8.04,11.12-15.13,27.95-15.67,5.12-.14,16.36,3.68,23.93,9.35,1.6-6.59,5.52-12.62,11.13-16.56,6.88-4.84,15.85-6.23,23.89-4.01.83-9.81,7.23-19.1,16.45-22.83,7.96-3.22,17.28-2.01,24.45,2.54.55-3.03,1.65-6.03,3.3-8.83,3.89-6.62,10.14-11.28,17.13-12.78,10.2-2.19,21.27,2.21,28.17,10.31,1.59-4.8,3.93-9.59,7.89-13.38,4.07-3.89,10.1-5.92,15.71-5.29,2.28.25,4.36.94,6.16,2,2.92-4.16,7.16-7.53,12.19-9.59,6.88-2.82,14.44-2.86,20.73-.11,2.03.88,2.95,3.24,2.07,5.27-.89,2.02-3.25,2.95-5.27,2.06-4.33-1.89-9.61-1.82-14.5.18-4.89,2-8.7,5.67-10.46,10.05-.55,1.38-1.83,2.34-3.31,2.49-1.48.15-2.92-.53-3.74-1.77-1.24-1.87-3.28-2.46-4.77-2.63-3.22-.36-6.96.9-9.29,3.13-4.86,4.65-6.65,12.44-8.08,18.7-.4,1.73-1.88,2.99-3.65,3.1-1.76.11-3.4-.95-4.01-2.62-3.54-9.68-14.61-16.13-24.18-14.08-4.74,1.02-9.19,4.39-11.92,9.01-2.54,4.31-3.26,9.19-1.98,13.37.58,1.91-.33,3.95-2.13,4.79-1.81.84-3.96.23-5.04-1.44-4.6-7.06-14.69-10.23-22.49-7.07-7.81,3.16-12.85,12.46-11.25,20.72.3,1.54-.33,3.1-1.6,4.01-1.27.91-2.96,1-4.31.22-6.54-3.74-15.42-3.32-21.58,1.01-6.16,4.33-9.55,12.54-8.25,19.96,0,0,0,0,0,.01.38,2.18-1.07,4.25-3.25,4.63-2.18.38-4.25-1.07-4.63-3.25,0,0,0,0,0,0-.82-4.54-16.82-12.69-23.06-12.69-.07,0-.14,0-.21,0-13.35.43-21.32,5.8-21.32,14.36,0,1.52-.86,2.9-2.22,3.58-1.36.68-2.98.53-4.19-.39-9.33-7.04-17.11-7.63-26.84-2.02-8.22,4.73-13.79,15.87-12.79,18.06,1.24,1.81.79,4.29-1.02,5.55-1.82,1.26-4.31.81-5.57-1h0c-3.84-5.53-10.11-9.46-16.77-10.5-9.79-1.53-18.78,4.85-22.59,11.95-1.77,3.3-5.09,11.86,2.4,20.05,1.49,1.63,1.38,4.16-.25,5.65-.77.7-1.73,1.05-2.7,1.05Z"/>
        <path class="cls-7" d="M1195.25,1115.92c-2.01,0-3.74-1.51-3.97-3.56-.96-8.65-10.4-15.26-18.14-19.29-2.62-1.36-15.22-2.48-20.07.23-1.05.59-1.1,1.01-1.12,1.18,0,0,0,0,0,0h0c-.16,2.2-2.07,3.86-4.27,3.71-2.2-.16-3.86-2.07-3.71-4.27h0s0,0,0-.01c.61-8.76-4.74-17.78-12.72-21.44-7.99-3.66-18.32-1.83-24.56,4.37-.97.96-2.36,1.36-3.68,1.07-1.33-.29-2.42-1.24-2.89-2.52-3.71-10.06-14.19-17.42-24.91-17.5-.06,0-.12,0-.18,0-10.66,0-21.15,7.18-24.99,17.13-.47,1.21-1.49,2.12-2.75,2.44-1.25.32-2.59.01-3.58-.83-6-5.11-15.39-6.11-22.33-2.37-6.94,3.74-11.28,12.12-10.32,19.94.27,2.19-1.29,4.19-3.48,4.46-2.21.26-4.19-1.29-4.46-3.48-1.37-11.14,4.58-22.64,14.47-27.96,8.38-4.51,18.91-4.22,27.13.42,6.14-10.73,18.1-17.82,30.54-17.73,12.33.09,24.01,7.19,30.05,17.8,8.51-5.68,19.85-6.79,29.26-2.48,8.28,3.8,14.37,11.49,16.55,20.21,7.94-3.04,21.34-1.7,25.69.56,13.78,7.16,21.32,15.74,22.4,25.5.24,2.2-1.34,4.17-3.53,4.42-.15.02-.3.02-.45.02Z"/>
        <path class="cls-6" d="M1234.62,754.13c-1.79,0-3.41-1.21-3.87-3.02-4-15.77,1.49-33.61,13.67-44.4,9.92-8.79,23.96-12.61,37.03-10.54-.91-3.61-1.01-7.52-.28-11.54,1.63-8.95,7.09-17.08,14.6-21.75,13.81-8.59,30.09-6.4,40.33-3.56,4.76-9.18,13.47-16.26,24.41-19.71,10.27-3.24,20.78-2.72,29.61,1.33,2.28-6.59,7.06-12.41,13.64-16.43,8.38-5.13,17.99-6.33,26.37-3.3,2.08.75,3.15,3.04,2.4,5.12-.75,2.08-3.04,3.15-5.12,2.4-5.99-2.17-13.28-1.2-19.48,2.6-6.2,3.79-10.38,9.84-11.18,16.16-.17,1.37-1.04,2.56-2.3,3.14-1.26.58-2.72.46-3.88-.3-7.54-5.01-17.88-6.16-27.66-3.08-9.78,3.08-17.59,9.95-20.9,18.38-.78,1.97-2.96,3-4.97,2.34-8.38-2.76-24.33-6.2-37.04,1.71-5.54,3.45-9.74,9.72-10.95,16.39-.95,5.22.06,10.1,2.84,13.73,1.09,1.42,1.1,3.4.02,4.83-1.08,1.43-2.97,1.98-4.65,1.33-12.45-4.83-27.53-2.12-37.53,6.74s-14.5,23.5-11.22,36.44c.54,2.14-.75,4.32-2.89,4.86-.33.08-.66.12-.99.12Z"/>
        <path class="cls-2" d="M1267.83,909.09c-.15,0-.3,0-.46-.03-8.61-.98-19.31-2.2-27.75-8.18-8.54-6.05-11.57-15.23-10.4-22.72-8.34-.04-16.63-1.79-24.29-5.15-2.51-1.11-5.36-2.59-7.36-5.23-1.87-2.45-2.84-5.66-2.96-9.8-.38-12.27,6.03-24.51,16.34-31.18,7.48-4.84,16.79-6.61,25.56-5.16-.68-2.81-.84-5.84-.46-8.98,1.05-8.52,6.02-16.73,12.98-21.42,7.88-5.31,17.93-7.53,29.99-6.64-.62-1.55-1.07-3.22-1.32-5.01-1.14-8.08,1.86-16.81,7.66-22.24,8.72-8.18,20.58-10.29,32.26-11.4,2.75-7.42,8.91-13.72,16.94-17.17,5.55-2.38,11.45-3.19,16.98-2.43-.04-.34-.07-.68-.09-1.03-.29-5.32,1.86-10.89,5.59-14.55,5.2-5.09,13.02-7.69,23.24-7.7h.14c2.52,0,5.04.13,7.48.25,4.81.24,9.36.47,13.77-.22,2.18-.34,4.23,1.16,4.57,3.34.34,2.18-1.16,4.23-3.34,4.57-5.22.81-10.39.55-15.4.3-2.49-.12-4.87-.24-7.2-.24-8.06.01-14,1.84-17.65,5.42-2.11,2.07-3.36,5.37-3.2,8.41.08,1.52.56,3.64,2.35,5.05,1.64,1.3,2.01,3.64.84,5.38-1.17,1.74-3.48,2.28-5.3,1.24-5.54-3.16-12.88-3.32-19.61-.42-6.74,2.89-11.67,8.32-13.19,14.52-.41,1.67-1.84,2.89-3.55,3.03-11.13.94-22.63,2.46-30.15,9.51-3.89,3.65-5.99,9.79-5.21,15.29.37,2.63,1.57,6.16,5.17,8,1.78.91,2.62,2.99,1.96,4.88-.66,1.89-2.6,3-4.57,2.6-14.74-2.98-26.41-1.65-34.68,3.92-5.02,3.38-8.75,9.56-9.51,15.75-.58,4.7.6,8.94,3.31,11.95,1.28,1.42,1.38,3.55.22,5.08-1.15,1.53-3.23,2.03-4.95,1.19-8.57-4.17-19.28-3.53-27.29,1.65-8.01,5.18-12.99,14.69-12.69,24.22.08,2.42.51,4.13,1.33,5.21.9,1.19,2.64,2.06,4.22,2.75,8.27,3.63,17.4,5.1,26.38,4.24,1.52-.15,2.98.58,3.78,1.87.8,1.29.8,2.92,0,4.21-3.58,5.8.25,14.32,5.92,18.34,6.76,4.79,15.94,5.84,24.03,6.76,2.2.25,3.77,2.23,3.52,4.43-.23,2.04-1.96,3.55-3.97,3.55Z"/>
        <path class="cls-7" d="M884.75,1154.13v22.29h84.81s-66.12-3.24-84.81-22.29Z"/>
        <polygon class="cls-3" points="738.38 1149.58 703.08 1177.07 884.75 1176.42 884.39 1158 738.38 1149.58"/>
      </g>
    </g>
  </g>
</svg>