<?xml version="1.0" encoding="utf-8"?>
<!-- Generator: Adobe Illustrator 22.1.0, SVG Export Plug-In . SVG Version: 6.00 Build 0)  -->
<svg version="1.1" id="Layer_1" xmlns="http://www.w3.org/2000/svg" xmlns:xlink="http://www.w3.org/1999/xlink" x="0px" y="0px"
	 viewBox="0 0 1429.7 568.2" style="enable-background:new 0 0 1429.7 568.2;" xml:space="preserve">
<style type="text/css">
	.st0{clip-path:url(#SVGID_2_);}
	.st1{fill:#007B3C;}
	.st2{fill:#A0C86A;}
	.st3{fill:#ABDFEA;}
	.st4{fill:#009D5A;}
	.st5{fill:#84BC41;}
	.st6{fill:#FFFFFF;}
</style>
<g>
	<g id="fondo">
		<g>
			<defs>
				<rect id="SVGID_1_" y="-609.5" width="1429.7" height="1178"/>
			</defs>
			<clipPath id="SVGID_2_">
				<use xlink:href="#SVGID_1_"  style="overflow:visible;"/>
			</clipPath>
			<g class="st0">
				<path class="st1" d="M1273.5,153.4c-64.3-8.4-129.7-4.4-192.9,11.5c-10.4,2.6-22.9,8.5-23.4,21c-0.3,7.9,4.7,14.5,8.4,21
					c1.6,2.9,3,6.9,1.2,9.7c-1.1,1.6-3,2.1-4.8,2.5c-14.6,3.2-29.2,6.5-43.7,9.7c-11.8,2.6-24.4,5.7-32.7,16s-8.8,30,2,36.3
					c-20.4,1.9-40.4,9.2-58.2,21c-6.5,4.3-13.4,13.5-8.8,20.4c1.8,2.8,5,3.8,7.9,4.6c65.5,18,133.8,5,200.7-3.3
					c59.2-7.3,118.8-10.8,178.3-12.5c12.9-0.4,28.4-2.5,34.2-16.1c2.2-5.2,2.4-11.1,2.6-16.9c0.7-19.5,1.4-39,2.1-58.5
					c0.3-8.7,0.6-17.8-2.2-25.9c-2.9-8.7-9-15.4-14.9-21.8c-9.8-10.6-21.4-22-34.7-20.3"/>
				<path class="st2" d="M1428.2,68.5c-25.9,3-51.8,6.4-77.6,10.3c-16.5,2.5-50.2,2.6-54.5,25.2c-2.2,11.7,5.7,24.5,16.8,27
					c-12.8-0.8-26.4,0.6-36.7,8.6c-10.3,8-15.6,24.4-8.4,35.6c-9.9,3.6-20.7,3.2-31.2,3.6c-10.5,0.5-21.6,2.1-29.8,9.1
					c-8.2,7-11.9,20.8-5.4,29.5c-10.5-1.3-21.4-1.8-31.5,1.8c-10,3.6-19.1,12.1-21,23.2c-2.6,15.5,12.5,31.3,27.2,28.2
					c-6.6,5.5-12.5,12.8-13.5,21.7c-1.9,16,13.6,22.1,25.7,24.1c36,5.9,194.9-2.1,241.4-8.6"/>
				<path class="st3" d="M1403.3,554.2H565c-0.4,0-2.5-6.9-2.6-10.4c-0.9-20.9-1.7-41.7-2.6-62.6c-0.4-8.9,0.5-18.7-1-27.4
					c-1.8-10.6-6.7-20-7.3-31.1c-0.7-12,2.4-24.8,11-33.2c16-15.9,42.6-11.1,64-18.2c11.2-3.7,21.1-10.8,32.1-15.2
					c11.3-4.5,23.5-6,35.5-7.5c12.5-1.6,24.9-4.1,37.3-6.1c12.9-2,26.1,0.3,39.1-2c13.3-2.3,25.9-7.9,39.3-9.8
					c9.6-1.3,19.4-0.7,29.2,0.1c17.9,1.5,36.3,3.3,53.7-1.3c8.4-2.2,16.3-6,24.9-7.2c9.5-1.4,250.6-17.7,260.1-15.9
					c36.5,6.8-156.1,37.3-119.3,33.3c42.5-4.6,87.9-0.2,130.6-0.2h203.3L1403.3,554.2L1403.3,554.2z"/>
				<path class="st2" d="M1429.7,568.2c0,0-210.6,5.7-334.7-0.9c-34.2-1.8-61.8-2.4-76.7-1c-68.7,6.6-128.4-10.5-133.5-21
					c-5.2-10.5,97.9-34.2,114.1-39.6c3.9-1.3,7.8-14.3,7.8-14.3l-20.8-9.2c0,0-55.8-7.9-80.4-18.4c-24.6-10.5-136.2-34.2-136.2-34.2
					l-9.1-32.8l13-13.1c41.5-7.6,656.5-13.1,656.5-13.1"/>
				<path class="st4" d="M760.3,396.8l5.1,34.7c0,0,75.9,20,94.5,26.2c18.7,6.2,111.8,24.2,111.8,24.2s33.7,3.5,23.8,24.8
					c0,0,13.1-1.6,13.1-10.3c0-17-2.8-26.7-2.8-26.7s-25.2-11.8-45.9-18.6c-11.9-3.9-102.5-20.3-140.3-30.3
					C774.9,409,760.3,396.8,760.3,396.8L760.3,396.8z"/>
				<path class="st1" d="M600.9,551.8c42.6,3.7,25,15.1,42.6,3.7c16.7-10.8,33.4-21.5,51.1-30.6c9.7-5,20.2-9.9,26.1-19.2
					c5.8-9.2,3.9-24.3-6.4-27.8c-5.5-1.8-11.6,0-17.3-1c-11.8-2.1-20.2-15.9-32.1-14.5c-2,0.2-4,0.9-5.8,0c-2.4-1.2-2.7-4.5-2.8-7.2
					c0-8.2,0-16.3-0.1-24.5c-12.2,8.4-24.3,16.9-36.5,25.3c-0.6,0.4-3.1-19.2-9.1-9.1c-3.2-11.5-12.3-21.2-23.5-25.2
					s-24.4-2.3-34.2,4.6c-0.6-12-4.9-24-13.3-32.5c-4.3-4.3-9.7-7.6-15.6-9.4c-5.1-1.5-11.7,0.3-16.3-1.4c-4.7-1.8-4.5-6.8-7-10.8
					c-2.8-4.5-7-8.2-11.7-10.6c-8-4.2-17.3-5.5-26.4-6c-18.7-1.2-37.6-0.2-56,3.1c-9.2,1.7-18.4,3.8-27.3,6.6
					c-7.5,2.3-17.6,1.4-24,6.4c-2.5,2-4.6,5-7.8,5.3c-5.1,0.5-8-6.2-12.9-7.6c-3.7-1-7.4,1.1-11,2.2c-9.6,2.8-20.9-3-24.2-12.5
					c-4,5-8.3,10.2-14.2,12.6c-5.9,2.5-13.9,1.2-16.9-4.5c-3.2,5.4-11.3-0.3-17.6-0.6c-5.6-0.3-10.2,4.2-14.9,7.4
					c-12.1,8.3-44.4,9-56.9,0.3c-5-3.5-8.5-8.8-11.3-14.3c-0.8,6.2-7.8,10.9-13.8,9.2c-5.6-1.5-8.9-7.1-13.2-11s-12.2-5.7-15.2-0.7
					c-1.9,3.2-1.3,8.6-4.9,9.6c-1.6,0.4-3.3-0.4-4.9-0.8c-3.8-0.9-7.7,0.8-11.1,2.8c-3.7,2.1-7.3,4.5-10.6,7.1
					c-1.5,1.2-3,2.5-4.8,3.1c-1.6,0.6-3.4,0.6-5.1,0.6c-18.7-0.3-37.3-6.5-55.5,2.1c-3.3,1.5-17.6,0.2-16.1-3l-0.6,178.9
					L600.9,551.8L600.9,551.8z"/>
				<path class="st5" d="M1429.7,276.9c-8.1-6.3-48.5-19.9-58-12.5c-4.3,3.3-7.6,7.9-9.7,12.9c-0.7,1.6-4.3,12.8-2.2,13.9
					c-3.6-1.9-7.3-3.8-11.4-4.1c-4.1-0.3-8.5,1.4-10.3,5c-4.3-8.7-15.4-12.2-25-10.8c-9.6,1.4-16.3,8.5-25.3,10.8
					c-8.1,2-16.6-2.5-24-5.1c-7.6-2.7-18.6-0.8-19.5,7.7c-6.1-1.2-13.2-3.3-19.2-1.3c-4.3,1.5-11.4,10-15.4,10
					c-3.7,0-7.6,0.1-10.6,2.4c-2,1.5-3.3,3.9-5.7,4.7c-2.4,0.8-5-0.6-7.2-1.9c-2.7-1.6-5.8-3.3-8.7-2.1c-5.8,2.5-6.9,3.3-13,2.2
					c-3.4-0.6-4.6-0.9-7.8,0.5c-1.4,0.6-13.3,9.4-11.7,10c-13.6-5.6-29.9-4.2-42.3,3.8c-10.5-3.4-22.6-6.6-31.9-0.8
					c-3.7,2.3-6.4,5.7-9.9,8.2c-9,6.5-19.7-0.6-29,4.7c-1.5,0.8-2.8,1.9-4.5,2.2c-1.5,0.3-3.1,0-4.6-0.2c-7.8-1.2-17.2-0.8-21.9,5.5
					c-1.5,2.1-2.5,4.7-4.5,6.3c-4.4,3.6-10.9,1-16.5,1.7c-7,0.9-12.5,8.2-11.5,15.2c-11.6-0.9-25-1.2-32.8,7.5
					c-1.6,1.8-2.9,4-2.9,6.3c-0.1,5.3,5.7,8.8,11,9.2c37.8,3.1,74.6-5,111.9-9c64-6.9,128.6,3.9,192.9,0.7
					c54.8-2.7,154.5-4.3,181-10.2"/>
				<path class="st5" d="M0,176.9c13.8-3.6,38.6,4.1,48.5,14.4c9.9,10.3,15.9,23.7,21.6,36.8c16.8-1.8,33.6,12.4,34.8,29.2
					c6.9-4.7,14.2-9.6,22.4-10.4s17.8,4,19.1,12.2c9.7-7.1,23.5-8,34-2.2s17.2,17.9,16.5,29.8c13.3-2.8,27.9,6,31.8,18.9
					c2.2,7.6,1.2,16,4.5,23.2c1.9,4,4.9,7.2,6.7,11.2c5.1,11.2-1.7,24.9-11.9,31.7s-19.7,22.9-31.9,24.4L0,393.3"/>
				<path class="st2" d="M444.2,294.3c0.1-11.6-8.7-21.9-19.3-26.6s-22.6-4.7-34.2-3.6c-3.2-10.4-11.6-19.2-21.9-22.7
					c-10.3-3.5-22.3-1.8-31.2,4.4c-2.1,1.5-4,3.2-6.3,4.4c-2,1.1-4.3,1.7-6.4,2.6c-12.7,4.9-21.8,16.5-24.6,29.8
					c-16.5-4.4-43.8-3.7-61-1.4c-18.8,2.5-38.7,18.9-33.5,37.1c-12.4-3.5-26.3-1.5-37.2,5.3c-3.1,2-6.1,4.4-9.7,5.4
					c-7,1.9-15.7-1.6-21.1,3.2c-3.5,3.1-3.9,8.2-4.1,12.8c-0.4,8.9-0.6,18.5,4.3,25.9c7.9,12,24.7,13.1,39,12.9
					c60-0.7,120-1.3,180-2c3.9,0,7.9-0.1,11.4-1.8c4.1-2,6.9-6,10.5-8.7c5.7-4.2,13.1-5.2,20.2-6c12.9-1.5,25.7-2.9,38.6-4.3
					c2.7-0.3,5.6-0.7,7.5-2.6c2.1-2,2.4-5.2,3.5-7.8c5.9-13.7,26.5-8.6,40.3-14.1c6.2-9.7,5-23.5-2.7-32s-21.4-11-31.6-5.8"/>
				<path class="st6" d="M129.6,360.6c-19.6,0-29.3-2.4-31.2-9.2c-3.7-10.3-1-22.5,6.7-30.4c6.3-6.5,15.7-9.6,24.7-8.6
					c0.4-6.5,3.8-12.7,9.3-16.2c5.8-3.7,13.4-4,19.5-1.2c2.1-3.4,5.5-6.4,10.1-8.9c12.2-6.7,31.8-9.3,43.9-6
					c-0.5-1.1-0.5-2.3,0.1-3.5c1-2,3.4-2.8,5.4-1.8c6.3,3.1,10.8,9.9,12.1,18.2c0.9,5.3,0.4,10.7-0.3,15.7
					c6.2,0.5,13.1,1.6,18.9,5.3c7.6,4.8,13,15.3,8.5,24.2c-4.3,8.4-11.7,17.1-33.4,17.5c-13.3,0.2-29.4,1.3-45,2.4
					C158.2,359.6,142,360.6,129.6,360.6L129.6,360.6z M126.4,320.3c-5.8,0-11.6,2.3-15.6,6.3c-5.5,5.7-7.5,14.8-4.8,22.2
					c0.1,0.1,0.1,0.3,0.1,0.4c0.2,0.3,2.5,3.3,22.8,3.4c13.8,0.1,31.9-1.2,49.4-2.4c15.7-1.1,31.9-2.2,45.4-2.5
					c19.8-0.3,23.9-8.3,26.4-13.1c2.3-4.6-1.1-10.9-5.6-13.7c-5.6-3.5-13-4-19.5-4.4c-1.1-0.1-2.2-0.6-2.9-1.5s-1-2-0.8-3.1
					c0.9-5.8,1.9-11.9,1-17.5c-0.7-4.5-2.6-8.2-5.3-10.6c0.1,0.7,0.1,1.3-0.1,2c-0.7,2.1-3,3.2-5.1,2.5c-8.8-3-27.4-1.5-39.1,4.9
					c-3.2,1.8-7.3,4.8-8.3,8.7c-0.3,1.3-1.3,2.4-2.6,2.9c-1.3,0.4-2.8,0.2-3.8-0.7c-3.9-3.3-10.1-3.7-14.5-1s-6.6,8.5-5.3,13.5
					c0.4,1.4-0.1,2.9-1.1,4c-1.1,1-2.6,1.3-4,0.9C130.8,320.6,128.6,320.3,126.4,320.3L126.4,320.3z"/>
				<g>
					<path class="st4" d="M181.9,418.4c-2.2,0-4-1.8-4-4v-50.5c0-1.3,0.7-2.6,1.8-3.3c0.2-0.2,25.4-17,26.1-38.7
						c0.1-2.2,2-3.9,4.1-3.9c2.2,0.1,3.9,1.9,3.9,4.1c-0.8,22.3-21.6,39.2-27.9,43.8v48.4C185.9,416.6,184.1,418.4,181.9,418.4
						L181.9,418.4z"/>
					<path class="st4" d="M199.2,351.7c-0.3,0-0.5,0-0.8-0.1c-0.2,0-20.5-4.5-17.6-34c0.2-2.2,2.2-3.8,4.4-3.6
						c2.2,0.2,3.8,2.2,3.6,4.4c-2.2,22,10.7,25.2,11.3,25.3c2.1,0.5,3.5,2.6,3.1,4.8C202.7,350.4,201,351.7,199.2,351.7L199.2,351.7
						z"/>
					<path class="st4" d="M181.9,367.9c-0.2,0-0.4,0-0.6,0c-0.3,0-25.8-3.9-29.4-34.5c-0.3-2.2,1.3-4.2,3.5-4.4s4.2,1.3,4.4,3.5
						c2.9,24.3,21.7,27.4,22.5,27.5c2.2,0.3,3.7,2.3,3.4,4.5C185.6,366.5,183.8,367.9,181.9,367.9L181.9,367.9z"/>
				</g>
				<path class="st1" d="M298.2,339.2L298.2,339.2c-11-0.1-20-6.5-26.2-18.5c-4.4-8.5-5.8-17-5.9-17.3c-0.4-2.2,1.1-4.2,3.3-4.6
					c2.2-0.3,4.2,1.1,4.6,3.3c0,0.2,1.3,7.7,5.2,15.1c4.7,9,11,13.7,18.6,14c2.2-0.6,19-6.9,17.4-48.4c-0.1-2.2,1.6-4.1,3.8-4.2
					c0,0,0.1,0,0.2,0c2.1,0,3.9,1.7,4,3.8c2.1,51.9-23.2,56.5-24.3,56.7C298.7,339.2,298.5,339.2,298.2,339.2L298.2,339.2z"/>
				<path class="st1" d="M294.2,397.3c-2.2,0-4-1.8-4-4v-81.6c0-2.2,1.8-4,4-4s4,1.8,4,4v81.6C298.2,395.5,296.4,397.3,294.2,397.3z
					"/>
				<path class="st1" d="M318.7,310.7c-0.7,0-1.1,0-1.2,0c-2.2-0.2-3.9-2.1-3.7-4.3c0.2-2.2,2.1-3.9,4.3-3.7c0.2,0,8,0.4,13.3-4.5
					c3.6-3.4,5.4-8.6,5.4-15.5c0-2.2,1.8-4,4-4s4,1.8,4,4c0,9.2-2.7,16.4-8,21.4C330.3,310.1,321.8,310.7,318.7,310.7L318.7,310.7z"
					/>
				<path class="st1" d="M393.4,325.8c-0.9,0-1.6-0.1-2-0.2c-29.6-2.4-27.8-31-27.8-31.3c0.2-2.2,2.1-3.8,4.3-3.7
					c2.2,0.2,3.9,2.1,3.7,4.3c-0.1,2.2-0.8,21.2,20.6,22.8c0.2,0,0.4,0,0.5,0.1c0,0,3.3,0.5,6.9-2.4c4.6-3.7,10.3-13.2,11.3-37
					c0.1-2.2,1.9-3.9,4.1-3.8c2.2,0.1,3.9,2,3.8,4.2c-0.9,21.8-5.8,36.4-14.6,43.2C400,325.2,395.9,325.8,393.4,325.8L393.4,325.8z"
					/>
				<path class="st1" d="M391.9,381.9c-2.2,0-4-1.8-4-4v-56.2l-0.7-31c0-2.2,1.7-4,3.9-4.1c2.2-0.1,4,1.7,4.1,3.9l0.7,31.1v56.3
					C395.9,380.1,394.1,381.9,391.9,381.9L391.9,381.9z"/>
				<path class="st4" d="M812,364c-2.4,0-4.8-0.3-7.2-1.1c-2.1-0.7-3.3-2.9-2.6-5c0.7-2.1,2.9-3.3,5-2.6c6.3,2,13.1-0.5,20.3-3.2
					c6.7-2.5,13.7-5.1,21.2-4.5c5.2,0.4,9.9,2.4,14.4,4.3c1.5,0.6,2.9,1.2,4.4,1.8c6.3,2.4,11.2,2.6,14.7,0.6
					c1.3-0.8,2.5-1.9,3.9-3.1c0.6-0.6,1.2-1.2,1.9-1.7c14.6-12.5,35.7-10.8,54.2-8.3c2.2,0.3,3.7,2.3,3.4,4.5s-2.3,3.7-4.5,3.4
					c-17.6-2.4-35.8-3.9-47.9,6.4c-0.6,0.5-1.1,1-1.7,1.5c-1.5,1.4-3.2,3-5.3,4.2c-5.6,3.2-12.8,3.2-21.5-0.1
					c-1.6-0.6-3.1-1.3-4.7-1.9c-4.1-1.7-8-3.4-12-3.7c-5.7-0.5-11.5,1.7-17.7,4C824.4,361.8,818.3,364,812,364L812,364z"/>
				<path class="st4" d="M761.2,453.6c-0.6,0-1.2-0.1-1.8-0.4c-7.2-3.7-14.7-7.6-22.4-10c-1.9-0.6-3.8-1.1-5.8-1.6
					c-4.7-1.2-9.5-2.5-14-4.9c-7.8-4.1-13.9-11.3-17.1-20.2c-0.9-2.4-1.1-5.3-1.4-8c-0.4-4-0.8-8.5-2.9-9.5
					c-0.8-0.4-2.1-0.5-3.5-0.6c-1.8-0.1-3.9-0.2-6-1.1c-1.1-0.5-2-1.5-2.3-2.6c-1.5-5.4-2.5-11.6,1.1-16.6c3.1-4.3,8.6-6.2,15.9-5.7
					c1.1,0.1,2.1,0.2,3.2,0.3c3.2,0.3,6.3,0.7,8.8-0.1c2-0.7,4.1-2.1,6.2-3.7c3.3-2.4,7-5.2,12-5.4c2.2-0.1,4.1,1.6,4.2,3.8
					c0.1,2.2-1.6,4.1-3.8,4.2c-2.5,0.1-4.8,1.9-7.6,3.9c-2.4,1.8-5.2,3.8-8.5,4.9c-4.2,1.3-8.4,0.9-12.1,0.5c-1-0.1-2-0.2-2.9-0.3
					c-2-0.2-7-0.2-8.8,2.4c-1.3,1.8-1.1,4.7-0.5,7.6c0.5,0,1,0.1,1.6,0.1c2,0.1,4.3,0.3,6.5,1.4c6,3,6.7,10.2,7.3,15.9
					c0.2,2.4,0.5,4.7,1,6.1c2.5,7,7.2,12.6,13.3,15.8c3.7,1.9,7.9,3.1,12.4,4.2c2,0.5,4.1,1.1,6.1,1.7c8.4,2.6,16.2,6.6,23.7,10.5
					c2,1,2.7,3.4,1.7,5.4C764,452.8,762.6,453.6,761.2,453.6L761.2,453.6z"/>
				<path class="st4" d="M703,452.3c-5.9,0-11.7-3.7-16.2-10.5c-0.9-1.4-1.8-2.7-2.6-4.1c-1.9-3.2-3.8-6.2-6.2-8.3
					c-2.7-2.3-6.3-3.6-10.1-5c-1.4-0.5-2.8-1-4.2-1.6c-8.8-3.6-16.6-9.5-22.6-16.9c-0.2-0.3-0.5-0.6-0.7-0.9c-1.2-1.5-2.3-3-3.6-3.8
					c-2.4-1.5-6.1-1.2-10-0.7c-2.2,0.3-4.2-1.3-4.5-3.5c-0.3-2.2,1.3-4.2,3.5-4.5c4.1-0.5,10.2-1.3,15.2,1.9
					c2.5,1.5,4.2,3.7,5.7,5.6c0.2,0.3,0.5,0.6,0.7,0.9c5.1,6.4,11.8,11.4,19.4,14.6c1.3,0.5,2.5,1,3.9,1.5c4.3,1.6,8.7,3.2,12.5,6.4
					c3.5,2.9,5.7,6.7,7.9,10.2c0.8,1.3,1.6,2.6,2.4,3.8c1.8,2.6,5.3,6.9,9.6,6.9c0,0,0.1,0,0.1,0c2.2,0,4,1.8,4,4c0,2.2-1.8,4-4,4
					C703.1,452.3,703,452.3,703,452.3L703,452.3z"/>
				<path class="st4" d="M887.1,510.7c-1.4,0-2.7-0.7-3.5-2c-1.1-1.9-0.4-4.4,1.5-5.5c4.3-2.5,6.5-4.8,6.2-6.6
					c-0.1-0.6-0.5-1.3-1.1-2c-2.8-3.1-7.5-3.5-12.9-4c-4.3-0.4-8.8-0.8-13-2.6c-4.9-2.2-8.5-5.9-12-9.5c-3.5-3.7-6.9-7.2-11-8.1
					c-3.4-0.8-7.2,0.1-11.2,1.1c-1.9,0.5-3.8,0.9-5.8,1.2c-4.9,0.8-9.8,0.6-14.5,0.4c-4.7-0.2-9.1-0.4-13.4,0.4
					c-2.2,0.4-4.2-1.1-4.6-3.2c-0.4-2.2,1.1-4.2,3.2-4.6c5.1-0.9,10.2-0.7,15.2-0.5c4.5,0.2,8.8,0.4,12.9-0.3
					c1.7-0.3,3.4-0.7,5.2-1.1c4.8-1.2,9.7-2.3,15-1.1c6.5,1.5,10.8,6,15,10.4c3.1,3.2,6,6.2,9.4,7.7c3,1.3,6.6,1.6,10.5,2
					c6.2,0.6,13.3,1.2,18.2,6.6c1.7,1.9,2.8,4.1,3.1,6.4c1,8.1-7.4,12.9-10.2,14.5C888.5,510.6,887.8,510.7,887.1,510.7L887.1,510.7
					z"/>
				<path class="st4" d="M857.1,536.4c-0.2,0-0.4,0-0.6-0.1c-2.2-0.3-3.7-2.4-3.3-4.6c0.8-5-2.3-10.7-7.5-13.9
					c-4.6-2.8-10.8-4-18.5-3.7l-0.8,0c-3.4,0.2-7.7,0.4-11.4-1.9c-1.5-0.9-2.7-2.1-3.7-3.2c-0.5-0.5-0.9-1-1.4-1.4
					c-2.5-2.2-6.4-3-10.5-3.7c-1-0.2-2-0.4-3-0.6c-8.5-1.8-14-6.1-15.5-12.1c-0.5-2.1,0.8-4.3,2.9-4.8c2.1-0.5,4.3,0.8,4.8,2.9
					c1,4,6.9,5.7,9.4,6.2c0.9,0.2,1.9,0.4,2.8,0.6c4.7,0.9,10,1.9,14.2,5.6c0.7,0.6,1.4,1.3,1.9,1.9c0.7,0.8,1.4,1.5,2.1,1.9
					c1.6,1,4.1,0.8,6.8,0.7l0.8,0c9.3-0.5,17.1,1.2,23,4.8c8,4.9,12.5,13.8,11.2,22C860.7,535,859,536.4,857.1,536.4L857.1,536.4z"
					/>
				<path class="st4" d="M927.4,511.7c-1.3,0-2.5-0.6-3.3-1.8c-1.2-1.8-0.8-4.3,1.1-5.6c4.2-2.9,7.7-5.3,10.3-8.6
					c2.5-3.2,3.7-6.9,3.2-10l-7.9,0.1h0c-2.2,0-4-1.8-4-4c0-2.2,1.8-4,4-4l8.2-0.1c1,0,2.8,0,4.4,1c1.6,1,2.6,2.6,3.1,4.9
					c1.2,5.6-0.5,11.8-4.6,17c-3.3,4.2-7.4,7.1-12.1,10.3C929,511.5,928.2,511.7,927.4,511.7L927.4,511.7z M939.5,485.9L939.5,485.9
					z"/>
				<path class="st6" d="M57.5,555.6c-2.2,0-4-1.8-4-4v-190c-0.4-3.6-3.5-37.2,18.2-59.5c3.3-3.4,8.9-8.8,15.4-15.1
					c14.2-13.7,43.6-42,45.5-47.9c0.2-2.1,1.9-3.7,4-3.7s4,1.8,4,4c0,5.6-10.3,17.1-47.9,53.4c-6.4,6.2-12,11.6-15.2,14.9
					c-19.8,20.4-16,52.9-16,53.2c0,0.2,0,0.3,0,0.5v190.3C61.5,553.8,59.7,555.6,57.5,555.6L57.5,555.6z M132.6,239.3L132.6,239.3
					L132.6,239.3z M132.6,238.9L132.6,238.9L132.6,238.9z"/>
				<path class="st6" d="M61.9,224.6c-0.8,0-1.5-0.2-2.2-0.6c-26.8-17.1-32.3-50.8-32.5-52.2c-0.3-2.2,1.2-4.2,3.3-4.6
					c2.2-0.3,4.2,1.2,4.6,3.3l0,0c0,0.3,4.6,27.9,24.7,43.7c3.8-11.1,12.3-38.2,11.2-52.9c-0.2-2.2,1.5-4.1,3.7-4.3
					c2.2-0.2,4.1,1.5,4.3,3.7c1.5,20.5-12.8,59.6-13.4,61.2c-0.4,1.1-1.3,2-2.5,2.4C62.7,224.5,62.3,224.6,61.9,224.6L61.9,224.6z"
					/>
				<path class="st6" d="M84.7,298.8c-1.3,0-2.5-0.6-3.3-1.7c-14.8-21.5-23.1-73.6-23.5-75.8c-0.3-2.2,1.2-4.2,3.3-4.6
					c2.2-0.3,4.2,1.2,4.6,3.3c0.1,0.5,8.3,52.5,22.1,72.5c1.2,1.8,0.8,4.3-1,5.6C86.2,298.5,85.4,298.8,84.7,298.8L84.7,298.8z"/>
				<path class="st6" d="M105.5,278.6c-1.3,0-2.6-0.7-3.4-1.9c-0.5-0.9-13.1-21.5-9.2-56.6c0.2-2.2,2.2-3.8,4.4-3.5
					c2.2,0.2,3.8,2.2,3.5,4.4c-3.6,32.4,7.9,51.3,8.1,51.5c1.2,1.9,0.6,4.3-1.3,5.5C106.9,278.5,106.2,278.7,105.5,278.6
					L105.5,278.6z"/>
				<path class="st6" d="M60.8,332.3c-0.1,0-0.2,0-0.3,0c-13.8-1-24.4-14.9-31.4-41.4c-4.9-18.7-6.3-36.9-6.3-37.7
					c-0.2-2.2,1.5-4.1,3.7-4.3c2.2-0.2,4.1,1.5,4.3,3.7c0,0.2,1.3,18.3,6.1,36.3c7.5,28.4,17.3,34.9,24.2,35.4
					c2.2,0.2,3.9,2.1,3.7,4.3C64.7,330.8,62.9,332.4,60.8,332.3L60.8,332.3z"/>
				<g>
					<path class="st1" d="M1199.2,410.7c-2.2,0-4-1.8-4-4v-56.4c0-0.2,0-0.3,0-0.5c0-0.2,2.3-20.3-9.8-32.8
						c-1.1-1.2-3.7-1.8-6.8-2.5c-12.6-2.9-33.6-7.7-41.1-66.5c-0.3-2.2,1.3-4.2,3.5-4.5c2.2-0.3,4.2,1.3,4.5,3.5
						c6.8,53.2,23.7,57.1,35,59.7c4.1,0.9,7.9,1.8,10.7,4.7c14.1,14.5,12.3,36.3,12,39.1v56.1
						C1203.2,408.9,1201.4,410.7,1199.2,410.7L1199.2,410.7z"/>
					<path class="st1" d="M1196.4,264.6c-0.4,0-0.9-0.1-1.3-0.2c-1.2-0.4-2.1-1.3-2.5-2.4c-0.4-1.1-9.6-26.3-8.6-39.7
						c0.2-2.2,2.1-3.8,4.3-3.7c2.2,0.2,3.9,2.1,3.7,4.3c-0.6,7.8,3.5,22.3,6.4,31.2c11-9.9,13.6-25.5,13.6-25.7
						c0.3-2.2,2.4-3.7,4.6-3.3c2.2,0.3,3.7,2.4,3.3,4.6c-0.1,0.9-3.7,23.1-21.4,34.3C1197.9,264.4,1197.2,264.6,1196.4,264.6
						L1196.4,264.6z"/>
					<path class="st1" d="M1181.9,311.9c-0.8,0-1.6-0.2-2.3-0.7c-1.8-1.2-2.3-3.7-1-5.6c8.6-12.5,13.8-45.3,13.9-45.7
						c0.3-2.2,2.4-3.7,4.6-3.3c2.2,0.3,3.7,2.4,3.3,4.6c-0.2,1.4-5.6,35-15.2,49C1184.4,311.3,1183.1,311.9,1181.9,311.9
						L1181.9,311.9z"/>
					<path class="st1" d="M1146.3,284.9c-1.4,0-2.7-0.7-3.4-2c-1.1-1.9-0.5-4.3,1.4-5.5c0.2-0.1,11.9-7.4,19-26.1
						c0.8-2.1,3.1-3.1,5.2-2.3c2.1,0.8,3.1,3.1,2.3,5.2c-8.2,21.5-21.8,29.8-22.4,30.1C1147.7,284.8,1147,284.9,1146.3,284.9
						L1146.3,284.9z"/>
					<path class="st1" d="M1197.1,333.3c-2.1,0-3.8-1.6-4-3.7c-0.2-2.2,1.5-4.1,3.7-4.3c11.2-0.8,17-30.2,18-44.4
						c0.2-2.2,2.1-3.8,4.3-3.7c2.2,0.2,3.9,2.1,3.7,4.3c-0.4,5.1-4.2,50.3-25.4,51.8C1197.3,333.3,1197.2,333.3,1197.1,333.3
						L1197.1,333.3z"/>
				</g>
				<g>
					<path class="st6" d="M1357.3,450.6c-2.2,0-4-1.8-4-4v-41.3c-0.4-3.6-3.5-37.2,18.2-59.5c3.3-3.4,8.9-8.8,15.4-15.1
						c14.2-13.7,43.6-42,45.5-47.9c0.2-2.1,1.9-3.7,4-3.7s4,1.8,4,4c0,5.6-10.3,17.1-47.9,53.4c-6.4,6.2-12,11.6-15.2,14.9
						c-19.8,20.3-16,52.9-16,53.2c0,0.2,0,0.3,0,0.5v41.6C1361.4,448.8,1359.6,450.6,1357.3,450.6L1357.3,450.6z M1432.5,283
						L1432.5,283L1432.5,283z"/>
					<path class="st6" d="M1361.8,268.3c-0.8,0-1.5-0.2-2.2-0.6c-26.8-17.1-32.3-50.8-32.5-52.2c-0.3-2.2,1.2-4.2,3.3-4.6
						c2.2-0.3,4.2,1.2,4.6,3.3l0,0c0.1,0.3,4.6,27.9,24.7,43.7c3.8-11.1,12.3-38.2,11.2-52.9c-0.2-2.2,1.5-4.1,3.7-4.3
						c2.2-0.1,4.1,1.5,4.3,3.7c1.5,20.5-12.8,59.6-13.4,61.2c-0.4,1.1-1.3,2-2.5,2.4C1362.6,268.2,1362.2,268.3,1361.8,268.3
						L1361.8,268.3z"/>
					<path class="st6" d="M1384.6,342.5c-1.3,0-2.5-0.6-3.3-1.7c-14.8-21.5-23.1-73.6-23.4-75.8c-0.3-2.2,1.2-4.2,3.3-4.6
						c2.2-0.3,4.2,1.2,4.6,3.3c0.1,0.5,8.3,52.5,22.1,72.5c1.2,1.8,0.8,4.3-1,5.6C1386.1,342.2,1385.3,342.5,1384.6,342.5
						L1384.6,342.5z"/>
					<path class="st6" d="M1405.4,322.3c-1.3,0-2.6-0.7-3.4-1.9c-0.5-0.9-13.1-21.5-9.2-56.6c0.2-2.2,2.2-3.8,4.4-3.5
						c2.2,0.2,3.8,2.2,3.5,4.4c-3.6,32.2,7.9,51.3,8.1,51.5c1.2,1.9,0.6,4.3-1.3,5.5C1406.8,322.1,1406.1,322.3,1405.4,322.3
						L1405.4,322.3z"/>
					<path class="st6" d="M1360.8,376c-0.1,0-0.2,0-0.3,0c-13.8-1-24.4-14.9-31.4-41.4c-4.9-18.7-6.3-36.9-6.3-37.7
						c-0.2-2.2,1.5-4.1,3.7-4.3c2.2-0.2,4.1,1.5,4.3,3.7c0,0.2,1.3,18.3,6.1,36.3c7.5,28.4,17.3,34.9,24.2,35.4
						c2.2,0.2,3.9,2.1,3.7,4.3C1364.6,374.4,1362.8,376,1360.8,376L1360.8,376z"/>
				</g>
				<g>
					<path class="st6" d="M1323.5,450.6c-2.2,0-4-1.8-4-4v-99c0-0.2,0-0.3,0-0.5c0-0.3,3.7-33-15.4-53.3c-3.1-3.3-8.5-8.7-14.7-14.9
						c-36.3-36.3-46.3-47.7-46.3-53.3c0-2.2,1.8-4,4-4s3.8,1.6,4,3.7c1.8,5.8,30.2,34.2,43.9,47.9c6.3,6.3,11.7,11.7,14.9,15.1
						c21,22.3,17.9,56,17.6,59.5v98.8C1327.5,448.8,1325.7,450.6,1323.5,450.6z M1251.1,225.6L1251.1,225.6L1251.1,225.6z"/>
					<path class="st6" d="M1319.2,210.9c-0.4,0-0.9-0.1-1.3-0.2c-1.2-0.4-2.1-1.3-2.5-2.5c-0.6-1.7-14.4-40.8-12.9-61.2
						c0.2-2.2,2.1-3.9,4.3-3.7c2.2,0.2,3.9,2.1,3.7,4.3c-1,14.7,7.1,41.6,10.8,52.8c19.3-15.9,23.6-43.3,23.6-43.6
						c0.3-2.2,2.4-3.7,4.5-3.4c2.2,0.3,3.7,2.4,3.4,4.5c-0.2,1.4-5.5,35.1-31.4,52.2C1320.7,210.6,1320,210.9,1319.2,210.9
						L1319.2,210.9z"/>
					<path class="st6" d="M1297.2,285c-0.8,0-1.5-0.2-2.2-0.7c-1.8-1.2-2.3-3.7-1.1-5.5c13.3-20,21.3-72,21.4-72.6
						c0.3-2.2,2.4-3.7,4.6-3.4c2.2,0.3,3.7,2.4,3.4,4.5c-0.3,2.2-8.3,54.3-22.6,75.8C1299.8,284.4,1298.5,285,1297.2,285L1297.2,285
						z"/>
					<path class="st6" d="M1277.1,264.9c-0.7,0-1.4-0.2-2.1-0.6c-1.9-1.1-2.5-3.6-1.4-5.5c0.1-0.2,11.2-19.4,7.8-51.6
						c-0.2-2.2,1.3-4.2,3.6-4.4c2.2-0.2,4.2,1.3,4.4,3.5c3.8,35.1-8.4,55.7-8.9,56.5C1279.8,264.2,1278.5,264.9,1277.1,264.9
						L1277.1,264.9z"/>
					<path class="st6" d="M1320.2,318.6c-2.1,0-3.8-1.6-4-3.7c-0.2-2.2,1.5-4.1,3.7-4.3c19.9-1.5,27.9-53.5,29.2-71.7
						c0.2-2.2,2-3.9,4.3-3.7c2.2,0.2,3.9,2.1,3.7,4.3c-0.1,0.8-1.3,18.9-6.1,37.6c-6.8,26.5-17,40.5-30.4,41.5
						C1320.4,318.6,1320.3,318.6,1320.2,318.6L1320.2,318.6z"/>
				</g>
				<path class="st5" d="M171.9,404.6c0,0-35.8,26.2-37.3,58.3c-1.5,32.2,8,50.4,8,50.4S208.4,480,171.9,404.6z"/>
				<path class="st2" d="M477.7,514.1c-1.5,0-2.8-0.8-3.5-2.2c-0.4-0.8-10-19.6-8.5-52.4c0.6-14.1,7.6-29.1,20.1-43.7
					c9.3-10.8,18.4-17.4,18.8-17.7c1-0.7,2.2-0.9,3.3-0.7s2.1,1.1,2.6,2.1c10.9,22.4,19.5,55.7-1.2,86.6
					c-12.3,18.4-29.1,27.1-29.8,27.4C478.9,513.9,478.3,514.1,477.7,514.1L477.7,514.1z M505.4,407.7c-3.4,2.8-8.5,7.5-13.7,13.5
					c-7.9,9.1-17.4,23.2-18.1,38.7c-1,22.2,3.4,37.6,6,44.4c5.4-3.5,15.4-11,23.2-22.8C516.8,460.4,517.7,435.6,505.4,407.7
					L505.4,407.7z"/>
				<path class="st6" d="M1030.5,424.8c-0.4,0-0.9-0.1-1.3-0.2c-0.4-0.2-10.8-3.9-21.8-16.9c-11.5-13.6-7.3-36.4-7.2-37.4
					c0.2-1.2,1-2.2,2-2.8s2.3-0.7,3.4-0.2c42.2,16.3,28.9,54.4,28.7,54.8C1033.6,423.8,1032.1,424.8,1030.5,424.8L1030.5,424.8z
					 M1007.4,376.8c-0.5,6.7-0.2,18.3,6,25.6c5.6,6.6,11,10.4,14.5,12.5C1029.4,406.5,1029.8,387.8,1007.4,376.8z"/>
				<path class="st6" d="M966.1,432.8c-0.2,0-0.3,0-0.5,0c-0.5-0.1-11.5-1.4-25.1-11.5c-14.3-10.6-15.3-33.8-15.4-34.8
					c0-1.2,0.4-2.3,1.3-3.1s2.1-1.2,3.2-1c44.8,6.4,40.4,46.6,40.3,47C969.8,431.3,968.1,432.8,966.1,432.8L966.1,432.8z
					 M933.8,391.2c1,6.6,3.9,17.9,11.6,23.6c7,5.2,13.1,7.7,16.9,8.9C961.9,415.1,958.1,396.8,933.8,391.2L933.8,391.2z"/>
				<path class="st6" d="M1176.1,381.8c-0.3,0-0.6,0-0.9-0.1c-0.4-0.1-11.2-2.8-23.4-14.6c-12.9-12.3-11-35.5-10.9-36.5
					c0.1-1.2,0.7-2.3,1.7-2.9s2.2-0.9,3.3-0.6c43.7,12,34.2,51.2,34.1,51.6C1179.5,380.6,1177.8,381.8,1176.1,381.8L1176.1,381.8z
					 M1148.7,336.5c0.2,6.7,1.6,18.2,8.6,24.9c6.3,6,12,9.3,15.7,11C1173.6,363.8,1172.1,345.1,1148.7,336.5L1148.7,336.5z"/>
				<path class="st6" d="M1174.9,419c-1.7,0-3.3-1.1-3.8-2.9c-0.1-0.4-3.1-11.1,0.9-27.6c4.2-17.3,25.2-27.2,26.1-27.7
					c1.1-0.5,2.3-0.5,3.4,0c1.1,0.5,1.9,1.5,2.2,2.6c11.5,43.8-27.3,55.2-27.7,55.4C1175.6,418.9,1175.3,419,1174.9,419L1174.9,419z
					 M1197,370.6c-5.7,3.5-15,10.5-17.3,19.8c-2.1,8.5-2.1,15-1.7,19C1185.8,405.8,1201.2,395.2,1197,370.6L1197,370.6z"/>
				<path class="st6" d="M1273.3,393.7c-1.7,0-3.3-1.1-3.8-2.9c-0.1-0.5-3.1-11.1,0.9-27.6c4.2-17.3,25.2-27.2,26.1-27.7
					c1.1-0.5,2.3-0.5,3.4,0c1.1,0.5,1.9,1.5,2.2,2.6c11.5,43.8-27.3,55.2-27.7,55.4C1274,393.7,1273.6,393.7,1273.3,393.7
					L1273.3,393.7z M1295.4,345.3c-5.7,3.5-15,10.5-17.3,19.8c-2.1,8.4-2,15-1.7,19C1284.2,380.5,1299.6,369.9,1295.4,345.3
					L1295.4,345.3z"/>
				<path class="st6" d="M1280.6,425.9c-0.3,0-0.5,0-0.8-0.1c-0.5-0.1-11.3-2.4-24-13.6c-13.3-11.8-12.4-35-12.4-36
					c0.1-1.2,0.6-2.3,1.6-3s2.2-1,3.3-0.7c44.1,10.2,36.3,49.8,36.2,50.2C1284.1,424.7,1282.4,425.9,1280.6,425.9L1280.6,425.9z
					 M1251.5,381.8c0.5,6.7,2.4,18.2,9.6,24.5c6.5,5.7,12.3,8.8,16.1,10.3C1277.5,407.9,1275.2,389.4,1251.5,381.8L1251.5,381.8z"/>
				<path class="st6" d="M1047.9,403.2c-1.4,0-2.8-0.8-3.6-2.2c-0.2-0.4-5.2-10.3-4.5-27.2c0.8-17.8,19.5-31.6,20.3-32.2
					c1-0.7,2.2-0.9,3.3-0.7c1.2,0.3,2.1,1.1,2.6,2.1c19.8,40.8-16,59.5-16.4,59.7C1049.1,403.1,1048.5,403.2,1047.9,403.2
					L1047.9,403.2z M1060.9,351.4c-4.9,4.5-12.7,13.2-13.1,22.8c-0.4,8.7,0.9,15.2,2,19C1056.8,388.1,1069.9,374.7,1060.9,351.4z"/>
				<path class="st6" d="M1105.2,421.3c-1.4,0-2.8-0.8-3.6-2.2c-0.2-0.4-5.2-10.3-4.5-27.2c0.8-17.8,19.5-31.6,20.3-32.2
					c1-0.7,2.2-0.9,3.3-0.7c1.2,0.3,2.1,1.1,2.6,2.1c19.8,40.8-16,59.5-16.4,59.7C1106.4,421.2,1105.8,421.3,1105.2,421.3
					L1105.2,421.3z M1118.3,369.5c-4.9,4.5-12.7,13.2-13.1,22.8c-0.4,8.6,0.9,15.1,2.1,19C1114.2,406.1,1127.2,392.8,1118.3,369.5
					L1118.3,369.5z"/>
				<path class="st2" d="M505.3,541c-4.9,0-8.1-0.4-8.4-0.5c-2.2-0.3-3.7-2.3-3.4-4.5c0.1-0.9,3.1-21.8,23.1-47.8
					c8.6-11.1,23-19.5,41.5-24.2c13.8-3.5,25-3.8,25.5-3.8c0,0,0,0,0.1,0c1.2,0,2.3,0.5,3,1.4c0.8,0.9,1.1,2.1,0.9,3.3
					c-4,24.6-16,56.8-50.6,70.3C524.6,540.1,512.8,541.1,505.3,541L505.3,541z M502.4,533c6.4,0.2,19-0.2,32.1-5.3
					c23.5-9.3,38.5-29.1,44.5-59c-11.7,1.1-41.5,5.7-56,24.5C509.4,510.8,504.2,525.9,502.4,533L502.4,533z"/>
				<path class="st2" d="M359,480.6c-0.3,0-0.7,0-1-0.1c-0.9-0.2-21.2-5.8-44.5-28.9c-10-9.9-16.5-25.2-18.8-44.2
					c-1.7-14.2-0.6-25.3-0.5-25.8c0.1-1.2,0.8-2.2,1.8-2.9c1-0.7,2.2-0.8,3.4-0.5c23.9,7,54.3,22.9,63.4,59
					c5.4,21.5,0.5,39.8,0.3,40.5C362.3,479.4,360.7,480.6,359,480.6L359,480.6z M301.7,387.3c-0.4,11.8,0.5,41.8,17.3,58.6
					c15.8,15.7,30.2,22.7,36.9,25.4c1-6.3,2.2-18.8-1.3-32.5C348.4,414.2,330.6,396.9,301.7,387.3L301.7,387.3z"/>
				<path class="st2" d="M276.4,467.9c-2.2,0-4.5-0.1-6.9-0.2c-14.1-0.6-29.1-7.6-43.6-20.2c-10.8-9.3-17.4-18.4-17.7-18.8
					c-0.7-1-0.9-2.2-0.6-3.3c0.3-1.2,1.1-2.1,2.1-2.6c22.4-10.9,55.7-19.5,86.6,1.2c18.4,12.3,27.1,29.1,27.4,29.8
					c1,2,0.2,4.3-1.7,5.4C321.2,459.6,305,467.9,276.4,467.9L276.4,467.9z M217.7,428c2.9,3.4,7.5,8.5,13.5,13.7
					c9.1,7.9,23.2,17.4,38.6,18.1c22.3,1,37.7-3.4,44.5-5.9c-3.5-5.3-11-15.4-22.8-23.3C270.4,416.6,245.6,415.7,217.7,428
					L217.7,428z M211.4,426.5L211.4,426.5L211.4,426.5z"/>
				<path class="st5" d="M83.4,459c0,0-13.6,69.7,38.9,93.1C122.3,552,144.1,487.2,83.4,459z"/>
				<path class="st2" d="M126.1,616c-2.2,0-3.9-1.7-4-3.9c-1.2-39.6,31.3-154.2,32.7-159c0.6-2.1,2.8-3.4,4.9-2.8s3.4,2.8,2.8,4.9
					c-0.3,1.2-33.5,118.2-32.4,156.6c0.1,2.2-1.7,4.1-3.9,4.1C126.2,616,126.2,616,126.1,616L126.1,616z"/>
				<path class="st2" d="M129.9,579.4c-1.6,0-3.2-1-3.8-2.6l-25.9-69.9c-0.8-2.1,0.3-4.4,2.4-5.1s4.4,0.3,5.1,2.4l25.9,69.9
					c0.8,2.1-0.3,4.4-2.4,5.1C130.8,579.3,130.3,579.4,129.9,579.4z"/>
				<path class="st2" d="M222.9,519.3c-20.9,0-35.3-2.2-36-2.3c-2.2-0.3-3.7-2.4-3.3-4.6c0.3-2.2,2.4-3.7,4.6-3.3
					c0.9,0.1,87.5,13.1,143.9-26.4c1.8-1.3,4.3-0.8,5.6,1c1.3,1.8,0.8,4.3-1,5.6c-31,21.7-70.1,28.1-97.4,29.6
					C233.5,519.2,228,519.3,222.9,519.3L222.9,519.3z"/>
				<path class="st2" d="M239.4,539.7c-0.1,0-0.3,0-0.4,0c-15.8-1.6-37-21.2-37.9-22.1c-1-1-1.5-2.4-1.2-3.8s1.3-2.5,2.6-2.9
					c15.9-5.3,38.2-27.5,38.4-27.7c1.6-1.6,4.1-1.6,5.7,0s1.6,4.1,0,5.7c-0.9,0.9-18.9,18.8-35.3,27c7.5,6.2,19.9,15,28.5,15.8
					c2.2,0.2,3.8,2.2,3.6,4.4C243.2,538.2,241.5,539.7,239.4,539.7L239.4,539.7z"/>
				<path class="st2" d="M283.2,526.7c-19.8,0-39.9-8.1-40.9-8.4c-1.6-0.6-2.6-2.2-2.5-3.8s1.1-3.1,2.8-3.7
					c13.7-4.5,26.1-26.5,26.3-26.7c1.1-1.9,3.5-2.6,5.4-1.5c1.9,1.1,2.6,3.5,1.5,5.4c-0.5,0.8-9.6,16.9-22,25.8
					c8.4,2.5,21.6,5.7,33.5,4.8c2.2-0.1,4.1,1.5,4.3,3.7c0.2,2.2-1.5,4.1-3.7,4.3C286.4,526.7,284.8,526.7,283.2,526.7L283.2,526.7z
					"/>
				<path class="st2" d="M305.7,512.3c-9.3,0-15.7-1.9-16.2-2.1c-1.7-0.5-2.9-2.1-2.8-3.9c0-1.8,1.3-3.3,3-3.8
					c8.9-2.3,13.5-20.9,14.4-27.3c0.3-2.2,2.3-3.7,4.5-3.4c2.2,0.3,3.7,2.3,3.4,4.5c0,0.3-1,7.3-3.8,14.8c-2,5.4-4.4,9.7-7.1,12.9
					c6.3,0.5,15.2,0.2,24.5-3.4c2.1-0.8,4.4,0.2,5.2,2.3s-0.2,4.4-2.3,5.2C320.3,511.3,312.3,512.3,305.7,512.3L305.7,512.3z"/>
				<g>
					<path class="st1" d="M720.9,545.2c0,0-6-42.2,45.3-74.4c0,0-43.2-5.8-58.5,51.9"/>
					<path class="st1" d="M720.9,549.2c-2,0-3.7-1.4-4-3.4c-0.2-1.7-4.8-38.2,34.9-69.8c-12.9,3.3-31.4,14.1-40.4,47.8
						c-0.6,2.1-2.8,3.4-4.9,2.8c-2.1-0.6-3.4-2.8-2.8-4.9c4.6-17.3,14.8-40.1,37.2-50.2c13.6-6.2,25.2-4.7,25.7-4.6
						c1.7,0.2,3,1.5,3.4,3.1s-0.4,3.3-1.8,4.2c-20,12.6-33.8,28.7-40.1,46.7c-4.7,13.6-3.4,23.6-3.4,23.7c0.3,2.2-1.2,4.2-3.4,4.5
						C721.3,549.2,721.1,549.2,720.9,549.2L720.9,549.2z"/>
				</g>
				<g>
					<path class="st1" d="M731.4,530.3c0,0-26.5-26.7-7.2-76.5c0,0-33.6,18.7-14,67.6"/>
					<path class="st1" d="M731.3,534.3c-1,0-2-0.4-2.8-1.2c-1-1.1-22.9-23.8-12.8-65.9c-6.8,9.5-12.5,26.2-1.9,52.7
						c0.8,2.1-0.2,4.4-2.2,5.2c-2,0.8-4.4-0.2-5.2-2.2c-5.9-14.8-10.7-36.4-0.1-55.6c6.4-11.7,15.5-16.8,15.9-17
						c1.5-0.8,3.3-0.6,4.6,0.5s1.7,2.9,1.1,4.5c-18,46.6,5.3,71.2,6.3,72.2c1.5,1.6,1.5,4.1,0,5.7
						C733.4,533.9,732.4,534.3,731.3,534.3L731.3,534.3z"/>
				</g>
				<g>
					<path class="st1" d="M675.2,498c0,0-26.5-26.7-7.2-76.5c0,0-33.6,18.7-14,67.6"/>
					<path class="st1" d="M675.2,502c-1,0-2-0.4-2.8-1.2c-1-1.1-22.9-23.8-12.8-65.9c-6.8,9.5-12.5,26.2-1.9,52.7
						c0.8,2.1-0.2,4.4-2.2,5.2c-2,0.8-4.4-0.2-5.2-2.2c-5.9-14.8-10.7-36.4-0.1-55.6c6.4-11.7,15.5-16.8,15.9-17
						c1.5-0.8,3.3-0.6,4.6,0.5s1.7,2.9,1.1,4.5c-18,46.6,5.3,71.2,6.3,72.2c1.5,1.6,1.5,4.1,0,5.7C677.2,501.6,676.2,502,675.2,502
						L675.2,502z"/>
				</g>
				<g>
					<path class="st1" d="M638.7,504.4c0,0-26.5-26.7-7.2-76.5c0,0-33.6,18.7-14,67.6"/>
					<path class="st1" d="M638.7,508.4c-1,0-2-0.4-2.8-1.2c-1-1.1-22.9-23.8-12.8-65.9c-6.8,9.5-12.5,26.2-1.9,52.7
						c0.8,2.1-0.2,4.4-2.2,5.2c-2,0.8-4.4-0.2-5.2-2.2c-5.9-14.8-10.7-36.4-0.1-55.6c6.4-11.7,15.5-16.8,15.9-17
						c1.5-0.8,3.3-0.6,4.6,0.5s1.7,2.9,1.1,4.5c-18,46.6,5.3,71.2,6.3,72.2c1.5,1.6,1.5,4.1,0,5.7
						C640.8,508,639.7,508.4,638.7,508.4L638.7,508.4z"/>
				</g>
				<path class="st5" d="M647.9,508.4c-2.2,0-4-1.8-4-4c0-20.1,3.6-48,20.5-66.4c10.5-11.4,21.1-13.7,21.6-13.8
					c2.2-0.5,4.3,0.9,4.7,3.1c0.5,2.2-0.9,4.3-3.1,4.7c-0.2,0-9,2.2-17.8,11.9c-11.8,13.1-18,34.1-18,60.6
					C651.9,506.6,650.1,508.4,647.9,508.4L647.9,508.4z"/>
				<path class="st5" d="M432.1,470.2C432.1,470.2,432.1,470.2,432.1,470.2c-2.3,0-4-1.9-4-4.1c1.4-74.9-15.7-91.2-15.8-91.3
					c-1.7-1.4-1.9-3.9-0.5-5.6c1.4-1.7,4-1.9,5.7-0.5c2.1,1.7,20.2,19,18.7,97.6C436.1,468.5,434.3,470.2,432.1,470.2L432.1,470.2z"
					/>
				<path class="st5" d="M431.1,432c-0.2,0-0.4,0-0.6,0c-2.2-0.3-3.7-2.3-3.4-4.5c0.2-1.4,5.2-35.1,24-52.5c1.6-1.5,4.1-1.4,5.6,0.2
					s1.4,4.2-0.2,5.7c-16.7,15.5-21.5,47.4-21.5,47.8C434.8,430.6,433,432,431.1,432L431.1,432z"/>
				<path class="st5" d="M674.1,514.9c-1.7,0-3.3-1.1-3.8-2.8c-0.5-1.5-10.8-37.6,23.7-66.4c1.7-1.4,4.2-1.2,5.6,0.5
					c1.4,1.7,1.2,4.2-0.5,5.6c-30.4,25.4-21.6,56.7-21.2,58c0.6,2.1-0.6,4.3-2.7,5C674.8,514.8,674.5,514.9,674.1,514.9L674.1,514.9
					z"/>
				<path class="st5" d="M653.8,512.1c-1,0-2-0.4-2.8-1.1c-1.1-1.1-27.7-27.6-11.4-69.6c0.8-2.1,3.1-3.1,5.2-2.3
					c2.1,0.8,3.1,3.1,2.3,5.2c-14.3,36.9,8.6,60,9.5,61c1.6,1.6,1.6,4.1,0.1,5.7C655.9,511.7,654.8,512.1,653.8,512.1L653.8,512.1z"
					/>
				<path class="st5" d="M697.2,543.4c-1.7,0-3.3-1.1-3.8-2.8c-0.5-1.5-10.8-37.6,23.7-66.4c1.7-1.4,4.2-1.2,5.6,0.5
					c1.4,1.7,1.2,4.2-0.5,5.6c-30.4,25.4-21.6,56.7-21.2,58c0.6,2.1-0.6,4.3-2.7,5C698,543.3,697.6,543.4,697.2,543.4L697.2,543.4z"
					/>
				<path class="st5" d="M456.9,461c-2.1,0-3.8-1.6-4-3.7c0-0.6-1.1-14,1-30.2c3-22.3,10.5-38.2,22.2-47.5c1.7-1.4,4.2-1.1,5.6,0.7
					s1.1,4.2-0.7,5.6c-24.2,19.1-20.3,70.3-20.2,70.8c0.2,2.2-1.5,4.1-3.6,4.3C457.1,460.9,457,460.9,456.9,461L456.9,461z"/>
				<path class="st5" d="M370.1,506c0,0-52.9,7.5-78.9,78.4h54.7C345.9,584.4,372.6,549.7,370.1,506z"/>
				<path class="st5" d="M381.5,511.9c0,0-15.4,68,40.3,74.4l30.9-2.6C452.7,583.7,436.2,529.1,381.5,511.9L381.5,511.9z"/>
				<path class="st5" d="M455,577.8c0,0-5.8-24.5,18.7-47.2c0,0,27.7,19.8,29,47.2"/>
				<path class="st1" d="M0,201.7c3.8-0.2,19.6,0.6,23-1s6.3-5,6.1-8.8c-0.1-1.7-0.7-3.3-0.9-5.1c12-1.5,24.1-2.4,36.2-2.7
					c3.2-0.1,24.8-2.5,17.9,7.5c-0.8,1.2-2.1,1.9-3.1,2.9c-1.9,2.1-2.2,5.2-2,8c0.1,1.9,0.4,3.9,1.4,5.5c0.9,1.7,2.7,3,4.6,3.1
					c2,0.1,3.9-1.2,5.8-0.8c0.1,3.5-5.3,3.6-7.3,5.7c-3.5,3.6-4.1,10.4,0.1,13.2c2.7,1.8,6.2,1.4,9.5,1.2c10.7-0.6,21.6,2.2,30.5,8
					c1.6,1.1,3.3,2.4,3.8,4.3c0.4,1.7-0.3,3.4-0.2,5.1c0.3,5.3,7.4,6.8,12.7,6.8c15.2,0,30.5,0,45.7,0c12.3,0,24.1,3.2,34.9-4.6
					c1.5-1.1,3-2.4,4-4c1.2-2,1.6-4.4,1.7-6.7c0.4-8.4-2.6-17-8.6-22.9c-2.1-2-4.5-3.7-7.2-4.5c-2.6-0.8-5.3-0.8-8.1-0.8
					c-6,0-24.3,3.6-20.8-5c2.7-6.6,10.2-10.8,4.3-19.3c-2.3-3.2-5.8-5.3-9.4-6.9c-10.6-4.7-22.3-5.8-33.8-5.6
					c-5.9,0.1-13.8,3.7-16.1-3.7c-1.1-3.5,1.1-9,0.8-12.8c-0.3-4.5-1.5-8.8-4-12.6c-6.4-9.5-19.2-12-30.5-13.8
					c3.4-2.8,6.8-5.5,10.3-8.3c1-0.8,2-1.7,2.2-2.9c0.2-1.1-0.4-2.1-1-3c-4.5-6.5-12.8-9.2-20.5-10.6c-23.7-4.2-47.9,0.1-71.5,4.4
					c0.9,7.3-9.9-5.7-10.4,1.6"/>
				<path class="st4" d="M56.2,231.8c-6.9-4.4-16.4-4.6-23.4-0.4c0.7-2.4-2.1-4.2-4.5-4.8c-5.7-1.5-11.9-1.1-17.4,1
					c-0.9,0.3-1.8,0.8-2.3,1.6c-0.5,0.8-0.5,1.7-0.6,2.6c-0.3,9.8-0.5,19.6-0.8,29.4c10.6,0.6,21.2,0.5,31.8-0.1
					c2.7-0.2,5.4-0.4,7.9-1.5c2.4-1.2,4.5-3.5,4.6-6.1c0.1-3.3-2.7-6.1-5.8-7.6c3.7-1.4,7.8-1,11.5-2.4c3.7-1.3,6.9-5.8,4.7-9.1"/>
				<g>
					<path class="st1" d="M760,500.2c-10.6,2.7-20.8,7-30.2,12.7c9.5,3.2,36.8,8.2,44.1,15.2c-4,0.2-32,10.8-35.5,12.7
						c-3.5,1.9-0.9-3.9,0,0c0.2,0.8,0.5,1.6,0.5,2.5c-0.2,3.2-4.3,24.9-7.5,24.4c-27-4.2-92.7,2.3-120,1.3
						c-4.2-0.2-64.9-7.1-66.5-11c-2.2-5.2,96.8-24,101.8-26.7c18.3-9.9,37.8-15.3,57.2-22.6c7.7-2.9,15.3-5.9,23.4-7.9
						c5.7-1.4,11.5-2.4,17.4-2.5C748.7,498.1,756.4,501.1,760,500.2L760,500.2z"/>
					<path class="st1" d="M618.1,569.4c-2.4,0-4.7,0-6.7-0.1c-2.8-0.1-65.1-6.9-67-11.3c-0.1-0.2-0.1-0.5,0-0.9
						c1.9-3.6,33.4-10.8,71.3-19.2c15.5-3.4,29-6.4,30.6-7.3c13.3-7.1,27.4-12.1,41.1-16.9c5.3-1.8,10.7-3.8,16.1-5.8l2.8-1
						c6.7-2.5,13.6-5.1,20.7-6.9c6.7-1.7,12.3-2.5,17.5-2.5c1.8,0,4.3,0.5,6.8,1.1c3.2,0.7,6.5,1.4,8.5,1l0,0l0,0l0.2,1c0,0,0,0,0,0
						c-10.2,2.6-20,6.6-29.1,12c2.6,0.8,6.3,1.8,10.4,2.8c12.3,3.1,27.5,7.1,32.8,12.2l0.8,0.8l-1.1,0.1c-3.6,0.2-30.2,10.1-35,12.4
						c0,0.1,0.1,0.2,0.1,0.3c0.2,0.6,0.3,1.2,0.3,1.9c-0.1,2.9-3.6,21.8-6.9,24.4c-0.4,0.3-0.8,0.4-1.2,0.4
						c-16.4-2.6-47.3-1.1-74.6,0.1C642.3,568.8,628.5,569.5,618.1,569.4L618.1,569.4z M744.7,498.6
						C744.7,498.6,744.6,498.6,744.7,498.6c-5.3,0.1-10.8,0.9-17.4,2.5c-7,1.7-13.9,4.3-20.5,6.8l-2.8,1c-5.4,2-10.8,3.9-16.1,5.8
						c-13.7,4.8-27.8,9.7-41,16.8c-1.8,1-14.6,3.8-30.9,7.4c-24.5,5.4-70.2,15.4-70.6,18.7c1.5,3.4,60.4,10.5,66.1,10.7
						c10.7,0.4,27.5-0.4,45.2-1.2c27.3-1.2,58.3-2.7,74.8-0.1c0.1,0,0.3-0.1,0.4-0.2c2.8-2.3,6.4-20.4,6.5-23.7
						c0-0.5-0.1-1.1-0.3-1.6c0-0.1,0-0.1,0-0.1c-0.7,0.3-1.3,0.2-1.6-0.1c-0.4-0.3-0.4-1-0.2-1.6s0.8-1,1.3-0.9
						c0.5,0.1,0.9,0.4,1.1,1.2c4.8-2.3,27.8-10.9,34.1-12.3c-5.8-4.6-20.6-8.4-31.6-11.2c-4.7-1.2-8.8-2.2-11.5-3.2l-1-0.3l0.9-0.6
						c8.3-5.1,17.3-9,26.6-11.7c-1.6-0.2-3.3-0.6-5-1C748.8,499.1,746.4,498.6,744.7,498.6L744.7,498.6z M737.1,540.6
						c0,0,0.2,0.1,0.7-0.2c-0.2-0.5-0.3-0.6-0.3-0.6c0,0-0.2,0.1-0.3,0.3C737.1,540.4,737.1,540.5,737.1,540.6L737.1,540.6
						L737.1,540.6z"/>
				</g>
				<path class="st2" d="M320.1,459.7c-0.4,0-0.7,0-1-0.1l-59.1-16c-2.1-0.6-3.4-2.8-2.8-4.9c0.6-2.1,2.8-3.4,4.9-2.8l59.1,16
					c2.1,0.6,3.4,2.8,2.8,4.9C323.5,458.5,321.9,459.7,320.1,459.7L320.1,459.7z"/>
				<path class="st2" d="M527,451c-0.8,0-1.7-0.2-2.4-0.8c-1.8-1.3-2.2-3.8-0.8-5.6c29.6-40.2,30.7-79.6,30.7-80
					c0-2.2,1.9-3.9,4.1-3.9c2.2,0,4,1.8,3.9,4.1c0,1.7-1,42.2-32.2,84.6C529.5,450.5,528.3,451,527,451z"/>
				<path class="st2" d="M540.2,430.1c-0.1,0-0.2,0-0.3,0c-2.2-0.2-3.9-2.1-3.7-4.3c2.4-33.1-6.2-55.9-6.3-56.1
					c-0.8-2.1,0.2-4.4,2.3-5.2c2.1-0.8,4.4,0.2,5.2,2.3c0.4,1,9.4,24.6,6.9,59.6C544,428.5,542.3,430.1,540.2,430.1L540.2,430.1z"/>
				<path class="st2" d="M602.3,555.6c-1,0-2-0.4-2.8-1.1c-1.6-1.5-1.6-4.1-0.1-5.7c0.3-0.4,27-29.3,16.5-92.1
					c-0.4-2.2,1.1-4.2,3.3-4.6c2.2-0.4,4.2,1.1,4.6,3.3c11.3,67.1-17.4,97.7-18.6,99C604.4,555.1,603.4,555.6,602.3,555.6
					L602.3,555.6z"/>
				<path class="st2" d="M596.7,523.2c-2.1,0-3.9-1.7-4-3.8c0-0.6-0.5-14.3,2.6-32c5.3-29.8,16.9-46.8,25.7-55.8
					c1.5-1.6,4.1-1.6,5.7-0.1s1.6,4.1,0.1,5.7c-27.8,28.6-26.1,81.4-26,82c0.1,2.2-1.6,4.1-3.8,4.2
					C596.8,523.2,596.8,523.2,596.7,523.2L596.7,523.2z"/>
				<path class="st2" d="M637.6,553.1c-1.8,0-3.4-1.2-3.8-2.9c-0.3-1.2-7.9-30.5,24.9-64.1c1.5-1.6,4.1-1.6,5.7-0.1
					c1.6,1.5,1.6,4.1,0.1,5.7c-29.4,30.1-23.2,55.3-22.9,56.4c0.6,2.1-0.7,4.3-2.8,4.9C638.3,553.1,638,553.1,637.6,553.1
					L637.6,553.1z"/>
				<path class="st4" d="M1084.3,572.8c-1.1,0-2.2-0.4-2.9-1.3c-7.6-8.3-8.9-19.2-3.5-29.2c6.1-11.3,18.8-17.9,30.9-16.1
					c5.7,0.9,11,3.3,15.5,6.8c2.8-6.8,9.1-14.3,15.4-17.9c12.9-7.4,23-5.1,30.4-0.9c2.8-8,11.1-15.1,27.9-15.7
					c5.1-0.1,16.4,3.7,23.9,9.3c1.6-6.6,5.5-12.6,11.1-16.6c6.9-4.8,15.8-6.2,23.9-4c0.8-9.8,7.2-19.1,16.4-22.8
					c8-3.2,17.3-2,24.4,2.5c0.6-3,1.7-6,3.3-8.8c3.9-6.6,10.1-11.3,17.1-12.8c10.2-2.2,21.3,2.2,28.2,10.3c1.6-4.8,3.9-9.6,7.9-13.4
					c4.1-3.9,10.1-5.9,15.7-5.3c2.3,0.2,4.4,0.9,6.2,2c2.9-4.2,7.2-7.5,12.2-9.6c6.9-2.8,14.4-2.9,20.7-0.1c2,0.9,2.9,3.2,2.1,5.3
					c-0.9,2-3.2,2.9-5.3,2.1c-4.3-1.9-9.6-1.8-14.5,0.2s-8.7,5.7-10.5,10.1c-0.6,1.4-1.8,2.3-3.3,2.5c-1.5,0.2-2.9-0.5-3.7-1.8
					c-1.2-1.9-3.3-2.5-4.8-2.6c-3.2-0.4-7,0.9-9.3,3.1c-4.9,4.7-6.7,12.4-8.1,18.7c-0.4,1.7-1.9,3-3.7,3.1c-1.8,0.1-3.4-0.9-4-2.6
					c-3.5-9.7-14.6-16.1-24.2-14.1c-4.7,1-9.2,4.4-11.9,9c-2.5,4.3-3.3,9.2-2,13.4c0.6,1.9-0.3,3.9-2.1,4.8c-1.8,0.8-4,0.2-5-1.4
					c-4.6-7.1-14.7-10.2-22.5-7.1c-7.8,3.2-12.8,12.5-11.2,20.7c0.3,1.5-0.3,3.1-1.6,4s-3,1-4.3,0.2c-6.5-3.7-15.4-3.3-21.6,1
					c-6.2,4.3-9.6,12.5-8.2,20c0,0,0,0,0,0c0.4,2.2-1.1,4.2-3.2,4.6s-4.2-1.1-4.6-3.2l0,0c-0.8-4.5-16.8-12.7-23.1-12.7
					c-0.1,0-0.1,0-0.2,0c-13.3,0.4-21.3,5.8-21.3,14.4c0,1.5-0.9,2.9-2.2,3.6c-1.4,0.7-3,0.5-4.2-0.4c-9.3-7-17.1-7.6-26.8-2
					c-8.2,4.7-13.8,15.9-12.8,18.1c1.2,1.8,0.8,4.3-1,5.6c-1.8,1.3-4.3,0.8-5.6-1l0,0c-3.8-5.5-10.1-9.5-16.8-10.5
					c-9.8-1.5-18.8,4.8-22.6,11.9c-1.8,3.3-5.1,11.9,2.4,20.1c1.5,1.6,1.4,4.2-0.2,5.7C1086.2,572.5,1085.2,572.8,1084.3,572.8
					L1084.3,572.8z"/>
				<path class="st4" d="M1195.2,507c-2,0-3.7-1.5-4-3.6c-1-8.7-10.4-15.3-18.1-19.3c-2.6-1.4-15.2-2.5-20.1,0.2
					c-1.1,0.6-1.1,1-1.1,1.2l0,0l0,0c-0.2,2.2-2.1,3.9-4.3,3.7c-2.2-0.2-3.9-2.1-3.7-4.3l0,0c0,0,0,0,0,0
					c0.6-8.8-4.7-17.8-12.7-21.4c-8-3.7-18.3-1.8-24.6,4.4c-1,1-2.4,1.4-3.7,1.1c-1.3-0.3-2.4-1.2-2.9-2.5
					c-3.7-10.1-14.2-17.4-24.9-17.5c-0.1,0-0.1,0-0.2,0c-10.7,0-21.2,7.2-25,17.1c-0.5,1.2-1.5,2.1-2.8,2.4c-1.2,0.3-2.6,0-3.6-0.8
					c-6-5.1-15.4-6.1-22.3-2.4s-11.3,12.1-10.3,19.9c0.3,2.2-1.3,4.2-3.5,4.5c-2.2,0.3-4.2-1.3-4.5-3.5c-1.4-11.1,4.6-22.6,14.5-28
					c8.4-4.5,18.9-4.2,27.1,0.4c6.1-10.7,18.1-17.8,30.5-17.7c12.3,0.1,24,7.2,30.1,17.8c8.5-5.7,19.8-6.8,29.3-2.5
					c8.3,3.8,14.4,11.5,16.6,20.2c7.9-3,21.3-1.7,25.7,0.6c13.8,7.2,21.3,15.7,22.4,25.5c0.2,2.2-1.3,4.2-3.5,4.4
					C1195.5,507.1,1195.4,507.1,1195.2,507L1195.2,507z"/>
				<path class="st5" d="M1234.6,145.2c-1.8,0-3.4-1.2-3.9-3c-4-15.8,1.5-33.6,13.7-44.4c9.9-8.8,24-12.6,37-10.5
					c-0.9-3.6-1-7.5-0.3-11.5c1.6-9,7.1-17.1,14.6-21.8c13.8-8.6,30.1-6.4,40.3-3.6c4.8-9.2,13.5-16.3,24.4-19.7
					c10.3-3.2,20.8-2.7,29.6,1.3c2.3-6.6,7.1-12.4,13.6-16.4c8.4-5.1,18-6.3,26.4-3.3c2.1,0.8,3.2,3,2.4,5.1s-3,3.2-5.1,2.4
					c-6-2.2-13.3-1.2-19.5,2.6c-6.2,3.8-10.4,9.8-11.2,16.2c-0.2,1.4-1,2.6-2.3,3.1s-2.7,0.5-3.9-0.3c-7.5-5-17.9-6.2-27.7-3.1
					c-9.8,3.1-17.6,10-20.9,18.4c-0.8,2-3,3-5,2.3c-8.4-2.8-24.3-6.2-37,1.7c-5.5,3.5-9.7,9.7-10.9,16.4c-0.9,5.2,0.1,10.1,2.8,13.7
					c1.1,1.4,1.1,3.4,0,4.8s-3,2-4.7,1.3c-12.4-4.8-27.5-2.1-37.5,6.7s-14.5,23.5-11.2,36.4c0.5,2.1-0.8,4.3-2.9,4.9
					C1235.3,145.2,1235,145.2,1234.6,145.2L1234.6,145.2z"/>
				<path class="st6" d="M1267.8,300.2c-0.2,0-0.3,0-0.5,0c-8.6-1-19.3-2.2-27.8-8.2c-8.5-6-11.6-15.2-10.4-22.7
					c-8.3,0-16.6-1.8-24.3-5.2c-2.5-1.1-5.4-2.6-7.4-5.2c-1.9-2.5-2.8-5.7-3-9.8c-0.4-12.3,6-24.5,16.3-31.2
					c7.5-4.8,16.8-6.6,25.6-5.2c-0.7-2.8-0.8-5.8-0.5-9c1.1-8.5,6-16.7,13-21.4c7.9-5.3,17.9-7.5,30-6.6c-0.6-1.5-1.1-3.2-1.3-5
					c-1.1-8.1,1.9-16.8,7.7-22.2c8.7-8.2,20.6-10.3,32.3-11.4c2.8-7.4,8.9-13.7,16.9-17.2c5.6-2.4,11.4-3.2,17-2.4
					c0-0.3-0.1-0.7-0.1-1c-0.3-5.3,1.9-10.9,5.6-14.5c5.2-5.1,13-7.7,23.2-7.7h0.1c2.5,0,5,0.1,7.5,0.2c4.8,0.2,9.4,0.5,13.8-0.2
					c2.2-0.3,4.2,1.2,4.6,3.3c0.3,2.2-1.2,4.2-3.3,4.6c-5.2,0.8-10.4,0.5-15.4,0.3c-2.5-0.1-4.9-0.2-7.2-0.2c-8.1,0-14,1.8-17.7,5.4
					c-2.1,2.1-3.4,5.4-3.2,8.4c0.1,1.5,0.6,3.6,2.3,5c1.6,1.3,2,3.6,0.8,5.4s-3.5,2.3-5.3,1.2c-5.5-3.2-12.9-3.3-19.6-0.4
					c-6.7,2.9-11.7,8.3-13.2,14.5c-0.4,1.7-1.8,2.9-3.6,3c-11.1,0.9-22.6,2.5-30.2,9.5c-3.9,3.7-6,9.8-5.2,15.3
					c0.4,2.6,1.6,6.2,5.2,8c1.8,0.9,2.6,3,2,4.9s-2.6,3-4.6,2.6c-14.7-3-26.4-1.7-34.7,3.9c-5,3.4-8.8,9.6-9.5,15.8
					c-0.6,4.7,0.6,8.9,3.3,12c1.3,1.4,1.4,3.5,0.2,5.1c-1.2,1.5-3.2,2-4.9,1.2c-8.6-4.2-19.3-3.5-27.3,1.7c-8,5.2-13,14.7-12.7,24.2
					c0.1,2.4,0.5,4.1,1.3,5.2c0.9,1.2,2.6,2.1,4.2,2.8c8.3,3.6,17.4,5.1,26.4,4.2c1.5-0.2,3,0.6,3.8,1.9s0.8,2.9,0,4.2
					c-3.6,5.8,0.2,14.3,5.9,18.3c6.8,4.8,15.9,5.8,24,6.8c2.2,0.2,3.8,2.2,3.5,4.4C1271.6,298.7,1269.8,300.2,1267.8,300.2
					L1267.8,300.2z"/>
				<path class="st4" d="M884.8,545.2v22.3h84.8C969.6,567.5,903.4,564.3,884.8,545.2z"/>
				<polygon class="st3" points="738.4,540.7 703.1,568.2 884.8,567.5 884.4,549.1 				"/>
			</g>
		</g>
	</g>
</g>
</svg>
