<?xml version="1.0" encoding="UTF-8"?>
<svg xmlns="http://www.w3.org/2000/svg" xmlns:xlink="http://www.w3.org/1999/xlink" version="1.1" viewBox="0 0 1429.71 1177.07">
  <defs>
    <style>
      .cls-1 {
        fill: none;
      }

      .cls-2 {
        fill: #fff;
      }

      .cls-3 {
        fill: #abdfea;
      }

      .cls-4 {
        fill: #6b6b66;
      }

      .cls-5 {
        fill: #94948b;
      }

      .cls-6 {
        fill: #c8c7b9;
      }

      .cls-7 {
        clip-path: url(#clippath);
      }
    </style>
    <clipPath id="clippath">
      <rect class="cls-1" x="0" y="-.32" width="1427.18" height="1177.4"/>
    </clipPath>
  </defs>
  <!-- Generator: Adobe Illustrator 28.6.0, SVG Export Plug-In . SVG Version: 1.2.0 Build 709)  -->
  <g>
    <g id="fondo">
      <path class="cls-5" d="M1404.71,24.68v1127.72H25V24.68h1379.71M1429.71-.32H0v1177.72h1429.71V-.32h0Z"/>
      <g class="cls-7">
        <g>
          <polygon class="cls-6" points="0 1113.28 261.84 1011.46 437.09 1136.2 437.09 1184.31 0 1184.31 0 1113.28"/>
          <path class="cls-3" d="M1427.18,881.82c-79.99-27.79-168.56-30.29-249.99-7.05-49.32,14.07-95.64,37.16-144.58,52.5-171.52,53.75-360.66,8.74-534.83,53.17-22.67,5.78-45.5,13.35-63.82,27.9-18.31,14.56-31.5,37.38-29.1,60.65,2.58,25.03,22.59,45.54,45.54,55.87,22.94,10.33,48.64,12.31,73.75,14.01,278.66,18.9,558.95,21.6,836.91-5.71,15-1.47,30.69-3.28,43.16-11.75,12.47-8.47,20.25-25.88,13.03-39.11"/>
          <polygon class="cls-6" points="1179.98 1006.18 1179.98 1177.07 1427.18 1177.07 1427.18 1025.96 1179.98 1006.18"/>
          <polyline class="cls-5" points="437.09 1184.31 437.09 1008.35 399.15 1008.35 399.15 938.75 551 938.75 551 1177.07"/>
          <polygon class="cls-6" points="698.7 1175.76 698.7 938.75 753.63 938.75 753.63 864.08 869.84 864.08 869.84 1175.76 698.7 1175.76"/>
          <rect class="cls-6" x="885.35" y="965.52" width="158.72" height="210.24"/>
          <polygon class="cls-2" points="1026.52 1152.42 714.85 1152.42 714.85 1091.63 965.8 1091.63 1026.52 1152.42"/>
          <polygon class="cls-6" points="29.17 1177.4 73.64 898.83 103.07 898.83 103.07 1177.07 29.17 1177.4"/>
          <rect class="cls-6" x="626.4" y="970.33" width="34.24" height="207.06"/>
          <polygon class="cls-3" points="643.52 895.31 615.45 968.07 660.64 970.33 672.58 927.38 663.53 895.31 663.53 874.47 648.39 874.47 643.52 895.31"/>
          <polygon class="cls-5" points="278.41 988.32 311.12 961.52 399.1 965.52 399.1 988.32 278.41 988.32"/>
          <rect class="cls-2" x="451.71" y="970.76" width="77.77" height="20.47"/>
          <rect class="cls-2" x="451.71" y="1017.47" width="77.77" height="20.47"/>
          <rect class="cls-2" x="451.71" y="1059.44" width="77.77" height="20.47"/>
          <polygon class="cls-6" points="615.45 968.07 567.73 968.07 567.73 1023.28 538.82 1023.28 538.82 1167.74 612.25 1167.74 615.45 968.07"/>
          <polygon class="cls-2" points="1027.44 1009.69 903.38 1009.69 903.38 983.23 903.38 983.23 1027.44 1009.69"/>
          <polygon class="cls-2" points="1027.44 1050.22 903.38 1050.22 903.38 1023.76 903.38 1023.76 1027.44 1050.22"/>
          <polygon class="cls-2" points="134.96 1182.07 134.96 1056.89 205.24 1056.89 205.24 1023.76 278.41 1023.76 278.41 1184.31 134.96 1182.07"/>
          <path class="cls-5" d="M1072.36,1195.32c-2.21,0-4-1.79-4-4v-260.05l-42.95-42.95-40.72,40.72v36.48c0,2.21-1.79,4-4,4s-4-1.79-4-4v-38.14c0-1.06.42-2.08,1.17-2.83l44.72-44.72c1.56-1.56,4.1-1.56,5.66,0l46.95,46.95c.75.75,1.17,1.77,1.17,2.83v261.71c0,2.21-1.79,4-4,4Z"/>
          <path class="cls-5" d="M965.29,966.12c-2.21,0-4-1.79-4-4v-52.21h-51.26v52.21c0,2.21-1.79,4-4,4s-4-1.79-4-4v-56.21c0-2.21,1.79-4,4-4h59.26c2.21,0,4,1.79,4,4v56.21c0,2.21-1.79,4-4,4Z"/>
          <path class="cls-5" d="M954.64,909.91c-2.21,0-4-1.79-4-4v-37.82h-29.96v37.82c0,2.21-1.79,4-4,4s-4-1.79-4-4v-41.82c0-2.21,1.79-4,4-4h37.96c2.21,0,4,1.79,4,4v41.82c0,2.21-1.79,4-4,4Z"/>
          <path class="cls-5" d="M954.65,868.09c-1.33,0-2.63-.66-3.39-1.88l-15.59-24.86-15.59,24.86c-1.17,1.87-3.64,2.44-5.51,1.26-1.87-1.17-2.44-3.64-1.26-5.51l18.98-30.26c.73-1.17,2.01-1.88,3.39-1.88s2.66.71,3.39,1.88l18.98,30.26c1.17,1.87.61,4.34-1.26,5.51-.66.41-1.4.61-2.12.61Z"/>
          <g>
            <path class="cls-4" d="M103.07,1186.07c-2.21,0-4-1.79-4-4v-279.24H0c-2.21,0-4-1.79-4-4s1.79-4,4-4h103.07c2.21,0,4,1.79,4,4v283.24c0,2.21-1.79,4-4,4Z"/>
            <path class="cls-4" d="M221.15,1195.39c-2.21,0-4-1.79-4-4v-146.94h-57.23v137.94c0,2.21-1.79,4-4,4s-4-1.79-4-4v-141.94c0-2.21,1.79-4,4-4h65.23c2.21,0,4,1.79,4,4v150.94c0,2.21-1.79,4-4,4Z"/>
            <path class="cls-4" d="M440.49,1218.13c-2.21,0-4-1.79-4-4v-217.06h-170.65v208.06c0,2.21-1.79,4-4,4s-4-1.79-4-4v-212.06c0-2.21,1.79-4,4-4h178.65c2.21,0,4,1.79,4,4v221.06c0,2.21-1.79,4-4,4Z"/>
            <path class="cls-4" d="M529.83,1186.39c-2.21,0-4-1.79-4-4v-239.64h-122.69v50.32c0,2.21-1.79,4-4,4s-4-1.79-4-4v-54.32c0-2.21,1.79-4,4-4h130.69c2.21,0,4,1.79,4,4v243.64c0,2.21-1.79,4-4,4Z"/>
            <path class="cls-4" d="M399.15,942.75c-1.25,0-2.48-.58-3.26-1.67-1.29-1.8-.87-4.29.93-5.58l65.34-46.74c1.39-1,3.26-1,4.65,0l65.34,46.74c1.8,1.29,2.21,3.78.93,5.58-1.28,1.8-3.78,2.21-5.58.93l-63.02-45.07-63.02,45.07c-.71.5-1.52.75-2.32.75Z"/>
            <g>
              <path class="cls-4" d="M661.21,974.33h-49.26c-1.77,0-3.34-1.17-3.84-2.87l-12.63-42.95c-.36-1.21-.12-2.52.63-3.53.76-1.01,1.94-1.6,3.2-1.6h73.27c1.24,0,2.41.58,3.17,1.56.76.98,1.01,2.26.7,3.46l-11.37,42.95c-.46,1.75-2.05,2.98-3.87,2.98ZM614.94,966.33h43.19l9.25-34.95h-62.72l10.28,34.95Z"/>
              <path class="cls-4" d="M612.25,1186.07c-2.21,0-4-1.79-4-4v-211.74c0-2.21,1.79-4,4-4s4,1.79,4,4v211.74c0,2.21-1.79,4-4,4Z"/>
              <path class="cls-4" d="M642.22,1186.07c-2.21,0-4-1.79-4-4v-211.74c0-2.21,1.79-4,4-4s4,1.79,4,4v211.74c0,2.21-1.79,4-4,4Z"/>
              <path class="cls-4" d="M660.64,1186.07c-2.21,0-4-1.79-4-4v-211.74c0-2.21,1.79-4,4-4s4,1.79,4,4v211.74c0,2.21-1.79,4-4,4Z"/>
              <path class="cls-4" d="M672.57,931.38c-1.77,0-3.38-1.18-3.86-2.97l-7.78-29.1h-50.17l-7.58,29.08c-.56,2.14-2.74,3.41-4.88,2.86-2.14-.56-3.42-2.74-2.86-4.88l8.36-32.07c.46-1.76,2.05-2.99,3.87-2.99h56.33c1.81,0,3.4,1.22,3.86,2.97l8.58,32.07c.57,2.13-.7,4.33-2.83,4.9-.35.09-.69.14-1.04.14Z"/>
              <path class="cls-4" d="M635.94,878.47c-2.21,0-4-1.79-4-4v-40.22c0-2.21,1.79-4,4-4s4,1.79,4,4v40.22c0,2.21-1.79,4-4,4Z"/>
              <path class="cls-4" d="M663.53,899.31c-2.21,0-4-1.79-4-4v-16.84h-47.7v16.84c0,2.21-1.79,4-4,4s-4-1.79-4-4v-20.84c0-2.21,1.79-4,4-4h55.7c2.21,0,4,1.79,4,4v20.84c0,2.21-1.79,4-4,4Z"/>
            </g>
            <path class="cls-4" d="M529.83,987.23h-65.34c-2.21,0-4-1.79-4-4v-21.71c0-2.21,1.79-4,4-4h65.34c2.21,0,4,1.79,4,4s-1.79,4-4,4h-61.34v13.71h61.34c2.21,0,4,1.79,4,4s-1.79,4-4,4Z"/>
            <path class="cls-4" d="M529.83,1031.71h-65.34c-2.21,0-4-1.79-4-4v-21.71c0-2.21,1.79-4,4-4h65.34c2.21,0,4,1.79,4,4s-1.79,4-4,4h-61.34v13.71h61.34c2.21,0,4,1.79,4,4s-1.79,4-4,4Z"/>
            <path class="cls-4" d="M529.83,1075.43h-65.34c-2.21,0-4-1.79-4-4v-21.71c0-2.21,1.79-4,4-4h65.34c2.21,0,4,1.79,4,4s-1.79,4-4,4h-61.34v13.71h61.34c2.21,0,4,1.79,4,4s-1.79,4-4,4Z"/>
            <path class="cls-4" d="M261.85,997.07c-1.32,0-2.61-.65-3.37-1.84-1.19-1.86-.65-4.33,1.21-5.53l49.28-31.55c.64-.41,1.39-.63,2.16-.63h88.03c2.21,0,4,1.79,4,4s-1.79,4-4,4h-86.86l-48.29,30.92c-.67.43-1.42.63-2.15.63Z"/>
            <g>
              <path class="cls-4" d="M1109.95,1094.36c-2.21,0-4-1.79-4-4v-13.06c0-2.21,1.79-4,4-4s4,1.79,4,4v13.06c0,2.21-1.79,4-4,4Z"/>
              <path class="cls-4" d="M1135.75,1094.36c-2.21,0-4-1.79-4-4v-13.06c0-2.21,1.79-4,4-4s4,1.79,4,4v13.06c0,2.21-1.79,4-4,4Z"/>
              <path class="cls-4" d="M1109.95,1128.46c-2.21,0-4-1.79-4-4v-13.06c0-2.21,1.79-4,4-4s4,1.79,4,4v13.06c0,2.21-1.79,4-4,4Z"/>
              <path class="cls-4" d="M1135.75,1128.46c-2.21,0-4-1.79-4-4v-13.06c0-2.21,1.79-4,4-4s4,1.79,4,4v13.06c0,2.21-1.79,4-4,4Z"/>
            </g>
            <g>
              <path class="cls-4" d="M1109.95,1167.04c-2.21,0-4-1.79-4-4v-13.06c0-2.21,1.79-4,4-4s4,1.79,4,4v13.06c0,2.21-1.79,4-4,4Z"/>
              <path class="cls-4" d="M1135.75,1167.04c-2.21,0-4-1.79-4-4v-13.06c0-2.21,1.79-4,4-4s4,1.79,4,4v13.06c0,2.21-1.79,4-4,4Z"/>
            </g>
            <g>
              <path class="cls-4" d="M1377.81,1089.54c-2.21,0-4-1.79-4-4v-13.06c0-2.21,1.79-4,4-4s4,1.79,4,4v13.06c0,2.21-1.79,4-4,4Z"/>
              <path class="cls-4" d="M1403.61,1089.54c-2.21,0-4-1.79-4-4v-13.06c0-2.21,1.79-4,4-4s4,1.79,4,4v13.06c0,2.21-1.79,4-4,4Z"/>
              <path class="cls-4" d="M1377.81,1123.64c-2.21,0-4-1.79-4-4v-13.06c0-2.21,1.79-4,4-4s4,1.79,4,4v13.06c0,2.21-1.79,4-4,4Z"/>
              <path class="cls-4" d="M1403.61,1123.64c-2.21,0-4-1.79-4-4v-13.06c0-2.21,1.79-4,4-4s4,1.79,4,4v13.06c0,2.21-1.79,4-4,4Z"/>
            </g>
            <g>
              <path class="cls-4" d="M287.98,1080.2c-2.21,0-4-1.79-4-4v-13.06c0-2.21,1.79-4,4-4s4,1.79,4,4v13.06c0,2.21-1.79,4-4,4Z"/>
              <path class="cls-4" d="M313.78,1080.2c-2.21,0-4-1.79-4-4v-13.06c0-2.21,1.79-4,4-4s4,1.79,4,4v13.06c0,2.21-1.79,4-4,4Z"/>
              <path class="cls-4" d="M339.58,1080.2c-2.21,0-4-1.79-4-4v-13.06c0-2.21,1.79-4,4-4s4,1.79,4,4v13.06c0,2.21-1.79,4-4,4Z"/>
              <path class="cls-4" d="M365.39,1080.2c-2.21,0-4-1.79-4-4v-13.06c0-2.21,1.79-4,4-4s4,1.79,4,4v13.06c0,2.21-1.79,4-4,4Z"/>
              <path class="cls-4" d="M391.19,1080.2c-2.21,0-4-1.79-4-4v-13.06c0-2.21,1.79-4,4-4s4,1.79,4,4v13.06c0,2.21-1.79,4-4,4Z"/>
              <path class="cls-4" d="M416.99,1080.2c-2.21,0-4-1.79-4-4v-13.06c0-2.21,1.79-4,4-4s4,1.79,4,4v13.06c0,2.21-1.79,4-4,4Z"/>
            </g>
            <g>
              <path class="cls-4" d="M287.98,1120.06c-2.21,0-4-1.79-4-4v-13.06c0-2.21,1.79-4,4-4s4,1.79,4,4v13.06c0,2.21-1.79,4-4,4Z"/>
              <path class="cls-4" d="M313.78,1120.06c-2.21,0-4-1.79-4-4v-13.06c0-2.21,1.79-4,4-4s4,1.79,4,4v13.06c0,2.21-1.79,4-4,4Z"/>
              <path class="cls-4" d="M339.58,1120.06c-2.21,0-4-1.79-4-4v-13.06c0-2.21,1.79-4,4-4s4,1.79,4,4v13.06c0,2.21-1.79,4-4,4Z"/>
              <path class="cls-4" d="M365.39,1120.06c-2.21,0-4-1.79-4-4v-13.06c0-2.21,1.79-4,4-4s4,1.79,4,4v13.06c0,2.21-1.79,4-4,4Z"/>
              <path class="cls-4" d="M391.19,1120.06c-2.21,0-4-1.79-4-4v-13.06c0-2.21,1.79-4,4-4s4,1.79,4,4v13.06c0,2.21-1.79,4-4,4Z"/>
              <path class="cls-4" d="M416.99,1120.06c-2.21,0-4-1.79-4-4v-13.06c0-2.21,1.79-4,4-4s4,1.79,4,4v13.06c0,2.21-1.79,4-4,4Z"/>
            </g>
            <path class="cls-4" d="M677.53,1125.24c-1.15,0-2.3-.5-3.09-1.46-1.41-1.71-1.16-4.23.54-5.63l43.88-36.18c.68-.57,1.56-.92,2.51-.93h0s.03,0,.05,0h36.97c.92,0,1.81.32,2.52.89l44.67,36.2c1.32,1.07,1.82,2.85,1.25,4.44-.57,1.6-2.08,2.66-3.77,2.66h-40.05c-.96,0-1.9-.35-2.63-.98l-39.03-33.97-41.28,34.04c-.75.61-1.65.91-2.54.91ZM764.52,1117.24h27.26l-34.8-28.2h-24.86l32.4,28.2Z"/>
            <path class="cls-4" d="M793.83,1161.44h-108.68c-2.21,0-4-1.79-4-4v-42.48c0-2.21,1.79-4,4-4s4,1.79,4,4v38.48h100.68v-32.2c0-2.21,1.79-4,4-4s4,1.79,4,4v36.2c0,2.21-1.79,4-4,4Z"/>
            <path class="cls-4" d="M836.03,1099.98c-.7,0-1.41-.18-2.05-.57l-30.85-18.51-29.08,18.46c-1.87,1.18-4.34.63-5.52-1.23-1.18-1.87-.63-4.34,1.23-5.52l31.17-19.78c1.28-.81,2.9-.83,4.2-.05l32.97,19.78c1.89,1.14,2.51,3.59,1.37,5.49-.75,1.25-2.07,1.94-3.43,1.94Z"/>
            <path class="cls-4" d="M826.67,1140.2h-32.84c-2.21,0-4-1.79-4-4s1.79-4,4-4h28.84v-41.84c0-2.21,1.79-4,4-4s4,1.79,4,4v45.84c0,2.21-1.79,4-4,4Z"/>
            <path class="cls-4" d="M893.77,1161.44h-67.1c-2.21,0-4-1.79-4-4v-36.65c0-2.21,1.79-4,4-4,1.79,0,3.3,1.17,3.81,2.79l28.18-17.88c1.28-.81,2.91-.83,4.2-.05l32.97,19.78c1.21.72,1.94,2.02,1.94,3.43v32.59c0,2.21-1.79,4-4,4ZM830.67,1153.44h59.1v-26.33l-28.91-17.34-29.08,18.46c-.35.22-.73.39-1.11.49v24.72Z"/>
            <path class="cls-4" d="M869.84,1091.81c-1.68,0-3.17-1.04-3.75-2.62-.58-1.57-.12-3.34,1.16-4.43l27.31-23.21c.72-.61,1.64-.95,2.59-.95h45.06c1.67,0,3.17,1.04,3.75,2.61.58,1.57.13,3.33-1.14,4.42l-26.85,23.16c-.72.62-1.65.97-2.61.97l-45.52.05h0ZM898.63,1068.59l-17.88,15.2,33.13-.04,17.58-15.16h-32.83Z"/>
            <path class="cls-4" d="M876.22,1118.96c-2.21,0-4-1.79-4-4v-27.15c0-2.21,1.79-4,4-4s4,1.79,4,4v27.15c0,2.21-1.79,4-4,4Z"/>
            <path class="cls-4" d="M969.53,1161.44h-75.76c-2.21,0-4-1.79-4-4s1.79-4,4-4h71.76v-61.35l-26.05-24.58c-1.61-1.52-1.68-4.05-.16-5.65,1.51-1.61,4.04-1.68,5.65-.16l27.31,25.77c.8.76,1.25,1.81,1.25,2.91v67.08c0,2.21-1.79,4-4,4Z"/>
            <path class="cls-4" d="M853.65,1109.07c-2.21,0-4-1.79-4-4v-236.98h-68.25v175.28c0,2.21-1.79,4-4,4h-13.39c-2.21,0-4-1.79-4-4v-69.04h-54.39v127.05c0,2.21-1.79,4-4,4s-4-1.79-4-4v-131.05c0-2.21,1.79-4,4-4h62.39c2.21,0,4,1.79,4,4v69.04h5.39v-175.28c0-2.21,1.79-4,4-4h76.25c2.21,0,4,1.79,4,4v240.98c0,2.21-1.79,4-4,4Z"/>
            <path class="cls-6" d="M198.34,987.23h-17.52c-2.21,0-4-1.79-4-4v-124.87h-31.15v75.79c0,2.21-1.79,4-4,4h-38.6c-2.21,0-4-1.79-4-4s1.79-4,4-4h34.6v-75.79c0-2.21,1.79-4,4-4h39.15c2.21,0,4,1.79,4,4v124.87h9.52v-63.85c0-2.21,1.79-4,4-4h28.96c2.21,0,4,1.79,4,4v42.14h13.26v-76.95c0-.97.35-1.9.99-2.63l22.88-26.21c.81-.93,2-1.45,3.25-1.36,1.23.07,2.37.71,3.07,1.73l16.55,24.15c.46.67.7,1.45.7,2.26v60.91h23.67v-36.18c0-2.21,1.79-4,4-4h24.18c2.21,0,4,1.79,4,4v48.14c0,2.21-1.79,4-4,4s-4-1.79-4-4v-44.14h-16.18v36.18c0,2.21-1.79,4-4,4h-31.67c-2.21,0-4-1.79-4-4v-63.67l-12.93-18.87-18.5,21.19v79.45c0,2.21-1.79,4-4,4h-21.26c-2.21,0-4-1.79-4-4v-42.14h-20.96v63.85c0,2.21-1.79,4-4,4Z"/>
            <path class="cls-2" d="M1167.63,987.23h-17.52c-2.21,0-4-1.79-4-4v-124.87h-31.15v75.79c0,2.21-1.79,4-4,4h-38.6c-2.21,0-4-1.79-4-4s1.79-4,4-4h34.6v-75.79c0-2.21,1.79-4,4-4h39.15c2.21,0,4,1.79,4,4v124.87h9.52v-63.85c0-2.21,1.79-4,4-4h28.96c2.21,0,4,1.79,4,4v42.14h13.26v-76.95c0-.97.35-1.9.99-2.63l22.88-26.21c.81-.93,2-1.45,3.25-1.36,1.23.07,2.37.71,3.07,1.73l16.55,24.15c.46.67.7,1.45.7,2.26v60.91h23.67v-36.18c0-2.21,1.79-4,4-4h24.18c2.21,0,4,1.79,4,4v58.28c0,2.21-1.79,4-4,4s-4-1.79-4-4v-54.28h-16.18v36.18c0,2.21-1.79,4-4,4h-31.67c-2.21,0-4-1.79-4-4v-63.67l-12.93-18.87-18.5,21.19v79.45c0,2.21-1.79,4-4,4h-21.26c-2.21,0-4-1.79-4-4v-42.14h-20.96v63.85c0,2.21-1.79,4-4,4Z"/>
            <g>
              <path class="cls-4" d="M103.07,956.7H0c-2.21,0-4-1.79-4-4s1.79-4,4-4h103.07c2.21,0,4,1.79,4,4s-1.79,4-4,4Z"/>
              <path class="cls-4" d="M103.07,1048.45H0c-2.21,0-4-1.79-4-4s1.79-4,4-4h103.07c2.21,0,4,1.79,4,4s-1.79,4-4,4Z"/>
              <path class="cls-4" d="M103.07,1002.57H0c-2.21,0-4-1.79-4-4s1.79-4,4-4h103.07c2.21,0,4,1.79,4,4s-1.79,4-4,4Z"/>
              <path class="cls-4" d="M103.07,1094.32H0c-2.21,0-4-1.79-4-4s1.79-4,4-4h103.07c2.21,0,4,1.79,4,4s-1.79,4-4,4Z"/>
              <path class="cls-4" d="M103.07,1140.2H0c-2.21,0-4-1.79-4-4s1.79-4,4-4h103.07c2.21,0,4,1.79,4,4s-1.79,4-4,4Z"/>
            </g>
            <path class="cls-4" d="M208,1078h-52.07c-2.21,0-4-1.79-4-4v-17.11c0-2.21,1.79-4,4-4h52.07c2.21,0,4,1.79,4,4v17.11c0,2.21-1.79,4-4,4ZM159.93,1070h44.07v-9.11h-44.07v9.11Z"/>
            <path class="cls-4" d="M208,1117.62h-52.07c-2.21,0-4-1.79-4-4v-17.11c0-2.21,1.79-4,4-4h52.07c2.21,0,4,1.79,4,4v17.11c0,2.21-1.79,4-4,4ZM159.93,1109.62h44.07v-9.11h-44.07v9.11Z"/>
            <path class="cls-4" d="M208,1157.24h-52.07c-2.21,0-4-1.79-4-4v-17.11c0-2.21,1.79-4,4-4h52.07c2.21,0,4,1.79,4,4v17.11c0,2.21-1.79,4-4,4ZM159.93,1149.24h44.07v-9.11h-44.07v9.11Z"/>
            <path class="cls-4" d="M208,1196.87h-52.07c-2.21,0-4-1.79-4-4v-17.11c0-2.21,1.79-4,4-4h52.07c2.21,0,4,1.79,4,4v17.11c0,2.21-1.79,4-4,4ZM159.93,1188.87h44.07v-9.11h-44.07v9.11Z"/>
            <path class="cls-4" d="M208,1044.45c-2.21,0-4-1.79-4-4v-28.99c0-2.21,1.79-4,4-4h53.84c2.21,0,4,1.79,4,4s-1.79,4-4,4h-49.84v24.99c0,2.21-1.79,4-4,4Z"/>
            <path class="cls-4" d="M836.04,896.01h-42.21c-2.21,0-4-1.79-4-4s1.79-4,4-4h42.21c2.21,0,4,1.79,4,4s-1.79,4-4,4Z"/>
            <path class="cls-4" d="M836.04,919.38h-42.21c-2.21,0-4-1.79-4-4s1.79-4,4-4h42.21c2.21,0,4,1.79,4,4s-1.79,4-4,4Z"/>
            <path class="cls-4" d="M836.04,942.75h-42.21c-2.21,0-4-1.79-4-4s1.79-4,4-4h42.21c2.21,0,4,1.79,4,4s-1.79,4-4,4Z"/>
            <path class="cls-4" d="M836.04,966.12h-42.21c-2.21,0-4-1.79-4-4s1.79-4,4-4h42.21c2.21,0,4,1.79,4,4s-1.79,4-4,4Z"/>
            <path class="cls-4" d="M746.43,992.32h-42.21c-2.21,0-4-1.79-4-4s1.79-4,4-4h42.21c2.21,0,4,1.79,4,4s-1.79,4-4,4Z"/>
            <path class="cls-4" d="M746.43,1015.69h-42.21c-2.21,0-4-1.79-4-4s1.79-4,4-4h42.21c2.21,0,4,1.79,4,4s-1.79,4-4,4Z"/>
            <path class="cls-4" d="M583.14,1040.34h-53.3c-2.21,0-4-1.79-4-4s1.79-4,4-4h49.3v-83.48c0-2.21,1.79-4,4-4h22.49c2.21,0,4,1.79,4,4s-1.79,4-4,4h-18.49v83.48c0,2.21-1.79,4-4,4Z"/>
            <path class="cls-4" d="M701.61,1053.72h-40.98c-2.21,0-4-1.79-4-4s1.79-4,4-4h40.98c2.21,0,4,1.79,4,4s-1.79,4-4,4Z"/>
            <path class="cls-4" d="M689.93,1115.01h-29.29c-2.21,0-4-1.79-4-4s1.79-4,4-4h29.29c2.21,0,4,1.79,4,4s-1.79,4-4,4Z"/>
            <path class="cls-4" d="M701.61,1073.67h-40.98c-2.21,0-4-1.79-4-4s1.79-4,4-4h40.98c2.21,0,4,1.79,4,4s-1.79,4-4,4Z"/>
            <path class="cls-4" d="M701.61,1094.36h-40.98c-2.21,0-4-1.79-4-4s1.79-4,4-4h40.98c2.21,0,4,1.79,4,4s-1.79,4-4,4Z"/>
            <path class="cls-4" d="M1044.07,1212.13c-2.21,0-4-1.79-4-4v-238.61h-148.55v99.08c0,2.21-1.79,4-4,4s-4-1.79-4-4v-103.08c0-2.21,1.79-4,4-4h156.55c2.21,0,4,1.79,4,4v242.61c0,2.21-1.79,4-4,4Z"/>
            <path class="cls-4" d="M1154.93,1192.56c-2.21,0-4-1.79-4-4v-125.44h-78.57c-2.21,0-4-1.79-4-4s1.79-4,4-4h82.57c2.21,0,4,1.79,4,4v129.44c0,2.21-1.79,4-4,4Z"/>
            <path class="cls-4" d="M1044.07,1130.57h-74.54c-2.21,0-4-1.79-4-4s1.79-4,4-4h61.58l-15.52-10.58h-46.06c-2.21,0-4-1.79-4-4s1.79-4,4-4h47.29c.8,0,1.59.24,2.25.7l27.25,18.58c1.45.99,2.09,2.81,1.57,4.48-.52,1.68-2.07,2.82-3.82,2.82Z"/>
            <path class="cls-4" d="M1313.13,1125.24c-2.21,0-4-1.79-4-4v-97.8c-55.75-19.1-98.97-18.09-125.55-13.81-23.48,3.78-38.42,10.7-43.47,13.33v36.16c0,2.21-1.79,4-4,4s-4-1.79-4-4v-38.53c0-1.39.72-2.68,1.91-3.41.69-.42,17.16-10.35,47.79-15.37,28.01-4.59,73.77-5.71,132.65,15,1.6.56,2.67,2.08,2.67,3.77v100.65c0,2.21-1.79,4-4,4Z"/>
            <path class="cls-4" d="M1218.36,1186.07c-2.21,0-4-1.79-4-4v-32.08c0-1.06.42-2.08,1.17-2.83l27.58-27.58c.75-.75,1.77-1.17,2.83-1.17h102.87v-135.18c0-2.21,1.79-4,4-4h76.89c2.21,0,4,1.79,4,4s-1.79,4-4,4h-72.89v135.18c0,2.21-1.79,4-4,4h-105.22l-25.24,25.24v30.43c0,2.21-1.79,4-4,4Z"/>
            <path class="cls-4" d="M1328.3,1153.99h-109.94c-2.21,0-4-1.79-4-4s1.79-4,4-4h108.14l23.33-26.24c1.47-1.65,4-1.8,5.65-.33,1.65,1.47,1.8,4,.33,5.65l-24.52,27.58c-.76.85-1.85,1.34-2.99,1.34Z"/>
            <path class="cls-4" d="M1292.96,1018.17c-2.21,0-4-1.79-4-4v-48.65c0-2.21,1.79-4,4-4h81.96v-74.59c0-2.21,1.79-4,4-4h61.69c2.21,0,4,1.79,4,4s-1.79,4-4,4h-57.69v74.59c0,2.21-1.79,4-4,4h-81.96v44.65c0,2.21-1.79,4-4,4Z"/>
            <path class="cls-4" d="M1313.13,1049.11c-.3,0-.6-.03-.9-.1-54.34-12.54-98.97-11.91-126.84-9.17-30.21,2.97-47.79,8.99-47.97,9.05-2.09.72-4.37-.38-5.09-2.46-.73-2.08.38-4.36,2.46-5.09.74-.26,18.43-6.34,49.49-9.42,28.53-2.83,74.2-3.52,129.75,9.3,2.15.5,3.5,2.64,3,4.8-.43,1.85-2.07,3.1-3.89,3.1Z"/>
            <path class="cls-4" d="M1313.13,1080.05c-.3,0-.6-.03-.9-.1-73.41-16.94-129.56-10.26-156.5-4.77-2.17.44-4.28-.96-4.72-3.12-.44-2.17.96-4.28,3.12-4.72,27.57-5.62,85-12.46,159.89,4.82,2.15.5,3.5,2.64,3,4.8-.43,1.85-2.07,3.1-3.89,3.1Z"/>
            <path class="cls-4" d="M1313.13,1110.98c-.3,0-.6-.03-.9-.1-73.42-16.94-129.57-10.26-156.5-4.77-2.17.45-4.28-.96-4.72-3.12-.44-2.17.96-4.28,3.12-4.72,27.57-5.62,85-12.46,159.89,4.81,2.15.5,3.5,2.64,3,4.8-.43,1.85-2.07,3.1-3.89,3.1Z"/>
            <path class="cls-4" d="M1154.93,1137.13c-1.86,0-3.53-1.31-3.92-3.2-.44-2.17.96-4.28,3.12-4.72,18.28-3.72,48.18-7.73,86.87-5.64,2.21.12,3.9,2,3.78,4.21-.12,2.21-2.01,3.9-4.21,3.78-37.83-2.04-67.02,1.86-84.84,5.49-.27.05-.54.08-.8.08Z"/>
            <path class="cls-4" d="M1026.52,1015.69h-123.14c-2.21,0-4-1.79-4-4v-23.37c0-2.21,1.79-4,4-4h123.14c2.21,0,4,1.79,4,4v23.37c0,2.21-1.79,4-4,4ZM907.38,1007.69h115.14v-15.37h-115.14v15.37Z"/>
            <path class="cls-4" d="M1026.52,1055.33h-123.14c-2.21,0-4-1.79-4-4v-23.37c0-2.21,1.79-4,4-4h123.14c2.21,0,4,1.79,4,4v23.37c0,2.21-1.79,4-4,4ZM907.38,1047.33h115.14v-15.37h-115.14v15.37Z"/>
          </g>
        </g>
      </g>
    </g>
  </g>
</svg>