<?xml version="1.0" encoding="utf-8"?>
<!-- Generator: Adobe Illustrator 22.1.0, SVG Export Plug-In . SVG Version: 6.00 Build 0)  -->
<svg version="1.1" id="Layer_1" xmlns="http://www.w3.org/2000/svg" xmlns:xlink="http://www.w3.org/1999/xlink" x="0px" y="0px"
	 viewBox="0 0 1429.7 362.2" style="enable-background:new 0 0 1429.7 362.2;" xml:space="preserve">
<style type="text/css">
	.st0{clip-path:url(#SVGID_2_);}
	.st1{fill:#C8C7B9;}
	.st2{fill:#ABDFEA;}
	.st3{fill:#94948B;}
	.st4{fill:#FFFFFF;}
	.st5{fill:#6B6B66;}
</style>
<g>
	<g id="fondo">
		<g>
			<g>
				<defs>
					<rect id="SVGID_1_" y="-815.2" width="1427.2" height="1177.4"/>
				</defs>
				<clipPath id="SVGID_2_">
					<use xlink:href="#SVGID_1_"  style="overflow:visible;"/>
				</clipPath>
				<g class="st0">
					<g>
						<polygon class="st1" points="0,298.4 261.8,196.6 437.1,321.3 437.1,369.4 0,369.4 						"/>
						<path class="st2" d="M1427.2,66.9c-80-27.8-168.6-30.3-250-7c-49.3,14.1-95.6,37.2-144.6,52.5
							c-171.5,53.7-360.6,8.7-534.8,53.1c-22.7,5.8-45.5,13.3-63.8,27.9c-18.3,14.6-31.5,37.4-29.1,60.6c2.6,25,22.6,45.5,45.5,55.9
							c22.9,10.3,48.6,12.3,73.8,14c278.7,18.9,559,21.6,836.9-5.7c15-1.5,30.7-3.3,43.2-11.8s20.2-25.9,13-39.1"/>
						<polygon class="st1" points="1180,191.3 1180,362.2 1427.2,362.2 1427.2,211.1 						"/>
						<polyline class="st3" points="437.1,369.4 437.1,193.4 399.1,193.4 399.1,123.9 551,123.9 551,362.2 						"/>
						<polygon class="st1" points="698.7,360.9 698.7,123.9 753.6,123.9 753.6,49.2 869.8,49.2 869.8,360.9 						"/>
						<rect x="885.3" y="150.6" class="st1" width="158.7" height="210.2"/>
						<polygon class="st4" points="1026.5,337.5 714.8,337.5 714.8,276.7 965.8,276.7 						"/>
						<polygon class="st1" points="29.2,362.5 73.6,83.9 103.1,83.9 103.1,362.2 						"/>
						<rect x="626.4" y="155.4" class="st1" width="34.2" height="207.1"/>
						<polygon class="st2" points="643.5,80.4 615.5,153.2 660.6,155.4 672.6,112.5 663.5,80.4 663.5,59.6 648.4,59.6 						"/>
						<polygon class="st3" points="278.4,173.4 311.1,146.6 399.1,150.6 399.1,173.4 						"/>
						<rect x="451.7" y="155.9" class="st4" width="77.8" height="20.5"/>
						<rect x="451.7" y="202.6" class="st4" width="77.8" height="20.5"/>
						<rect x="451.7" y="244.5" class="st4" width="77.8" height="20.5"/>
						<polygon class="st1" points="615.5,153.2 567.7,153.2 567.7,208.4 538.8,208.4 538.8,352.8 612.2,352.8 						"/>
						<polygon class="st4" points="1027.4,194.8 903.4,194.8 903.4,168.3 903.4,168.3 						"/>
						<polygon class="st4" points="1027.4,235.3 903.4,235.3 903.4,208.9 903.4,208.9 						"/>
						<polygon class="st4" points="135,367.2 135,242 205.2,242 205.2,208.9 278.4,208.9 278.4,369.4 						"/>
						<path class="st3" d="M1072.4,380.4c-2.2,0-4-1.8-4-4v-260l-42.9-43l-40.8,40.7v36.5c0,2.2-1.8,4-4,4s-4-1.8-4-4v-38.1
							c0-1.1,0.4-2.1,1.2-2.8l44.7-44.7c1.6-1.6,4.1-1.6,5.7,0l46.9,47c0.8,0.8,1.2,1.8,1.2,2.8v261.7
							C1076.4,378.6,1074.6,380.4,1072.4,380.4L1072.4,380.4z"/>
						<path class="st3" d="M965.3,151.2c-2.2,0-4-1.8-4-4V95H910v52.2c0,2.2-1.8,4-4,4s-4-1.8-4-4V91c0-2.2,1.8-4,4-4h59.3
							c2.2,0,4,1.8,4,4v56.2C969.3,149.4,967.5,151.2,965.3,151.2z"/>
						<path class="st3" d="M954.6,95c-2.2,0-4-1.8-4-4V53.2h-30V91c0,2.2-1.8,4-4,4s-4-1.8-4-4V49.2c0-2.2,1.8-4,4-4h38
							c2.2,0,4,1.8,4,4V91C958.6,93.2,956.9,95,954.6,95z"/>
						<path class="st3" d="M954.7,53.2c-1.3,0-2.6-0.7-3.4-1.9l-15.6-24.9l-15.6,24.9c-1.2,1.9-3.6,2.4-5.5,1.3
							c-1.9-1.2-2.4-3.6-1.3-5.5l19-30.3c0.7-1.2,2-1.9,3.4-1.9s2.7,0.7,3.4,1.9l19,30.3c1.2,1.9,0.6,4.3-1.3,5.5
							C956.1,53,955.4,53.2,954.7,53.2L954.7,53.2z"/>
						<g>
							<path class="st5" d="M103.1,371.2c-2.2,0-4-1.8-4-4V87.9H0c-2.2,0-4-1.8-4-4s1.8-4,4-4h103.1c2.2,0,4,1.8,4,4v283.2
								C107.1,369.4,105.3,371.2,103.1,371.2z"/>
							<path class="st5" d="M221.1,380.5c-2.2,0-4-1.8-4-4V229.6h-57.2v137.9c0,2.2-1.8,4-4,4s-4-1.8-4-4V225.6c0-2.2,1.8-4,4-4
								h65.2c2.2,0,4,1.8,4,4v150.9C225.1,378.7,223.4,380.5,221.1,380.5L221.1,380.5z"/>
							<path class="st5" d="M440.5,403.2c-2.2,0-4-1.8-4-4v-217H265.8v208.1c0,2.2-1.8,4-4,4s-4-1.8-4-4V178.2c0-2.2,1.8-4,4-4
								h178.6c2.2,0,4,1.8,4,4v221.1C444.5,401.4,442.7,403.2,440.5,403.2z"/>
							<path class="st5" d="M529.8,371.5c-2.2,0-4-1.8-4-4V127.9H403.1v50.3c0,2.2-1.8,4-4,4s-4-1.8-4-4v-54.3c0-2.2,1.8-4,4-4
								h130.7c2.2,0,4,1.8,4,4v243.6C533.8,369.7,532,371.5,529.8,371.5z"/>
							<path class="st5" d="M399.1,127.9c-1.2,0-2.5-0.6-3.3-1.7c-1.3-1.8-0.9-4.3,0.9-5.6L462,73.9c1.4-1,3.3-1,4.6,0l65.3,46.7
								c1.8,1.3,2.2,3.8,0.9,5.6s-3.8,2.2-5.6,0.9l-63-45.1l-63,45.1C400.7,127.6,399.9,127.9,399.1,127.9L399.1,127.9z"/>
							<g>
								<path class="st5" d="M661.2,159.4H612c-1.8,0-3.3-1.2-3.8-2.9l-12.6-43c-0.4-1.2-0.1-2.5,0.6-3.5c0.8-1,1.9-1.6,3.2-1.6
									h73.3c1.2,0,2.4,0.6,3.2,1.6s1,2.3,0.7,3.5l-11.4,43C664.6,158.2,663,159.4,661.2,159.4z M614.9,151.4h43.2l9.2-35h-62.7
									L614.9,151.4L614.9,151.4z"/>
								<path class="st5" d="M612.2,371.2c-2.2,0-4-1.8-4-4V155.4c0-2.2,1.8-4,4-4s4,1.8,4,4v211.7
									C616.2,369.4,614.5,371.2,612.2,371.2z"/>
								<path class="st5" d="M642.2,371.2c-2.2,0-4-1.8-4-4V155.4c0-2.2,1.8-4,4-4s4,1.8,4,4v211.7
									C646.2,369.4,644.4,371.2,642.2,371.2z"/>
								<path class="st5" d="M660.6,371.2c-2.2,0-4-1.8-4-4V155.4c0-2.2,1.8-4,4-4s4,1.8,4,4v211.7
									C664.6,369.4,662.9,371.2,660.6,371.2z"/>
								<path class="st5" d="M672.6,116.5c-1.8,0-3.4-1.2-3.9-3l-7.8-29.1h-50.2l-7.6,29.1c-0.6,2.1-2.7,3.4-4.9,2.9
									c-2.1-0.6-3.4-2.7-2.9-4.9l8.4-32.1c0.5-1.8,2-3,3.9-3H664c1.8,0,3.4,1.2,3.9,3l8.6,32.1c0.6,2.1-0.7,4.3-2.8,4.9
									C673.3,116.4,672.9,116.5,672.6,116.5L672.6,116.5z"/>
								<path class="st5" d="M635.9,63.6c-2.2,0-4-1.8-4-4V19.4c0-2.2,1.8-4,4-4s4,1.8,4,4v40.2C639.9,61.8,638.2,63.6,635.9,63.6z"
									/>
								<path class="st5" d="M663.5,84.4c-2.2,0-4-1.8-4-4V63.6h-47.7v16.8c0,2.2-1.8,4-4,4s-4-1.8-4-4V59.6c0-2.2,1.8-4,4-4h55.7
									c2.2,0,4,1.8,4,4v20.8C667.5,82.6,665.7,84.4,663.5,84.4z"/>
							</g>
							<path class="st5" d="M529.8,172.3h-65.3c-2.2,0-4-1.8-4-4v-21.7c0-2.2,1.8-4,4-4h65.3c2.2,0,4,1.8,4,4s-1.8,4-4,4h-61.3v13.7
								h61.3c2.2,0,4,1.8,4,4S532,172.3,529.8,172.3z"/>
							<path class="st5" d="M529.8,216.8h-65.3c-2.2,0-4-1.8-4-4v-21.7c0-2.2,1.8-4,4-4h65.3c2.2,0,4,1.8,4,4s-1.8,4-4,4h-61.3v13.7
								h61.3c2.2,0,4,1.8,4,4S532,216.8,529.8,216.8z"/>
							<path class="st5" d="M529.8,260.5h-65.3c-2.2,0-4-1.8-4-4v-21.7c0-2.2,1.8-4,4-4h65.3c2.2,0,4,1.8,4,4s-1.8,4-4,4h-61.3v13.7
								h61.3c2.2,0,4,1.8,4,4S532,260.5,529.8,260.5z"/>
							<path class="st5" d="M261.9,182.2c-1.3,0-2.6-0.7-3.4-1.8c-1.2-1.9-0.6-4.3,1.2-5.5l49.3-31.5c0.6-0.4,1.4-0.6,2.2-0.6h88
								c2.2,0,4,1.8,4,4s-1.8,4-4,4h-86.9L264,181.5C263.3,182,262.6,182.2,261.9,182.2L261.9,182.2z"/>
							<g>
								<path class="st5" d="M1109.9,279.5c-2.2,0-4-1.8-4-4v-13.1c0-2.2,1.8-4,4-4s4,1.8,4,4v13.1
									C1113.9,277.7,1112.2,279.5,1109.9,279.5z"/>
								<path class="st5" d="M1135.8,279.5c-2.2,0-4-1.8-4-4v-13.1c0-2.2,1.8-4,4-4s4,1.8,4,4v13.1
									C1139.8,277.7,1138,279.5,1135.8,279.5z"/>
								<path class="st5" d="M1109.9,313.6c-2.2,0-4-1.8-4-4v-13.1c0-2.2,1.8-4,4-4s4,1.8,4,4v13.1
									C1113.9,311.8,1112.2,313.6,1109.9,313.6z"/>
								<path class="st5" d="M1135.8,313.6c-2.2,0-4-1.8-4-4v-13.1c0-2.2,1.8-4,4-4s4,1.8,4,4v13.1
									C1139.8,311.8,1138,313.6,1135.8,313.6z"/>
							</g>
							<g>
								<path class="st5" d="M1109.9,352.1c-2.2,0-4-1.8-4-4v-13c0-2.2,1.8-4,4-4s4,1.8,4,4v13.1
									C1113.9,350.3,1112.2,352.1,1109.9,352.1z"/>
								<path class="st5" d="M1135.8,352.1c-2.2,0-4-1.8-4-4v-13c0-2.2,1.8-4,4-4s4,1.8,4,4v13.1
									C1139.8,350.3,1138,352.1,1135.8,352.1z"/>
							</g>
							<g>
								<path class="st5" d="M1377.8,274.6c-2.2,0-4-1.8-4-4v-13.1c0-2.2,1.8-4,4-4s4,1.8,4,4v13.1
									C1381.8,272.9,1380,274.6,1377.8,274.6z"/>
								<path class="st5" d="M1403.6,274.6c-2.2,0-4-1.8-4-4v-13.1c0-2.2,1.8-4,4-4s4,1.8,4,4v13.1
									C1407.6,272.9,1405.8,274.6,1403.6,274.6z"/>
								<path class="st5" d="M1377.8,308.7c-2.2,0-4-1.8-4-4v-13.1c0-2.2,1.8-4,4-4s4,1.8,4,4v13.1
									C1381.8,306.9,1380,308.7,1377.8,308.7z"/>
								<path class="st5" d="M1403.6,308.7c-2.2,0-4-1.8-4-4v-13.1c0-2.2,1.8-4,4-4s4,1.8,4,4v13.1
									C1407.6,306.9,1405.8,308.7,1403.6,308.7z"/>
							</g>
							<g>
								<path class="st5" d="M288,265.3c-2.2,0-4-1.8-4-4v-13.1c0-2.2,1.8-4,4-4s4,1.8,4,4v13.1C292,263.5,290.2,265.3,288,265.3z"
									/>
								<path class="st5" d="M313.8,265.3c-2.2,0-4-1.8-4-4v-13.1c0-2.2,1.8-4,4-4s4,1.8,4,4v13.1
									C317.8,263.5,316,265.3,313.8,265.3z"/>
								<path class="st5" d="M339.6,265.3c-2.2,0-4-1.8-4-4v-13.1c0-2.2,1.8-4,4-4s4,1.8,4,4v13.1
									C343.6,263.5,341.8,265.3,339.6,265.3z"/>
								<path class="st5" d="M365.4,265.3c-2.2,0-4-1.8-4-4v-13.1c0-2.2,1.8-4,4-4s4,1.8,4,4v13.1
									C369.4,263.5,367.6,265.3,365.4,265.3z"/>
								<path class="st5" d="M391.2,265.3c-2.2,0-4-1.8-4-4v-13.1c0-2.2,1.8-4,4-4s4,1.8,4,4v13.1
									C395.2,263.5,393.4,265.3,391.2,265.3z"/>
								<path class="st5" d="M417,265.3c-2.2,0-4-1.8-4-4v-13.1c0-2.2,1.8-4,4-4s4,1.8,4,4v13.1C421,263.5,419.2,265.3,417,265.3z"
									/>
							</g>
							<g>
								<path class="st5" d="M288,305.2c-2.2,0-4-1.8-4-4v-13.1c0-2.2,1.8-4,4-4s4,1.8,4,4v13.1C292,303.4,290.2,305.2,288,305.2z"
									/>
								<path class="st5" d="M313.8,305.2c-2.2,0-4-1.8-4-4v-13.1c0-2.2,1.8-4,4-4s4,1.8,4,4v13.1
									C317.8,303.4,316,305.2,313.8,305.2z"/>
								<path class="st5" d="M339.6,305.2c-2.2,0-4-1.8-4-4v-13.1c0-2.2,1.8-4,4-4s4,1.8,4,4v13.1
									C343.6,303.4,341.8,305.2,339.6,305.2z"/>
								<path class="st5" d="M365.4,305.2c-2.2,0-4-1.8-4-4v-13.1c0-2.2,1.8-4,4-4s4,1.8,4,4v13.1
									C369.4,303.4,367.6,305.2,365.4,305.2z"/>
								<path class="st5" d="M391.2,305.2c-2.2,0-4-1.8-4-4v-13.1c0-2.2,1.8-4,4-4s4,1.8,4,4v13.1
									C395.2,303.4,393.4,305.2,391.2,305.2z"/>
								<path class="st5" d="M417,305.2c-2.2,0-4-1.8-4-4v-13.1c0-2.2,1.8-4,4-4s4,1.8,4,4v13.1C421,303.4,419.2,305.2,417,305.2z"
									/>
							</g>
							<path class="st5" d="M677.5,310.3c-1.2,0-2.3-0.5-3.1-1.5c-1.4-1.7-1.2-4.2,0.5-5.6l43.9-36.2c0.7-0.6,1.6-0.9,2.5-0.9l0,0
								l0,0h37c0.9,0,1.8,0.3,2.5,0.9l44.7,36.2c1.3,1.1,1.8,2.8,1.2,4.4s-2.1,2.7-3.8,2.7h-40c-1,0-1.9-0.3-2.6-1l-39-34l-41.3,34
								C679.3,310,678.4,310.3,677.5,310.3L677.5,310.3z M764.5,302.3h27.3L757,274.1h-24.9L764.5,302.3L764.5,302.3z"/>
							<path class="st5" d="M793.8,346.5H685.2c-2.2,0-4-1.8-4-4v-42.4c0-2.2,1.8-4,4-4s4,1.8,4,4v38.5h100.7v-32.2c0-2.2,1.8-4,4-4
								s4,1.8,4,4v36.2C797.8,344.7,796,346.5,793.8,346.5z"/>
							<path class="st5" d="M836,285.1c-0.7,0-1.4-0.2-2-0.6L803.2,266l-29.1,18.5c-1.9,1.2-4.3,0.6-5.5-1.2
								c-1.2-1.9-0.6-4.3,1.2-5.5L801,258c1.3-0.8,2.9-0.8,4.2-0.1l33,19.8c1.9,1.1,2.5,3.6,1.4,5.5
								C838.7,284.4,837.4,285.1,836,285.1L836,285.1z"/>
							<path class="st5" d="M826.7,325.3h-32.8c-2.2,0-4-1.8-4-4s1.8-4,4-4h28.8v-41.8c0-2.2,1.8-4,4-4s4,1.8,4,4v45.8
								C830.7,323.5,828.9,325.3,826.7,325.3z"/>
							<path class="st5" d="M893.8,346.5h-67.1c-2.2,0-4-1.8-4-4v-36.7c0-2.2,1.8-4,4-4c1.8,0,3.3,1.2,3.8,2.8l28.2-17.9
								c1.3-0.8,2.9-0.8,4.2-0.1l33,19.8c1.2,0.7,1.9,2,1.9,3.4v32.6C897.8,344.8,896,346.5,893.8,346.5L893.8,346.5z M830.7,338.5
								h59.1v-26.3l-28.9-17.3l-29.1,18.5c-0.3,0.2-0.7,0.4-1.1,0.5V338.5z"/>
							<path class="st5" d="M869.8,276.9c-1.7,0-3.2-1-3.8-2.6s-0.1-3.3,1.2-4.4l27.3-23.2c0.7-0.6,1.6-0.9,2.6-0.9h45.1
								c1.7,0,3.2,1,3.8,2.6s0.1,3.3-1.1,4.4L918.1,276c-0.7,0.6-1.7,1-2.6,1L869.8,276.9L869.8,276.9L869.8,276.9z M898.6,253.7
								l-17.9,15.2h33.1l17.6-15.2H898.6L898.6,253.7z"/>
							<path class="st5" d="M876.2,304.1c-2.2,0-4-1.8-4-4v-27.2c0-2.2,1.8-4,4-4s4,1.8,4,4v27.2
								C880.2,302.3,878.4,304.1,876.2,304.1z"/>
							<path class="st5" d="M969.5,346.5h-75.8c-2.2,0-4-1.8-4-4s1.8-4,4-4h71.8v-61.3l-26-24.6c-1.6-1.5-1.7-4.1-0.2-5.7
								s4-1.7,5.7-0.2l27.3,25.8c0.8,0.8,1.2,1.8,1.2,2.9v67.1C973.5,344.8,971.7,346.6,969.5,346.5L969.5,346.5z"/>
							<path class="st5" d="M853.7,294.2c-2.2,0-4-1.8-4-4v-237h-68.2v175.3c0,2.2-1.8,4-4,4H764c-2.2,0-4-1.8-4-4v-69h-54.4v127
								c0,2.2-1.8,4-4,4s-4-1.8-4-4v-131c0-2.2,1.8-4,4-4H764c2.2,0,4,1.8,4,4v69h5.4V49.2c0-2.2,1.8-4,4-4h76.2c2.2,0,4,1.8,4,4
								v241C857.7,292.4,855.9,294.2,853.7,294.2z"/>
							<path class="st1" d="M198.3,172.3h-17.5c-2.2,0-4-1.8-4-4V43.5h-31.1v75.8c0,2.2-1.8,4-4,4h-38.6c-2.2,0-4-1.8-4-4s1.8-4,4-4
								h34.6V39.5c0-2.2,1.8-4,4-4h39.2c2.2,0,4,1.8,4,4v124.9h9.5v-63.8c0-2.2,1.8-4,4-4h29c2.2,0,4,1.8,4,4v42.1h13.3v-77
								c0-1,0.4-1.9,1-2.6l22.9-26.2c0.8-0.9,2-1.5,3.2-1.4s2.4,0.7,3.1,1.7l16.5,24.2c0.5,0.7,0.7,1.5,0.7,2.3v60.9h23.7V88.4
								c0-2.2,1.8-4,4-4H344c2.2,0,4,1.8,4,4v48.1c0,2.2-1.8,4-4,4s-4-1.8-4-4V92.4h-16.2v36.2c0,2.2-1.8,4-4,4H288
								c-2.2,0-4-1.8-4-4V64.9L271.1,46l-18.5,21.2v79.5c0,2.2-1.8,4-4,4h-21.3c-2.2,0-4-1.8-4-4v-42.1h-21v63.8
								C202.4,170.5,200.6,172.3,198.3,172.3L198.3,172.3z"/>
							<path class="st4" d="M1167.6,172.3h-17.5c-2.2,0-4-1.8-4-4V43.5H1115v75.8c0,2.2-1.8,4-4,4h-38.6c-2.2,0-4-1.8-4-4s1.8-4,4-4
								h34.6V39.5c0-2.2,1.8-4,4-4h39.2c2.2,0,4,1.8,4,4v124.9h9.5v-63.8c0-2.2,1.8-4,4-4h29c2.2,0,4,1.8,4,4v42.1h13.3v-77
								c0-1,0.3-1.9,1-2.6l22.9-26.2c0.8-0.9,2-1.5,3.2-1.4s2.4,0.7,3.1,1.7l16.6,24.2c0.5,0.7,0.7,1.5,0.7,2.3v60.9h23.7V88.4
								c0-2.2,1.8-4,4-4h24.2c2.2,0,4,1.8,4,4v58.3c0,2.2-1.8,4-4,4s-4-1.8-4-4V92.4H1293v36.2c0,2.2-1.8,4-4,4h-31.7
								c-2.2,0-4-1.8-4-4V64.9L1240.4,46l-18.5,21.2v79.5c0,2.2-1.8,4-4,4h-21.3c-2.2,0-4-1.8-4-4v-42.1h-21v63.8
								C1171.6,170.5,1169.8,172.3,1167.6,172.3L1167.6,172.3z"/>
							<g>
								<path class="st5" d="M103.1,141.8H0c-2.2,0-4-1.8-4-4s1.8-4,4-4h103.1c2.2,0,4,1.8,4,4S105.3,141.8,103.1,141.8z"/>
								<path class="st5" d="M103.1,233.5H0c-2.2,0-4-1.8-4-4s1.8-4,4-4h103.1c2.2,0,4,1.8,4,4S105.3,233.5,103.1,233.5z"/>
								<path class="st5" d="M103.1,187.7H0c-2.2,0-4-1.8-4-4s1.8-4,4-4h103.1c2.2,0,4,1.8,4,4S105.3,187.7,103.1,187.7z"/>
								<path class="st5" d="M103.1,279.4H0c-2.2,0-4-1.8-4-4s1.8-4,4-4h103.1c2.2,0,4,1.8,4,4S105.3,279.4,103.1,279.4z"/>
								<path class="st5" d="M103.1,325.3H0c-2.2,0-4-1.8-4-4s1.8-4,4-4h103.1c2.2,0,4,1.8,4,4S105.3,325.3,103.1,325.3z"/>
							</g>
							<path class="st5" d="M208,263.1h-52.1c-2.2,0-4-1.8-4-4V242c0-2.2,1.8-4,4-4H208c2.2,0,4,1.8,4,4v17.1
								C212,261.3,210.2,263.1,208,263.1z M159.9,255.1H204V246h-44.1V255.1z"/>
							<path class="st5" d="M208,302.7h-52.1c-2.2,0-4-1.8-4-4v-17.1c0-2.2,1.8-4,4-4H208c2.2,0,4,1.8,4,4v17.1
								C212,300.9,210.2,302.7,208,302.7z M159.9,294.7H204v-9.1h-44.1V294.7z"/>
							<path class="st5" d="M208,342.3h-52.1c-2.2,0-4-1.8-4-4v-17.1c0-2.2,1.8-4,4-4H208c2.2,0,4,1.8,4,4v17.1
								C212,340.5,210.2,342.3,208,342.3z M159.9,334.3H204v-9.1h-44.1V334.3z"/>
							<path class="st5" d="M208,382h-52.1c-2.2,0-4-1.8-4-4v-17.1c0-2.2,1.8-4,4-4H208c2.2,0,4,1.8,4,4V378
								C212,380.2,210.2,382,208,382z M159.9,374H204v-9.1h-44.1V374z"/>
							<path class="st5" d="M208,229.5c-2.2,0-4-1.8-4-4v-29c0-2.2,1.8-4,4-4h53.8c2.2,0,4,1.8,4,4s-1.8,4-4,4H212v25
								C212,227.8,210.2,229.5,208,229.5z"/>
							<path class="st5" d="M836,81.1h-42.2c-2.2,0-4-1.8-4-4s1.8-4,4-4H836c2.2,0,4,1.8,4,4S838.2,81.1,836,81.1z"/>
							<path class="st5" d="M836,104.5h-42.2c-2.2,0-4-1.8-4-4s1.8-4,4-4H836c2.2,0,4,1.8,4,4S838.2,104.5,836,104.5z"/>
							<path class="st5" d="M836,127.9h-42.2c-2.2,0-4-1.8-4-4s1.8-4,4-4H836c2.2,0,4,1.8,4,4S838.2,127.9,836,127.9z"/>
							<path class="st5" d="M836,151.2h-42.2c-2.2,0-4-1.8-4-4s1.8-4,4-4H836c2.2,0,4,1.8,4,4S838.2,151.2,836,151.2z"/>
							<path class="st5" d="M746.4,177.4h-42.2c-2.2,0-4-1.8-4-4s1.8-4,4-4h42.2c2.2,0,4,1.8,4,4S748.6,177.4,746.4,177.4z"/>
							<path class="st5" d="M746.4,200.8h-42.2c-2.2,0-4-1.8-4-4s1.8-4,4-4h42.2c2.2,0,4,1.8,4,4S748.6,200.8,746.4,200.8z"/>
							<path class="st5" d="M583.1,225.4h-53.3c-2.2,0-4-1.8-4-4s1.8-4,4-4h49.3v-83.5c0-2.2,1.8-4,4-4h22.5c2.2,0,4,1.8,4,4
								s-1.8,4-4,4h-18.5v83.5C587.1,223.6,585.4,225.4,583.1,225.4z"/>
							<path class="st5" d="M701.6,238.8h-41c-2.2,0-4-1.8-4-4s1.8-4,4-4h41c2.2,0,4,1.8,4,4S703.8,238.8,701.6,238.8z"/>
							<path class="st5" d="M689.9,300.1h-29.3c-2.2,0-4-1.8-4-4s1.8-4,4-4h29.3c2.2,0,4,1.8,4,4S692.1,300.1,689.9,300.1z"/>
							<path class="st5" d="M701.6,258.8h-41c-2.2,0-4-1.8-4-4s1.8-4,4-4h41c2.2,0,4,1.8,4,4S703.8,258.8,701.6,258.8z"/>
							<path class="st5" d="M701.6,279.5h-41c-2.2,0-4-1.8-4-4s1.8-4,4-4h41c2.2,0,4,1.8,4,4S703.8,279.5,701.6,279.5z"/>
							<path class="st5" d="M1044.1,397.2c-2.2,0-4-1.8-4-4V154.6H891.5v99.1c0,2.2-1.8,4-4,4s-4-1.8-4-4V150.6c0-2.2,1.8-4,4-4
								H1044c2.2,0,4,1.8,4,4v242.6C1048.1,395.4,1046.3,397.2,1044.1,397.2z"/>
							<path class="st5" d="M1154.9,377.7c-2.2,0-4-1.8-4-4V248.3h-78.6c-2.2,0-4-1.8-4-4s1.8-4,4-4h82.6c2.2,0,4,1.8,4,4v129.4
								C1158.9,375.9,1157.1,377.7,1154.9,377.7z"/>
							<path class="st5" d="M1044.1,315.7h-74.5c-2.2,0-4-1.8-4-4s1.8-4,4-4h61.6l-15.5-10.6h-46.1c-2.2,0-4-1.8-4-4s1.8-4,4-4h47.3
								c0.8,0,1.6,0.2,2.2,0.7l27.2,18.6c1.4,1,2.1,2.8,1.6,4.5C1047.4,314.5,1045.8,315.7,1044.1,315.7L1044.1,315.7z"/>
							<path class="st5" d="M1313.1,310.3c-2.2,0-4-1.8-4-4v-97.8c-55.8-19.1-99-18.1-125.6-13.8c-23.5,3.8-38.4,10.7-43.5,13.3
								v36.2c0,2.2-1.8,4-4,4s-4-1.8-4-4v-38.5c0-1.4,0.7-2.7,1.9-3.4c0.7-0.4,17.2-10.3,47.8-15.4c28-4.6,73.8-5.7,132.7,15
								c1.6,0.6,2.7,2.1,2.7,3.8v100.6C1317.1,308.5,1315.3,310.3,1313.1,310.3L1313.1,310.3z"/>
							<path class="st5" d="M1218.4,371.2c-2.2,0-4-1.8-4-4v-32.1c0-1.1,0.4-2.1,1.2-2.8l27.6-27.6c0.8-0.8,1.8-1.2,2.8-1.2h102.9
								V168.3c0-2.2,1.8-4,4-4h76.9c2.2,0,4,1.8,4,4s-1.8,4-4,4h-72.9v135.2c0,2.2-1.8,4-4,4h-105.2l-25.2,25.2v30.4
								C1222.3,369.4,1220.6,371.2,1218.4,371.2L1218.4,371.2z"/>
							<path class="st5" d="M1328.3,339.1h-109.9c-2.2,0-4-1.8-4-4s1.8-4,4-4h108.1l23.3-26.2c1.5-1.7,4-1.8,5.7-0.3s1.8,4,0.3,5.7
								l-24.5,27.6C1330.5,338.6,1329.4,339.1,1328.3,339.1z"/>
							<path class="st5" d="M1293,203.3c-2.2,0-4-1.8-4-4v-48.7c0-2.2,1.8-4,4-4h82V72c0-2.2,1.8-4,4-4h61.7c2.2,0,4,1.8,4,4
								s-1.8,4-4,4H1383v74.6c0,2.2-1.8,4-4,4h-82v44.7C1297,201.5,1295.2,203.3,1293,203.3L1293,203.3z"/>
							<path class="st5" d="M1313.1,234.2c-0.3,0-0.6,0-0.9-0.1c-54.3-12.5-99-11.9-126.8-9.2c-30.2,3-47.8,9-48,9.1
								c-2.1,0.7-4.4-0.4-5.1-2.5s0.4-4.4,2.5-5.1c0.7-0.3,18.4-6.3,49.5-9.4c28.5-2.8,74.2-3.5,129.8,9.3c2.2,0.5,3.5,2.6,3,4.8
								C1316.6,233,1315,234.2,1313.1,234.2L1313.1,234.2z"/>
							<path class="st5" d="M1313.1,265.2c-0.3,0-0.6,0-0.9-0.1c-73.4-16.9-129.6-10.3-156.5-4.8c-2.2,0.4-4.3-1-4.7-3.1
								c-0.4-2.2,1-4.3,3.1-4.7c27.6-5.6,85-12.5,159.9,4.8c2.2,0.5,3.5,2.6,3,4.8C1316.6,263.9,1315,265.2,1313.1,265.2
								L1313.1,265.2z"/>
							<path class="st5" d="M1313.1,296.1c-0.3,0-0.6,0-0.9-0.1c-73.4-16.9-129.6-10.3-156.5-4.8c-2.2,0.4-4.3-1-4.7-3.1
								c-0.4-2.2,1-4.3,3.1-4.7c27.6-5.6,85-12.5,159.9,4.8c2.2,0.5,3.5,2.6,3,4.8C1316.6,294.8,1315,296.1,1313.1,296.1
								L1313.1,296.1z"/>
							<path class="st5" d="M1154.9,322.2c-1.9,0-3.5-1.3-3.9-3.2c-0.4-2.2,1-4.3,3.1-4.7c18.3-3.7,48.2-7.7,86.9-5.6
								c2.2,0.1,3.9,2,3.8,4.2s-2,3.9-4.2,3.8c-37.8-2-67,1.9-84.8,5.5C1155.5,322.2,1155.2,322.2,1154.9,322.2z"/>
							<path class="st5" d="M1026.5,200.8H903.4c-2.2,0-4-1.8-4-4v-23.4c0-2.2,1.8-4,4-4h123.1c2.2,0,4,1.8,4,4v23.4
								C1030.5,199,1028.7,200.8,1026.5,200.8z M907.4,192.8h115.1v-15.4H907.4V192.8z"/>
							<path class="st5" d="M1026.5,240.4H903.4c-2.2,0-4-1.8-4-4v-23.3c0-2.2,1.8-4,4-4h123.1c2.2,0,4,1.8,4,4v23.4
								C1030.5,238.6,1028.7,240.4,1026.5,240.4z M907.4,232.4h115.1v-15.3H907.4V232.4z"/>
						</g>
					</g>
				</g>
			</g>
		</g>
	</g>
</g>
</svg>
