<?xml version="1.0" encoding="UTF-8"?>
<svg xmlns="http://www.w3.org/2000/svg" version="1.1" viewBox="0 0 283.46 283.46">
  <defs>
    <style>
      .cls-1 {
        fill: #231f20;
      }
    </style>
  </defs>
  <!-- Generator: Adobe Illustrator 28.6.0, SVG Export Plug-In . SVG Version: 1.2.0 Build 709)  -->
  <g>
    <g id="iconos">
      <g>
        <path class="cls-1" d="M243.67,147.96c0-5.25-2.05-8.3-3.77-9.94-3.27-3.1-7.4-3.28-8.53-3.27-1.15-.04-5.33.05-8.72,3.19-2.72,2.52-4.1,6.18-4.1,10.87,0,4.94,1.58,8.31,3.24,10.48v2.16l-.74.21c-2.16.41-13.46,2.98-13.46,11.86l.29,31.75c-.98,2.21-2.62,7.09-.22,11.08.88,1.47,2.54,3.15,5.6,3.91l4.26,43.84-1.96.27c-2.08.29-3.59,2.14-3.44,4.24.14,2.1,1.89,3.73,3.99,3.73h29.97c2.09,0,3.83-1.62,3.99-3.71s-1.33-3.94-3.4-4.25l-1.61-.24,4.25-43.8c3.08-.61,5.25-2.07,6.47-4.36,2.09-3.92.2-8.4-1.01-10.59l.64-31.55c0-8.27-11.94-11.71-14.51-12.36l-.19-.05v-1.89c1.98-2.88,2.98-6.78,2.98-11.59ZM247.4,173.78l-.66,32.63c-.02.81.22,1.62.67,2.3.75,1.14,1.37,2.83,1.29,3.49-.23.13-1.04.49-3.06.49s-3.78,1.56-3.98,3.61l-4.67,48.05h-2.08v-42.9c0-2.21-1.79-4-4-4s-4,1.79-4,4v42.9h-1.33l-4.66-48.05c-.2-2.05-1.92-3.61-3.98-3.61-1.92,0-2.42-.45-2.42-.45-.3-.48.09-2.61.91-4.19.31-.59.47-1.25.47-1.91l-.3-32.64c0-1.66,4.18-3.47,7.05-3.98.14-.02.28-.06.41-.09l3.83-1.09c1.72-.49,2.91-2.06,2.91-3.85v-6.66c0-1.06-.42-2.07-1.16-2.82-1.38-1.39-2.08-3.47-2.08-6.18,0-1.61.26-3.78,1.5-4.97,1.2-1.15,2.98-1.11,2.98-1.11.21.02.23.02.44,0,0,0,1.82-.01,2.96,1.11.83.82,1.25,2.2,1.25,4.11,0,3.51-.68,6.13-1.96,7.57-.65.73-1.01,1.68-1.01,2.66v6.28c0,1.79,1.19,3.37,2.92,3.85l3.17.89s.08.02.11.03c4.61,1.16,8.51,3.66,8.51,4.53Z"/>
        <path class="cls-1" d="M118.78,51.25c1.14.5,2.78,1.04,4.7,1.56-1.53,1.3-2.81,2.51-3.63,3.47-5.13,5.95-4.46,14.96,1.49,20.09,2.61,2.25,5.87,3.46,9.28,3.46.36,0,.71-.01,1.07-.04,3.79-.28,7.25-2.02,9.74-4.9.32-.37.68-.83,1.06-1.36v31.64c-.28-.3-.56-.61-.86-.91-5.66-5.45-13.48-8.02-23.27-7.64-1.67.06-3.13,1.17-3.65,2.76-.16.5-3.91,12.35,3.02,21.91,5.23,7.2,14.79,10.88,28.44,10.93.69.1,2.21.28,4.23.28,4.68,0,12.07-.96,18.18-6.06,6.56-5.48,9.89-14.17,9.89-25.82,0-1.62-.98-3.08-2.48-3.7-.37-.15-9.1-3.65-18.03,1.16-2.83,1.52-5.32,3.69-7.47,6.45v-31c.38.53.74.99,1.06,1.36,5.13,5.95,14.14,6.61,20.09,1.49,5.95-5.13,6.61-14.15,1.48-20.09-.83-.96-2.1-2.17-3.63-3.47,1.91-.51,3.56-1.05,4.7-1.56,3.48-1.54,6.15-4.34,7.53-7.89,1.37-3.55,1.28-7.42-.26-10.9-3.17-7.18-11.6-10.45-18.79-7.27-.28.12-.58.27-.9.43.1-.93.15-1.75.15-2.43,0-7.86-6.39-14.25-14.25-14.25s-14.25,6.39-14.25,14.25c0,1.03.11,2.36.32,3.87-1.31-.81-2.5-1.46-3.44-1.88-7.18-3.18-15.61.08-18.79,7.27-1.54,3.48-1.63,7.35-.26,10.9,1.37,3.55,4.05,6.35,7.53,7.89ZM124.24,116.64c-2.94-4.02-2.9-8.99-2.49-12.02,6.03.26,10.82,2.06,14.27,5.36,5,4.78,6.05,11.61,6.27,14.12-8.79-.58-14.85-3.08-18.05-7.45ZM161.65,105.17c2.31-1.27,4.61-1.64,6.53-1.64.8,0,1.54.07,2.18.16-.48,7.56-2.79,13.13-6.88,16.57-4.19,3.53-9.54,4.22-12.94,4.24,2.12-9.83,5.95-16.5,11.1-19.33ZM118.83,35.7c1.03-2.33,3.32-3.72,5.72-3.72.84,0,1.7.17,2.52.53,1.87.83,6.18,3.64,10.16,6.9,1.35,1.11,3.26,1.21,4.72.26,1.46-.95,2.14-2.74,1.67-4.42-1.38-4.95-2.2-10.02-2.2-12.05,0-3.44,2.8-6.25,6.25-6.25s6.25,2.8,6.25,6.25c0,1.56-.51,5.31-1.62,9.84-.4,1.64.27,3.35,1.67,4.29,1.41.93,3.25.88,4.6-.13,3.3-2.46,6.06-4.13,7.33-4.69,3.15-1.39,6.85.04,8.24,3.19,1.39,3.15-.04,6.85-3.19,8.24-1.76.78-6.39,2.02-11.49,2.8-1.63.25-2.94,1.47-3.3,3.08-.36,1.61.3,3.27,1.67,4.19,4.31,2.9,7.97,6.03,9.24,7.49,2.25,2.61,1.96,6.56-.65,8.81-2.61,2.25-6.56,1.96-8.81-.65-1.5-1.74-5-7.48-7.43-13.31,0,0,0,0,0,0-.01-.03-.03-.06-.05-.09-.08-.19-.18-.36-.29-.53-.04-.06-.08-.12-.12-.17-.1-.14-.21-.27-.32-.39-.05-.05-.09-.1-.14-.15-.15-.15-.31-.28-.49-.4-.02-.01-.03-.03-.05-.04-.19-.13-.39-.23-.6-.33-.07-.03-.13-.05-.2-.08-.16-.06-.32-.11-.49-.15-.07-.02-.14-.04-.22-.05-.24-.04-.47-.07-.72-.07s-.48.03-.72.07c-.07.01-.14.03-.22.05-.17.04-.33.09-.49.15-.07.03-.14.05-.2.08-.21.09-.41.2-.6.33-.02.01-.03.03-.05.04-.17.12-.34.26-.49.4-.05.05-.1.1-.14.15-.12.12-.22.25-.32.39-.04.06-.09.11-.12.17-.11.17-.21.35-.29.53-.01.03-.03.06-.05.09,0,0,0,0,0,0-2.42,5.83-5.93,11.58-7.43,13.31-1.09,1.26-2.61,2.03-4.27,2.15-1.66.12-3.28-.41-4.54-1.5-2.61-2.25-2.9-6.2-.65-8.81,1.26-1.47,4.93-4.59,9.24-7.49,1.37-.92,2.03-2.58,1.67-4.19-.36-1.61-1.67-2.83-3.3-3.08-5.11-.78-9.73-2.03-11.49-2.8-1.53-.67-2.7-1.9-3.3-3.46-.6-1.56-.56-3.25.11-4.78Z"/>
        <path class="cls-1" d="M23.4,223.95c2.17,1.1,4.56,1.55,6.99,1.55,7.67,0,15.72-4.4,18.75-6.23,1.86,3.09,4.55,7.17,7.81,11.09,8.42,10.11,15.7,13.03,21.29,13.03,2.09,0,3.95-.41,5.54-1,5.85-2.18,12.75-8.58,12.4-26.66-.1-5.1-.74-9.94-1.36-13.49,4.58-.78,18.69-3.92,22.52-13.32,2.04-4.99.82-10.48-3.61-16.3-8.47-11.13-26-10.05-39.37-7.12-1.02-1.61-2.8-4.16-5.2-6.5-1.82-1.77-3.73-3.14-5.68-4.12l1.33-8.24c.35-2.18-1.13-4.23-3.31-4.59-2.19-.35-4.23,1.13-4.59,3.31l-1.26,7.79c-1.47.08-2.94.38-4.39.92-1.47.55-2.79,1.29-3.96,2.21l-6.43-5.05c-1.74-1.37-4.25-1.06-5.62.67-1.37,1.74-1.06,4.25.67,5.62l6.69,5.26c-.77,1.99-1.24,4.25-1.38,6.74-.17,3.12.19,6.02.53,7.9-12.28,6.47-27.26,17.38-26.35,31.83.46,7.31,3.14,12.25,7.94,14.69ZM56.88,216.6c-.98-1.55-1.83-3-2.52-4.26.64-1.58,1.3-3.55,2-6l23.13-8.63c.44-.17.83-.41,1.17-.7,2.24,1.48,4.11,2.59,5.69,3.39.3,1.4.61,3.06.88,4.88l-30.35,11.32ZM80.98,234.9c-6.36,2.37-13.71-4.25-19.37-11.52l26.46-9.87c.48,9.2-.73,19.02-7.09,21.39ZM107.37,177.47c2.59,3.41,3.46,6.25,2.57,8.43-1.91,4.68-11.19,7.67-17.05,8.55-.23-.02-.52-.1-.83-.2-.46-.32-.98-.54-1.53-.65-3.2-1.56-8.42-5.16-14.22-9.61l11.35,2.23c2.16.42,4.27-.99,4.7-3.15.43-2.17-.99-4.27-3.15-4.7l-18.74-3.69c12.67-3.53,30.26-5.98,36.92,2.77ZM70.98,190c.72.55,1.4,1.07,2.07,1.58l-14.42,5.38c.18-.83.35-1.67.53-2.56.89-4.44,1.64-8.74,2.19-12.17,2.66,2.23,6.05,5,9.63,7.77ZM54.09,161.58c4.99-1.86,9.52,2.69,12.05,6.06-4.59,1.37-7.9,2.66-8.91,3.06-.01,0-.03,0-.04,0-.45.15-3.53,1.21-7.83,3.09-.43-4.12-.2-10.39,4.73-12.22ZM49.29,182.6l-12.1,15.15c-1.38,1.73-1.1,4.24.63,5.62.74.59,1.62.88,2.49.88,1.17,0,2.34-.51,3.13-1.5l7.85-9.83c-1.49,7.32-3.12,13.65-4.54,16.99-.36.45-.61.97-.75,1.53-.17.28-.33.51-.49.68-5.01,3.17-13.99,7-18.49,4.71-2.11-1.07-3.31-3.78-3.58-8.07-.69-10.91,14-20.51,25.85-26.16Z"/>
        <path class="cls-1" d="M55.07,131c.38,1.39,1.47,2.46,2.86,2.82.33.08.67.13,1,.13,1.07,0,2.11-.43,2.87-1.21l23.61-24.3c1.54-1.58,1.5-4.12-.08-5.66-1.58-1.54-4.12-1.5-5.66.08l-13.14,13.53c6.22-21.37,20.35-40.09,39.4-51.92,1.88-1.17,2.45-3.63,1.29-5.51-1.17-1.88-3.63-2.45-5.51-1.29-20.76,12.89-36.15,33.3-42.9,56.59l-3.79-13.93c-.58-2.13-2.77-3.39-4.91-2.81-2.13.58-3.39,2.78-2.81,4.91l7.77,28.57Z"/>
        <path class="cls-1" d="M201.12,90.27c.64,1.55,2.13,2.48,3.7,2.48.51,0,1.02-.1,1.52-.3,2.04-.84,3.02-3.18,2.18-5.22l-7.17-17.44c17.12,14.22,28.67,34.63,31.93,56.82.29,1.99,2,3.42,3.95,3.42.19,0,.39-.01.59-.04,2.19-.32,3.7-2.35,3.37-4.54-3.56-24.17-16.14-46.42-34.82-61.89l14.28,2.07c2.18.31,4.22-1.2,4.53-3.38.32-2.19-1.2-4.22-3.38-4.53l-29.3-4.25c-1.41-.2-2.84.37-3.73,1.5-.88,1.13-1.09,2.65-.54,3.98l12.89,31.34Z"/>
        <path class="cls-1" d="M113.09,213.38c-2.03-.87-4.38.07-5.25,2.11-.87,2.03.07,4.38,2.11,5.25,12.39,5.3,25.72,7.95,39.03,7.95,10.82,0,21.64-1.76,31.93-5.27l-9.24,11.09c-1.41,1.7-1.18,4.22.51,5.63.75.62,1.66.93,2.56.93,1.15,0,2.29-.49,3.08-1.44l18.95-22.75c.92-1.1,1.18-2.62.67-3.96s-1.69-2.32-3.11-2.55l-33.45-5.4c-2.17-.35-4.23,1.13-4.59,3.31-.35,2.18,1.13,4.23,3.31,4.59l18.62,3c-21.07,7.16-44.51,6.33-65.13-2.49Z"/>
      </g>
    </g>
  </g>
</svg>