<?xml version="1.0" encoding="UTF-8"?>
<svg xmlns="http://www.w3.org/2000/svg" version="1.1" viewBox="0 0 283.46 283.46">
  <defs>
    <style>
      .cls-1 {
        fill: #f27f1f;
      }

      .cls-2 {
        fill: #231f20;
      }

      .cls-3 {
        fill: #abdfea;
      }

      .cls-4 {
        fill: #84bc41;
      }

      .cls-5 {
        fill: #c8c7b9;
      }

      .cls-6 {
        fill: #ffe400;
      }
    </style>
  </defs>
  <!-- Generator: Adobe Illustrator 28.6.0, SVG Export Plug-In . SVG Version: 1.2.0 Build 709)  -->
  <g>
    <g id="iconos">
      <g>
        <g>
          <path class="cls-3" d="M235.91,84.29c-11.98-21.84-31.06-40.22-54.4-48.93-23.34-8.71-50.92-6.96-71.68,6.81-21.89,14.52-33.77,39.58-47.81,61.78-11.29,17.84-24.64,34.63-32.55,54.21-7.91,19.58-9.51,43.3,2.35,60.76,14.05,20.67,42.29,26.4,67.2,24.38,41.14-3.35,80.14-24.23,107.06-55.31,26.96-31.13,52.79-61.84,29.83-103.69Z"/>
          <path class="cls-1" d="M162.77,198.67c-2.87,6.05-8.42,11.12-15.05,12.03-18.2,2.5-33.19,19.46-46.87-2.95-7.82-12.81-5.08-28.15,4.3-39.32,9.64-11.48,25.45-17.84,40.34-15.09,20.23,3.74,25.32,28.36,17.28,45.33Z"/>
          <path class="cls-4" d="M106.21,150.27c-.04-6.51,2.3-13.01,6.48-18.01.35-.42.74-.84,1.26-1,1.15-.34,2.18.74,2.89,1.71,3.41,4.63,6.95,9.62,7.26,15.36.23,4.43-4.4,18.46-9.82,19.27-5.69.85-8.04-13.35-8.07-17.33Z"/>
          <path class="cls-6" d="M70.11,230c-3.58,1.96-7.94,1.23-12.02,1.22-7.91-.03-15.79,3.01-21.63,8.34-5.84,5.33-9.59,12.9-10.29,20.77-.08.86-.11,1.77.28,2.53.47.93,1.46,1.46,2.41,1.88,8.43,3.72,18.37,3.06,26.89-.44,8.52-3.5,15.74-9.63,21.82-16.56,4.39-5,13.83-17.17,7.87-23.98-4.5-5.15-21.19-.61-15.34,6.23Z"/>
          <circle class="cls-6" cx="221.24" cy="53.07" r="31.31"/>
          <path class="cls-4" d="M103.3,244.4l45.87,22.26s104.64-39.44,96.94-120.24l1.46-6.35-1.46-35.7-24.87,31.49,8.08,2.05s-15.9,74.36-126.01,106.5Z"/>
          <polygon class="cls-5" points="135.97 64.36 135.97 138.44 206.23 138.44 135.97 64.36"/>
        </g>
        <path class="cls-2" d="M91.61,211.07c-1.99-.97-4.38-.14-5.35,1.84l-2.06,4.23c-.86-.38-1.76-.68-2.7-.88-5.62-1.19-11.44,1.18-15.03,3.13-4.99-6.59-12.46-13.97-21.92-16.1-3.79-.85-7.2-.81-10.15.13-10.1,3.2-13.51,10.44-13.33,16.14.23,7.62,6.24,14.21,14.95,16.4.98.25,2.59.42,4.58.55-1.26,1.42-2.58,3.02-3.84,4.74-8.55,11.7-7,19.26-4.19,23.54,2.63,4.01,6.26,6.49,10.78,7.36,1.21.23,2.43.34,3.65.34,9.63,0,19.11-6.49,19.56-6.8.18-.12.35-.26.5-.41l13.72-13.3c1.64-1.42,17.46-15.65,9.83-28.85-.08-.14-.17-.26-.25-.39l3.08-6.32c.97-1.99.14-4.38-1.84-5.35ZM29.07,219.32c-.11-3.66,2.72-6.67,7.76-8.27.76-.24,1.63-.36,2.59-.36,1.03,0,2.16.14,3.39.42,9.2,2.07,16.46,11.4,20.34,17.55-10.52.21-22.63.19-25.18-.45-6.01-1.51-8.8-5.55-8.9-8.88ZM62.28,258.78l-13.35-19.5c.91-.93,1.78-1.77,2.59-2.5.2,0,.41,0,.61,0,.72,0,1.45,0,2.17,0l12.24,17.88-4.27,4.13ZM44.87,264.3c-2.35-.46-4.18-1.74-5.6-3.9-2.41-3.67.36-9.54,4.27-14.82l11.69,17.08c-3.3,1.32-7.13,2.28-10.37,1.64ZM75.51,245.97c-.07.06-.13.12-.2.18l-2.94,2.85-8.47-12.36c2.78-.06,4.99-.13,6.12-.16,1.35-.04,2.58-.76,3.28-1.91.7-1.15.78-2.57.21-3.79-.12-.26-1-2.09-2.55-4.7,2.63-1.33,6.11-2.58,8.9-1.98,1.62.34,2.84,1.31,3.83,3.04,4.46,7.73-8.07,18.74-8.19,18.84Z"/>
        <path class="cls-2" d="M92.54,175.51c-8.99,15.21,12.34,37.02,15.1,39.74,3,3.17,9.37,7.54,16.72,7.54,2.81,0,5.76-.64,8.72-2.22.08-.04,7.94-4.02,11.74-5.44,12.48-4.65,11.14-19.5,10.64-25.1-.9-9.95-2.76-30.66-20.52-34.71-3.4-.78-6.64-.91-9.58-.44.58-9.11-4.33-15.9-4.6-16.26-1.08-1.46-3-2.01-4.69-1.34-9.38,3.71-14.89,8.99-16.37,15.69-1.17,5.28.5,10.25,2.46,13.9-3.8,1.38-7.03,4.27-9.61,8.63ZM107.5,154.71c.73-3.28,3.52-6.16,8.32-8.57,1.28,2.91,2.56,7.8.39,13.17-1.66,1.61-3.33,3.93-4.34,7.25-.16-.04-.33-.08-.5-.12-1.52-1.93-4.95-6.92-3.88-11.72ZM99.42,179.58c1.82-3.07,3.94-4.9,6.31-5.45.56-.13,1.11-.18,1.65-.18,2.86,0,5.25,1.53,5.34,1.59,1.19.81,2.72.91,4.02.27,1.3-.64,2.15-1.94,2.22-3.39.18-3.67,1.36-6.35,3.5-7.97,2.47-1.87,6.27-2.35,10.69-1.34,11.16,2.55,13.25,15.6,14.33,27.63.92,10.2-.67,15.09-5.47,16.88-4.22,1.57-12.23,5.62-12.65,5.84-8.1,4.34-15.66-3.44-15.96-3.76-.04-.04-.08-.08-.12-.12-5.19-5.1-18.88-21.55-13.87-30.02Z"/>
        <path class="cls-2" d="M210.23,138.44v-26.98c0-1.31-.65-2.54-1.73-3.29l-24.69-17.05c-1.22-.85-2.81-.94-4.13-.25-1.32.69-2.14,2.05-2.14,3.54v7.14l-14.11-11.42-4.09-26.37c-.3-1.95-1.98-3.39-3.95-3.39h-8.5c-1.98,0-3.66,1.45-3.96,3.4l-3.95,26.08-.76-.52c-1.22-.84-2.81-.93-4.12-.24-1.31.69-2.13,2.05-2.13,3.54v45.82c0,2.21,1.79,4,4,4h70.26c2.21,0,4-1.79,4-4ZM150.34,68.36h1.63l4.19,27.07v6.15l-9.83-6.72,4.01-26.5ZM202.23,134.44h-62.26v-34.24l17.92,12.26c1.22.84,2.81.93,4.12.24,1.31-.69,2.13-2.05,2.13-3.54v-8.16l14.87,12.03c1.2.97,2.85,1.17,4.24.5,1.39-.66,2.28-2.07,2.28-3.61v-7.9l16.69,11.53v20.88Z"/>
        <path class="cls-2" d="M149.17,114.96c-2.21,0-4,1.79-4,4v6.86c0,2.21,1.79,4,4,4s4-1.79,4-4v-6.86c0-2.21-1.79-4-4-4Z"/>
        <path class="cls-2" d="M169.48,114.96c-2.21,0-4,1.79-4,4v6.86c0,2.21,1.79,4,4,4s4-1.79,4-4v-6.86c0-2.21-1.79-4-4-4Z"/>
        <path class="cls-2" d="M193.71,129.82c2.21,0,4-1.79,4-4v-6.86c0-2.21-1.79-4-4-4s-4,1.79-4,4v6.86c0,2.21,1.79,4,4,4Z"/>
        <path class="cls-2" d="M261.02,60.75c0-20.7-16.84-37.54-37.54-37.54s-37.54,16.84-37.54,37.54,16.84,37.54,37.54,37.54,37.54-16.84,37.54-37.54ZM193.93,60.75c0-16.29,13.25-29.54,29.54-29.54s29.54,13.25,29.54,29.54-13.25,29.54-29.54,29.54-29.54-13.25-29.54-29.54Z"/>
        <path class="cls-2" d="M227.48,82.05v-3.73c6.27-1.83,10.06-6.4,10.06-12.37,0-6.89-5.45-11.89-12.95-11.89-1.34,0-2.4-.27-2.82-.73-.38-.4-.38-1.15-.35-1.56,0-.09.19-2.21,2.14-2.21,2.05,0,2.56.5,2.94,1.06,1.24,1.83,3.73,2.3,5.56,1.06,1.83-1.24,2.3-3.73,1.06-5.56-1.63-2.4-3.75-3.53-5.63-4.07v-2.58c0-2.21-1.79-4-4-4s-4,1.79-4,4v2.92c-3.65,1.6-5.79,5.28-6.04,8.79-.22,2.95.66,5.64,2.47,7.59,1.39,1.5,4.03,3.29,8.69,3.29.51,0,4.95.11,4.95,3.89,0,3.37-3.14,4.6-5.71,5.02-.5.07-4.94.55-6.8-3.39-.94-2-3.33-2.85-5.33-1.91-2,.94-2.85,3.33-1.91,5.33,2.22,4.71,6.14,6.83,9.68,7.62v3.44c0,2.21,1.79,4,4,4s4-1.79,4-4Z"/>
        <path class="cls-2" d="M248.23,106.11c-.58-1.24-1.75-2.1-3.11-2.27-1.36-.18-2.71.35-3.59,1.41l-25.12,30.15c-.96,1.15-1.19,2.74-.61,4.12.58,1.38,1.89,2.32,3.38,2.43l7.82.59c-11.79,39.18-44.58,63.17-70.52,76.53-29.56,15.22-57,20.41-57.28,20.46-1.9.35-3.27,2-3.27,3.93v19.66c0,1.16.51,2.27,1.39,3.03.73.63,1.66.97,2.61.97.2,0,.39-.01.59-.04,1.32-.2,32.65-5,67.09-22.84,44.71-23.15,73.38-57.65,83.11-99.92l9.07.68c1.42.11,2.78-.55,3.59-1.71.81-1.17.93-2.68.33-3.97l-15.5-33.2ZM247.87,136.07c-2-.15-3.82,1.22-4.22,3.19-4.69,23.02-15.12,43.62-30.99,61.23-12.77,14.16-29.09,26.46-48.5,36.54-25.78,13.38-50.31,19.29-60.21,21.29v-11.6c8.31-1.85,31.16-7.67,56.02-20.44,40.85-20.99,67.16-50.86,76.07-86.4.29-1.14.05-2.36-.64-3.31-.69-.96-1.77-1.56-2.94-1.65l-4.93-.37,16.11-19.34,9.94,21.3-5.73-.43Z"/>
      </g>
    </g>
  </g>
</svg>