<?xml version="1.0" encoding="UTF-8"?>
<svg xmlns="http://www.w3.org/2000/svg" version="1.1" viewBox="0 0 542.29 283.46">
  <defs>
    <style>
      .cls-1 {
        fill: #f27f1f;
      }

      .cls-2 {
        fill: #231f20;
      }

      .cls-3 {
        fill: #abdfea;
      }

      .cls-4 {
        fill: #f8a719;
      }

      .cls-5 {
        fill: #84bc41;
      }

      .cls-6 {
        fill: #ffe400;
      }

      .cls-7 {
        fill: #00954d;
      }
    </style>
  </defs>
  <!-- Generator: Adobe Illustrator 28.6.0, SVG Export Plug-In . SVG Version: 1.2.0 Build 709)  -->
  <g>
    <g id="iconos">
      <g>
        <g>
          <path class="cls-7" d="M143.76,220.13s-53.99-2.79-49.59-64.31c0,0,41.16,5.85,48.39,31.62l1.2,32.69Z"/>
          <path class="cls-5" d="M170.33,226.02s25.07-72.71,220.93-87.92,140.62,35.46,101.65,43.96c-38.98,8.5-135.02,41.65-174.82,43.96-39.8,2.31-147.76,0-147.76,0Z"/>
          <path class="cls-1" d="M174.55,65.64s-65.13-8.09-72.16,46.77c-7.04,54.86,30.53,41.36,50.33,29.33,19.8-12.04,84.78-71.1,21.83-76.09Z"/>
          <path class="cls-3" d="M262.07,152.1s21.22-8.71,30.27-16.82c23.79-21.32,10.15-31.22-2.54-32.62s-27.81,14.16-48.23,15.87-44.68,11.24-44.68,21.61,49.14,28.19,65.18,11.96Z"/>
          <path class="cls-5" d="M96.37,224.28s-6.09-85.5-39.09-109.08c0,0-14.21,60.63,13.71,110.41l25.38-1.33Z"/>
          <path class="cls-7" d="M463.27,223.47s-1.79-41.54,39.03-38.47c0,0,.93,36.32-39.03,38.47Z"/>
          <path class="cls-6" d="M333.21,92.76s-10.46,29.27,17.99,34.37c0,0,23.91-4.66,20.6-34.56l-11.94,5.64-8.65-16.67-8.61,14.13-9.38-2.92Z"/>
          <path class="cls-7" d="M271.1,223.47s-18.05-5.02-16.94-36.03l-1.57-12.95s21.19-3.49,25.65,24.49c0,0-1.91-23.77,26.53-28.58,0,0,4.21,46.91-16.65,53.06h-17.03Z"/>
          <path class="cls-6" d="M402.13,224.28s-28.95-91.81,22.77-120.84c0,0-11.53,83.6,1.35,120.03l-24.12.81Z"/>
          <path class="cls-3" d="M209.23,224.28s8.08-63.23-37.69-70.82c0,0-10.35,55.01,37.69,70.82Z"/>
          <circle class="cls-4" cx="492.82" cy="140.14" r="18.95"/>
        </g>
        <path class="cls-2" d="M323.58,159.48c.72,1.12,1.94,1.81,3.27,1.84.03,0,.06,0,.09,0,1.29,0,2.51-.63,3.26-1.69l11.06-15.59c1.28-1.8.85-4.3-.95-5.58-1.8-1.28-4.3-.85-5.58.95l-7.63,10.75-6.79-10.6c-1.19-1.86-3.67-2.4-5.53-1.21-1.86,1.19-2.4,3.67-1.21,5.53l9.99,15.59Z"/>
        <path class="cls-2" d="M340.33,162.98c-1.8-1.28-4.3-.85-5.58.95l-7.63,10.75-6.79-10.6c-1.19-1.86-3.67-2.4-5.53-1.21-1.86,1.19-2.4,3.67-1.21,5.53l9.99,15.59c.72,1.12,1.94,1.81,3.27,1.84.03,0,.06,0,.09,0,1.29,0,2.51-.63,3.26-1.69l11.06-15.59c1.28-1.8.85-4.3-.95-5.58Z"/>
        <path class="cls-2" d="M323.58,211.59c.72,1.12,1.94,1.81,3.27,1.84.03,0,.06,0,.09,0,1.29,0,2.51-.63,3.26-1.69l11.06-15.59c1.28-1.8.85-4.3-.95-5.58-1.8-1.28-4.3-.85-5.58.95l-7.63,10.75-6.79-10.6c-1.19-1.86-3.67-2.4-5.53-1.21-1.86,1.19-2.4,3.67-1.21,5.53l9.99,15.59Z"/>
        <path class="cls-2" d="M281.06,144.55c.75-.74,1.18-1.77,1.18-2.82s-.43-2.09-1.17-2.83c-.75-.75-1.78-1.17-2.83-1.17s-2.09.42-2.83,1.17c-.75.74-1.17,1.77-1.17,2.83,0,.26.02.52.08.78.05.25.12.51.22.75.1.24.23.47.37.69.15.22.32.42.5.6.74.75,1.77,1.18,2.83,1.18s2.08-.43,2.82-1.18Z"/>
        <path class="cls-2" d="M142.1,104.18c.1.25.22.48.36.69.15.22.32.43.5.61.74.75,1.77,1.17,2.83,1.17s2.09-.42,2.83-1.17c.18-.18.35-.39.49-.61.15-.21.27-.44.37-.69.1-.24.18-.49.23-.74.05-.26.08-.52.08-.78s-.03-.53-.08-.79c-.05-.25-.13-.5-.23-.75-.1-.24-.22-.47-.37-.69-.14-.22-.31-.42-.49-.6-.75-.75-1.78-1.18-2.83-1.18s-2.09.43-2.83,1.18c-.19.18-.35.39-.5.6-.14.22-.26.45-.36.69-.1.25-.18.5-.23.75-.05.26-.08.52-.08.79s.03.52.08.78c.05.25.13.5.23.74Z"/>
        <path class="cls-2" d="M142.03,114.62c.15-.22.27-.45.37-.69.1-.24.18-.49.23-.75s.08-.52.08-.78c0-1.05-.43-2.08-1.17-2.83-.75-.74-1.78-1.17-2.83-1.17s-2.09.43-2.83,1.17c-.74.75-1.17,1.78-1.17,2.83,0,.26.03.52.08.78s.13.51.23.75c.1.24.22.47.36.69.15.22.32.42.5.61.74.74,1.77,1.17,2.83,1.17s2.08-.43,2.83-1.17c.18-.19.35-.39.49-.61Z"/>
        <path class="cls-2" d="M148.77,109.08c-.25.1-.48.22-.7.36-.21.15-.42.32-.6.5-.75.74-1.17,1.78-1.17,2.83,0,.26.02.52.08.78.05.26.12.51.22.75.1.24.23.47.37.69.15.22.31.42.5.61.18.18.39.35.6.5.22.14.45.26.7.36.24.1.49.18.74.23.26.05.52.08.79.08s.52-.03.78-.08c.25-.05.5-.13.75-.23.24-.1.47-.22.69-.36.22-.15.42-.32.6-.5s.36-.39.5-.61c.15-.22.27-.45.37-.69.1-.24.18-.49.23-.75s.08-.52.08-.78c0-1.06-.43-2.09-1.18-2.83-.18-.18-.38-.35-.6-.5-.22-.14-.45-.26-.69-.36-.25-.11-.5-.18-.75-.23-.52-.11-1.05-.11-1.57,0-.25.05-.5.12-.74.23Z"/>
        <path class="cls-2" d="M492.92,126.75c-7.38,0-13.39,6.01-13.39,13.39,0,2.81.88,5.42,2.36,7.58-5.77,4.33-10.65,12.04-14.55,23.04l.07-45.57c5.44-1.7,9.39-6.79,9.39-12.78,0-7.38-6.01-13.39-13.39-13.39s-13.39,6.01-13.39,13.39c0,5.99,3.95,11.07,9.38,12.78l-.1,59.22c-4.94-9.39-12.73-18.32-24.8-20.16-1.14-.18-2.3.15-3.19.9-.88.75-1.4,1.84-1.42,2.99-.02,1.37-.17,32.77,28.47,53.48h-28.5c-13.27-47.07,3.18-121.21,3.35-121.96.38-1.7-.38-3.46-1.88-4.33-1.51-.88-3.41-.68-4.7.49-18.56,16.8-23.68,49.51-24.92,71.46-4.34-8.4-10.3-16.65-18.46-23.84-1.37-1.2-3.37-1.33-4.88-.32-1.51,1.01-2.14,2.92-1.54,4.64,3.49,10.01,10.31,32.21,13.34,50.68-4.78-6.51-12.07-12.37-23.22-14.89-1.14-.26-2.34,0-3.27.7-.94.7-1.52,1.77-1.6,2.94-.07,1.04-1.31,21.87,7.42,34.43h-14.84v-92.59c5.13-.76,9.46-2.98,12.89-6.71,9.72-10.56,8.27-29.28,8.21-30.07-.1-1.18-.71-2.25-1.68-2.93-.97-.68-2.18-.9-3.33-.6-.21.05-3.89,1.04-8.27,3.56-1.87-5.45-4.74-10.02-8.56-13.63-1.25-1.18-3.1-1.43-4.62-.62-.66.35-5.67,3.28-8.92,13-2.92-1.62-6.15-2.44-9.66-2.44-2.03,0-3.73,1.51-3.97,3.53-.09.79-2.21,19.58,7.2,30.19,3.32,3.74,7.59,5.97,12.71,6.73v92.59h-49.24c.13-.13.26-.26.38-.39,11.76-12.79,10-35.59,9.92-36.55-.1-1.18-.71-2.25-1.68-2.93-.96-.68-2.18-.9-3.32-.6-5.67,1.49-14.25,5.6-20.52,12.86v-22.31c5.98-1.74,10.36-7.26,10.36-13.79,0-.65-.04-1.3-.13-1.93.64.09,1.28.13,1.93.13,7.92,0,14.36-6.44,14.36-14.37s-6.44-14.36-14.36-14.36c-.65,0-1.3.04-1.94.13.09-.64.13-1.29.13-1.94,0-7.92-6.44-14.36-14.36-14.36s-14.36,6.44-14.36,14.36c0,.65.04,1.3.13,1.94-.64-.09-1.29-.13-1.94-.13-7.92,0-14.37,6.44-14.37,14.36s6.44,14.37,14.37,14.37c.65,0,1.3-.04,1.93-.13-.09.64-.13,1.28-.13,1.93,0,6.53,4.39,12.05,10.36,13.79v21.67c-5.39-8.09-12.68-12.35-21.35-12.35-2.03,0-3.73,1.51-3.97,3.53-.12.97-2.7,23.84,8.69,36.67.13.14.26.27.38.41h-41.46c9.17-4.66,24.55-17.74,26.2-53.23.06-1.27-.49-2.5-1.48-3.3-.99-.8-2.3-1.08-3.53-.76-.78.21-14.98,4.19-24.94,22.41v-36.65c4.46-.74,8.23-2.74,11.24-6.01,8.7-9.46,7.42-26.16,7.36-26.87-.1-1.18-.71-2.25-1.68-2.93-.97-.68-2.18-.9-3.33-.6-.18.05-3.21.86-6.91,2.91-1.68-4.65-4.18-8.56-7.48-11.67-1.25-1.18-3.1-1.43-4.62-.62-.58.31-4.97,2.87-7.91,11.2-2.51-1.29-5.27-1.94-8.25-1.94-2.03,0-3.73,1.51-3.97,3.53-.08.71-1.98,17.47,6.46,26.98,2.91,3.28,6.64,5.29,11.08,6.03v33.65c-4.95-9.15-12.66-17.7-24.44-19.49-1.14-.18-2.3.15-3.19.9-.88.75-1.4,1.84-1.42,2.99-.02,1.37-.17,32.77,28.47,53.48h-56.44v-81.88c1.28,2.03,2.45,3.68,3.37,4.74,2.99,3.47,7.16,5.57,11.73,5.91.43.03.86.05,1.29.05,4.11,0,8.04-1.46,11.18-4.17,7.17-6.18,7.97-17.04,1.79-24.21-1.32-1.53-3.57-3.59-6.25-5.75,3.31-.8,6.19-1.68,8.02-2.49,8.66-3.83,12.59-13.98,8.76-22.64-3.83-8.66-13.98-12.59-22.64-8.76-.85.37-1.87.91-3.02,1.58.29-2.06.45-3.85.45-5.19,0-9.47-7.7-17.17-17.17-17.17s-17.17,7.7-17.17,17.17c0,1.81.28,4.38.77,7.28-2.47-1.63-4.72-2.94-6.39-3.68-8.66-3.83-18.81.1-22.64,8.76-3.83,8.66.1,18.81,8.76,22.64,1.83.81,4.71,1.69,8.02,2.49-2.68,2.16-4.93,4.22-6.25,5.75-6.18,7.17-5.38,18.03,1.79,24.21,3.47,2.99,7.91,4.45,12.47,4.12,4.57-.34,8.74-2.44,11.73-5.91.92-1.06,2.09-2.71,3.37-4.75v34.28c-.44-.59-.89-1.18-1.38-1.77-6.85-8.42-20.04-18.79-43.95-20.4-1.14-.07-2.26.34-3.07,1.14s-1.25,1.91-1.19,3.05c.02.43.6,10.74,7.42,22.85,6,10.66,18.16,24.78,42.17,32.69v10.04h-50.51c-13.27-47.07,3.18-121.21,3.35-121.96.38-1.7-.38-3.46-1.88-4.33-1.51-.88-3.41-.68-4.7.49-18.56,16.8-23.68,49.51-24.92,71.46-4.34-8.4-10.3-16.65-18.46-23.84-1.36-1.19-3.35-1.33-4.85-.33-1.51,1-2.16,2.89-1.58,4.6.04.14,4.58,13.8,8.25,29.95,4.64,20.41,5.85,35.56,3.54,43.96h-1.61c-2.21,0-4,1.79-4,4s1.79,4,4,4h449.44c2.21,0,4-1.79,4-4s-1.79-4-4-4h-25.1c9.17-4.66,24.55-17.74,26.2-53.23.06-1.27-.49-2.5-1.48-3.3-.99-.8-2.3-1.08-3.53-.76-.62.16-9.56,2.67-18.19,12.63,3.36-10.65,8.14-20.34,14.65-23.93.11-.06.2-.14.3-.21,1.34.45,2.77.71,4.26.71,7.38,0,13.39-6.01,13.39-13.39s-6.01-13.39-13.39-13.39ZM339.97,116.99c-4.82-5.41-5.51-14.56-5.46-19.85,1.96.63,3.72,1.79,5.34,3.49,1.03,1.09,2.59,1.51,4.02,1.08,1.44-.42,2.52-1.61,2.8-3.08,1.12-5.81,2.92-9.31,4.34-11.31,2.28,3.03,3.93,6.75,4.94,11.11v.42c0,1.55.9,2.96,2.3,3.62,1.41.66,3.06.45,4.26-.54,1.78-1.48,3.65-2.61,5.29-3.46-.29,5.39-1.55,13.46-6.14,18.43-2.74,2.97-6.34,4.42-10.99,4.42s-8.11-1.42-10.71-4.34ZM199.68,138.76c-3.73-4.19-4.66-11.46-4.7-16.51,1.41.56,2.7,1.47,3.9,2.73,1.03,1.09,2.58,1.5,4.02,1.08,1.44-.42,2.52-1.61,2.8-3.08.88-4.55,2.23-7.46,3.37-9.23,1.76,2.51,3.05,5.53,3.87,9.03v.32c0,1.55.9,2.96,2.3,3.62,1.41.66,3.06.45,4.26-.54,1.28-1.06,2.62-1.92,3.85-2.6-.38,4.9-1.68,11.24-5.23,15.1-2.33,2.53-5.38,3.76-9.35,3.76s-6.89-1.2-9.09-3.67ZM184.12,173.61c16.68,7.32,20.96,36.01,21,36.32.27,1.93,1.9,3.39,3.86,3.44,1.96.05,3.66-1.32,4.03-3.23,4.24-21.77,14.7-31.43,21.21-35.45-3.42,31.82-19.46,39.5-24.4,41.12-19.61-13.66-24.49-32.93-25.7-42.2ZM130.33,139.25c-1.6,1.85-3.82,2.97-6.27,3.16-2.43.17-4.81-.6-6.66-2.2-3.83-3.3-4.26-9.1-.96-12.93,1.67-1.94,6.48-6.04,12.1-9.83,1.37-.92,2.03-2.59,1.67-4.19-.36-1.61-1.67-2.83-3.3-3.08-6.66-1.01-12.72-2.65-15.05-3.68-4.62-2.04-6.72-7.47-4.68-12.09,1.51-3.42,4.88-5.46,8.4-5.46,1.24,0,2.49.25,3.69.78,2.44,1.08,7.94,4.61,13.32,9.03,1.35,1.11,3.26,1.21,4.72.26,1.46-.95,2.14-2.74,1.67-4.42-1.86-6.69-2.86-13.13-2.86-15.79,0-5.05,4.11-9.17,9.17-9.17s9.17,4.11,9.17,9.17c0,2.08-.66,7-2.11,12.92-.4,1.64.27,3.35,1.67,4.29,1.4.93,3.25.88,4.6-.13,4.31-3.21,7.95-5.41,9.64-6.16,4.62-2.04,10.05.06,12.09,4.68,2.04,4.62-.06,10.04-4.68,12.09-2.33,1.03-8.4,2.67-15.05,3.68-1.63.25-2.94,1.47-3.3,3.08-.36,1.61.3,3.27,1.67,4.19,5.62,3.79,10.42,7.89,12.09,9.83,3.3,3.83,2.87,9.63-.96,12.93-1.85,1.6-4.21,2.37-6.66,2.2-2.44-.18-4.67-1.3-6.27-3.16-1.97-2.29-6.57-9.8-9.73-17.41,0,0,0,0,0,0-.01-.03-.03-.06-.05-.09-.08-.19-.18-.36-.29-.53-.04-.06-.08-.12-.12-.17-.1-.14-.21-.27-.32-.39-.05-.05-.09-.1-.14-.15-.15-.15-.31-.28-.49-.4-.02-.01-.03-.03-.05-.04-.19-.13-.39-.23-.6-.33-.07-.03-.13-.05-.2-.08-.16-.06-.32-.11-.49-.15-.07-.02-.14-.04-.22-.05-.24-.04-.47-.07-.72-.07s-.48.03-.72.07c-.07.01-.14.03-.22.05-.17.04-.33.09-.49.15-.07.03-.14.05-.2.08-.21.09-.41.2-.6.33-.02.01-.03.03-.05.04-.17.12-.34.26-.49.41-.05.05-.09.1-.14.15-.12.12-.23.26-.33.4-.04.06-.08.11-.12.17-.11.17-.21.36-.3.55-.01.03-.03.05-.04.07,0,0,0,0,0,.01-3.16,7.61-7.76,15.13-9.73,17.41ZM98.86,160.31c33.66,4.4,40.19,28.45,40.9,31.62v11.18c-30.81-11.13-38.84-33.14-40.9-42.79ZM422.25,114.56c-4.16,24.7-9.84,71.75-.65,107.05h-8.59c.27-5.15.42-18.3-3.44-33.51-.27-5.92-1.54-47.35,12.69-73.55ZM404.98,221.61h-5.87c1.67-9.45-.21-24.9-5.59-45.98-1.09-4.27-2.23-8.38-3.32-12.13,15.48,23.41,15.12,51.46,14.78,58.11ZM379.96,220.94c-7.71-5.08-9.72-19.25-9.95-28.16,16.29,6.15,20.09,21.97,20.97,28.61,0,.01,0,.03,0,.05-.01.06-.01.12-.02.18h-10.23c-.22-.25-.47-.48-.76-.67ZM271.87,157.9c0-1.36.43-2.67,1.25-3.77,1.25-1.68.99-4.04-.6-5.41-.41-.36-.79-.75-1.13-1.18-.79-.99-1.96-1.51-3.13-1.51-.83,0-1.68.26-2.39.8-1.11.83-2.43,1.27-3.8,1.27-3.51,0-6.37-2.86-6.37-6.37s2.86-6.36,6.37-6.36c1.5,0,2.9.5,4.05,1.45,1.67,1.38,4.13,1.18,5.55-.45.34-.39.71-.74,1.11-1.06.84-.67,1.37-1.65,1.48-2.72.11-1.07-.22-2.13-.91-2.96-.96-1.16-1.47-2.56-1.47-4.07,0-3.51,2.86-6.36,6.36-6.36s6.36,2.86,6.36,6.36c0,1.51-.51,2.91-1.47,4.07-.69.82-1.01,1.89-.91,2.96.11,1.07.64,2.05,1.48,2.72.39.32.77.67,1.11,1.06,1.42,1.62,3.88,1.82,5.55.45,1.15-.95,2.55-1.45,4.05-1.45,3.51,0,6.36,2.86,6.36,6.36s-2.86,6.37-6.36,6.37c-1.37,0-2.69-.44-3.8-1.27-1.73-1.3-4.18-.98-5.53.71-.34.43-.72.83-1.13,1.18-1.58,1.37-1.84,3.72-.6,5.41.82,1.11,1.25,2.41,1.25,3.77,0,3.51-2.86,6.37-6.36,6.37s-6.36-2.86-6.36-6.37ZM263.6,215.91c-6.56-7.38-7.16-20.06-6.98-26.47,14.36,3.44,17.62,26.28,17.66,26.53.28,2.09,2.12,3.61,4.23,3.47,2.1-.14,3.74-1.88,3.74-3.99,0-8.42,3.67-15.4,10.92-20.74,2.34-1.73,4.71-3.01,6.69-3.93-.21,6.74-1.57,18.17-7.92,25.06-3.59,3.9-8.28,5.79-14.33,5.79s-10.58-1.87-14-5.71ZM81.6,114.56c-4.16,24.7-9.84,71.75-.65,107.05h-8.59c.27-5.15.42-18.3-3.44-33.51-.27-5.92-1.54-47.35,12.69-73.55ZM48.97,162.64c16.08,23.58,15.71,52.25,15.37,58.98h-8.12c3.1-15.54-2.57-41.64-7.24-58.98ZM463.42,107.02c2.97,0,5.39,2.42,5.39,5.39s-2.42,5.39-5.39,5.39-5.39-2.42-5.39-5.39,2.42-5.39,5.39-5.39ZM488.42,174.68c-3.42,31.82-19.46,39.5-24.4,41.12-19.61-13.66-24.49-32.93-25.7-42.2,16.68,7.32,20.96,36.01,21,36.32,0,.04.02.07.03.11.02.11.05.22.08.34.03.13.07.26.11.38.04.1.08.2.13.31.06.12.12.24.19.36.06.09.11.18.18.27.08.11.16.22.25.32.07.08.14.15.22.23.1.1.2.18.31.27.08.06.16.13.25.19.12.08.24.14.36.21.09.05.18.1.27.14.14.06.28.1.42.15.09.03.18.06.27.08.17.04.35.06.52.07.07,0,.13.03.2.03.02,0,.04,0,.05,0,0,0,0,0,.02,0,0,0,.01,0,.02,0,.03,0,.06,0,.09,0,.08,0,.15-.02.23-.02.16,0,.32-.02.48-.05.07-.01.14-.03.21-.05.18-.04.35-.09.52-.15.04-.02.08-.04.13-.06.19-.08.37-.17.54-.27.03-.02.05-.04.08-.05.17-.11.34-.24.49-.38.03-.03.05-.05.08-.08.14-.13.27-.28.39-.43.04-.05.07-.1.11-.14.1-.14.19-.28.27-.43.04-.08.08-.15.11-.23.06-.13.11-.27.16-.41.03-.1.06-.2.09-.31.01-.06.04-.12.05-.18,4.24-21.77,14.7-31.43,21.21-35.45ZM492.92,145.53c-2.97,0-5.39-2.42-5.39-5.39s2.42-5.39,5.39-5.39,5.39,2.42,5.39,5.39-2.42,5.39-5.39,5.39Z"/>
      </g>
    </g>
  </g>
</svg>