<?xml version="1.0" encoding="utf-8"?>
<!-- Generator: Adobe Illustrator 22.1.0, SVG Export Plug-In . SVG Version: 6.00 Build 0)  -->
<svg version="1.1" id="Layer_1" xmlns="http://www.w3.org/2000/svg" xmlns:xlink="http://www.w3.org/1999/xlink" x="0px" y="0px"
	 viewBox="0 0 495.1 168.5" style="enable-background:new 0 0 495.1 168.5;" xml:space="preserve">
<style type="text/css">
	.st0{fill:#00954D;}
	.st1{fill:#84BC41;}
	.st2{fill:#F27F1F;}
	.st3{fill:#ABDFEA;}
	.st4{fill:#FFE400;}
	.st5{fill:#F8A719;}
	.st6{fill:#231F20;}
</style>
<g>
	<g id="iconos">
		<g>
			<g>
				<path class="st0" d="M107.9,159c0,0-54-2.8-49.6-64.3c0,0,41.2,5.9,48.4,31.6L107.9,159z"/>
				<path class="st1" d="M134.4,164.9c0,0,25.1-72.7,220.9-87.9s140.6,35.5,101.6,44c-39,8.5-135,41.6-174.8,44
					C242.4,167.2,134.4,164.9,134.4,164.9L134.4,164.9z"/>
				<path class="st2" d="M138.7,4.5c0,0-65.1-8.1-72.2,46.8c-7,54.9,30.5,41.4,50.3,29.3C136.6,68.5,201.6,9.5,138.7,4.5L138.7,4.5z
					"/>
				<path class="st3" d="M226.2,90.9c0,0,21.2-8.7,30.3-16.8c23.8-21.3,10.1-31.2-2.5-32.6c-12.7-1.4-27.8,14.2-48.2,15.9
					S161,68.6,161,79S210.1,107.2,226.2,90.9L226.2,90.9z"/>
				<path class="st1" d="M60.5,163.1c0,0-6.1-85.5-39.1-109.1c0,0-14.2,60.6,13.7,110.4L60.5,163.1z"/>
				<path class="st0" d="M427.4,162.3c0,0-1.8-41.5,39-38.5C466.4,123.8,467.3,160.2,427.4,162.3z"/>
				<path class="st4" d="M297.3,31.6c0,0-10.5,29.3,18,34.4c0,0,23.9-4.7,20.6-34.6L324,37.1l-8.6-16.7l-8.6,14.1L297.3,31.6
					L297.3,31.6z"/>
				<path class="st0" d="M235.2,162.3c0,0-18.1-5-16.9-36l-1.6-12.9c0,0,21.2-3.5,25.6,24.5c0,0-1.9-23.8,26.5-28.6
					c0,0,4.2,46.9-16.6,53.1L235.2,162.3L235.2,162.3z"/>
				<path class="st4" d="M366.2,163.1c0,0-29-91.8,22.8-120.8c0,0-11.5,83.6,1.4,120L366.2,163.1z"/>
				<path class="st3" d="M173.3,163.1c0,0,8.1-63.2-37.7-70.8C135.6,92.3,125.3,147.3,173.3,163.1z"/>
				<circle class="st5" cx="456.9" cy="79" r="19"/>
			</g>
			<path class="st6" d="M287.7,98.3c0.7,1.1,1.9,1.8,3.3,1.8c0,0,0.1,0,0.1,0c1.3,0,2.5-0.6,3.3-1.7l11.1-15.6
				c1.3-1.8,0.9-4.3-1-5.6c-1.8-1.3-4.3-0.9-5.6,0.9L291.2,89l-6.8-10.6c-1.2-1.9-3.7-2.4-5.5-1.2c-1.9,1.2-2.4,3.7-1.2,5.5
				L287.7,98.3L287.7,98.3z"/>
			<path class="st6" d="M304.4,101.8c-1.8-1.3-4.3-0.9-5.6,0.9l-7.6,10.8l-6.8-10.6c-1.2-1.9-3.7-2.4-5.5-1.2
				c-1.9,1.2-2.4,3.7-1.2,5.5l10,15.6c0.7,1.1,1.9,1.8,3.3,1.8c0,0,0.1,0,0.1,0c1.3,0,2.5-0.6,3.3-1.7l11.1-15.6
				C306.6,105.6,306.2,103.1,304.4,101.8L304.4,101.8z"/>
			<path class="st6" d="M287.7,150.4c0.7,1.1,1.9,1.8,3.3,1.8c0,0,0.1,0,0.1,0c1.3,0,2.5-0.6,3.3-1.7l11.1-15.6
				c1.3-1.8,0.9-4.3-1-5.6c-1.8-1.3-4.3-0.9-5.6,0.9l-7.6,10.8l-6.8-10.6c-1.2-1.9-3.7-2.4-5.5-1.2c-1.9,1.2-2.4,3.7-1.2,5.5
				L287.7,150.4L287.7,150.4z"/>
			<path class="st6" d="M245.2,83.4c0.8-0.7,1.2-1.8,1.2-2.8s-0.4-2.1-1.2-2.8c-0.8-0.8-1.8-1.2-2.8-1.2s-2.1,0.4-2.8,1.2
				c-0.8,0.7-1.2,1.8-1.2,2.8c0,0.3,0,0.5,0.1,0.8c0,0.2,0.1,0.5,0.2,0.8s0.2,0.5,0.4,0.7c0.1,0.2,0.3,0.4,0.5,0.6
				c0.7,0.8,1.8,1.2,2.8,1.2S244.4,84.1,245.2,83.4L245.2,83.4z"/>
			<path class="st6" d="M106.2,43c0.1,0.2,0.2,0.5,0.4,0.7c0.1,0.2,0.3,0.4,0.5,0.6c0.7,0.8,1.8,1.2,2.8,1.2s2.1-0.4,2.8-1.2
				c0.2-0.2,0.4-0.4,0.5-0.6c0.1-0.2,0.3-0.4,0.4-0.7c0.1-0.2,0.2-0.5,0.2-0.7c0.1-0.3,0.1-0.5,0.1-0.8s0-0.5-0.1-0.8
				c-0.1-0.2-0.1-0.5-0.2-0.8c-0.1-0.2-0.2-0.5-0.4-0.7c-0.1-0.2-0.3-0.4-0.5-0.6c-0.8-0.8-1.8-1.2-2.8-1.2s-2.1,0.4-2.8,1.2
				c-0.2,0.2-0.4,0.4-0.5,0.6c-0.1,0.2-0.3,0.4-0.4,0.7c-0.1,0.2-0.2,0.5-0.2,0.8c-0.1,0.3-0.1,0.5-0.1,0.8s0,0.5,0.1,0.8
				C106,42.5,106.1,42.8,106.2,43z"/>
			<path class="st6" d="M106.1,53.5c0.1-0.2,0.3-0.4,0.4-0.7c0.1-0.2,0.2-0.5,0.2-0.8s0.1-0.5,0.1-0.8c0-1.1-0.4-2.1-1.2-2.8
				c-0.8-0.7-1.8-1.2-2.8-1.2s-2.1,0.4-2.8,1.2c-0.7,0.8-1.2,1.8-1.2,2.8c0,0.3,0,0.5,0.1,0.8s0.1,0.5,0.2,0.8
				c0.1,0.2,0.2,0.5,0.4,0.7c0.1,0.2,0.3,0.4,0.5,0.6c0.7,0.7,1.8,1.2,2.8,1.2s2.1-0.4,2.8-1.2C105.8,53.9,106,53.7,106.1,53.5z"/>
			<path class="st6" d="M112.9,47.9c-0.2,0.1-0.5,0.2-0.7,0.4c-0.2,0.2-0.4,0.3-0.6,0.5c-0.8,0.7-1.2,1.8-1.2,2.8
				c0,0.3,0,0.5,0.1,0.8c0.1,0.3,0.1,0.5,0.2,0.8s0.2,0.5,0.4,0.7c0.1,0.2,0.3,0.4,0.5,0.6c0.2,0.2,0.4,0.3,0.6,0.5
				c0.2,0.1,0.4,0.3,0.7,0.4c0.2,0.1,0.5,0.2,0.7,0.2c0.3,0.1,0.5,0.1,0.8,0.1s0.5,0,0.8-0.1c0.2-0.1,0.5-0.1,0.8-0.2
				c0.2-0.1,0.5-0.2,0.7-0.4c0.2-0.2,0.4-0.3,0.6-0.5s0.4-0.4,0.5-0.6c0.1-0.2,0.3-0.4,0.4-0.7c0.1-0.2,0.2-0.5,0.2-0.8
				s0.1-0.5,0.1-0.8c0-1.1-0.4-2.1-1.2-2.8c-0.2-0.2-0.4-0.3-0.6-0.5c-0.2-0.1-0.4-0.3-0.7-0.4c-0.2-0.1-0.5-0.2-0.8-0.2
				c-0.5-0.1-1.1-0.1-1.6,0C113.4,47.7,113.1,47.8,112.9,47.9L112.9,47.9z"/>
			<path class="st6" d="M457,65.6c-7.4,0-13.4,6-13.4,13.4c0,2.8,0.9,5.4,2.4,7.6c-5.8,4.3-10.6,12-14.5,23l0.1-45.6
				c5.4-1.7,9.4-6.8,9.4-12.8c0-7.4-6-13.4-13.4-13.4s-13.4,6-13.4,13.4c0,6,4,11.1,9.4,12.8l-0.1,59.2
				c-4.9-9.4-12.7-18.3-24.8-20.2c-1.1-0.2-2.3,0.1-3.2,0.9c-0.9,0.8-1.4,1.8-1.4,3c0,1.4-0.2,32.8,28.5,53.5H394
				c-13.3-47.1,3.2-121.2,3.4-122c0.4-1.7-0.4-3.5-1.9-4.3c-1.5-0.9-3.4-0.7-4.7,0.5c-18.6,16.8-23.7,49.5-24.9,71.5
				c-4.3-8.4-10.3-16.6-18.5-23.8c-1.4-1.2-3.4-1.3-4.9-0.3s-2.1,2.9-1.5,4.6c3.5,10,10.3,32.2,13.3,50.7
				c-4.8-6.5-12.1-12.4-23.2-14.9c-1.1-0.3-2.3,0-3.3,0.7c-0.9,0.7-1.5,1.8-1.6,2.9c-0.1,1-1.3,21.9,7.4,34.4h-14.8V67.9
				c5.1-0.8,9.5-3,12.9-6.7c9.7-10.6,8.3-29.3,8.2-30.1c-0.1-1.2-0.7-2.2-1.7-2.9s-2.2-0.9-3.3-0.6c-0.2,0.1-3.9,1-8.3,3.6
				c-1.9-5.4-4.7-10-8.6-13.6c-1.2-1.2-3.1-1.4-4.6-0.6c-0.7,0.3-5.7,3.3-8.9,13c-2.9-1.6-6.1-2.4-9.7-2.4c-2,0-3.7,1.5-4,3.5
				c-0.1,0.8-2.2,19.6,7.2,30.2c3.3,3.7,7.6,6,12.7,6.7v92.6h-49.2c0.1-0.1,0.3-0.3,0.4-0.4c11.8-12.8,10-35.6,9.9-36.6
				c-0.1-1.2-0.7-2.2-1.7-2.9c-1-0.7-2.2-0.9-3.3-0.6c-5.7,1.5-14.2,5.6-20.5,12.9v-22.3c6-1.7,10.4-7.3,10.4-13.8
				c0-0.6,0-1.3-0.1-1.9c0.6,0.1,1.3,0.1,1.9,0.1c7.9,0,14.4-6.4,14.4-14.4s-6.4-14.4-14.4-14.4c-0.6,0-1.3,0-1.9,0.1
				c0.1-0.6,0.1-1.3,0.1-1.9c0-7.9-6.4-14.4-14.4-14.4s-14.4,6.4-14.4,14.4c0,0.7,0,1.3,0.1,1.9c-0.6-0.1-1.3-0.1-1.9-0.1
				c-7.9,0-14.4,6.4-14.4,14.4S218.2,95,226.1,95c0.6,0,1.3,0,1.9-0.1c-0.1,0.6-0.1,1.3-0.1,1.9c0,6.5,4.4,12.1,10.4,13.8v21.7
				c-5.4-8.1-12.7-12.4-21.4-12.4c-2,0-3.7,1.5-4,3.5c-0.1,1-2.7,23.8,8.7,36.7c0.1,0.1,0.3,0.3,0.4,0.4h-41.5
				c9.2-4.7,24.6-17.7,26.2-53.2c0.1-1.3-0.5-2.5-1.5-3.3c-1-0.8-2.3-1.1-3.5-0.8c-0.8,0.2-15,4.2-24.9,22.4V89
				c4.5-0.7,8.2-2.7,11.2-6c8.7-9.5,7.4-26.2,7.4-26.9c-0.1-1.2-0.7-2.2-1.7-2.9c-1-0.7-2.2-0.9-3.3-0.6c-0.2,0.1-3.2,0.9-6.9,2.9
				c-1.7-4.7-4.2-8.6-7.5-11.7c-1.2-1.2-3.1-1.4-4.6-0.6c-0.6,0.3-5,2.9-7.9,11.2c-2.5-1.3-5.3-1.9-8.2-1.9c-2,0-3.7,1.5-4,3.5
				c-0.1,0.7-2,17.5,6.5,27c2.9,3.3,6.6,5.3,11.1,6v33.7c-4.9-9.1-12.7-17.7-24.4-19.5c-1.1-0.2-2.3,0.1-3.2,0.9
				c-0.9,0.8-1.4,1.8-1.4,3c0,1.4-0.2,32.8,28.5,53.5h-56.4V78.6c1.3,2,2.4,3.7,3.4,4.7c3,3.5,7.2,5.6,11.7,5.9
				c0.4,0,0.9,0.1,1.3,0.1c4.1,0,8-1.5,11.2-4.2c7.2-6.2,8-17,1.8-24.2c-1.3-1.5-3.6-3.6-6.2-5.8c3.3-0.8,6.2-1.7,8-2.5
				c8.7-3.8,12.6-14,8.8-22.6s-14-12.6-22.6-8.8c-0.9,0.4-1.9,0.9-3,1.6c0.3-2.1,0.4-3.8,0.4-5.2c0-9.5-7.7-17.2-17.2-17.2
				S92.1,8.2,92.1,17.7c0,1.8,0.3,4.4,0.8,7.3c-2.5-1.6-4.7-2.9-6.4-3.7c-8.7-3.8-18.8,0.1-22.6,8.8s0.1,18.8,8.8,22.6
				c1.8,0.8,4.7,1.7,8,2.5c-2.7,2.2-4.9,4.2-6.2,5.8c-6.2,7.2-5.4,18,1.8,24.2c3.5,3,7.9,4.4,12.5,4.1c4.6-0.3,8.7-2.4,11.7-5.9
				c0.9-1.1,2.1-2.7,3.4-4.8v34.3c-0.4-0.6-0.9-1.2-1.4-1.8c-6.9-8.4-20-18.8-44-20.4c-1.1-0.1-2.3,0.3-3.1,1.1s-1.2,1.9-1.2,3.1
				c0,0.4,0.6,10.7,7.4,22.9c6,10.7,18.2,24.8,42.2,32.7v10H53.3c-13.3-47.1,3.2-121.2,3.3-122c0.4-1.7-0.4-3.5-1.9-4.3
				c-1.5-0.9-3.4-0.7-4.7,0.5c-18.6,16.8-23.7,49.5-24.9,71.5c-4.3-8.4-10.3-16.6-18.5-23.8C5.3,81.1,3.3,81,1.8,82
				c-1.5,1-2.2,2.9-1.6,4.6c0,0.1,4.6,13.8,8.2,29.9c4.6,20.4,5.8,35.6,3.5,44h-1.6c-2.2,0-4,1.8-4,4s1.8,4,4,4h449.4
				c2.2,0,4-1.8,4-4s-1.8-4-4-4h-25.1c9.2-4.7,24.5-17.7,26.2-53.2c0.1-1.3-0.5-2.5-1.5-3.3c-1-0.8-2.3-1.1-3.5-0.8
				c-0.6,0.2-9.6,2.7-18.2,12.6c3.4-10.6,8.1-20.3,14.6-23.9c0.1-0.1,0.2-0.1,0.3-0.2c1.3,0.4,2.8,0.7,4.3,0.7
				c7.4,0,13.4-6,13.4-13.4S464.3,65.6,457,65.6L457,65.6z M304.1,55.8c-4.8-5.4-5.5-14.6-5.5-19.8c2,0.6,3.7,1.8,5.3,3.5
				c1,1.1,2.6,1.5,4,1.1c1.4-0.4,2.5-1.6,2.8-3.1c1.1-5.8,2.9-9.3,4.3-11.3c2.3,3,3.9,6.8,4.9,11.1v0.4c0,1.6,0.9,3,2.3,3.6
				c1.4,0.7,3.1,0.4,4.3-0.5c1.8-1.5,3.6-2.6,5.3-3.5c-0.3,5.4-1.5,13.5-6.1,18.4c-2.7,3-6.3,4.4-11,4.4S306.7,58.7,304.1,55.8
				L304.1,55.8z M163.8,77.6c-3.7-4.2-4.7-11.5-4.7-16.5c1.4,0.6,2.7,1.5,3.9,2.7c1,1.1,2.6,1.5,4,1.1s2.5-1.6,2.8-3.1
				c0.9-4.6,2.2-7.5,3.4-9.2c1.8,2.5,3.1,5.5,3.9,9v0.3c0,1.6,0.9,3,2.3,3.6c1.4,0.7,3.1,0.4,4.3-0.5c1.3-1.1,2.6-1.9,3.9-2.6
				c-0.4,4.9-1.7,11.2-5.2,15.1c-2.3,2.5-5.4,3.8-9.4,3.8S166,80.1,163.8,77.6L163.8,77.6z M148.2,112.5c16.7,7.3,21,36,21,36.3
				c0.3,1.9,1.9,3.4,3.9,3.4s3.7-1.3,4-3.2c4.2-21.8,14.7-31.4,21.2-35.4c-3.4,31.8-19.5,39.5-24.4,41.1
				C154.3,141,149.4,121.7,148.2,112.5L148.2,112.5z M94.4,78.1c-1.6,1.9-3.8,3-6.3,3.2c-2.4,0.2-4.8-0.6-6.7-2.2
				c-3.8-3.3-4.3-9.1-1-12.9c1.7-1.9,6.5-6,12.1-9.8c1.4-0.9,2-2.6,1.7-4.2C94,50.5,92.6,49.3,91,49c-6.7-1-12.7-2.7-15.1-3.7
				c-4.6-2-6.7-7.5-4.7-12.1c1.5-3.4,4.9-5.5,8.4-5.5c1.2,0,2.5,0.2,3.7,0.8c2.4,1.1,7.9,4.6,13.3,9c1.4,1.1,3.3,1.2,4.7,0.3
				s2.1-2.7,1.7-4.4c-1.9-6.7-2.9-13.1-2.9-15.8c0-5.1,4.1-9.2,9.2-9.2s9.2,4.1,9.2,9.2c0,2.1-0.7,7-2.1,12.9
				c-0.4,1.6,0.3,3.4,1.7,4.3c1.4,0.9,3.2,0.9,4.6-0.1c4.3-3.2,7.9-5.4,9.6-6.2c4.6-2,10.1,0.1,12.1,4.7s-0.1,10-4.7,12.1
				c-2.3,1-8.4,2.7-15.1,3.7c-1.6,0.2-2.9,1.5-3.3,3.1s0.3,3.3,1.7,4.2c5.6,3.8,10.4,7.9,12.1,9.8c3.3,3.8,2.9,9.6-1,12.9
				c-1.9,1.6-4.2,2.4-6.7,2.2c-2.4-0.2-4.7-1.3-6.3-3.2c-2-2.3-6.6-9.8-9.7-17.4l0,0c0,0,0-0.1-0.1-0.1c-0.1-0.2-0.2-0.4-0.3-0.5
				c0-0.1-0.1-0.1-0.1-0.2c-0.1-0.1-0.2-0.3-0.3-0.4c-0.1-0.1-0.1-0.1-0.1-0.2c-0.1-0.2-0.3-0.3-0.5-0.4c0,0,0,0-0.1,0
				c-0.2-0.1-0.4-0.2-0.6-0.3c-0.1,0-0.1-0.1-0.2-0.1c-0.2-0.1-0.3-0.1-0.5-0.2c-0.1,0-0.1,0-0.2-0.1c-0.2,0-0.5-0.1-0.7-0.1
				s-0.5,0-0.7,0.1c-0.1,0-0.1,0-0.2,0.1c-0.2,0-0.3,0.1-0.5,0.2c-0.1,0-0.1,0.1-0.2,0.1c-0.2,0.1-0.4,0.2-0.6,0.3c0,0,0,0-0.1,0
				c-0.2,0.1-0.3,0.3-0.5,0.4c-0.1,0.1-0.1,0.1-0.1,0.2c-0.1,0.1-0.2,0.3-0.3,0.4c0,0.1-0.1,0.1-0.1,0.2c-0.1,0.2-0.2,0.4-0.3,0.6
				c0,0,0,0.1,0,0.1c0,0,0,0,0,0C101,68.3,96.4,75.8,94.4,78.1L94.4,78.1z M63,99.2c33.7,4.4,40.2,28.4,40.9,31.6V142
				C73.1,130.8,65,108.8,63,99.2L63,99.2z M386.4,53.4c-4.2,24.7-9.8,71.8-0.6,107.1h-8.6c0.3-5.1,0.4-18.3-3.4-33.5
				C373.4,121,372.1,79.6,386.4,53.4L386.4,53.4z M369.1,160.5h-5.9c1.7-9.4-0.2-24.9-5.6-46c-1.1-4.3-2.2-8.4-3.3-12.1
				C369.8,125.8,369.4,153.8,369.1,160.5z M344.1,159.8c-7.7-5.1-9.7-19.2-10-28.2c16.3,6.1,20.1,22,21,28.6c0,0,0,0,0,0.1
				c0,0.1,0,0.1,0,0.2h-10.2C344.6,160.2,344.4,160,344.1,159.8L344.1,159.8z M236,96.7c0-1.4,0.4-2.7,1.2-3.8c1.2-1.7,1-4-0.6-5.4
				c-0.4-0.4-0.8-0.8-1.1-1.2c-0.8-1-2-1.5-3.1-1.5c-0.8,0-1.7,0.3-2.4,0.8c-1.1,0.8-2.4,1.3-3.8,1.3c-3.5,0-6.4-2.9-6.4-6.4
				s2.9-6.4,6.4-6.4c1.5,0,2.9,0.5,4,1.4c1.7,1.4,4.1,1.2,5.5-0.4c0.3-0.4,0.7-0.7,1.1-1.1c0.8-0.7,1.4-1.6,1.5-2.7
				c0.1-1.1-0.2-2.1-0.9-3c-1-1.2-1.5-2.6-1.5-4.1c0-3.5,2.9-6.4,6.4-6.4s6.4,2.9,6.4,6.4c0,1.5-0.5,2.9-1.5,4.1
				c-0.7,0.8-1,1.9-0.9,3c0.1,1.1,0.6,2.1,1.5,2.7c0.4,0.3,0.8,0.7,1.1,1.1c1.4,1.6,3.9,1.8,5.5,0.4c1.1-0.9,2.5-1.4,4-1.4
				c3.5,0,6.4,2.9,6.4,6.4s-2.9,6.4-6.4,6.4c-1.4,0-2.7-0.4-3.8-1.3c-1.7-1.3-4.2-1-5.5,0.7c-0.3,0.4-0.7,0.8-1.1,1.2
				c-1.6,1.4-1.8,3.7-0.6,5.4c0.8,1.1,1.2,2.4,1.2,3.8c0,3.5-2.9,6.4-6.4,6.4S236,100.3,236,96.7L236,96.7z M227.7,154.8
				c-6.6-7.4-7.2-20.1-7-26.5c14.4,3.4,17.6,26.3,17.7,26.5c0.3,2.1,2.1,3.6,4.2,3.5c2.1-0.1,3.7-1.9,3.7-4
				c0-8.4,3.7-15.4,10.9-20.7c2.3-1.7,4.7-3,6.7-3.9c-0.2,6.7-1.6,18.2-7.9,25.1c-3.6,3.9-8.3,5.8-14.3,5.8S231.1,158.6,227.7,154.8
				L227.7,154.8z M45.7,53.4c-4.2,24.7-9.8,71.8-0.7,107.1h-8.6c0.3-5.1,0.4-18.3-3.4-33.5C32.8,121,31.5,79.6,45.7,53.4L45.7,53.4z
				 M13.1,101.5c16.1,23.6,15.7,52.2,15.4,59h-8.1C23.4,144.9,17.8,118.8,13.1,101.5L13.1,101.5z M427.5,45.9c3,0,5.4,2.4,5.4,5.4
				s-2.4,5.4-5.4,5.4s-5.4-2.4-5.4-5.4S424.6,45.9,427.5,45.9z M452.5,113.5c-3.4,31.8-19.5,39.5-24.4,41.1
				c-19.6-13.7-24.5-32.9-25.7-42.2c16.7,7.3,21,36,21,36.3c0,0,0,0.1,0,0.1c0,0.1,0,0.2,0.1,0.3c0,0.1,0.1,0.3,0.1,0.4
				c0,0.1,0.1,0.2,0.1,0.3c0.1,0.1,0.1,0.2,0.2,0.4c0.1,0.1,0.1,0.2,0.2,0.3c0.1,0.1,0.2,0.2,0.2,0.3c0.1,0.1,0.1,0.1,0.2,0.2
				c0.1,0.1,0.2,0.2,0.3,0.3c0.1,0.1,0.2,0.1,0.2,0.2c0.1,0.1,0.2,0.1,0.4,0.2c0.1,0.1,0.2,0.1,0.3,0.1c0.1,0.1,0.3,0.1,0.4,0.1
				c0.1,0,0.2,0.1,0.3,0.1c0.2,0,0.4,0.1,0.5,0.1c0.1,0,0.1,0,0.2,0c0,0,0,0,0,0c0,0,0,0,0,0c0,0,0,0,0,0c0,0,0.1,0,0.1,0
				c0.1,0,0.1,0,0.2,0c0.2,0,0.3,0,0.5-0.1c0.1,0,0.1,0,0.2-0.1c0.2,0,0.4-0.1,0.5-0.1c0,0,0.1,0,0.1-0.1c0.2-0.1,0.4-0.2,0.5-0.3
				c0,0,0,0,0.1-0.1c0.2-0.1,0.3-0.2,0.5-0.4c0,0,0-0.1,0.1-0.1c0.1-0.1,0.3-0.3,0.4-0.4c0-0.1,0.1-0.1,0.1-0.1
				c0.1-0.1,0.2-0.3,0.3-0.4c0-0.1,0.1-0.1,0.1-0.2c0.1-0.1,0.1-0.3,0.2-0.4c0-0.1,0.1-0.2,0.1-0.3c0-0.1,0-0.1,0-0.2
				C435.6,127.2,446,117.6,452.5,113.5L452.5,113.5z M457,84.4c-3,0-5.4-2.4-5.4-5.4s2.4-5.4,5.4-5.4s5.4,2.4,5.4,5.4
				S460,84.4,457,84.4z"/>
		</g>
	</g>
</g>
</svg>
