<?xml version="1.0" encoding="UTF-8"?>
<svg xmlns="http://www.w3.org/2000/svg" version="1.1" viewBox="0 0 542.29 283.46">
  <defs>
    <style>
      .cls-1 {
        fill: #231f20;
      }
    </style>
  </defs>
  <!-- Generator: Adobe Illustrator 28.6.0, SVG Export Plug-In . SVG Version: 1.2.0 Build 709)  -->
  <g>
    <g id="iconos">
      <g>
        <path class="cls-1" d="M324.62,159.48c.72,1.12,1.94,1.81,3.27,1.84.03,0,.06,0,.09,0,1.29,0,2.51-.63,3.26-1.69l11.06-15.59c1.28-1.8.85-4.3-.95-5.58-1.8-1.28-4.3-.85-5.58.95l-7.63,10.75-6.79-10.6c-1.19-1.86-3.67-2.4-5.53-1.21-1.86,1.19-2.4,3.67-1.21,5.53l9.99,15.59Z"/>
        <path class="cls-1" d="M341.37,162.98c-1.8-1.28-4.3-.85-5.58.95l-7.63,10.75-6.79-10.6c-1.19-1.86-3.67-2.4-5.53-1.21-1.86,1.19-2.4,3.67-1.21,5.53l9.99,15.59c.72,1.12,1.94,1.81,3.27,1.84.03,0,.06,0,.09,0,1.29,0,2.51-.63,3.26-1.69l11.06-15.59c1.28-1.8.85-4.3-.95-5.58Z"/>
        <path class="cls-1" d="M324.62,211.59c.72,1.12,1.94,1.81,3.27,1.84.03,0,.06,0,.09,0,1.29,0,2.51-.63,3.26-1.69l11.06-15.59c1.28-1.8.85-4.3-.95-5.58-1.8-1.28-4.3-.85-5.58.95l-7.63,10.75-6.79-10.6c-1.19-1.86-3.67-2.4-5.53-1.21-1.86,1.19-2.4,3.67-1.21,5.53l9.99,15.59Z"/>
        <path class="cls-1" d="M280.8,145.42c.24-.1.48-.22.69-.37.22-.14.43-.31.61-.49s.35-.39.5-.61c.14-.22.27-.45.37-.69.1-.24.17-.5.23-.75.05-.26.07-.52.07-.78s-.02-.53-.07-.78c-.06-.26-.13-.51-.23-.75-.1-.24-.23-.48-.37-.69-.15-.22-.31-.43-.5-.61-.18-.19-.39-.35-.61-.5-.21-.14-.45-.27-.69-.37-.24-.1-.49-.17-.75-.22-1.3-.27-2.68.16-3.61,1.09-.18.18-.35.39-.49.61-.15.21-.27.45-.37.69-.1.24-.18.49-.23.75-.05.25-.08.52-.08.78s.03.52.08.78c.05.25.13.51.23.75.1.24.22.47.37.69.14.22.31.42.5.61.18.18.38.35.6.49.22.15.45.27.69.37.25.1.5.18.75.23.26.05.52.08.78.08s.53-.03.78-.08c.26-.05.51-.13.75-.23Z"/>
        <path class="cls-1" d="M148.36,106.35c.24-.1.47-.23.69-.37.22-.15.42-.31.6-.5.19-.18.36-.39.5-.61.15-.21.27-.44.37-.69.1-.24.18-.49.23-.74.05-.26.08-.53.08-.79s-.03-.52-.08-.78c-.05-.25-.13-.51-.23-.75-.1-.24-.22-.47-.37-.69-.14-.22-.31-.42-.5-.6-.18-.19-.38-.36-.6-.5-.22-.15-.45-.27-.69-.37-.25-.1-.5-.18-.75-.23-.52-.1-1.05-.1-1.57,0-.25.05-.5.13-.74.23-.25.1-.48.22-.69.37-.22.14-.43.31-.61.5-.19.18-.35.38-.5.6-.14.22-.27.45-.37.69-.1.25-.17.5-.22.75-.06.26-.08.52-.08.78s.02.53.08.79c.05.25.12.5.22.74.1.25.23.48.37.69.15.22.31.43.5.61.18.19.39.35.61.5.21.14.44.27.69.37.24.1.49.17.74.22.26.06.53.08.79.08s.52-.02.78-.08c.25-.05.51-.12.75-.22Z"/>
        <path class="cls-1" d="M138.96,108.48c-.25.05-.5.13-.75.23-.24.1-.47.22-.69.37-.22.14-.42.31-.6.49-.75.75-1.17,1.78-1.17,2.83,0,.26.02.52.07.78.06.26.13.51.23.75.1.24.23.47.37.69.15.22.31.43.5.61.74.74,1.77,1.17,2.83,1.17s2.08-.43,2.82-1.17,1.18-1.78,1.18-2.83-.43-2.08-1.18-2.83c-.92-.93-2.3-1.35-3.61-1.09Z"/>
        <path class="cls-1" d="M150.55,108.85c-.26.05-.51.12-.75.23-.24.1-.47.22-.69.36-.22.15-.42.32-.61.5-.18.19-.35.39-.49.61-.15.22-.27.45-.37.69-.1.24-.18.49-.23.75-.05.25-.08.52-.08.78,0,1.05.43,2.08,1.17,2.83.19.18.39.35.61.5.22.14.45.26.69.36.24.1.49.18.75.23.26.05.52.08.78.08s.53-.03.78-.08c.26-.05.51-.13.75-.23s.48-.22.69-.36c.22-.15.43-.32.61-.5.75-.75,1.17-1.78,1.17-2.83s-.42-2.08-1.17-2.83c-.93-.93-2.31-1.36-3.61-1.09Z"/>
        <path class="cls-1" d="M489.4,153.03c.11-.06.2-.14.3-.21,1.34.45,2.77.71,4.26.71,7.38,0,13.39-6.01,13.39-13.39s-6.01-13.39-13.39-13.39-13.39,6.01-13.39,13.39c0,2.81.88,5.42,2.36,7.58-5.77,4.33-10.65,12.04-14.55,23.04l.07-45.57c5.44-1.7,9.39-6.79,9.39-12.78,0-7.38-6.01-13.39-13.39-13.39s-13.39,6.01-13.39,13.39c0,5.99,3.95,11.07,9.38,12.78l-.1,59.22c-4.94-9.39-12.73-18.32-24.8-20.16-1.15-.18-2.3.15-3.19.9-.88.75-1.4,1.84-1.42,2.99-.02,1.37-.17,32.77,28.47,53.48h-28.5c-13.27-47.07,3.18-121.21,3.35-121.96.38-1.7-.38-3.46-1.88-4.33-1.51-.88-3.41-.68-4.7.49-18.56,16.8-23.68,49.51-24.92,71.47-4.34-8.4-10.3-16.65-18.46-23.84-1.36-1.2-3.37-1.33-4.88-.32-1.51,1.01-2.14,2.92-1.54,4.64,3.49,10.01,10.31,32.21,13.34,50.68-4.78-6.51-12.07-12.37-23.22-14.89-1.14-.26-2.34,0-3.27.7-.94.7-1.52,1.77-1.6,2.94-.07,1.04-1.31,21.87,7.42,34.43h-14.85v-92.59c5.13-.76,9.46-2.98,12.89-6.71,9.72-10.56,8.27-29.28,8.21-30.07-.1-1.18-.71-2.25-1.68-2.93-.96-.68-2.18-.9-3.33-.6-.21.05-3.89,1.04-8.27,3.56-1.87-5.46-4.74-10.03-8.56-13.63-1.25-1.18-3.1-1.43-4.62-.63-.66.35-5.67,3.28-8.92,13-2.92-1.62-6.15-2.44-9.66-2.44-2.03,0-3.73,1.51-3.97,3.53-.09.79-2.21,19.58,7.2,30.19,3.32,3.74,7.59,5.97,12.71,6.73v92.59h-49.24c.13-.13.26-.26.38-.39,11.76-12.79,10-35.59,9.92-36.55-.1-1.18-.71-2.25-1.68-2.93-.96-.68-2.18-.9-3.32-.6-5.67,1.49-14.25,5.6-20.52,12.86v-22.31c5.98-1.74,10.37-7.26,10.37-13.79,0-.65-.04-1.3-.13-1.93.64.09,1.28.13,1.93.13,7.92,0,14.37-6.44,14.37-14.37s-6.44-14.36-14.37-14.36c-.65,0-1.3.04-1.93.13.09-.64.13-1.29.13-1.94,0-7.92-6.44-14.36-14.37-14.36s-14.36,6.44-14.36,14.36c0,.65.04,1.3.13,1.94-.64-.09-1.29-.13-1.94-.13-7.92,0-14.36,6.44-14.36,14.36s6.44,14.37,14.36,14.37c.65,0,1.3-.04,1.93-.13-.09.64-.13,1.28-.13,1.93,0,6.53,4.39,12.05,10.36,13.79v21.67c-5.39-8.09-12.68-12.35-21.35-12.35-2.03,0-3.73,1.51-3.97,3.53-.12.97-2.7,23.84,8.69,36.67.13.14.26.27.39.41h-41.46c9.17-4.66,24.55-17.74,26.2-53.23.06-1.27-.49-2.5-1.48-3.3s-2.3-1.08-3.53-.76c-.78.21-14.98,4.19-24.94,22.41v-36.65c4.46-.74,8.23-2.74,11.24-6.01,8.7-9.46,7.42-26.16,7.36-26.87-.1-1.18-.71-2.25-1.68-2.93-.97-.68-2.18-.9-3.33-.6-.18.05-3.21.86-6.91,2.91-1.68-4.65-4.18-8.56-7.48-11.67-1.25-1.18-3.1-1.43-4.62-.62-.58.31-4.97,2.87-7.91,11.2-2.51-1.29-5.27-1.94-8.25-1.94-2.03,0-3.73,1.51-3.97,3.53-.08.71-1.97,17.47,6.47,26.98,2.91,3.28,6.64,5.29,11.08,6.03v33.65c-4.95-9.15-12.66-17.7-24.44-19.49-1.15-.18-2.3.15-3.19.9-.88.75-1.4,1.84-1.42,2.99-.02,1.37-.17,32.77,28.47,53.48h-56.44v-81.88c1.28,2.03,2.45,3.68,3.37,4.74,6.18,7.17,17.04,7.97,24.21,1.79,7.17-6.18,7.97-17.04,1.79-24.21-1.32-1.53-3.57-3.59-6.25-5.75,3.31-.8,6.19-1.68,8.02-2.49,4.19-1.85,7.41-5.23,9.07-9.51,1.66-4.28,1.54-8.94-.31-13.13-1.85-4.19-5.23-7.41-9.5-9.07-4.28-1.65-8.94-1.54-13.13.31-.85.37-1.87.91-3.02,1.58.29-2.06.45-3.85.45-5.19,0-9.47-7.7-17.17-17.17-17.17s-17.17,7.7-17.17,17.17c0,1.81.28,4.38.77,7.28-2.47-1.63-4.72-2.94-6.39-3.68-8.66-3.83-18.81.1-22.64,8.76-1.85,4.19-1.96,8.86-.31,13.13,1.65,4.28,4.87,7.65,9.07,9.51,1.83.81,4.71,1.69,8.02,2.49-2.68,2.16-4.93,4.22-6.25,5.75-6.18,7.17-5.38,18.03,1.79,24.21,3.24,2.79,7.23,4.16,11.2,4.16,4.82,0,9.62-2.02,13.01-5.95.92-1.06,2.09-2.71,3.37-4.74v34.28c-.44-.59-.89-1.18-1.38-1.77-6.85-8.42-20.04-18.79-43.95-20.4-1.14-.07-2.26.34-3.07,1.14s-1.25,1.91-1.19,3.05c.02.43.6,10.74,7.42,22.85,6,10.66,18.15,24.78,42.17,32.69v10.04h-50.51c-13.27-47.07,3.18-121.21,3.35-121.96.38-1.7-.38-3.46-1.88-4.33-1.51-.88-3.41-.68-4.7.49-18.56,16.8-23.68,49.51-24.92,71.46-4.34-8.4-10.3-16.65-18.46-23.84-1.36-1.19-3.35-1.33-4.85-.33-1.51,1-2.16,2.88-1.59,4.6.18.53,17.55,53.09,11.8,73.92h-1.62c-2.21,0-4,1.79-4,4s1.79,4,4,4h449.44c2.21,0,4-1.79,4-4s-1.79-4-4-4h-25.1c9.17-4.66,24.55-17.74,26.2-53.23.06-1.27-.49-2.5-1.48-3.3s-2.3-1.08-3.53-.76c-.62.16-9.56,2.67-18.19,12.63,3.36-10.65,8.14-20.34,14.65-23.93ZM493.96,134.75c2.97,0,5.39,2.42,5.39,5.39s-2.42,5.39-5.39,5.39-5.39-2.42-5.39-5.39,2.42-5.39,5.39-5.39ZM65.37,221.61h-8.12c3.1-15.54-2.57-41.64-7.24-58.98,16.07,23.58,15.7,52.25,15.37,58.98ZM81.99,221.61h-8.6c.27-5.15.42-18.3-3.44-33.51-.27-5.93-1.54-47.35,12.69-73.54-4.16,24.7-9.84,71.75-.65,107.05ZM140.79,203.1c-30.81-11.13-38.84-33.14-40.9-42.79,33.64,4.4,40.18,28.42,40.9,31.61v11.18ZM148.49,121.83s-.03-.06-.05-.09c-.08-.19-.18-.36-.29-.53-.04-.06-.08-.12-.12-.17-.1-.14-.21-.27-.32-.39-.05-.05-.09-.1-.14-.15-.15-.15-.31-.28-.49-.4-.02-.01-.03-.03-.05-.04-.19-.13-.39-.23-.6-.33-.07-.03-.13-.05-.2-.08-.16-.06-.32-.11-.49-.15-.07-.02-.14-.04-.22-.05-.24-.04-.47-.07-.72-.07s-.48.03-.72.07c-.07.01-.14.03-.22.05-.17.04-.33.09-.49.15-.07.03-.14.05-.2.08-.21.09-.41.2-.6.33-.02.01-.03.03-.05.04-.17.12-.34.26-.49.41-.05.05-.09.1-.14.15-.12.12-.23.26-.33.4-.04.06-.08.11-.12.17-.11.17-.21.36-.3.55-.01.03-.03.05-.04.07,0,0,0,0,0,.01-3.16,7.61-7.76,15.13-9.73,17.41-3.3,3.83-9.1,4.26-12.93.96s-4.26-9.1-.96-12.93c1.67-1.94,6.48-6.04,12.09-9.83,1.37-.92,2.03-2.59,1.67-4.19-.36-1.61-1.67-2.83-3.3-3.08-6.66-1.01-12.72-2.65-15.05-3.68-2.24-.99-3.96-2.79-4.84-5.08-.88-2.28-.83-4.77.17-7.01s2.79-3.96,5.08-4.84c1.07-.42,2.19-.62,3.31-.62,1.26,0,2.52.26,3.7.79,2.44,1.08,7.94,4.61,13.32,9.03,1.35,1.11,3.26,1.21,4.72.26,1.46-.95,2.14-2.74,1.67-4.42-1.86-6.69-2.86-13.13-2.86-15.79,0-5.05,4.11-9.17,9.17-9.17s9.17,4.11,9.17,9.17c0,2.07-.66,7-2.11,12.92-.4,1.64.27,3.35,1.67,4.29,1.4.93,3.25.88,4.6-.13,4.31-3.21,7.95-5.41,9.64-6.16,4.62-2.04,10.04.05,12.09,4.68h0c.99,2.24,1.05,4.73.17,7.01-.88,2.28-2.6,4.09-4.84,5.08-2.33,1.03-8.4,2.67-15.06,3.68-1.63.25-2.94,1.47-3.3,3.08s.3,3.27,1.67,4.19c5.62,3.79,10.42,7.89,12.09,9.83,3.3,3.83,2.87,9.63-.96,12.93s-9.63,2.87-12.93-.96c-1.97-2.29-6.57-9.8-9.73-17.41,0,0,0,0,0,0ZM200.72,138.76c-3.73-4.19-4.66-11.46-4.71-16.51,1.41.56,2.71,1.47,3.9,2.73,1.03,1.09,2.59,1.5,4.02,1.08s2.52-1.61,2.8-3.08c.88-4.55,2.23-7.46,3.37-9.23,1.76,2.51,3.05,5.53,3.87,9.02v.32c0,1.55.9,2.96,2.3,3.62,1.41.66,3.06.45,4.26-.54,1.28-1.06,2.62-1.92,3.85-2.6-.38,4.9-1.68,11.24-5.23,15.1-2.33,2.53-5.38,3.76-9.35,3.76s-6.89-1.2-9.09-3.67ZM185.16,173.61c16.68,7.32,20.96,36.01,21,36.32.27,1.93,1.9,3.39,3.86,3.44,1.99.05,3.66-1.32,4.03-3.23,4.24-21.77,14.7-31.43,21.21-35.45-3.42,31.82-19.46,39.5-24.4,41.12-19.61-13.66-24.49-32.93-25.7-42.2ZM272.91,157.9c0-1.36.43-2.67,1.25-3.77,1.25-1.68.99-4.03-.59-5.4-.41-.36-.8-.76-1.14-1.19-.79-.99-1.95-1.51-3.13-1.51-.83,0-1.68.26-2.39.8-1.11.83-2.43,1.27-3.8,1.27-3.51,0-6.36-2.86-6.36-6.37s2.86-6.36,6.36-6.36c1.5,0,2.9.5,4.05,1.45,1.67,1.38,4.13,1.18,5.55-.45.34-.39.71-.74,1.11-1.06.83-.67,1.37-1.65,1.47-2.72.11-1.07-.22-2.13-.91-2.96-.96-1.16-1.47-2.56-1.47-4.07,0-3.51,2.86-6.36,6.36-6.36s6.37,2.86,6.37,6.36c0,1.5-.51,2.91-1.47,4.07-.69.82-1.01,1.89-.91,2.96.11,1.07.64,2.05,1.48,2.72.4.32.77.67,1.11,1.06,1.43,1.63,3.89,1.83,5.55.45,1.15-.95,2.55-1.45,4.05-1.45,3.51,0,6.37,2.86,6.37,6.36s-2.86,6.37-6.37,6.37c-1.37,0-2.69-.44-3.8-1.27-1.73-1.3-4.18-.98-5.53.71-.34.43-.72.82-1.13,1.18-1.58,1.37-1.84,3.72-.59,5.4.82,1.11,1.25,2.41,1.25,3.78,0,3.51-2.86,6.37-6.37,6.37s-6.36-2.86-6.36-6.37ZM278.64,221.61c-6,0-10.58-1.87-14-5.71-6.56-7.38-7.16-20.06-6.98-26.47,14.36,3.44,17.62,26.28,17.66,26.53.28,2.09,2.12,3.61,4.23,3.47,2.1-.14,3.74-1.88,3.74-3.99,0-8.42,3.67-15.4,10.92-20.74,2.34-1.73,4.71-3.01,6.69-3.93-.21,6.74-1.57,18.17-7.92,25.06-3.59,3.9-8.28,5.79-14.33,5.79ZM341.01,116.99c-4.81-5.41-5.51-14.56-5.46-19.85,1.96.63,3.72,1.79,5.34,3.49,1.03,1.09,2.59,1.5,4.02,1.08s2.52-1.61,2.8-3.08c1.12-5.81,2.92-9.31,4.34-11.31,2.28,3.03,3.93,6.75,4.94,11.11v.42c0,1.55.9,2.96,2.3,3.62,1.41.66,3.06.45,4.25-.54,1.78-1.48,3.65-2.61,5.3-3.46-.29,5.39-1.55,13.46-6.13,18.43-2.75,2.97-6.34,4.42-10.99,4.42s-8.11-1.42-10.71-4.34ZM392.02,221.44c-.01.06-.01.12-.02.18h-10.23c-.22-.25-.47-.48-.76-.67-7.71-5.08-9.72-19.25-9.95-28.16,16.29,6.15,20.09,21.97,20.97,28.61,0,.02,0,.03-.01.05ZM406.02,221.61h-5.87c1.67-9.45-.21-24.9-5.59-45.98-1.09-4.27-2.23-8.38-3.32-12.13,15.48,23.4,15.12,51.46,14.78,58.11ZM422.64,221.61h-8.6c.27-5.15.42-18.3-3.44-33.51-.27-5.92-1.54-47.35,12.69-73.55-4.16,24.7-9.84,71.75-.65,107.05ZM459.07,112.41c0-2.97,2.42-5.39,5.39-5.39s5.39,2.42,5.39,5.39-2.42,5.39-5.39,5.39-5.39-2.42-5.39-5.39ZM489.45,174.68c-3.42,31.82-19.46,39.5-24.4,41.12-19.61-13.66-24.49-32.93-25.7-42.2,16.68,7.32,20.96,36.01,21,36.32,0,.04.02.07.03.11.02.11.05.22.08.34.03.13.07.26.11.38.04.1.08.2.13.31.06.12.12.24.19.36.06.09.11.18.18.27.08.11.16.22.25.32.07.08.14.15.22.23.1.1.2.18.31.27.08.06.16.13.25.19.12.08.24.14.36.21.09.05.18.1.27.14.14.06.28.1.42.15.09.03.18.06.27.08.17.04.35.06.52.07.07,0,.13.03.2.03.02,0,.04,0,.05,0,0,0,.01,0,.02,0,.04,0,.07,0,.11,0,0,0,0,0,0,0,0,0,0,0,0,0,0,0,.02,0,.02,0,.24,0,.47-.02.7-.07.09-.02.17-.05.25-.07.15-.04.3-.07.44-.13.09-.03.17-.08.26-.12.13-.06.25-.12.37-.19.08-.05.16-.11.24-.17.11-.08.22-.16.33-.25.07-.07.14-.14.21-.21.09-.1.19-.19.27-.3.06-.08.12-.16.18-.25.07-.11.15-.22.21-.34.05-.09.1-.19.14-.29.05-.12.1-.24.14-.36.04-.11.07-.21.09-.33.01-.06.04-.11.05-.17,4.24-21.77,14.7-31.43,21.21-35.45Z"/>
      </g>
    </g>
  </g>
</svg>