<?xml version="1.0" encoding="utf-8"?>
<!-- Generator: Adobe Illustrator 22.1.0, SVG Export Plug-In . SVG Version: 6.00 Build 0)  -->
<svg version="1.1" id="Layer_1" xmlns="http://www.w3.org/2000/svg" xmlns:xlink="http://www.w3.org/1999/xlink" x="0px" y="0px"
	 viewBox="0 0 470.4 168.2" style="enable-background:new 0 0 470.4 168.2;" xml:space="preserve">
<style type="text/css">
	.st0{fill:#231F20;}
</style>
<g>
	<g id="iconos">
		<g>
			<path class="st0" d="M287.6,98.1c0.7,1.1,1.9,1.8,3.3,1.8c0,0,0.1,0,0.1,0c1.3,0,2.5-0.6,3.3-1.7l11.1-15.6
				c1.3-1.8,0.9-4.3-1-5.6c-1.8-1.3-4.3-0.9-5.6,0.9l-7.6,10.8l-6.8-10.6c-1.2-1.9-3.7-2.4-5.5-1.2c-1.9,1.2-2.4,3.7-1.2,5.5
				L287.6,98.1L287.6,98.1z"/>
			<path class="st0" d="M304.4,101.6c-1.8-1.3-4.3-0.9-5.6,0.9l-7.6,10.8l-6.8-10.6c-1.2-1.9-3.7-2.4-5.5-1.2
				c-1.9,1.2-2.4,3.7-1.2,5.5l10,15.6c0.7,1.1,1.9,1.8,3.3,1.8c0,0,0.1,0,0.1,0c1.3,0,2.5-0.6,3.3-1.7l11.1-15.6
				C306.6,105.3,306.2,102.8,304.4,101.6L304.4,101.6z"/>
			<path class="st0" d="M287.6,150.2c0.7,1.1,1.9,1.8,3.3,1.8c0,0,0.1,0,0.1,0c1.3,0,2.5-0.6,3.3-1.7l11.1-15.6
				c1.3-1.8,0.9-4.3-1-5.6c-1.8-1.3-4.3-0.9-5.6,0.9l-7.6,10.8l-6.8-10.6c-1.2-1.9-3.7-2.4-5.5-1.2c-1.9,1.2-2.4,3.7-1.2,5.5
				L287.6,150.2L287.6,150.2z"/>
			<path class="st0" d="M243.8,84c0.2-0.1,0.5-0.2,0.7-0.4c0.2-0.1,0.4-0.3,0.6-0.5s0.4-0.4,0.5-0.6c0.1-0.2,0.3-0.4,0.4-0.7
				s0.2-0.5,0.2-0.8c0-0.3,0.1-0.5,0.1-0.8s0-0.5-0.1-0.8c-0.1-0.3-0.1-0.5-0.2-0.8s-0.2-0.5-0.4-0.7c-0.1-0.2-0.3-0.4-0.5-0.6
				c-0.2-0.2-0.4-0.4-0.6-0.5c-0.2-0.1-0.5-0.3-0.7-0.4c-0.2-0.1-0.5-0.2-0.8-0.2c-1.3-0.3-2.7,0.2-3.6,1.1
				c-0.2,0.2-0.4,0.4-0.5,0.6c-0.1,0.2-0.3,0.4-0.4,0.7s-0.2,0.5-0.2,0.8c0,0.2-0.1,0.5-0.1,0.8s0,0.5,0.1,0.8
				c0,0.2,0.1,0.5,0.2,0.8s0.2,0.5,0.4,0.7c0.1,0.2,0.3,0.4,0.5,0.6c0.2,0.2,0.4,0.4,0.6,0.5c0.2,0.1,0.5,0.3,0.7,0.4
				c0.2,0.1,0.5,0.2,0.8,0.2c0.3,0.1,0.5,0.1,0.8,0.1s0.5,0,0.8-0.1C243.3,84.2,243.6,84.1,243.8,84L243.8,84z"/>
			<path class="st0" d="M111.4,44.9c0.2-0.1,0.5-0.2,0.7-0.4c0.2-0.2,0.4-0.3,0.6-0.5c0.2-0.2,0.4-0.4,0.5-0.6
				c0.1-0.2,0.3-0.4,0.4-0.7c0.1-0.2,0.2-0.5,0.2-0.7c0.1-0.3,0.1-0.5,0.1-0.8s0-0.5-0.1-0.8c-0.1-0.2-0.1-0.5-0.2-0.8
				c-0.1-0.2-0.2-0.5-0.4-0.7c-0.1-0.2-0.3-0.4-0.5-0.6c-0.2-0.2-0.4-0.4-0.6-0.5c-0.2-0.2-0.4-0.3-0.7-0.4
				c-0.2-0.1-0.5-0.2-0.8-0.2c-0.5-0.1-1.1-0.1-1.6,0c-0.2,0.1-0.5,0.1-0.7,0.2c-0.2,0.1-0.5,0.2-0.7,0.4c-0.2,0.1-0.4,0.3-0.6,0.5
				c-0.2,0.2-0.4,0.4-0.5,0.6c-0.1,0.2-0.3,0.4-0.4,0.7c-0.1,0.2-0.2,0.5-0.2,0.8c-0.1,0.3-0.1,0.5-0.1,0.8s0,0.5,0.1,0.8
				c0.1,0.2,0.1,0.5,0.2,0.7c0.1,0.2,0.2,0.5,0.4,0.7c0.1,0.2,0.3,0.4,0.5,0.6c0.2,0.2,0.4,0.3,0.6,0.5c0.2,0.1,0.4,0.3,0.7,0.4
				c0.2,0.1,0.5,0.2,0.7,0.2c0.3,0.1,0.5,0.1,0.8,0.1s0.5,0,0.8-0.1C110.9,45.1,111.1,45,111.4,44.9L111.4,44.9z"/>
			<path class="st0" d="M102,47.1c-0.2,0.1-0.5,0.1-0.8,0.2c-0.2,0.1-0.5,0.2-0.7,0.4c-0.2,0.1-0.4,0.3-0.6,0.5
				c-0.8,0.8-1.2,1.8-1.2,2.8c0,0.3,0,0.5,0.1,0.8c0.1,0.3,0.1,0.5,0.2,0.8c0.1,0.2,0.2,0.5,0.4,0.7c0.1,0.2,0.3,0.4,0.5,0.6
				c0.7,0.7,1.8,1.2,2.8,1.2s2.1-0.4,2.8-1.2s1.2-1.8,1.2-2.8s-0.4-2.1-1.2-2.8C104.7,47.2,103.3,46.8,102,47.1z"/>
			<path class="st0" d="M113.6,47.4c-0.3,0.1-0.5,0.1-0.8,0.2c-0.2,0.1-0.5,0.2-0.7,0.4c-0.2,0.2-0.4,0.3-0.6,0.5
				c-0.2,0.2-0.4,0.4-0.5,0.6c-0.1,0.2-0.3,0.4-0.4,0.7c-0.1,0.2-0.2,0.5-0.2,0.8c-0.1,0.2-0.1,0.5-0.1,0.8c0,1.1,0.4,2.1,1.2,2.8
				c0.2,0.2,0.4,0.3,0.6,0.5c0.2,0.1,0.4,0.3,0.7,0.4s0.5,0.2,0.8,0.2s0.5,0.1,0.8,0.1s0.5,0,0.8-0.1c0.3-0.1,0.5-0.1,0.8-0.2
				s0.5-0.2,0.7-0.4c0.2-0.2,0.4-0.3,0.6-0.5c0.8-0.8,1.2-1.8,1.2-2.8s-0.4-2.1-1.2-2.8C116.2,47.6,114.9,47.2,113.6,47.4z"/>
			<path class="st0" d="M452.4,91.6c0.1-0.1,0.2-0.1,0.3-0.2c1.3,0.4,2.8,0.7,4.3,0.7c7.4,0,13.4-6,13.4-13.4s-6-13.4-13.4-13.4
				s-13.4,6-13.4,13.4c0,2.8,0.9,5.4,2.4,7.6c-5.8,4.3-10.6,12-14.5,23l0.1-45.6c5.4-1.7,9.4-6.8,9.4-12.8c0-7.4-6-13.4-13.4-13.4
				s-13.4,6-13.4,13.4c0,6,4,11.1,9.4,12.8l-0.1,59.2c-4.9-9.4-12.7-18.3-24.8-20.2c-1.1-0.2-2.3,0.1-3.2,0.9
				c-0.9,0.8-1.4,1.8-1.4,3c0,1.4-0.2,32.8,28.5,53.5h-28.5c-13.3-47.1,3.2-121.2,3.4-122c0.4-1.7-0.4-3.5-1.9-4.3
				c-1.5-0.9-3.4-0.7-4.7,0.5c-18.6,16.8-23.7,49.5-24.9,71.5c-4.3-8.4-10.3-16.6-18.5-23.8c-1.4-1.2-3.4-1.3-4.9-0.3
				s-2.1,2.9-1.5,4.6c3.5,10,10.3,32.2,13.3,50.7c-4.8-6.5-12.1-12.4-23.2-14.9c-1.1-0.3-2.3,0-3.3,0.7c-0.9,0.7-1.5,1.8-1.6,2.9
				c-0.1,1-1.3,21.9,7.4,34.4h-14.9V67.6c5.1-0.8,9.5-3,12.9-6.7c9.7-10.6,8.3-29.3,8.2-30.1c-0.1-1.2-0.7-2.2-1.7-2.9
				c-1-0.7-2.2-0.9-3.3-0.6c-0.2,0.1-3.9,1-8.3,3.6c-1.9-5.5-4.7-10-8.6-13.6c-1.2-1.2-3.1-1.4-4.6-0.6c-0.7,0.3-5.7,3.3-8.9,13
				c-2.9-1.6-6.1-2.4-9.7-2.4c-2,0-3.7,1.5-4,3.5c-0.1,0.8-2.2,19.6,7.2,30.2c3.3,3.7,7.6,6,12.7,6.7v92.6h-49.2
				c0.1-0.1,0.3-0.3,0.4-0.4c11.8-12.8,10-35.6,9.9-36.6c-0.1-1.2-0.7-2.2-1.7-2.9c-1-0.7-2.2-0.9-3.3-0.6
				c-5.7,1.5-14.2,5.6-20.5,12.9v-22.3c6-1.7,10.4-7.3,10.4-13.8c0-0.6,0-1.3-0.1-1.9c0.6,0.1,1.3,0.1,1.9,0.1
				c7.9,0,14.4-6.4,14.4-14.4S266.3,66,258.4,66c-0.6,0-1.3,0-1.9,0.1c0.1-0.6,0.1-1.3,0.1-1.9c0-7.9-6.4-14.4-14.4-14.4
				s-14.4,6.4-14.4,14.4c0,0.7,0,1.3,0.1,1.9c-0.6-0.1-1.3-0.1-1.9-0.1c-7.9,0-14.4,6.4-14.4,14.4s6.4,14.4,14.4,14.4
				c0.6,0,1.3,0,1.9-0.1c-0.1,0.6-0.1,1.3-0.1,1.9c0,6.5,4.4,12.1,10.4,13.8V132c-5.4-8.1-12.7-12.4-21.4-12.4c-2,0-3.7,1.5-4,3.5
				c-0.1,1-2.7,23.8,8.7,36.7c0.1,0.1,0.3,0.3,0.4,0.4h-41.5c9.2-4.7,24.6-17.7,26.2-53.2c0.1-1.3-0.5-2.5-1.5-3.3s-2.3-1.1-3.5-0.8
				c-0.8,0.2-15,4.2-24.9,22.4V88.7c4.5-0.7,8.2-2.7,11.2-6c8.7-9.5,7.4-26.2,7.4-26.9c-0.1-1.2-0.7-2.2-1.7-2.9
				c-1-0.7-2.2-0.9-3.3-0.6c-0.2,0.1-3.2,0.9-6.9,2.9c-1.7-4.7-4.2-8.6-7.5-11.7c-1.2-1.2-3.1-1.4-4.6-0.6c-0.6,0.3-5,2.9-7.9,11.2
				c-2.5-1.3-5.3-1.9-8.2-1.9c-2,0-3.7,1.5-4,3.5c-0.1,0.7-2,17.5,6.5,27c2.9,3.3,6.6,5.3,11.1,6v33.7c-4.9-9.1-12.7-17.7-24.4-19.5
				c-1.1-0.2-2.3,0.1-3.2,0.9c-0.9,0.8-1.4,1.8-1.4,3c0,1.4-0.2,32.8,28.5,53.5h-56.4V78.4c1.3,2,2.4,3.7,3.4,4.7
				c6.2,7.2,17,8,24.2,1.8c7.2-6.2,8-17,1.8-24.2c-1.3-1.5-3.6-3.6-6.2-5.8c3.3-0.8,6.2-1.7,8-2.5c4.2-1.8,7.4-5.2,9.1-9.5
				s1.5-8.9-0.3-13.1c-1.9-4.2-5.2-7.4-9.5-9.1c-4.3-1.7-8.9-1.5-13.1,0.3c-0.9,0.4-1.9,0.9-3,1.6c0.3-2.1,0.4-3.8,0.4-5.2
				c0-9.5-7.7-17.2-17.2-17.2S92.1,8,92.1,17.4c0,1.8,0.3,4.4,0.8,7.3c-2.5-1.6-4.7-2.9-6.4-3.7c-8.7-3.8-18.8,0.1-22.6,8.8
				c-1.8,4.2-2,8.9-0.3,13.1c1.7,4.3,4.9,7.7,9.1,9.5c1.8,0.8,4.7,1.7,8,2.5c-2.7,2.2-4.9,4.2-6.2,5.8c-6.2,7.2-5.4,18,1.8,24.2
				c3.2,2.8,7.2,4.2,11.2,4.2c4.8,0,9.6-2,13-5.9c0.9-1.1,2.1-2.7,3.4-4.7v34.3c-0.4-0.6-0.9-1.2-1.4-1.8
				c-6.9-8.4-20-18.8-43.9-20.4c-1.1-0.1-2.3,0.3-3.1,1.1s-1.2,1.9-1.2,3.1c0,0.4,0.6,10.7,7.4,22.9c6,10.7,18.2,24.8,42.2,32.7v10
				H53.3C40,113.2,56.4,39,56.6,38.3c0.4-1.7-0.4-3.5-1.9-4.3c-1.5-0.9-3.4-0.7-4.7,0.5c-18.6,16.8-23.7,49.5-24.9,71.5
				C20.8,97.5,14.8,89.2,6.6,82c-1.4-1.2-3.3-1.3-4.8-0.3c-1.5,1-2.2,2.9-1.6,4.6c0.2,0.5,17.5,53.1,11.8,73.9h-1.6
				c-2.2,0-4,1.8-4,4s1.8,4,4,4h449.4c2.2,0,4-1.8,4-4s-1.8-4-4-4h-25.1c9.2-4.7,24.5-17.7,26.2-53.2c0.1-1.3-0.5-2.5-1.5-3.3
				s-2.3-1.1-3.5-0.8c-0.6,0.2-9.6,2.7-18.2,12.6C441.1,104.9,445.9,95.2,452.4,91.6L452.4,91.6z M457,73.3c3,0,5.4,2.4,5.4,5.4
				s-2.4,5.4-5.4,5.4s-5.4-2.4-5.4-5.4S454,73.3,457,73.3z M28.4,160.2h-8.1c3.1-15.5-2.6-41.6-7.2-59
				C29.1,124.8,28.7,153.5,28.4,160.2L28.4,160.2z M45,160.2h-8.6c0.3-5.1,0.4-18.3-3.4-33.5c-0.3-5.9-1.5-47.4,12.7-73.5
				C41.5,77.8,35.8,124.9,45,160.2L45,160.2z M103.8,141.7C73,130.6,65,108.5,62.9,98.9c33.6,4.4,40.2,28.4,40.9,31.6V141.7z
				 M111.5,60.4C111.5,60.4,111.5,60.4,111.5,60.4c-0.1-0.3-0.2-0.4-0.3-0.6c0-0.1-0.1-0.1-0.1-0.2c-0.1-0.1-0.2-0.3-0.3-0.4
				c-0.1-0.1-0.1-0.1-0.1-0.2c-0.1-0.2-0.3-0.3-0.5-0.4c0,0,0,0-0.1,0c-0.2-0.1-0.4-0.2-0.6-0.3c-0.1,0-0.1-0.1-0.2-0.1
				c-0.2-0.1-0.3-0.1-0.5-0.2c-0.1,0-0.1,0-0.2-0.1c-0.2,0-0.5-0.1-0.7-0.1s-0.5,0-0.7,0.1c-0.1,0-0.1,0-0.2,0.1
				c-0.2,0-0.3,0.1-0.5,0.2c-0.1,0-0.1,0.1-0.2,0.1c-0.2,0.1-0.4,0.2-0.6,0.3c0,0,0,0-0.1,0c-0.2,0.1-0.3,0.3-0.5,0.4
				c-0.1,0.1-0.1,0.1-0.1,0.2c-0.1,0.1-0.2,0.3-0.3,0.4c0,0.1-0.1,0.1-0.1,0.2c-0.1,0.2-0.2,0.4-0.3,0.6c0,0,0,0.1,0,0.1
				c0,0,0,0,0,0c-3.2,7.6-7.8,15.1-9.7,17.4c-3.3,3.8-9.1,4.3-12.9,1s-4.3-9.1-1-12.9c1.7-1.9,6.5-6,12.1-9.8c1.4-0.9,2-2.6,1.7-4.2
				c-0.4-1.6-1.7-2.8-3.3-3.1c-6.7-1-12.7-2.7-15.1-3.7c-2.2-1-4-2.8-4.8-5.1c-0.9-2.3-0.8-4.8,0.2-7s2.8-4,5.1-4.8
				c1.1-0.4,2.2-0.6,3.3-0.6c1.3,0,2.5,0.3,3.7,0.8c2.4,1.1,7.9,4.6,13.3,9c1.4,1.1,3.3,1.2,4.7,0.3s2.1-2.7,1.7-4.4
				c-1.9-6.7-2.9-13.1-2.9-15.8c0-5.1,4.1-9.2,9.2-9.2s9.2,4.1,9.2,9.2c0,2.1-0.7,7-2.1,12.9c-0.4,1.6,0.3,3.3,1.7,4.3
				c1.4,0.9,3.2,0.9,4.6-0.1c4.3-3.2,7.9-5.4,9.6-6.2c4.6-2,10,0.1,12.1,4.7l0,0c1,2.2,1.1,4.7,0.2,7s-2.6,4.1-4.8,5.1
				c-2.3,1-8.4,2.7-15.1,3.7c-1.6,0.2-2.9,1.5-3.3,3.1s0.3,3.3,1.7,4.2c5.6,3.8,10.4,7.9,12.1,9.8c3.3,3.8,2.9,9.6-1,12.9
				s-9.6,2.9-12.9-1C119.3,75.6,114.7,68.1,111.5,60.4L111.5,60.4L111.5,60.4z M163.7,77.3c-3.7-4.2-4.7-11.5-4.7-16.5
				c1.4,0.6,2.7,1.5,3.9,2.7c1,1.1,2.6,1.5,4,1.1s2.5-1.6,2.8-3.1c0.9-4.6,2.2-7.5,3.4-9.2c1.8,2.5,3.1,5.5,3.9,9v0.3
				c0,1.6,0.9,3,2.3,3.6c1.4,0.7,3.1,0.4,4.3-0.5c1.3-1.1,2.6-1.9,3.9-2.6c-0.4,4.9-1.7,11.2-5.2,15.1c-2.3,2.5-5.4,3.8-9.4,3.8
				S165.9,79.8,163.7,77.3L163.7,77.3z M148.2,112.2c16.7,7.3,21,36,21,36.3c0.3,1.9,1.9,3.4,3.9,3.4c2,0.1,3.7-1.3,4-3.2
				c4.2-21.8,14.7-31.4,21.2-35.4c-3.4,31.8-19.5,39.5-24.4,41.1C154.3,140.7,149.4,121.5,148.2,112.2L148.2,112.2z M235.9,96.5
				c0-1.4,0.4-2.7,1.2-3.8c1.2-1.7,1-4-0.6-5.4c-0.4-0.4-0.8-0.8-1.1-1.2c-0.8-1-2-1.5-3.1-1.5c-0.8,0-1.7,0.3-2.4,0.8
				c-1.1,0.8-2.4,1.3-3.8,1.3c-3.5,0-6.4-2.9-6.4-6.4s2.9-6.4,6.4-6.4c1.5,0,2.9,0.5,4,1.4c1.7,1.4,4.1,1.2,5.5-0.4
				c0.3-0.4,0.7-0.7,1.1-1.1c0.8-0.7,1.4-1.6,1.5-2.7c0.1-1.1-0.2-2.1-0.9-3c-1-1.2-1.5-2.6-1.5-4.1c0-3.5,2.9-6.4,6.4-6.4
				s6.4,2.9,6.4,6.4c0,1.5-0.5,2.9-1.5,4.1c-0.7,0.8-1,1.9-0.9,3c0.1,1.1,0.6,2.1,1.5,2.7c0.4,0.3,0.8,0.7,1.1,1.1
				c1.4,1.6,3.9,1.8,5.5,0.4c1.1-0.9,2.5-1.4,4-1.4c3.5,0,6.4,2.9,6.4,6.4s-2.9,6.4-6.4,6.4c-1.4,0-2.7-0.4-3.8-1.3
				c-1.7-1.3-4.2-1-5.5,0.7c-0.3,0.4-0.7,0.8-1.1,1.2c-1.6,1.4-1.8,3.7-0.6,5.4c0.8,1.1,1.2,2.4,1.2,3.8c0,3.5-2.9,6.4-6.4,6.4
				S235.9,100,235.9,96.5L235.9,96.5z M241.7,160.2c-6,0-10.6-1.9-14-5.7c-6.6-7.4-7.2-20.1-7-26.5c14.4,3.4,17.6,26.3,17.7,26.5
				c0.3,2.1,2.1,3.6,4.2,3.5c2.1-0.1,3.7-1.9,3.7-4c0-8.4,3.7-15.4,10.9-20.7c2.3-1.7,4.7-3,6.7-3.9c-0.2,6.7-1.6,18.2-7.9,25.1
				C252.4,158.3,247.7,160.2,241.7,160.2L241.7,160.2z M304,55.6c-4.8-5.4-5.5-14.6-5.5-19.8c2,0.6,3.7,1.8,5.3,3.5
				c1,1.1,2.6,1.5,4,1.1s2.5-1.6,2.8-3.1c1.1-5.8,2.9-9.3,4.3-11.3c2.3,3,3.9,6.7,4.9,11.1v0.4c0,1.6,0.9,3,2.3,3.6
				c1.4,0.7,3.1,0.4,4.2-0.5c1.8-1.5,3.6-2.6,5.3-3.5c-0.3,5.4-1.5,13.5-6.1,18.4c-2.8,3-6.3,4.4-11,4.4S306.6,58.5,304,55.6
				L304,55.6z M355,160c0,0.1,0,0.1,0,0.2h-10.2c-0.2-0.2-0.5-0.5-0.8-0.7c-7.7-5.1-9.7-19.2-10-28.2
				C350.4,137.5,354.2,153.3,355,160C355,160,355,160,355,160L355,160z M369,160.2h-5.9c1.7-9.4-0.2-24.9-5.6-46
				c-1.1-4.3-2.2-8.4-3.3-12.1C369.7,125.5,369.4,153.5,369,160.2z M385.7,160.2h-8.6c0.3-5.1,0.4-18.3-3.4-33.5
				c-0.3-5.9-1.5-47.4,12.7-73.6C382.1,77.8,376.5,124.9,385.7,160.2L385.7,160.2z M422.1,51c0-3,2.4-5.4,5.4-5.4s5.4,2.4,5.4,5.4
				s-2.4,5.4-5.4,5.4S422.1,54,422.1,51z M452.5,113.3c-3.4,31.8-19.5,39.5-24.4,41.1c-19.6-13.7-24.5-32.9-25.7-42.2
				c16.7,7.3,21,36,21,36.3c0,0,0,0.1,0,0.1c0,0.1,0,0.2,0.1,0.3c0,0.1,0.1,0.3,0.1,0.4c0,0.1,0.1,0.2,0.1,0.3
				c0.1,0.1,0.1,0.2,0.2,0.4c0.1,0.1,0.1,0.2,0.2,0.3c0.1,0.1,0.2,0.2,0.2,0.3c0.1,0.1,0.1,0.1,0.2,0.2c0.1,0.1,0.2,0.2,0.3,0.3
				c0.1,0.1,0.2,0.1,0.2,0.2c0.1,0.1,0.2,0.1,0.4,0.2c0.1,0.1,0.2,0.1,0.3,0.1c0.1,0.1,0.3,0.1,0.4,0.1c0.1,0,0.2,0.1,0.3,0.1
				c0.2,0,0.4,0.1,0.5,0.1c0.1,0,0.1,0,0.2,0c0,0,0,0,0,0c0,0,0,0,0,0c0,0,0.1,0,0.1,0l0,0l0,0h0c0.2,0,0.5,0,0.7-0.1
				c0.1,0,0.2-0.1,0.2-0.1c0.1,0,0.3-0.1,0.4-0.1c0.1,0,0.2-0.1,0.3-0.1c0.1-0.1,0.2-0.1,0.4-0.2c0.1-0.1,0.2-0.1,0.2-0.2
				c0.1-0.1,0.2-0.2,0.3-0.2c0.1-0.1,0.1-0.1,0.2-0.2c0.1-0.1,0.2-0.2,0.3-0.3c0.1-0.1,0.1-0.2,0.2-0.2c0.1-0.1,0.1-0.2,0.2-0.3
				c0-0.1,0.1-0.2,0.1-0.3c0-0.1,0.1-0.2,0.1-0.4c0-0.1,0.1-0.2,0.1-0.3c0-0.1,0-0.1,0-0.2C435.5,126.9,445.9,117.3,452.5,113.3
				L452.5,113.3z"/>
		</g>
	</g>
</g>
</svg>
