<?xml version="1.0" encoding="UTF-8"?>
<svg xmlns="http://www.w3.org/2000/svg" version="1.1" viewBox="0 0 542.29 283.46">
  <defs>
    <style>
      .cls-1 {
        fill: #231f20;
      }

      .cls-2 {
        fill: #abdfea;
      }

      .cls-3 {
        fill: #84bc41;
      }

      .cls-4 {
        fill: #006632;
      }

      .cls-5 {
        fill: #00954d;
      }
    </style>
  </defs>
  <!-- Generator: Adobe Illustrator 28.6.0, SVG Export Plug-In . SVG Version: 1.2.0 Build 709)  -->
  <g>
    <g id="iconos">
      <g>
        <g>
          <path class="cls-2" d="M100.22,241.94c43.86,1.48,87.72,2.96,131.58,4.44,5.18.17,10.87.18,14.86-3.13,2.94-2.44,4.34-6.22,6.29-9.51,6.28-10.61,18.65-16.33,30.86-18,12.21-1.67,24.59.06,36.88.98,29.39,2.19,59.13-.38,87.71-7.58,7.34-1.85,15.11-4.34,19.67-10.37,3.26-4.31,4.39-9.83,5-15.2,1.84-16.3-.57-33.35-8.61-47.64-11.87-21.1-34.63-34.07-57.95-40.57-43.46-12.1-92.06-4.21-129.45,21.03-26.03,17.57-46.7,42.91-74.78,56.97-20.66,10.35-44.03,13.9-65.57,22.29-21.53,8.39-42.7,23.9-47.51,46.5"/>
          <circle class="cls-3" cx="341.84" cy="143.28" r="59.04"/>
          <polygon class="cls-5" points="425.64 96.8 390.75 224.61 460.53 224.61 425.64 96.8"/>
          <path class="cls-5" d="M37.47,242s-10.13-21.32,16.56-32.61c0,0,60.33-11.44,76.6,13.3l-45.52,19.3h-47.64Z"/>
          <path class="cls-4" d="M271.15,240.21s96.85-72.1,205.62,1.79l-205.62-1.79Z"/>
        </g>
        <path class="cls-1" d="M486.91,238h-45.2v-33.59l15.53,22.46c.78,1.12,2.02,1.73,3.29,1.73.78,0,1.58-.23,2.27-.71,1.82-1.26,2.27-3.75,1.02-5.56l-22.32-32.29c-.24-.75-.7-1.39-1.3-1.88l-11.27-16.31c-.75-1.08-1.98-1.73-3.29-1.73s-2.54.65-3.29,1.73l-34.89,50.48c-1.26,1.82-.8,4.31,1.02,5.56,1.82,1.26,4.31.8,5.56-1.02l16.54-23.93v35.05h-47.64v-45.56c.4-.06.79-.16,1.18-.34,15.88-7.75,26.46-22.85,28.3-40.4,1.42-13.51-2.5-26.76-11.05-37.32-8.55-10.56-20.69-17.15-34.2-18.57-13.51-1.42-26.76,2.5-37.32,11.05-10.56,8.55-17.15,20.69-18.57,34.2-.56,5.32-.28,10.6.78,15.69l-65.72,10.71c-.26.04-1.75.26-3.92.75-.17-.33-.38-.65-.65-.94l-51.42-53.09s-.07-.07-.1-.1c-.35-.34-8.78-8.31-19.36-6.78-7.07,1.02-13.14,5.88-18.04,14.46-4.88,8.53-9.86,17.96-14.24,26.53l-18.89-17.12c-.19-.17-.39-.32-.61-.45-6.03-3.68-19.73-7.32-28.4,5.16-8.71,12.55-36.26,52.74-36.54,53.14-1.25,1.82-.78,4.31,1.04,5.56.69.47,1.48.7,2.26.7,1.28,0,2.53-.61,3.3-1.74.28-.4,27.81-40.57,36.51-53.1,2.73-3.93,6.27-5.61,10.82-5.1,3.12.34,5.74,1.62,6.57,2.07l20.18,18.29c-5.8,11.57-9.85,20.19-9.93,20.35-.94,2-.08,4.38,1.92,5.32.55.26,1.13.38,1.7.38,1.5,0,2.94-.85,3.62-2.3.14-.3,14.32-30.42,27.62-53.71,3.6-6.3,7.7-9.83,12.19-10.5,6.44-.95,12.21,4.16,12.69,4.59l49.27,50.86c-8.85,3.25-19.12,9.42-18.76,20.53.44,13.57,17.42,14.4,29.83,15.02,3.71.18,8.71.43,10.34,1.08.33.74.13,1.05.06,1.17-.37.6-4.5,5.82-34.38,3.7-19.33-1.37-35.5-.75-48.97,1.02.04-.43.02-.87-.09-1.31-1.3-5.24-4.24-8.18-9.53-9.55-3.67-.95-7.6-.42-10.91,1.33-4.13-4.81-10.79-7.39-17.11-6.23-5.86,1.07-10.86,5.26-13.27,10.62-3.72-2.09-7.96-3.69-12.06-2.5-4.53,1.31-7.58,3.55-9.49,6.16-1.01-.8-2.13-1.47-3.34-1.97-6.07-2.53-14.46-.15-17.95,5.09-.89,1.33-1.41,2.71-1.67,4.06-.82-.04-1.68-.01-2.56.08-4.88.52-8.84,2.85-10.6,6.23-2.09,4-1.9,8.85.07,12.81h-6.06c-2.21,0-4,1.79-4,4s1.79,4,4,4h449.44c2.21,0,4-1.79,4-4s-1.79-4-4-4ZM418.58,191.38l7.06-10.22,8.07,11.68v45.16h-15.14v-46.62ZM299.23,141.89c1.2-11.38,6.76-21.62,15.65-28.82s20.07-10.51,31.44-9.31c11.38,1.2,21.62,6.76,28.82,15.65,7.2,8.89,10.51,20.06,9.31,31.44-1.46,13.91-9.44,26-21.52,32.82v-9.73c0-.38-.05-.75-.16-1.11l-3.95-13.64,17.85-18.24c1.54-1.58,1.52-4.11-.06-5.66-1.58-1.54-4.11-1.52-5.66.06l-14.68,15.01-2.69-9.3c-.61-2.12-2.83-3.35-4.95-2.73-2.12.61-3.34,2.83-2.73,4.95l9.04,31.22v63.5h-12.25v-65.46c0-1.26-.59-2.44-1.6-3.2l-11.48-8.61,5.88-25.71c.49-2.15-.85-4.3-3.01-4.79-2.15-.49-4.3.85-4.79,3.01l-5.09,22.24-8.63-6.47c-1.77-1.32-4.27-.96-5.6.8-1.33,1.77-.97,4.28.8,5.6l13.61,10.21s0,0,0,0l11.89,8.92v14.07c-10.3-1.73-19.51-7.08-26.14-15.28-7.2-8.89-10.51-20.06-9.31-31.44ZM317.41,200.34c-2.21,0-4,1.79-4,4v33.66h-3.09l-6.8-22.97c-.63-2.12-2.85-3.33-4.97-2.7-2.12.63-3.33,2.85-2.7,4.97l6.13,20.7h-71.6c5.31-1.73,12.28-3.4,17.31-4.61,12.51-3,25.45-6.1,33.34-11.04,8.03-5.02,11.56-12.33,9.43-19.55-2.14-7.28-9.44-12.56-18.39-13.64l33.6-7.06c7.81,7.93,17.91,13.02,29.02,14.59v41.3h-13.28v-33.66c0-2.21-1.79-4-4-4ZM200.45,220.16c24.27,1.71,37.53-.66,41.75-7.47,1.83-2.96,1.76-6.56-.2-9.87-2.28-3.86-7.98-4.14-16.62-4.57-11.61-.57-22.04-1.56-22.22-7.29-.38-11.68,24.06-15.54,24.38-15.59l66.77-10.88c1.43,3.73,3.3,7.31,5.61,10.66l-43.54,9.14c-.69.15-1.33.47-1.85.94-1.52,1.37-2.92,3.95-1.84,6.7,1.45,3.71,5.98,5.17,15.66,5.04,7.86-.15,13.21,3.99,14.41,8.1,1.08,3.68-1.05,7.42-6,10.51-6.79,4.24-19.63,7.32-30.97,10.04-15.34,3.68-26.94,6.46-30.09,12.39h-111.24c11.6-8.44,39.39-21.85,95.96-17.85ZM52.77,236.79c-2.48-1.49-3.56-5.32-2.22-7.89.31-.58,1.48-1.4,3.32-1.8,2.16-.47,3.84-.1,4.15.13,1.29,1.55,3.54,1.89,5.23.81,1.7-1.09,2.32-3.27,1.45-5.09,0-.02-.85-2.03.24-3.67,1.35-2.03,5.73-3.17,8.21-2.14,1.89.79,3.39,2.66,3.82,4.68.04.32.08.63.14.94.38,2.11,2.38,3.55,4.48,3.25,2.12-.29,3.64-2.21,3.43-4.35-.03-.36-.08-.71-.14-1.06-.3-3.47,1.95-6.06,6.4-7.35,2.39-.69,7.42,2.64,10.11,4.43,1.19.79,2.71.89,3.99.25,1.28-.63,2.12-1.91,2.21-3.33.28-4.41,3.9-8.49,8.24-9.28,4.35-.8,9.18,1.73,11,5.76.55,1.22,1.68,2.08,3,2.3,1.32.21,2.66-.25,3.57-1.23,1.7-1.83,4.58-2.68,7-2.05,2.47.64,3.17,1.33,3.76,3.73.05.2.13.38.2.56-33.25,5.89-47.74,18.95-51.99,23.63h-38.36c-.32-.48-.73-.9-1.26-1.22Z"/>
        <path class="cls-1" d="M406.78,131.12l18.86-27.29,18.86,27.29c.78,1.12,2.03,1.73,3.29,1.73.78,0,1.58-.23,2.27-.71,1.82-1.26,2.27-3.75,1.02-5.57l-22.15-32.05c-.75-1.08-1.98-1.73-3.29-1.73s-2.54.65-3.29,1.73l-22.15,32.05c-1.26,1.82-.8,4.31,1.02,5.57,1.82,1.25,4.31.8,5.57-1.02Z"/>
        <path class="cls-1" d="M425.64,143.3c-1.31,0-2.54.65-3.29,1.73l-31.45,45.5c-1.26,1.82-.8,4.31,1.02,5.56,1.82,1.26,4.31.8,5.56-1.02l28.16-40.74,28.16,40.74c.78,1.12,2.02,1.73,3.29,1.73.78,0,1.58-.23,2.27-.71,1.82-1.26,2.27-3.75,1.02-5.56l-31.45-45.5c-.75-1.08-1.98-1.73-3.29-1.73Z"/>
        <path class="cls-1" d="M391.92,169.32c1.82,1.26,4.31.8,5.56-1.02l28.16-40.74,28.16,40.74c.78,1.12,2.02,1.73,3.29,1.73.78,0,1.58-.23,2.27-.71,1.82-1.26,2.27-3.75,1.02-5.56l-31.45-45.5c-.75-1.08-1.98-1.73-3.29-1.73s-2.54.65-3.29,1.73l-31.45,45.5c-1.26,1.82-.8,4.31,1.02,5.56Z"/>
      </g>
    </g>
  </g>
</svg>