<?xml version="1.0" encoding="utf-8"?>
<!-- Generator: Adobe Illustrator 22.1.0, SVG Export Plug-In . SVG Version: 6.00 Build 0)  -->
<svg version="1.1" id="Layer_1" xmlns="http://www.w3.org/2000/svg" xmlns:xlink="http://www.w3.org/1999/xlink" x="0px" y="0px"
	 viewBox="0 0 457.4 153.3" style="enable-background:new 0 0 457.4 153.3;" xml:space="preserve">
<style type="text/css">
	.st0{fill:#231F20;}
</style>
<g>
	<g id="iconos">
		<g>
			<path class="st0" d="M453.4,145.2h-45.2v-33.6l15.5,22.5c0.8,1.1,2,1.7,3.3,1.7c0.8,0,1.6-0.2,2.3-0.7c1.8-1.3,2.3-3.8,1-5.6
				L408,97.2c-0.2-0.8-0.7-1.4-1.3-1.9l-11.3-16.3c-0.8-1.1-2-1.7-3.3-1.7s-2.5,0.6-3.3,1.7L354,129.5c-1.3,1.8-0.8,4.3,1,5.6
				c1.8,1.3,4.3,0.8,5.6-1l16.5-23.9v35h-47.6V99.7c0.4-0.1,0.8-0.2,1.2-0.3c15.9-7.8,26.5-22.9,28.3-40.4
				c1.4-13.5-2.5-26.8-11-37.3S327.2,4.4,313.7,3c-27.9-2.9-53,17.4-55.9,45.2c-0.6,5.3-0.3,10.6,0.8,15.7l-65.7,10.7
				c-0.3,0-1.8,0.3-3.9,0.8c-0.2-0.3-0.4-0.6-0.6-0.9l-51.4-53.1c0,0-0.1-0.1-0.1-0.1c-0.4-0.3-8.8-8.3-19.4-6.8
				c-7.1,1-13.1,5.9-18,14.5c-4.9,8.5-9.9,18-14.2,26.5L66.3,38.4c-0.2-0.2-0.4-0.3-0.6-0.4c-6-3.7-19.7-7.3-28.4,5.2
				C28.5,55.6,1,95.8,0.7,96.2c-1.2,1.8-0.8,4.3,1,5.6c0.7,0.5,1.5,0.7,2.3,0.7c1.3,0,2.5-0.6,3.3-1.7c0.3-0.4,27.8-40.6,36.5-53.1
				c2.7-3.9,6.3-5.6,10.8-5.1c3.1,0.3,5.7,1.6,6.6,2.1l20.2,18.3c-5.8,11.6-9.8,20.2-9.9,20.4c-0.9,2-0.1,4.4,1.9,5.3
				c0.6,0.3,1.1,0.4,1.7,0.4c1.5,0,2.9-0.9,3.6-2.3C78.8,86.4,93,56.2,106.3,33c3.6-6.3,7.7-9.8,12.2-10.5
				c6.4-0.9,12.2,4.2,12.7,4.6l49.3,50.9c-8.9,3.2-19.1,9.4-18.8,20.5c0.4,13.6,17.4,14.4,29.8,15c3.7,0.2,8.7,0.4,10.3,1.1
				c0.3,0.7,0.1,1.1,0.1,1.2c-0.4,0.6-4.5,5.8-34.4,3.7c-19.3-1.4-35.5-0.8-49,1c0-0.4,0-0.9-0.1-1.3c-1.3-5.2-4.2-8.2-9.5-9.6
				c-3.7-0.9-7.6-0.4-10.9,1.3c-4.1-4.8-10.8-7.4-17.1-6.2c-5.9,1.1-10.9,5.3-13.3,10.6c-3.7-2.1-7.9-3.7-12.1-2.5
				c-4.5,1.3-7.6,3.6-9.5,6.2c-1-0.8-2.1-1.5-3.3-2c-6.1-2.5-14.5-0.1-18,5.1c-0.9,1.3-1.4,2.7-1.7,4.1c-0.8,0-1.7,0-2.6,0.1
				c-4.9,0.5-8.8,2.9-10.6,6.2c-2.1,4-1.9,8.9,0.1,12.8H4c-2.2,0-4,1.8-4,4c0,2.2,1.8,4,4,4h449.4c2.2,0,4-1.8,4-4
				C457.4,147,455.7,145.3,453.4,145.2L453.4,145.2z M58.9,145.2H20.6c-0.3-0.5-0.7-0.9-1.3-1.2c-2.5-1.5-3.6-5.3-2.2-7.9
				c0.3-0.6,1.5-1.4,3.3-1.8c2.2-0.5,3.8-0.1,4.2,0.1c1.3,1.5,3.5,1.9,5.2,0.8s2.3-3.2,1.5-5.1c0-0.1-0.9-2.1,0.2-3.7
				c1.4-2,5.7-3.2,8.2-2.1c1.9,0.8,3.4,2.7,3.8,4.7c0,0.3,0.1,0.6,0.1,1c0.4,2.1,2.3,3.5,4.5,3.2c2.1-0.3,3.6-2.2,3.4-4.4
				c0-0.4-0.1-0.7-0.1-1.1c-0.3-3.5,1.9-6.1,6.4-7.4c2.4-0.7,7.4,2.6,10.1,4.4c1.2,0.8,2.7,0.9,4,0.2s2.1-1.9,2.2-3.3
				c0.3-4.4,3.9-8.5,8.2-9.3c4.3-0.8,9.2,1.7,11,5.8c0.6,1.2,1.7,2.1,3,2.3c1.3,0.2,2.7-0.2,3.6-1.2c1.7-1.8,4.6-2.7,7-2.1
				c2.5,0.6,3.2,1.3,3.8,3.7c0.1,0.2,0.1,0.4,0.2,0.6C77.7,127.5,63.2,140.5,58.9,145.2L58.9,145.2z M182.3,145.2H71.1
				c3.3-2.4,7.8-5.2,13.9-7.8c14.3-6.2,40.1-13,82-10c24.3,1.7,37.5-0.7,41.8-7.5c1.8-3,1.8-6.6-0.2-9.9c-2.3-3.9-8-4.1-16.6-4.6
				c-11.6-0.6-22-1.6-22.2-7.3c-0.4-11.7,24.1-15.5,24.4-15.6l66.8-10.9c1.4,3.7,3.3,7.3,5.6,10.7l-43.5,9.1
				c-0.7,0.1-1.3,0.5-1.9,0.9c-1.5,1.4-2.9,3.9-1.8,6.7c1.4,3.7,6,5.2,15.7,5c7.9-0.1,13.2,4,14.4,8.1c1.1,3.7-1,7.4-6,10.5
				c-6.8,4.2-19.6,7.3-31,10C197,136.5,185.4,139.3,182.3,145.2L182.3,145.2z M301.2,145.2h-13.3v-33.7c0-2.2-1.8-4-4-4s-4,1.8-4,4
				v33.7h-3.1l-6.8-23c-0.6-2.1-2.9-3.3-5-2.7s-3.3,2.9-2.7,5l6.1,20.7h-71.6c5.3-1.7,12.3-3.4,17.3-4.6c12.5-3,25.5-6.1,33.3-11
				c8-5,11.6-12.3,9.4-19.6c-2.1-7.3-9.4-12.6-18.4-13.6l33.6-7.1c7.8,7.9,17.9,13,29,14.6L301.2,145.2L301.2,145.2z M325.4,66.4
				l17.9-18.2c1.5-1.6,1.5-4.1-0.1-5.7c-1.6-1.5-4.1-1.5-5.7,0.1l-14.7,15l-2.7-9.3c-0.6-2.1-2.8-3.4-5-2.7
				c-2.1,0.6-3.3,2.8-2.7,4.9l9,31.2v63.5h-12.2V79.7c0-1.3-0.6-2.4-1.6-3.2l-11.5-8.6l5.9-25.7c0.5-2.1-0.9-4.3-3-4.8
				c-2.1-0.5-4.3,0.9-4.8,3l-5.1,22.2l-8.6-6.5c-1.8-1.3-4.3-1-5.6,0.8c-1.3,1.8-1,4.3,0.8,5.6l13.6,10.2l0,0l11.9,8.9v14.1
				c-10.3-1.7-19.5-7.1-26.1-15.3c-7.2-8.9-10.5-20.1-9.3-31.4c2.5-23.5,23.6-40.6,47.1-38.1c11.4,1.2,21.6,6.8,28.8,15.7
				s10.5,20.1,9.3,31.4c-1.5,13.9-9.4,26-21.5,32.8v-9.7c0-0.4,0-0.8-0.2-1.1L325.4,66.4L325.4,66.4z M400.2,145.2h-15.1V98.6
				l7.1-10.2l8.1,11.7L400.2,145.2L400.2,145.2z"/>
			<path class="st0" d="M373.3,38.3L392.2,11L411,38.3c0.8,1.1,2,1.7,3.3,1.7c0.8,0,1.6-0.2,2.3-0.7c1.8-1.3,2.3-3.8,1-5.6l-22.1-32
				c-0.8-1.1-2-1.7-3.3-1.7s-2.5,0.7-3.3,1.7l-22.1,32.1c-1.3,1.8-0.8,4.3,1,5.6C369.6,40.6,372.1,40.2,373.3,38.3L373.3,38.3z"/>
			<path class="st0" d="M392.2,50.5c-1.3,0-2.5,0.6-3.3,1.7l-31.5,45.5c-1.3,1.8-0.8,4.3,1,5.6c1.8,1.3,4.3,0.8,5.6-1l28.2-40.7
				l28.2,40.7c0.8,1.1,2,1.7,3.3,1.7c0.8,0,1.6-0.2,2.3-0.7c1.8-1.3,2.3-3.8,1-5.6l-31.5-45.5C394.7,51.2,393.5,50.5,392.2,50.5
				L392.2,50.5z"/>
			<path class="st0" d="M358.5,76.5c1.8,1.3,4.3,0.8,5.6-1l28.2-40.7l28.2,40.7c0.8,1.1,2,1.7,3.3,1.7c0.8,0,1.6-0.2,2.3-0.7
				c1.8-1.3,2.3-3.8,1-5.6l-31.5-45.5c-0.8-1.1-2-1.7-3.3-1.7s-2.5,0.7-3.3,1.7L357.4,71C356.2,72.8,356.6,75.3,358.5,76.5
				L358.5,76.5z"/>
		</g>
	</g>
</g>
</svg>
