<?xml version="1.0" encoding="utf-8"?>
<!-- Generator: Adobe Illustrator 22.1.0, SVG Export Plug-In . SVG Version: 6.00 Build 0)  -->
<svg version="1.1" id="Layer_1" xmlns:svg="http://www.w3.org/2000/svg"
	 xmlns="http://www.w3.org/2000/svg" xmlns:xlink="http://www.w3.org/1999/xlink" x="0px" y="0px" viewBox="0 0 106 28.2"
	 style="enable-background:new 0 0 106 28.2;" xml:space="preserve">
<style type="text/css">
	.st0{clip-path:url(#SVGID_2_);}
	.st1{clip-path:url(#SVGID_7_);}
	.st2{clip-path:url(#SVGID_8_);}
	.st3{clip-path:url(#SVGID_9_);}
	.st4{clip-path:url(#SVGID_10_);fill:#00A3A6;}
</style>
<g>
	<title>Layer 1</title>
	<g>
		<g>
			<g id="svg_2">
				<g id="svg_3">
					<defs>
						<rect id="SVGID_1_" x="-21.5" y="-21.1" width="148.9" height="70.6"/>
					</defs>
					<clipPath id="SVGID_2_">
						<use xlink:href="#SVGID_1_"  style="overflow:visible;"/>
					</clipPath>
					<g id="svg_4" class="st0">
						<g id="svg_6">
							<defs>
								<rect id="SVGID_3_" x="-21.5" y="-21.1" width="148.9" height="70.6"/>
							</defs>
							<defs>
								<rect id="SVGID_4_" x="-21.5" y="-21.1" width="148.9" height="70.6"/>
							</defs>
							<defs>
								<rect id="SVGID_5_" x="-21.5" y="-21.1" width="148.9" height="70.6"/>
							</defs>
							<defs>
								<rect id="SVGID_6_" x="-21.5" y="-21.1" width="148.9" height="70.6"/>
							</defs>
							<clipPath id="SVGID_7_">
								<use xlink:href="#SVGID_3_"  style="overflow:visible;"/>
							</clipPath>
							<clipPath id="SVGID_8_" class="st1">
								<use xlink:href="#SVGID_4_"  style="overflow:visible;"/>
							</clipPath>
							<clipPath id="SVGID_9_" class="st2">
								<use xlink:href="#SVGID_5_"  style="overflow:visible;"/>
							</clipPath>
							<clipPath id="SVGID_10_" class="st3">
								<use xlink:href="#SVGID_6_"  style="overflow:visible;"/>
							</clipPath>
							<path id="svg_8" class="st4" d="M4.9,0.7H0.3C0.2,0.7,0,0.9,0,1v26.3c0,0.2,0.2,0.3,0.3,0.3h4.6c0.2,0,0.3-0.2,0.3-0.3V1
								C5.2,0.9,5.1,0.7,4.9,0.7"/>
							<path id="svg_9" class="st4" d="M30.5,0.7H26c-0.2,0-0.3,0.2-0.3,0.3v17.6L14.5,0.9c-0.1-0.1-0.2-0.2-0.3-0.2H9.7
								C9.5,0.7,9.4,0.9,9.4,1v26.3c0,0.2,0.1,0.3,0.3,0.3h4.6c0.2,0,0.3-0.2,0.3-0.3V9.8l11.1,17.7c0.1,0.1,0.2,0.2,0.3,0.2h4.6
								c0.2,0,0.3-0.2,0.3-0.3V1C30.9,0.9,30.7,0.7,30.5,0.7"/>
							<path id="svg_10" class="st4" d="M49.7,16.3c1.4-0.7,2.5-1.6,3.4-2.7c0.9-1.2,1.3-2.8,1.3-4.6c0-2.7-0.9-4.8-2.6-6.2
								c-1.7-1.4-4.1-2.1-7.2-2.1h-9.2C35.1,0.7,35,0.9,35,1v26.3c0,0.2,0.2,0.3,0.3,0.3h4.6c0.2,0,0.3-0.2,0.3-0.3v-9.8h4.6
								l5.2,9.9c0.1,0.1,0.2,0.2,0.3,0.2h4.9c0.2,0,0.3-0.2,0.3-0.3v-0.2c0-0.1,0-0.1,0-0.2L49.7,16.3L49.7,16.3z M48,12.1
								c-0.8,0.7-1.9,1.1-3.4,1.1h-4.4V5.1h4.5c1.5,0,2.6,0.4,3.4,1.1c0.7,0.7,1.1,1.7,1.1,3C49.1,10.5,48.8,11.4,48,12.1"/>
							<path id="svg_11" class="st4" d="M71.8,18.5L71.8,18.5l-7.6,0.1l0.6-1.7L68,7.6C68,7.6,71.8,18.5,71.8,18.5z M92.1,5.1
								c1.2,0,2.3,0.2,3.3,0.6c-2.7,5-7,8.8-12.2,11c-0.2-0.8-0.3-1.6-0.3-2.5C82.9,9.2,87,5.1,92.1,5.1 M105.9,14.2
								c0-1.8-0.4-3.7-1.1-5.4c-0.1-0.2-0.3-0.1-0.3,0l-2.7,4.3c-0.2,0.4-0.4,0.7-0.5,1.8c0,0.1,0,0.1,0,0.2
								c-0.4,4.6-4.4,8.3-9.1,8.3c-0.9,0-1.8-0.1-2.6-0.4c-1.4-0.4-2.8-1.2-3.9-2.3c0,0-0.1-0.1-0.1-0.1c5.8-2.6,10.7-7.1,13.8-12.7
								c0.7-1.2,1.3-2.5,1.8-3.8c0.1-0.1,0-0.3-0.1-0.4c-1-0.9-2.2-1.6-3.4-2.1c-1.7-0.8-3.6-1.1-5.5-1.1h0c0,0,0,0,0,0
								c-4.7,0-8.9,2.4-11.4,6c-1.5,2.2-2.4,4.9-2.4,7.8c0,1.3,0.2,2.6,0.6,3.8c-0.6,0.1-1.3,0.2-1.9,0.3L70.4,0.9
								c-0.1-0.1-0.2-0.2-0.3-0.2H66c-0.1,0-0.3,0.1-0.3,0.2l-9.9,26.3c0,0.1,0,0.2,0,0.3c0.1,0.1,0.2,0.1,0.3,0.1h4.8
								c0.1,0,0.3-0.1,0.3-0.2l1.6-4.6h10.6l0.1,0.1l1.6,4.4c0.1,0.1,0.2,0.2,0.3,0.2H80c0.1,0,0.2-0.1,0.3-0.1s0.1-0.2,0-0.3
								l-1.7-4.6c0.7-0.1,1.5-0.3,2.2-0.5c0,0,0,0,0.1,0c0,0,0,0.1,0.1,0.1c0.9,1.3,2,2.3,3.3,3.2c2.3,1.6,5.1,2.5,7.9,2.5l0,0
								c0,0,0,0,0,0C99.7,28,105.9,21.8,105.9,14.2"/>
						</g>
					</g>
				</g>
			</g>
		</g>
	</g>
</g>
</svg>
