<svg width="72" height="66" viewBox="0 0 72 66" fill="none" xmlns="http://www.w3.org/2000/svg">
<g id="IUCN-logo">
<g id="Mask group">
<mask id="mask0_36_2240" style="mask-type:alpha" maskUnits="userSpaceOnUse" x="0" y="0" width="63" height="66">
<g id="Group">
<path id="Vector" d="M52.1636 49.5902C51.8886 49.8607 51.6136 50.2213 51.2469 50.4918C46.6631 55 40.4291 57.7049 33.5534 57.7049C26.586 57.7049 20.3521 54.9099 15.8599 50.4918C11.2761 45.9836 8.52585 39.8525 8.52585 33.0902C8.52585 26.2377 11.3678 20.1066 15.8599 15.6885C20.4437 11.1803 26.6777 8.47543 33.5534 8.47543C40.5208 8.47543 46.7548 11.2705 51.2469 15.6885C51.7969 16.2295 52.2553 16.7705 52.7137 17.3115H62.9814C57.3892 6.94265 46.2963 0 33.5534 0C15.0349 0 0 14.7869 0 33C0 51.2131 15.0349 66 33.5534 66C45.9296 66 56.8391 59.418 62.6147 49.5H52.1636" fill="black"/>
</g>
</mask>
<g mask="url(#mask0_36_2240)">
<g id="Group_2">
<path id="Vector_2" d="M67.1068 0H0V66H67.1068V0Z" fill="url(#paint0_radial_36_2240)"/>
</g>
</g>
</g>
<path id="Vector_3" d="M22.6448 25.7871H19.1611V41.2051H22.6448V25.7871Z" fill="black"/>
<path id="Vector_4" d="M38.5039 35.3445C38.5039 39.492 36.0286 41.5658 31.8115 41.5658C27.5944 41.5658 25.1191 39.5822 25.1191 35.3445V25.7871H28.6028V35.3445C28.6028 37.0576 29.0612 38.6806 31.8115 38.6806C34.2868 38.6806 35.0202 37.5986 35.0202 35.3445V25.7871H38.5039V35.3445Z" fill="black"/>
<path id="Vector_5" d="M51.4307 31.0156C51.2474 29.4828 49.6889 28.3107 48.0387 28.3107C44.9217 28.3107 43.8216 30.9254 43.8216 33.6303C43.8216 36.2451 45.0134 38.7697 48.0387 38.7697C50.1472 38.7697 51.339 37.3271 51.6141 35.3434H54.9144C54.5477 39.2205 51.8891 41.655 48.0387 41.655C43.1799 41.655 40.3379 38.0484 40.3379 33.6303C40.3379 29.032 43.1799 25.5156 48.0387 25.5156C51.5224 25.5156 54.3643 27.4992 54.8227 31.1058H51.4307" fill="black"/>
<path id="Vector_6" d="M56.8389 25.7871H60.2308L66.8316 36.156V25.7871H70.132V41.2051H66.6482L60.1392 30.9264H60.0476V41.2051H56.8389V25.7871Z" fill="black"/>
</g>
<defs>
<radialGradient id="paint0_radial_36_2240" cx="0" cy="0" r="1" gradientUnits="userSpaceOnUse" gradientTransform="translate(13.645 13.42) rotate(44.5236) scale(68.2399 68.2305)">
<stop stop-color="white"/>
<stop offset="0.372385" stop-color="#05BCE4"/>
<stop offset="1" stop-color="#003478"/>
</radialGradient>
</defs>
</svg>
