<?xml version="1.0" encoding="UTF-8"?>
<svg xmlns="http://www.w3.org/2000/svg" version="1.1" viewBox="0 0 283.46 283.46">
  <defs>
    <style>
      .cls-1 {
        fill: #231f20;
      }
    </style>
  </defs>
  <!-- Generator: Adobe Illustrator 28.6.0, SVG Export Plug-In . SVG Version: 1.2.0 Build 709)  -->
  <g>
    <g id="iconos">
      <path class="cls-1" d="M77.01,228.87c-1.78.72-2.8,2.59-2.43,4.47.36,1.88,2.01,3.24,3.93,3.24h113.72c1.92,0,3.56-1.36,3.93-3.24.36-1.88-.66-3.75-2.43-4.47l-54.35-21.89v-32.13c11.26-.72,19.52-4.56,24.58-11.47,9.32-12.73,3.75-30.78,3.5-31.54-.58-1.83-2.38-2.98-4.28-2.76-11.36,1.33-18.91,6.78-23.81,13.61v-16.17c21.22-1.91,38.17-18.86,40.08-40.08h30.14l-27.13,68.01s0,0,0,0l-.03.07c-.08.2-.14.4-.18.6-.01.05-.02.1-.03.16-.04.23-.07.47-.07.7,0,0,0,.01,0,.02,0,6.84,2.3,12.51,6.83,16.85,8.53,8.17,22.38,8.8,26.4,8.8.61,0,.99-.01,1.09-.02,9.94-.64,28.71-6.79,28.79-25.51,0-.02,0-.04,0-.06,0-.02,0-.04,0-.06,0-.02,0-.04,0-.07,0-.23-.03-.45-.07-.68,0-.03,0-.06-.01-.08-.04-.17-.08-.33-.14-.49l-25.77-73.57c-.55-1.57-2.02-2.64-3.69-2.68-.34,0-.67.04-.98.11-.29-.07-.58-.11-.89-.11h-34.25c-2.03-22.54-21.02-40.27-44.08-40.27-5.43,0-10.63.99-15.44,2.78-.06.02-.12.04-.17.07-15.53,5.88-26.92,20.24-28.46,37.41h-34.25c-.31,0-.61.04-.9.11-.32-.07-.64-.12-.98-.11-1.67.04-3.14,1.1-3.69,2.68l-25.77,73.57c-.06.16-.1.33-.14.49,0,.03,0,.06-.01.08-.04.23-.06.45-.07.68,0,.02,0,.04,0,.07,0,.02,0,.04,0,.06,0,.02,0,.04,0,.06.08,18.72,18.85,24.87,28.88,25.51.09,0,.45.02,1.03.02,3.92,0,17.82-.61,26.37-8.8,4.53-4.34,6.83-10.01,6.83-16.85,0,0,0-.01,0-.02,0-.24-.03-.47-.07-.7,0-.05-.02-.1-.03-.16-.05-.2-.1-.41-.18-.6l-.03-.07s0,0,0,0l-27.13-68.01h30.14c1.55,17.18,12.94,31.55,28.48,37.42.1.04.2.08.3.12,3.57,1.32,7.36,2.18,11.3,2.54v42.05s0,.09,0,.13v7.93c-3.74-11.32-12.24-22.6-29.3-24.6-1.91-.23-3.7.94-4.28,2.76-.24.76-5.81,18.81,3.5,31.54,5.64,7.7,15.24,11.6,28.54,11.6.54,0,1.06-.11,1.53-.31v9.35l-54.35,21.89ZM160.61,137.62c.93,4.96,1.77,14.37-3.14,21.06-3.51,4.77-9.55,7.51-17.99,8.15.54-7.92,3.73-25.18,21.13-29.21ZM215.99,173.64c-.9.02-14.39.26-21.51-6.58-2.02-1.94-3.3-4.28-3.92-7.06h46.21c-3.01,12.07-19.46,13.54-20.78,13.64ZM215.24,93.84l20.37,58.16h-43.57l23.2-58.16ZM171.41,78.43h-8.98c-.41-9.98-2.53-18.37-4.71-24.53,7.47,5.87,12.59,14.6,13.69,24.53ZM162.38,86.43h9.03c-1.11,10.11-6.4,18.98-14.1,24.85,3.16-8.85,4.66-17.21,5.07-24.85ZM139.37,46.39c2.42.27,4.77.77,7.03,1.5,1.92,3.54,7.31,14.78,8.02,30.55h-15.05v-32.04ZM139.37,86.43h14.98c-.55,9.21-2.84,19.57-8.12,30.6-2.2.69-4.5,1.18-6.86,1.44v-32.04ZM76.25,167.06c-7.12,6.84-20.61,6.6-21.51,6.58-1.32-.1-17.77-1.58-20.78-13.64h46.21c-.61,2.78-1.9,5.12-3.92,7.06ZM78.69,152h-43.57l20.37-58.16,23.2,58.16ZM107.77,181.63c-4.91-6.68-4.06-16.09-3.14-21.05,17.4,4.03,20.59,21.3,21.13,29.21-8.44-.65-14.48-3.38-17.99-8.15ZM112.81,54.06c-2.16,6.14-4.24,14.47-4.65,24.37h-8.83c1.08-9.84,6.12-18.5,13.48-24.37ZM99.33,86.43h8.88c.41,7.6,1.89,15.9,5.01,24.69-7.59-5.87-12.79-14.67-13.89-24.69ZM124.16,47.95c2.31-.75,4.72-1.28,7.21-1.56v32.04h-15.2c.7-15.68,6.04-26.88,7.99-30.48ZM124.33,116.97c-5.25-11.01-7.54-21.35-8.09-30.54h15.13v32.04c-2.43-.27-4.78-.77-7.04-1.5ZM135.37,213.99l36.22,14.59h-72.44l36.22-14.59Z"/>
    </g>
  </g>
</svg>