<svg id="Layer_1" data-name="Layer 1" xmlns="http://www.w3.org/2000/svg" xmlns:xlink="http://www.w3.org/1999/xlink" viewBox="0 0 506.6 200.51"><defs><style>.cls-1{fill:none;}.cls-2{clip-path:url(#clip-path);}.cls-3{fill:#231f20;}</style><clipPath id="clip-path"><rect class="cls-1" x="-17.78" y="-51.46" width="542.29" height="283.46"/></clipPath></defs><title>pests-and-weeds</title><g class="cls-2"><path class="cls-3" d="M272.77,182.13a17.5,17.5,0,0,1-9.68-3.13c-13.25-.82-21.5-15.23-23.73-19.65-17-9.85-19.45-25.81-18.22-34.32-3.29-5.81-4.27-11.66-2.91-17.41,2.12-9,9.44-14.8,12.08-16.65,4.63-8,10.91-11.15,15.44-12.37a23.78,23.78,0,0,1,8-.76c13.25-6,24.9,2.92,29.34,8.64.8,1,3.21,4.63.83,10.06-1.78,4-4.86,5.33-7.23,5.5a22,22,0,0,1-12.63,3,22.8,22.8,0,0,1-8.3,4.9,27.61,27.61,0,0,1-1.41,9.35c5.51,4.73,8.35,14,9.56,19.18,3.91.94,7.91,4,11.94,9a61.09,61.09,0,0,1,4.88,7.13c4.54,1,7.15,5.18,8.2,8.29a10.85,10.85,0,0,1,.64,11.82c-2.52,4.17-7.16,5.61-10.13,5.88a16.05,16.05,0,0,1-6.69,1.5M264.48,171a4,4,0,0,1,2.68,1,8.55,8.55,0,0,0,9.44,1.06,4.07,4.07,0,0,1,1.84-.45h0s3.12-.11,4.29-2.06c.88-1.46-.38-3.15-.53-3.34a3.8,3.8,0,0,1-.75-1.47s-1.07-3.37-2.78-3.37h-.1a4,4,0,0,1-3.82-2.14c-3.23-6.17-9.82-14.46-13.74-14.1a4,4,0,0,1-4.34-3.27c-1.18-6.56-4.66-16.57-8.71-18.31a4,4,0,0,1-2.12-5.23c1.31-3.14,2.61-8.55,1.63-10.51a4,4,0,0,1,3-5.75s5.83-.91,8.84-4.71A4,4,0,0,1,263.23,97s5.73,1,9.89-2.17a4.05,4.05,0,0,1,3-.75,2.23,2.23,0,0,0,.45-.72c.51-1.15.32-1.71.25-1.85l-.05-.06c-.38-.49-9.3-11.65-20.55-5.91a4,4,0,0,1-2.56.36c-.4-.06-10.68-1.7-16.84,9.78a4,4,0,0,1-1.45,1.53c-.06,0-7.66,4.8-9.41,12.33-.93,4,0,8.27,2.73,12.63a4,4,0,0,1,.52,3c-.15.7-3.58,17.69,15.07,27.8a4,4,0,0,1,1.76,1.9c.06.16,7.34,16.17,18.2,16.17h.2m11.93-76.94.09,0-.09,0m.62-2.41h0Zm0,0h0Z"/><path class="cls-3" d="M262.47,104.9a4,4,0,0,1-3.94-3.36c-1.82-11.29-6.89-16.75-6.94-16.8a4,4,0,1,1,5.72-5.59c.28.29,6.86,7.16,9.12,21.11a4,4,0,0,1-3.31,4.59,4.74,4.74,0,0,1-.65.05"/><path class="cls-3" d="M251.05,111.09a4,4,0,0,1-3-1.33c-5.51-6.13-16.6-12.46-16.71-12.52a4,4,0,1,1,3.94-7c.5.28,12.34,7,18.72,14.14a4,4,0,0,1-.31,5.64,4,4,0,0,1-2.67,1"/><path class="cls-3" d="M275.53,102a4,4,0,0,1-1.82-.45A4,4,0,0,1,272,96.17c3-5.82.86-8.49.61-8.78l.09.1,5.59-5.73c.27.26,6.67,6.69.83,18.06a4,4,0,0,1-3.56,2.18"/><path class="cls-3" d="M225.34,128.27a4,4,0,0,1-.57-8c.76-.11,18.85-2.76,24.35-3.35a4,4,0,1,1,.84,8c-5.34.57-23.85,3.28-24,3.31a3.9,3.9,0,0,1-.59,0"/><path class="cls-3" d="M242.42,160.48a4,4,0,0,1-1.62-7.66,51.74,51.74,0,0,0,16.72-13.13,4,4,0,0,1,6.19,5.07A59.1,59.1,0,0,1,244,160.14a4,4,0,0,1-1.61.34"/><path class="cls-3" d="M264.48,179a4,4,0,0,1-2.35-7.24c.09-.07,9.32-6.84,12.45-14.81a4,4,0,1,1,7.45,2.93c-4,10.17-14.75,18-15.21,18.36a4,4,0,0,1-2.34.76"/><path class="cls-3" d="M278.44,180.67a4,4,0,0,1-2.69-6.95c1.35-1.25,5-5.39,5.62-9.54a4,4,0,1,1,7.91,1.16c-1.14,7.74-7.44,13.65-8.15,14.3a4,4,0,0,1-2.69,1"/><path class="cls-3" d="M458.81,81.13A53.73,53.73,0,0,1,444.12,79a4,4,0,0,1-2.8-4.78c3.54-14.87,10.78-25.33,21.51-31.08,18.29-9.81,39.82-2.08,40.73-1.75a4,4,0,0,1,2.32,5.25c-.15.39-14.33,34.5-47.07,34.5m-8.67-8.91c26.95,5.44,41.42-15.39,46.36-24.54-6.49-1.51-19.19-3.26-29.93,2.52-7.7,4.14-13.21,11.54-16.43,22"/><path class="cls-3" d="M436.53,135.44a115.8,115.8,0,0,1-18.4-1.43c-27.1-4.33-49.58-18.66-65-41.42a4,4,0,0,1,6.62-4.49c14.36,21.19,34.42,34,59.65,38,19.17,3.08,40.7.78,61-6.44a58.07,58.07,0,0,0-5.41-7.32,4,4,0,1,1,6.12-5.14c9,10.75,9,14.5,7.83,16.74a4,4,0,0,1-2.08,1.85,140.8,140.8,0,0,1-50.35,9.64m45-13.48h0Z"/><path class="cls-3" d="M458.36,120.18a15.52,15.52,0,0,1-13.74-8.33c-.29.13-.59.24-.9.35a15.51,15.51,0,0,1-19.85-9.3,15.23,15.23,0,0,1-.88-6.29,9.81,9.81,0,0,1-7.14-2.54c-2.26-2.23-3.14-5.6-2.69-10.31a4,4,0,1,1,8,.77c-.25,2.61.17,3.67.34,3.83.48.48,3.35.15,4.58,0,.68-.07,1.36-.15,2-.2a4,4,0,0,1,3.82,5.89A7.49,7.49,0,0,0,441,104.68a7.36,7.36,0,0,0,2.95-2,4,4,0,0,1,6.93,2.44,7.26,7.26,0,0,0,.43,2.06,7.5,7.5,0,0,0,9.61,4.51,7.43,7.43,0,0,0,4.33-4.11,4,4,0,0,1,5.5-2,7.42,7.42,0,0,0,6,.39,4,4,0,0,1,2.72,7.52,15.51,15.51,0,0,1-8.74.52,15.5,15.5,0,0,1-12.33,6.12"/><path class="cls-3" d="M419.11,113.7a4.12,4.12,0,0,1-1.4-.26l-55.92-21A4,4,0,1,1,364.6,85l55.92,21a4,4,0,0,1-1.41,7.75"/><path class="cls-3" d="M146.13,98.53c-12.87,0-23-2.72-35.47-9.91a4,4,0,0,1,4-6.94c18.31,10.56,30,10.65,63.6,5.45A4,4,0,0,1,179.47,95c-13.7,2.12-24.21,3.49-33.34,3.49"/><path class="cls-3" d="M112.41,146.21a76.13,76.13,0,0,1-13.76-1.12,4,4,0,0,1-3.17-4.55c.24-1.52,6.24-37.53,37.19-50.78a4,4,0,1,1,3.15,7.35c-21.28,9.12-29.15,31.52-31.54,40.68a80.62,80.62,0,0,0,28.05-2.1c22-5.88,36.37-21.23,42.65-45.6a4,4,0,1,1,7.75,2c-8.83,34.26-31.32,46.87-48.63,51.41a85.76,85.76,0,0,1-21.69,2.72"/><path class="cls-3" d="M134.24,97.44a4,4,0,0,1-4-3.5c-6-47-46.88-75-121.66-83.31a60.12,60.12,0,0,0,1.78,11,4,4,0,0,1-7.79,1.82C-1,8.1,1,4.45,3.06,3a4,4,0,0,1,2.7-.7C38.37,5.57,65.41,12.6,86.13,23.17c30.69,15.66,48.21,39.13,52.08,69.76a4,4,0,0,1-3.46,4.48,4.36,4.36,0,0,1-.51,0"/><path class="cls-3" d="M109.2,102c-15.39,0-37.48-2.39-57-13.51a4,4,0,0,1,4-7c30.9,17.64,70.59,11.29,71,11.22a4,4,0,0,1,1.32,7.89A126,126,0,0,1,109.2,102"/><path class="cls-3" d="M54.22,89.05a3.92,3.92,0,0,1-2.14-.63,4,4,0,0,1-1.24-5.52c1.75-2.75,2.3-5.21,1.64-7.32-.88-2.77-3.71-4.81-6.07-5.79a4,4,0,0,1-.74-7A9.1,9.1,0,0,0,41.6,46.29a8.9,8.9,0,0,0-4.27.51,4,4,0,0,1-5.07-5.32A9.29,9.29,0,0,0,32.93,39a9.1,9.1,0,0,0-14.88-8.1,4,4,0,0,1-3.05.9,4,4,0,0,1-2.75-1.61A9,9,0,0,0,6,26.52a4,4,0,0,1,1-7.94,17.13,17.13,0,0,1,9.14,4.09A17.09,17.09,0,0,1,41,38.23c.53,0,1.06.06,1.58.12A17.09,17.09,0,0,1,54.39,65.29a16.34,16.34,0,0,1,5.72,7.89c1,3.06,1.31,8-2.51,14a4,4,0,0,1-3.38,1.86"/><path class="cls-3" d="M112.65,89.15a4,4,0,0,1-2.27-.71L64.08,56.33a4,4,0,1,1,4.56-6.58l46.3,32.11a4,4,0,0,1-2.29,7.29"/><path class="cls-3" d="M405,91.52a4,4,0,0,1-.34-8c10.79-.92,32.24-8.17,38.57-11.85a4,4,0,1,1,4,6.92c-7.08,4.11-29.59,11.85-41.9,12.9l-.35,0"/><path class="cls-3" d="M341.73,90.42h-.21c-6.61-.35-11.44-.64-14.36-.86-3.42-.25-7-.52-6.87-4.42,0-.66.31-3.94,4.76-4a4,4,0,0,1,1.69.36c1.92.16,6.1.44,15.2.92a4,4,0,0,1-.21,8"/><path class="cls-3" d="M216.88,72.87a4,4,0,0,1-4-4c0-5.46,6.9-20.28,18.18-28.1,16-11.1,28.83-7.64,34.32-6.16l.4.11a4,4,0,1,1-2.06,7.73l-.42-.11c-4.79-1.29-14.75-4-27.68,5C225.9,54.07,221,66.58,220.88,68.87a4,4,0,0,1-4,4"/><path class="cls-3" d="M189.41,158.9a4,4,0,0,1-3.14-1.52c-7.94-10.07-12.89-20.36-14.71-30.58-1.3-7.3-3.14-25.94,7.81-41.36,7.76-10.94,20.17-17.84,36.87-20.53a4,4,0,1,1,1.27,7.9C203,75.14,192.37,81,185.89,90.07c-9.2,13-7.58,29-6.46,35.32,1.59,8.92,6,18,13.12,27a4,4,0,0,1-3.14,6.48"/><path class="cls-3" d="M250.61,195.24c-13.16,0-25.79-4.39-37.69-13.13a4,4,0,0,1,4.74-6.45c25.56,18.77,55.78,14.37,82.92-12.08,10-9.77,17.58-23.53,21.83-39.77,3.09-11.82,3.76-21.23,2.16-30.53-.64-3.74-3.54-7-6.6-10.43a63.79,63.79,0,0,1-4.25-5.1,7.11,7.11,0,0,0-.49-.6c-1.6-1.76-4.25-3.05-7.06-4.42-3.09-1.51-6.29-3.06-8.89-5.58a16.33,16.33,0,0,1-3.58-5.84,15.38,15.38,0,0,0-1.27-2.6c-.48-.72-.81-.86-2.45-1.32a14.48,14.48,0,0,1-5.35-2.45,18.1,18.1,0,0,1-4.7-6.15,11.71,11.71,0,0,0-2.59-3.66c-2.71-2.07-7.79-3-12.09-2.32-2.81.48-4.94,1.62-6,3.22-2.05,3.11-1.84,6.89-1.6,11.27.23,4.06.48,8.66-1.33,13.07-.94,2.29-3.11,4.22-5.62,6.45-1.44,1.29-4.1,3.65-4.53,4.75a4,4,0,0,1-7.93,1c-.77-4.7,3.43-8.44,7.15-11.75A24.35,24.35,0,0,0,249,67.3c1.1-2.7.92-6,.72-9.56-.28-5.06-.59-10.79,2.9-16.1,2.29-3.48,6.32-5.86,11.35-6.71,6.48-1.11,13.83.44,18.28,3.85A18.06,18.06,0,0,1,287,45a11.56,11.56,0,0,0,2.56,3.64,7.31,7.31,0,0,0,2.62,1.09,10.92,10.92,0,0,1,6.94,4.55,22.82,22.82,0,0,1,2,4,9.64,9.64,0,0,0,1.76,3.18c1.69,1.64,4.19,2.86,6.84,4.15,3.36,1.64,6.84,3.34,9.48,6.25.37.41.72.83,1,1.25,1.07,1.48,2.37,2.94,3.75,4.49,3.51,3.94,7.48,8.4,8.51,14.4,1.81,10.47,1.1,20.93-2.3,33.9-4.62,17.66-12.92,32.69-24,43.48-13.88,13.52-29.25,22.13-44.45,24.91a62.06,62.06,0,0,1-11.11,1"/><path class="cls-3" d="M291.46,135.52c-4.31,0-8.35-2.12-12.08-6.35-1.16-1.31-7.49-3.24-11.68-4.52-9.14-2.78-17.77-5.41-19.77-11.09a4,4,0,1,1,7.54-2.66c1,2,10.16,4.76,14.56,6.1,7.87,2.4,12.82,4,15.35,6.88,4.65,5.27,8.12,4.27,12.92.58a7.56,7.56,0,0,0,1.31-2,12.53,12.53,0,0,1,3.22-4.35,12.2,12.2,0,0,1,6.69-2.18,12.09,12.09,0,0,0,2.17-.34c2.16-.72,3.85-8.92,2.45-15.06a4,4,0,0,1,7.8-1.78,34.38,34.38,0,0,1,.11,13.23c-1.49,7.6-5.08,10.28-7.83,11.2a17.66,17.66,0,0,1-3.88.71,8,8,0,0,0-2.56.5,8.45,8.45,0,0,0-1.08,1.76,13,13,0,0,1-3.52,4.68c-4.09,3.16-8,4.73-11.72,4.73"/><path class="cls-3" d="M182.21,195.56c-8.93,0-16.14-5.36-18.55-7.38-8.94-2.4-13.59-7.65-15.94-11.72a24.06,24.06,0,0,1-2.81-7.55c-9.17-11.26-3.61-24.81.77-30.57.75-1,3.63-4.31,9.5-3.41,4.37.67,6.4,3.32,7.18,5.56a22,22,0,0,1,6.2,11.43,22.65,22.65,0,0,1,6.89,6.74,27.27,27.27,0,0,1,9.21-1.06,16.07,16.07,0,0,1,11.8-9.56c.44-.08,10.26-1.55,17.42,4.45,4.5,3.76,6.85,9.43,7,16.82.23,11.79-13,17.23-21.81,18.79-4.79,4.77-10.23,7.27-16.18,7.45h-.67m-30.09-52.48-.05.07a24.19,24.19,0,0,0-3.54,7.57c-1.39,5.3-.33,9.94,3.15,13.8a4.06,4.06,0,0,1,1,2.38c0,.41,1.11,10.76,13.79,13.74a3.94,3.94,0,0,1,1.85,1c.06.06,6.36,5.92,13.87,5.92h.48c4.12-.14,8-2.12,11.49-5.91a4.06,4.06,0,0,1,2.38-1.24c.16,0,16.48-2.58,16.31-10.93-.09-5-1.48-8.63-4.12-10.85-4.33-3.62-10.94-2.7-11-2.69a7.74,7.74,0,0,0-6.13,6.49,4,4,0,0,1-4.51,3.4c-3.38-.46-8.93-.31-10.57,1.15a4,4,0,0,1-3.54.91,4,4,0,0,1-2.8-2.35s-2.38-5.39-6.84-7.32a4,4,0,0,1-2.4-3.38s-.54-5.79-4.65-9a4,4,0,0,1-1.52-2.74,2.12,2.12,0,0,0-.81-.25c-1.25-.19-1.73.14-1.85.24m.15-.22h0m0,0h0m2.49-.11v0"/><path class="cls-3" d="M148.7,171.18a3.94,3.94,0,0,1-2-.58,4,4,0,0,1-1.38-5.45c.2-.34,5.14-8.48,18-14.26a4,4,0,0,1,3.28,7.3c-10.42,4.67-14.41,11-14.45,11.07a4,4,0,0,1-3.43,1.92"/><path class="cls-3" d="M165.58,188.53a3.94,3.94,0,0,1-1-.13,4,4,0,0,1-2.87-4.87c.15-.56,3.6-13.74,8.82-21.74a4,4,0,1,1,6.7,4.37c-4.5,6.9-7.74,19.25-7.77,19.38a4,4,0,0,1-3.87,3"/><path class="cls-3" d="M149.28,148.27l.07-.11-7-3.91c.19-.34,4.74-8.18,17.23-5.48a4,4,0,1,1-1.68,7.82c-6.4-1.39-8.43,1.37-8.64,1.68"/><path class="cls-3" d="M197.12,188.36a4,4,0,0,1-3.68-2.41c-.31-.72-7.54-17.5-9.53-22.66a4,4,0,0,1,7.47-2.87c1.93,5,9.33,22.19,9.41,22.36A4,4,0,0,1,198.7,188a4.06,4.06,0,0,1-1.58.32"/><path class="cls-3" d="M189.41,154.9s-1-12.18,12.16-13.1,22.9,9.38,22.74,19.07-9,18-9,18,7.73-37.48-25.88-24"/><path class="cls-3" d="M206.85,72.86a4,4,0,0,1-2.24-.69c-27.92-18.92-24.23-45.35-24.06-46.46a4,4,0,0,1,2.67-3.19L196.67,18a4,4,0,0,1,3.37.38,4,4,0,0,1,1.87,2.82c2.71,18.18,18.75,38.09,18.91,38.29a4,4,0,1,1-6.2,5c-.66-.81-15.11-18.72-19.7-37.5l-6.62,2.25c-.13,6.17,1.43,23.17,20.8,36.3a4,4,0,0,1-2.25,7.31"/><path class="cls-3" d="M352.14,94.35a3.81,3.81,0,0,1-1-.13c-.08,0-1.93-.5-5.31-1.7-5.15-1.84-5.74-8-5.8-9.87-.8-4.43.81-13,12.17-17.49,6.24-6.09,20.41-13.78,33.86-3a4,4,0,0,1-5,6.24c-11.67-9.38-23.24,2.43-23.73,2.94a4,4,0,0,1-1.54,1c-8.71,3.12-8,8.42-7.84,9a3.23,3.23,0,0,1,.09.93,5.79,5.79,0,0,0,.61,2.72c1.65.59,2.88,1,3.63,1.2A11.41,11.41,0,0,0,357.91,82a4,4,0,0,1,2.91-1.78,4,4,0,0,1,3.23,1.08c5.54,5.34,12.09,2,12.82,1.65a4,4,0,0,1,3.88,7c-3.64,2-11.66,4.14-18.92-.29a17.48,17.48,0,0,1-9,4.67,3.91,3.91,0,0,1-.68.06"/><path class="cls-3" d="M361.28,88.15a4,4,0,0,1-3.18-1.57c-7.24-9.41-7.65-17.48-7.67-17.82a4,4,0,0,1,8-.36c0,.18.49,6.11,6,13.31a4,4,0,0,1-3.16,6.44"/><path class="cls-3" d="M378.79,90.42a4,4,0,0,1-4-3.66c-.68-8.11,4.44-21.43,5-22.92a4,4,0,0,1,7.45,2.92c-1.4,3.58-4.94,14-4.5,19.33a4,4,0,0,1-3.65,4.32h-.34"/><path class="cls-3" d="M392.65,94.78a28,28,0,0,1-5.82-.61,27.15,27.15,0,0,1-10.5-4.6,4,4,0,0,1,4.92-6.31c.51.39,11.59,8.57,25.24-1.43a4,4,0,0,1,2.46-.78c4,.11,14.94-1.11,17.89-7.57a4,4,0,0,1,1.65-1.81c1.34-.78,5.3-3.64,5.84-6.48a3.52,3.52,0,0,0-1-3.07c-1.13-1.45-2.4-1.53-9.15.66a4.37,4.37,0,0,1-1.08.19c-7.79.32-14,2.79-14.73,4.81a4,4,0,0,1-5.16,2.42c-8-3-15.39-3.37-17-1.9a4,4,0,0,1-5.31-6c5.43-4.81,16.41-2.36,22.08-.64,5-5.46,15.81-6.48,19.28-6.67,6-1.93,12.66-3.89,17.42,2.19a11.59,11.59,0,0,1,2.5,9.55c-1.11,5.64-6.29,9.65-8.64,11.2-5.38,9.72-19,11-23.4,11.1a30.62,30.62,0,0,1-17.49,5.74"/><path class="cls-3" d="M408.85,89.05h-.1a4,4,0,0,1-3.9-4.09A41.82,41.82,0,0,0,401,68.16a4,4,0,1,1,7.23-3.42,49.49,49.49,0,0,1,4.6,20.42,4,4,0,0,1-4,3.89"/><path class="cls-3" d="M430.47,79.14a4,4,0,0,1-3.92-3.26c0-.09-1.79-9.17-6.48-14.17a4,4,0,0,1,5.83-5.48c6.31,6.72,8.42,17.71,8.51,18.18a4,4,0,0,1-3.2,4.66,3.71,3.71,0,0,1-.74.07"/></g></svg>