<?xml version="1.0" encoding="UTF-8"?>
<svg xmlns="http://www.w3.org/2000/svg" version="1.1" viewBox="0 0 283.46 283.46">
  <defs>
    <style>
      .cls-1 {
        fill: #f27f1f;
      }

      .cls-2 {
        fill: #fdc905;
      }

      .cls-3 {
        fill: #231f20;
      }

      .cls-4 {
        fill: #fff;
      }

      .cls-5 {
        fill: #abdfea;
      }

      .cls-6 {
        fill: #84bc41;
      }

      .cls-7 {
        fill: #ffe400;
      }
    </style>
  </defs>
  <!-- Generator: Adobe Illustrator 28.6.0, SVG Export Plug-In . SVG Version: 1.2.0 Build 709)  -->
  <g>
    <g id="iconos">
      <g>
        <g>
          <path class="cls-2" d="M194.49,160.43c-.22-2.79-1.23-5.9-3.46-7.2-1.48-.86-3.17-.72-4.74-.46-4.85.83-9.49,2.69-13.63,5.47-2.16,1.45-5,.53-7.51,1.65-2.99,1.33-4.96,4.08-6.69,7.06-2.53,4.36-5.93,7.74-8.72,11.84-3.62,5.32-6.35,21.31,5.29,18.06,3.82-1.07,5.23-8.95,8.89-9.22,2.66-.19,3.27,3.43,6.12,4.33,7.52,2.38,10.5-9.07,15.33-12.96,5.5-4.43,9.83-9.32,9.11-18.58Z"/>
          <path class="cls-5" d="M183.04,215.89c-4.14,4.65-8.16,9.41-12.07,14.26-5.74,7.13-11.46,15.09-11.83,24.23-.17,4.11.92,8.46,3.83,11.37,3.99,3.97,10.49,4.32,15.84,2.56,9.78-3.22,16.7-12.32,19.96-22.08s3.42-20.25,3.55-30.54c.19-15.65-13.36-6.47-19.29.2Z"/>
          <path class="cls-5" d="M227.04,211.94c4.45.76,9,1.14,13.49.62,2.74-.32,5.56-1.04,7.67-2.82,4.41-3.74,3.97-11.29.02-15.52-3.95-4.23-10.32-5.46-16.04-4.58-5.72.88-10.98,3.57-16.12,6.23-4.91,2.54-14.38,4.78-7.76,10.41,4.18,3.56,13.52,4.86,18.75,5.67Z"/>
          <path class="cls-2" d="M198.29,229.78c-.13-3.33-.17-6.66-.13-9.99.02-1.51.06-3.02.11-4.53.06-1.67.24-3.52,1.74-4.65.97-.73,2.31-1.01,3.6-1.19,8.05-1.13,14.47.87,13.03,8.29s-10.28,10.48-18.35,12.08Z"/>
          <path class="cls-2" d="M189.9,212.04c-.13-3.33-.17-6.66-.13-9.99.02-1.51.06-3.02.11-4.53.06-1.67.24-3.52,1.74-4.65.97-.73,2.31-1.01,3.6-1.19,8.05-1.13,14.47.87,13.03,8.29s-10.28,10.48-18.35,12.08Z"/>
          <path class="cls-7" d="M206.21,258.18c7.63,4.31,16.34,8.78,24.77,6.37,10.65-3.04,23.15-26.68,7.02-29.51-9.07-1.59-43.78,16.36-31.79,23.14Z"/>
          <path class="cls-4" d="M193.74,206.09l-23.14,58.8s37.5-14.67,23.14-58.8Z"/>
          <path class="cls-1" d="M188.22,99.37c2.85-11.84,6.86-25.5-2.32-35.41-7.84-8.47-21.96-10.57-32.79-10.43-22.95.29-32.73,15.31-45.15,31.77-9.36,12.4-14.07,36.97-30.02,42.46-12.81,4.41-24.69-6.43-35.87-3.47-12.86,3.4-14.49,26.32-15.07,37.39-.83,15.88,5.86,29.97,18.67,39.62,10.89,8.21,35.71,17.31,49.82,15.44.67-14.76-6.78-24.38,8.96-33.13,10.34-5.75,23.31-5.51,33.16-11.77-9.47-9.55-34.35-30.1-29.52-44.91,3.41-10.44,24.16-15.01,33.58-11.18,12.17,4.95,15.29,21.5,24.43,29.29,6.88-13.36,15.37-31.05,22.12-45.68Z"/>
          <path class="cls-6" d="M138.3,63.43s.75-25.09,54.55-39.63c0,0,5.5,41.64-2.76,55.38,0,0-16.86-32.01-51.78-15.75Z"/>
        </g>
        <path class="cls-3" d="M251.75,171.47c-7.46-8.78-21.96-12.49-42.22-10.93,7.57-9.37,18.69-25.7,16.99-39.04-.79-6.2-4.08-11.09-9.78-14.56-8.46-5.15-16.19-7.25-23.05-6.3.6-.7.97-1.59.97-2.58,0-8.75-3.72-23.88-16-33.08,6.12-22.85-.61-40.1-.91-40.86-.68-1.7-2.42-2.71-4.23-2.48-30.03,3.91-47.06,19.68-56.05,32.23-2.6,3.62-4.69,7.18-6.36,10.45-.09-2.92-.07-6.05.16-9.24,1.17-16.55,6.99-26.53,17.3-29.65,2.11-.64,3.31-2.88,2.67-4.99-.64-2.11-2.87-3.31-4.99-2.67-13.6,4.13-21.54,16.83-22.95,36.74-.46,6.47-.16,12.67.31,17.55-11.43-7.73-33.26-17.78-55.36-2.28-14.71,10.32-22.13,27.23-21.44,48.92.58,18.11,6.87,39.17,17.71,59.31,1.2,2.43,19.72,39.05,47.32,43.82.23.04.46.06.69.06,1.54,0,2.93-.91,3.59-2.28,4.25,7.15,9.75,10.14,14.15,11.34,2.09.57,4.28.85,6.56.85,9.99,0,21.82-5.43,34.84-15.97-.27,2.78-.49,5.95-.56,9.3-.33,14.85,2.29,25.65,7.8,32.1,3.87,4.54,9.01,6.83,15.27,6.83.29,0,.59,0,.89-.01.96-.03,1.82-.41,2.48-1,.71.11,1.42.16,2.14.16,8.67,0,17.45-7.41,20.44-10.19,1.05,1.13,2.28,2.41,3.67,3.75.02.02.03.03.05.05,1.81,1.76,3.86,3.61,6.09,5.39,8.25,6.56,14.83,8.72,19.92,8.72,3.58,0,6.43-1.07,8.6-2.44,5.25-3.3,10.68-10.92,6.7-28.43-1.12-4.92-2.71-9.48-4.02-12.81,4.33-1.7,17.36-7.58,19.19-17.48.84-4.53-.74-8.93-4.69-13.11,3.55-12.78-.08-20.75-3.88-25.22ZM171.24,30.06c1.38,5.19,3.47,16.68.21,30.72-2.86-1.26-6.03-2.24-9.57-2.86-19.31-3.39-33.29,1.8-42.5,7.91,1.34-2.43,2.92-4.99,4.79-7.57,11.13-15.37,26.96-24.85,47.07-28.19ZM93.76,191.39c-3.12,5.65-3.63,12.12-1.51,19.21.36,1.22.77,2.34,1.18,3.42-.08-.02-.15-.05-.23-.07-23.91-4.13-41.36-39.18-41.54-39.53-.02-.05-.05-.09-.07-.14-10.29-19.09-16.26-38.92-16.79-55.84-.61-19.13,5.46-33.3,18.03-42.12,26.34-18.47,52.2,6.79,53.28,7.87.04.04.08.06.12.1.14.13.29.25.45.36.07.05.13.09.2.13.23.14.47.26.73.35.01,0,.03,0,.04.01.24.08.49.14.75.17.07.01.15.01.22.02.11,0,.21.03.32.03h0c.1,0,.19-.02.29-.03.05,0,.09,0,.14,0,.03,0,.06-.02.1-.02.24-.03.48-.08.71-.16.03,0,.06-.01.09-.02.26-.09.5-.21.73-.35.06-.04.11-.08.17-.12.17-.11.32-.24.47-.37.06-.06.13-.12.19-.18.14-.15.27-.31.39-.48.03-.04.07-.08.1-.12.61-.96,15.39-23.47,48.17-17.72,25.73,4.51,26.16,31.14,26.16,32.26,0,1.67,1.03,3.1,2.48,3.7-.41.15-.81.29-1.21.46-9.79,4.18-17.21,15.53-22.57,34.54-2.94-4.39-7.11-10.09-12.03-15.24-1.33-1.88-8.27-11-18.85-13.02-6.35-1.21-12.65.31-18.73,4.54-11.92,8.27-14.06,17.32-13.75,23.45.57,11.59,9.93,23.47,27.2,34.65-4.95,1.43-11.2,3.54-17.21,6.4-2.2.68-13.02,4.44-18.23,13.87ZM164.99,252.06c-8.55-10.01-5.81-36.03-4.03-45.21.42-2.17-1-4.27-3.17-4.69-1.16-.23-2.29.09-3.16.75-.35.17-.69.37-.99.65-22.48,20.79-35.5,21.26-41.27,19.68-5.77-1.58-9.96-6.6-12.45-14.94-1.5-5.01-1.23-9.27.83-13.01,4.03-7.34,13.68-10.15,13.76-10.18.23-.06.45-.15.67-.25,10.83-5.22,23.05-7.85,24.83-8.21,1.25-.13,2.42-.85,3.07-2.03,1.08-1.93.38-4.37-1.55-5.44-26.75-14.9-31.24-27.14-31.54-33.11-.29-5.98,3.18-11.52,10.33-16.48,4.3-2.98,8.43-4.05,12.62-3.26,8.23,1.55,13.9,9.85,13.95,9.92.13.2.28.38.45.56,8.96,9.33,15.57,21.13,15.64,21.25,0,0,0,0,0,0,.33,1.47,1.47,2.7,3.03,3.04,2.16.48,4.29-.89,4.77-3.05,4.8-21.83,11.63-34.78,20.3-38.49,5.77-2.47,12.81-1.09,21.51,4.2,3.56,2.17,5.53,5.02,6,8.73,1.66,13.06-14.89,33.32-21.41,40.03-.36.37-.62.79-.81,1.24-.39.73-.57,1.58-.44,2.47.32,2.18,2.35,3.7,4.54,3.37,30.29-4.48,41.31,2.49,45.18,7.05,3.15,3.71,4.15,8.71,2.99,14.91-10.34-4.66-24.19-.63-34.81,4.11-1.31-1.36-3.56-3.47-6.35-5.25-2.12-1.35-4.24-2.3-6.33-2.86l-.36-8.24c-.1-2.21-1.98-3.91-4.17-3.82-2.21.1-3.92,1.97-3.82,4.17l.34,7.79c-1.41.37-2.77.96-4.06,1.77-1.31.83-2.44,1.81-3.39,2.93l-7.24-3.6c-1.97-.98-4.38-.18-5.36,1.8-.98,1.98-.18,4.38,1.8,5.36l7.53,3.75c-.34,2.09-.34,4.37.02,6.81.46,3.06,1.39,5.79,2.1,7.56-10.63,8.76-22.98,22.38-19.18,36.24.35,1.26.75,2.43,1.2,3.51-.56-.45-1.09-.95-1.58-1.52ZM232.46,227.23c.57,1.29,1.19,2.82,1.82,4.51l-27.16,17.07c-1.25-1.3-2.36-2.53-3.28-3.6.3-1.66.55-3.7.73-6.2l20.72-13.03c.39-.25.72-.56.99-.91,2.46.98,4.49,1.68,6.18,2.15ZM191.22,208.75c-1.24-3.9-2.25-9.99,2.13-12.75,4.45-2.79,9.72.67,12.86,3.43-4.16,2.24-7.09,4.14-8,4.75-.01,0-.03.01-.04.02-.41.24-3.17,1.87-6.95,4.55ZM204.89,229.37c0-.82,0-1.66,0-2.54-.03-4.47-.17-8.78-.32-12.21,3.03,1.62,6.85,3.62,10.87,5.59.78.38,1.54.75,2.27,1.09l-12.83,8.06ZM178.17,255.05c-2.25-.61-3.96-3-5.08-7.09-3.21-11.71,12.69-25.73,23.5-33.24.55,11.99.4,24.25-.68,29.66-.26.51-.4,1.08-.43,1.65-.11.3-.22.55-.34.74-4.23,4.08-12.17,9.59-16.98,8.29ZM234.2,261.75c-5.68,3.57-14.12-1.36-21.06-7.26l23.65-14.87c2.31,8.82,3.09,18.56-2.58,22.13ZM252.45,208.35c-.91,4.92-9.31,9.67-14.82,11.71-.23.02-.5.02-.82-.02-.53-.23-1.11-.35-1.7-.33-5.36-1.39-16.43-6.56-26.98-12.24,11.45-6.48,30.98-14.74,40.14-6.77,3.2,2.78,4.6,5.35,4.18,7.64Z"/>
        <path class="cls-3" d="M168.66,171.27c3.05,0,5.54-2.49,5.54-5.54s-2.49-5.54-5.54-5.54-5.54,2.49-5.54,5.54,2.49,5.54,5.54,5.54Z"/>
        <path class="cls-3" d="M183.45,183.49c3.06,0,5.54-2.49,5.54-5.54s-2.49-5.54-5.54-5.54-5.54,2.49-5.54,5.54,2.49,5.54,5.54,5.54Z"/>
        <path class="cls-3" d="M159.32,178.15c-3.05,0-5.54,2.49-5.54,5.54s2.49,5.54,5.54,5.54,5.54-2.49,5.54-5.54-2.49-5.54-5.54-5.54Z"/>
      </g>
    </g>
  </g>
</svg>