<?xml version="1.0" encoding="UTF-8"?>
<svg xmlns="http://www.w3.org/2000/svg" version="1.1" viewBox="0 0 283.46 283.46">
  <defs>
    <style>
      .cls-1 {
        fill: #231f20;
      }
    </style>
  </defs>
  <!-- Generator: Adobe Illustrator 28.6.0, SVG Export Plug-In . SVG Version: 1.2.0 Build 709)  -->
  <g>
    <g id="iconos">
      <g>
        <path class="cls-1" d="M251.49,171.47c-7.46-8.78-21.96-12.49-42.22-10.93,7.57-9.37,18.69-25.7,16.99-39.04-.79-6.19-4.08-11.09-9.78-14.56-8.46-5.15-16.19-7.25-23.05-6.3.6-.7.97-1.59.97-2.58,0-8.75-3.72-23.88-16-33.08,6.12-22.85-.61-40.1-.91-40.86-.68-1.7-2.42-2.71-4.23-2.48-30.03,3.91-47.06,19.68-56.05,32.23-2.6,3.62-4.69,7.18-6.36,10.45-.09-2.92-.07-6.05.16-9.24,1.17-16.55,6.99-26.53,17.3-29.65,2.11-.64,3.31-2.88,2.67-4.99-.64-2.11-2.87-3.31-4.99-2.67-13.6,4.13-21.54,16.83-22.95,36.74-.46,6.47-.16,12.67.31,17.55-11.43-7.73-33.26-17.77-55.36-2.28-14.71,10.32-22.13,27.23-21.44,48.92.58,18.11,6.87,39.17,17.71,59.31,1.2,2.43,19.72,39.05,47.32,43.82.23.04.46.06.69.06,1.54,0,2.93-.91,3.59-2.28,4.25,7.15,9.75,10.14,14.15,11.34,2.09.57,4.28.85,6.56.85,9.99,0,21.82-5.43,34.84-15.97-.27,2.78-.49,5.95-.56,9.3-.33,14.85,2.29,25.65,7.8,32.1,3.87,4.54,9.01,6.83,15.27,6.83.29,0,.59,0,.89-.01.96-.03,1.82-.41,2.48-1,.71.11,1.42.16,2.14.16,8.67,0,17.45-7.41,20.44-10.19,1.05,1.13,2.28,2.41,3.67,3.75.02.02.03.03.05.05,1.81,1.76,3.86,3.61,6.09,5.39,8.25,6.56,14.83,8.72,19.92,8.72,3.58,0,6.43-1.07,8.6-2.44,5.25-3.3,10.68-10.92,6.7-28.43-1.12-4.92-2.71-9.48-4.02-12.81,4.33-1.7,17.36-7.58,19.19-17.48.84-4.53-.74-8.93-4.69-13.11,3.56-12.78-.08-20.75-3.88-25.22ZM123.91,58.26c11.13-15.37,26.96-24.85,47.07-28.19,1.38,5.19,3.47,16.68.21,30.72-2.86-1.26-6.03-2.24-9.57-2.86-19.31-3.39-33.29,1.8-42.51,7.91,1.34-2.43,2.92-4.99,4.79-7.57ZM93.5,191.39c-3.12,5.65-3.63,12.12-1.51,19.21.36,1.22.77,2.34,1.18,3.42-.08-.02-.15-.05-.23-.07-23.91-4.13-41.37-39.18-41.54-39.53-.02-.05-.05-.09-.07-.14-10.29-19.09-16.26-38.92-16.79-55.84-.61-19.13,5.46-33.3,18.03-42.12,26.34-18.47,52.2,6.79,53.28,7.87.04.04.08.06.12.1.14.13.29.25.45.36.07.05.13.1.2.14.23.14.47.26.72.35.01,0,.03,0,.04.01.24.08.49.14.75.17.07.01.15.01.22.02.11,0,.21.03.32.03h0c.1,0,.19-.02.29-.03.05,0,.09,0,.14,0,.03,0,.06-.02.1-.02.24-.03.48-.08.71-.16.03,0,.06-.01.09-.02.26-.09.5-.21.73-.35.06-.04.11-.08.17-.12.17-.11.32-.24.47-.37.06-.06.13-.12.19-.18.14-.15.27-.31.39-.48.03-.04.07-.08.1-.12.61-.96,15.39-23.47,48.17-17.72,25.73,4.51,26.16,31.14,26.16,32.26,0,1.67,1.03,3.1,2.48,3.7-.41.15-.81.29-1.21.46-9.79,4.18-17.21,15.53-22.57,34.54-2.94-4.39-7.11-10.09-12.03-15.24-1.33-1.88-8.27-11-18.85-13.02-6.35-1.21-12.64.31-18.73,4.54-11.92,8.27-14.06,17.32-13.75,23.45.57,11.59,9.93,23.47,27.2,34.65-4.95,1.43-11.2,3.54-17.21,6.4-2.2.68-13.02,4.44-18.23,13.87ZM164.73,252.06c-8.55-10.01-5.81-36.03-4.04-45.21.42-2.17-1-4.27-3.17-4.69-1.15-.23-2.29.09-3.16.75-.35.17-.69.37-.99.65-22.48,20.79-35.5,21.26-41.27,19.68-5.77-1.58-9.96-6.6-12.45-14.94-1.5-5.01-1.23-9.27.83-13.01,4.03-7.35,13.68-10.15,13.77-10.18.23-.06.45-.15.67-.25,10.83-5.22,23.04-7.85,24.83-8.21,1.25-.13,2.42-.85,3.07-2.03,1.08-1.93.38-4.37-1.55-5.44-26.75-14.9-31.24-27.14-31.54-33.11-.29-5.98,3.18-11.52,10.33-16.48,4.3-2.98,8.43-4.04,12.62-3.26,8.23,1.55,13.9,9.85,13.95,9.92.13.2.28.38.45.56,8.96,9.33,15.57,21.13,15.64,21.25,0,0,0,0,0,0,.33,1.47,1.47,2.7,3.03,3.04,2.16.48,4.29-.89,4.77-3.05,4.8-21.83,11.63-34.78,20.3-38.49,5.77-2.47,12.81-1.09,21.51,4.2,3.56,2.17,5.53,5.02,6,8.73,1.66,13.06-14.89,33.32-21.41,40.03-.36.37-.62.79-.81,1.23-.4.73-.58,1.59-.45,2.48.32,2.18,2.35,3.7,4.54,3.37,30.29-4.48,41.31,2.49,45.18,7.05,3.15,3.71,4.15,8.71,2.99,14.91-10.34-4.66-24.19-.63-34.81,4.11-1.31-1.36-3.56-3.47-6.35-5.25-2.12-1.35-4.24-2.3-6.33-2.86l-.37-8.24c-.1-2.21-1.98-3.91-4.17-3.82-2.21.1-3.92,1.97-3.82,4.17l.35,7.79c-1.41.37-2.77.96-4.06,1.77-1.31.83-2.44,1.81-3.39,2.93l-7.24-3.6c-1.97-.98-4.38-.18-5.36,1.8-.98,1.98-.18,4.38,1.8,5.36l7.53,3.75c-.34,2.09-.34,4.37.02,6.81.46,3.06,1.39,5.79,2.1,7.56-10.63,8.76-22.98,22.38-19.18,36.24.35,1.26.75,2.43,1.2,3.51-.56-.45-1.09-.95-1.58-1.52ZM204.63,226.83c-.03-4.47-.17-8.78-.32-12.21,3.03,1.62,6.85,3.62,10.87,5.59.78.38,1.54.75,2.27,1.09l-12.83,8.06c0-.82,0-1.66,0-2.54ZM195.65,244.38c-.26.51-.4,1.08-.43,1.65-.11.3-.22.55-.34.74-4.23,4.08-12.17,9.59-16.98,8.29-2.25-.61-3.96-3-5.08-7.09-3.21-11.71,12.69-25.73,23.5-33.24.55,11.99.4,24.25-.68,29.66ZM197.95,204.17s-.03.01-.04.02c-.41.24-3.17,1.87-6.95,4.55-1.24-3.9-2.25-9.99,2.13-12.75,4.45-2.79,9.72.67,12.86,3.43-4.15,2.24-7.09,4.14-8,4.74ZM206.86,248.82c-1.25-1.3-2.36-2.53-3.28-3.6.3-1.66.55-3.7.73-6.2l20.72-13.03c.39-.25.72-.56.99-.91,2.46.98,4.49,1.68,6.18,2.15.57,1.29,1.19,2.82,1.82,4.51l-27.16,17.07ZM233.94,261.75c-5.68,3.57-14.12-1.36-21.06-7.26l23.65-14.87c2.31,8.82,3.09,18.56-2.58,22.13ZM252.19,208.35c-.91,4.92-9.31,9.67-14.82,11.71-.22.02-.5.02-.82-.02-.54-.23-1.12-.35-1.71-.34-5.36-1.39-16.43-6.56-26.97-12.24,11.45-6.48,30.98-14.74,40.14-6.77,3.2,2.78,4.6,5.35,4.18,7.64Z"/>
        <path class="cls-1" d="M168.4,171.27c3.06,0,5.54-2.49,5.54-5.54s-2.49-5.54-5.54-5.54-5.54,2.49-5.54,5.54,2.49,5.54,5.54,5.54Z"/>
        <path class="cls-1" d="M183.19,183.49c3.06,0,5.54-2.49,5.54-5.54s-2.49-5.54-5.54-5.54-5.54,2.49-5.54,5.54,2.49,5.54,5.54,5.54Z"/>
        <path class="cls-1" d="M159.06,178.15c-3.05,0-5.54,2.49-5.54,5.54s2.49,5.54,5.54,5.54,5.54-2.49,5.54-5.54-2.49-5.54-5.54-5.54Z"/>
      </g>
    </g>
  </g>
</svg>