<?xml version="1.0" encoding="UTF-8"?>
<svg id="trazo_negro" xmlns="http://www.w3.org/2000/svg" viewBox="0 0 283.46 283.46">
  <defs>
    <style>
      .cls-1 {
        fill: #f27f1f;
      }

      .cls-2 {
        fill: #fdc905;
      }

      .cls-3 {
        fill: #231f20;
      }

      .cls-4 {
        fill: #84bc41;
      }
    </style>
  </defs>
  <path class="cls-1" d="M94.8,166.26s-7.17-40.4,50.81-48.28c0,0,36.11,2.08,47.02,24.06l-25.02,35.2-37.82,3.53s26.42-16.38,13.47-27.83l-48.47,13.33Z"/>
  <path class="cls-4" d="M145.61,95.71s2.17-42.66-46.8-44.21c0,0,2.01,55.81,46.8,44.21Z"/>
  <path class="cls-4" d="M145.61,95.71s-17.72-44.55,25.92-66.67c0,0,16.07,2.99,6.94,44.27-7.53,34.04-32.86,22.4-32.86,22.4Z"/>
  <path class="cls-2" d="M55.53,253.79l66.95-31.74s73.9-10.25,79.1-52.91c0,0,16.33-45.62-8.96-27.11-25.29,18.51-25.02,35.2-25.02,35.2l-45.4,6.96s28.07-11.98,21.05-31.26l-48.47,13.33-18.89,32.78-20.37,54.75Z"/>
  <g>
    <path class="cls-3" d="M168.76,213.42c13.72-5.37,27.94-23.79,28.54-24.58.02-.02.03-.05.04-.07.13-.18.25-.36.35-.56.01-.02.03-.04.04-.07,0,0,0,0,0,0,4.44-9.28,18.57-40.36,14.32-50.69-1.23-2.98-3.46-4.92-6.3-5.46-7.27-1.39-16.15,7.14-18.7,9.79-.15.16-.3.33-.42.52l-3.38,4.94c-5.45-5.84-16.18-14.15-33.65-15.27v-32.9c.57.03,1.17.05,1.82.05,5.46,0,13.83-1.2,20.83-7.36,9.08-7.98,12.99-21.62,11.6-40.55-.16-2.15-2-3.78-4.15-3.71-.72.03-17.81.84-28.82,13.69-3.29,3.84-5.66,8.32-7.12,13.39-.5-.71-1.03-1.42-1.62-2.11-8.39-9.99-23.05-14.52-43.57-13.48-2.15.11-3.83,1.91-3.8,4.06.01.78.48,19.24,14.08,31.43,7.58,6.79,17.59,10.21,29.83,10.21.95,0,1.91-.03,2.89-.07v27.63c-7.1,1.34-15.25,6.15-24.29,14.35-5.95,5.4-10.58,10.73-12.5,13.02-1.55.27-2.96.46-4.16.55-7.41.53-18.07,6.68-26.83,32.96-3.37,10.1-28.52,69.46-28.78,70.06-.86,2.03.09,4.38,2.12,5.24.51.22,1.04.32,1.56.32,1.56,0,3.04-.92,3.68-2.44,1.04-2.46,25.54-60.26,29-70.66,5.66-16.99,12.88-27.01,19.81-27.51,1.87-.13,4.13-.48,6.63-.96,0,0,0,0,.01,0,10.94-2.13,26.35-7.04,33.21-9.3,1.12,3.77,1.4,10.54-7.26,16.67l-23.1,10.45c-2.01.91-2.91,3.28-2,5.29.91,2.01,3.28,2.91,5.29,2l4.49-2.03,49.83-9.1c1.05-.19,1.98-.8,2.58-1.68l22.13-32.39c4.79-4.87,10.01-7.71,11.23-7.25,0,0,.17.13.38.64,1.54,3.75-3.36,21.53-13.96,43.8-1.86,2.36-14.08,17.46-24.85,21.67-5.26,2.06-13.44,3.69-21.34,5.27-13.8,2.75-21.76,4.49-25.01,8.15-4.74,5.34-9.91,37.03-11.91,50.41-.33,2.18,1.18,4.22,3.36,4.55.2.03.4.04.6.04,1.95,0,3.65-1.42,3.95-3.41,2.96-19.83,7.63-43.18,9.97-46.27,1.83-1.88,13.13-4.13,20.61-5.63,8.24-1.65,16.77-3.35,22.69-5.66ZM156.94,66.45c5.87-6.88,14.28-9.46,19.17-10.41.4,14-2.64,23.97-9.07,29.66-5.69,5.04-12.94,5.55-16.89,5.38-.65-10.31,1.63-18.59,6.78-24.64ZM141.51,96.62c-11.48.52-20.63-2.18-27.22-8.06-7.62-6.79-10.19-16.4-11.05-21.73,15.57-.17,26.59,3.42,32.76,10.71,5.55,6.56,5.83,14.8,5.51,19.07ZM165.25,173.6l-22.78,4.16c12.94-12.51,4.29-26.79,4.19-26.95-.99-1.58-2.93-2.27-4.69-1.67-.19.06-11.83,4.04-23.32,7.21,7.86-7.82,18.66-16.52,26.96-16.52,18.47,0,28.7,9.1,32.99,14.21l-13.36,19.55Z"/>
    <path class="cls-3" d="M53.09,173.14c.5,0,1-.09,1.47-.28,1.3-.51,2.24-1.67,2.47-3.04l5.85-34.13c.37-2.18-1.09-4.25-3.27-4.62-2.18-.38-4.25,1.09-4.62,3.27l-3.46,20.18c-1.98-6.43-3.3-13.06-3.92-19.84-4.92-53.52,34.62-101.07,88.15-105.99,2.2-.2,3.82-2.15,3.62-4.35-.2-2.2-2.15-3.83-4.35-3.62-57.92,5.33-100.7,56.78-95.38,114.69.69,7.47,2.16,14.78,4.37,21.85l-17.21-13.02c-1.76-1.33-4.27-.99-5.6.78-1.33,1.76-.99,4.27.78,5.6l28.69,21.71c.71.53,1.56.81,2.41.81Z"/>
    <path class="cls-3" d="M262.88,98.02l-31.1-18.09c-1.21-.7-2.69-.72-3.92-.06-1.23.67-2.02,1.92-2.09,3.32l-1.69,34.58c-.11,2.21,1.59,4.08,3.8,4.19.07,0,.13,0,.2,0,2.12,0,3.89-1.66,3.99-3.8l1.04-21.15c4.15,10.97,6.26,22.52,6.26,34.45,0,53.75-43.73,97.48-97.48,97.48-2.21,0-4,1.79-4,4s1.79,4,4,4c58.16,0,105.48-47.32,105.48-105.48,0-12.84-2.26-25.29-6.72-37.12l18.21,10.59c1.91,1.11,4.36.46,5.47-1.45,1.11-1.91.46-4.36-1.45-5.47Z"/>
  </g>
</svg>