<?xml version="1.0" encoding="UTF-8"?>
<svg xmlns="http://www.w3.org/2000/svg" version="1.1" viewBox="0 0 283.46 283.46">
  <defs>
    <style>
      .cls-1 {
        fill: #231f20;
      }
    </style>
  </defs>
  <!-- Generator: Adobe Illustrator 28.6.0, SVG Export Plug-In . SVG Version: 1.2.0 Build 709)  -->
  <g>
    <g id="iconos">
      <g>
        <path class="cls-1" d="M41.72,227.64c0,2.21,1.79,4,4,4h207.31c2.21,0,4-1.79,4-4v-34.9c0-2.21-1.79-4-4-4h-8.78v-7.29c28.05-13.81,21.77-37.35,21.71-37.59-.58-2.06-2.69-3.29-4.76-2.8-5.57,1.31-9.98,3.23-13.45,5.5-6.35-12.96-19.17-14.76-25.66-13.71-1.49.24-2.71,1.3-3.17,2.73-4.93,15.41,7.85,25.28,17.24,29.29-.1,1.35-.05,2.58.1,3.67v10.44s0,0,0,.01v9.76h-15.45v-23.43c0-2.21-1.79-4-4-4h-2.56v-48.25c8.92-.32,15.71-3.09,20.23-8.26,7.56-8.66,5.49-20.61,5.4-21.12-.37-2.01-2.19-3.42-4.24-3.27-10.05.76-17.2,6.13-21.96,12.34-1.23-6.1-3.71-11.08-7.42-14.9-8.14-8.38-19.08-7.72-19.54-7.69-1.98.14-3.56,1.7-3.71,3.68-1.61,20.47,13.29,33.03,23.25,37.83v49.65h-27.59v-61.23c0-.09-.02-.18-.03-.27-.01-.15-.02-.3-.05-.46-.02-.13-.06-.25-.1-.38-.04-.12-.07-.25-.12-.37-.06-.14-.13-.27-.2-.41-.04-.08-.07-.16-.12-.24l-25.28-40.48c-.72-1.16-1.98-1.87-3.35-1.88-1.4-.03-2.64.67-3.39,1.8l-26.54,40.44s0,0,0,0l-.03.04c-.05.07-.07.14-.11.21-.09.15-.18.3-.24.47-.05.12-.08.25-.12.38-.04.12-.08.24-.11.37-.03.17-.04.35-.05.53,0,.08-.02.16-.02.24v.05h0v24.71c0,.48.1.93.25,1.35h-26.98c11.04-8.67,24.93-24.87,20.27-49.6-.4-2.1-2.36-3.51-4.47-3.22-.27.04-24.24,3.64-34.77,28.96-1.14-2.46-2.53-5.11-4.19-7.75-8.29-13.15-19.41-19.62-32.15-18.72-2.13.15-3.76,1.95-3.72,4.08.03,1.54,1.14,37.02,28.95,52.66v7.84c-3.3,2.26-9.8,7.47-14.23,15.89-4.21-7.87-11.92-15.93-24.66-17.66-1.9-.26-3.72.87-4.33,2.69-.11.32-9.96,30.92,22.94,45.24v41.04ZM244.26,164.39c.58-3.92,3.3-10.47,14.43-14.3,0,1.69-.2,3.8-.85,6.11-1.83,6.47-6.39,11.88-13.57,16.17v-7.98ZM218.83,99.27c3.51-5.37,7.99-8.79,13.35-10.21-.13,3.03-.89,7.23-3.73,10.47-2.72,3.11-6.95,4.92-12.62,5.42.72-1.71,1.7-3.69,3-5.68ZM225.96,140.6c4.12.11,11.81,1.72,15.47,11.51-1.33,1.6-2.36,3.26-3.15,4.9-4.87-2.3-13.41-7.62-12.33-16.41ZM190.92,78.46c2.76.51,6.57,1.8,9.67,5.03,4.02,4.18,6.02,10.61,6,19.15-5.92-3.68-14.97-11.35-15.67-24.18ZM178.66,169.31h34.15v23.43c0,2.21,1.79,4,4,4h32.23v26.9h-70.38v-54.33ZM131.85,223.64h-49.54v-10.62h49.54v10.62ZM131.85,205.02h-49.54v-11.27h49.54v11.27ZM131.85,185.74h-49.54v-11.27h49.54v11.27ZM131.85,166.47h-49.54v-11.27h49.54v11.27ZM149.29,67.02l18.15,29.06h-37.23l19.08-29.06ZM126.81,124.83v-20.75h43.85v119.56h-30.81v-93.45c0-2.21-1.79-4-4-4h-9.3c.15-.42.25-.88.25-1.35ZM131.85,134.19v13.01h-49.54v-13.01h49.54ZM41.42,83.89c20.54,2.16,28.12,31.76,28.2,32.08.45,1.83,2.11,3.11,3.99,3.04,1.88-.05,3.47-1.4,3.82-3.25,4.47-23.48,20.24-31.17,27.65-33.52,1.16,12.06-2.81,22.9-11.82,32.27-7.74,8.05-16.48,11.97-16.56,12-.21.09-.4.2-.58.32-.05.03-.1.07-.15.11-.14.1-.28.21-.4.33-.05.05-.1.1-.15.15-.13.14-.25.28-.36.44-.03.04-.05.07-.08.1-.13.19-.23.39-.32.6-.03.06-.05.13-.07.19-.06.16-.11.33-.15.5-.02.07-.03.14-.05.21-.04.23-.07.47-.07.72v93.45h-4.32v-93.45c0-1.52-.86-2.9-2.21-3.58-20.21-10.09-25.17-33.25-26.37-42.71ZM25.59,147.32c15.28,4.29,18.11,20.9,18.22,21.64.3,1.93,1.94,3.37,3.89,3.4,1.94.06,3.64-1.35,4-3.27,1.56-8.45,6.33-14.55,10.3-18.34v72.89h-12.28v-39.73c0-1.66-1.02-3.14-2.57-3.73-22.62-8.69-22.71-25.59-21.56-32.85Z"/>
        <path class="cls-1" d="M157.59,123.36c2.21,0,4-1.79,4-4v-3.05c0-2.21-1.79-4-4-4s-4,1.79-4,4v3.05c0,2.21,1.79,4,4,4Z"/>
        <path class="cls-1" d="M157.59,143.68c2.21,0,4-1.79,4-4v-3.05c0-2.21-1.79-4-4-4s-4,1.79-4,4v3.05c0,2.21,1.79,4,4,4Z"/>
        <path class="cls-1" d="M157.59,165.84c2.21,0,4-1.79,4-4v-3.05c0-2.21-1.79-4-4-4s-4,1.79-4,4v3.05c0,2.21,1.79,4,4,4Z"/>
        <path class="cls-1" d="M157.59,186.15c2.21,0,4-1.79,4-4v-3.05c0-2.21-1.79-4-4-4s-4,1.79-4,4v3.05c0,2.21,1.79,4,4,4Z"/>
        <path class="cls-1" d="M157.59,205.99c2.21,0,4-1.79,4-4v-3.05c0-2.21-1.79-4-4-4s-4,1.79-4,4v3.05c0,2.21,1.79,4,4,4Z"/>
        <path class="cls-1" d="M141.74,123.36c2.21,0,4-1.79,4-4v-3.05c0-2.21-1.79-4-4-4s-4,1.79-4,4v3.05c0,2.21,1.79,4,4,4Z"/>
        <path class="cls-1" d="M188.94,176.01c-2.21,0-4,1.79-4,4v6.92c0,2.21,1.79,4,4,4s4-1.79,4-4v-6.92c0-2.21-1.79-4-4-4Z"/>
        <path class="cls-1" d="M202.54,176.01c-2.21,0-4,1.79-4,4v6.92c0,2.21,1.79,4,4,4s4-1.79,4-4v-6.92c0-2.21-1.79-4-4-4Z"/>
      </g>
    </g>
  </g>
</svg>