<?xml version="1.0" encoding="utf-8"?>
<!-- Generator: Adobe Illustrator 22.1.0, SVG Export Plug-In . SVG Version: 6.00 Build 0)  -->
<svg version="1.1" id="Layer_1" xmlns="http://www.w3.org/2000/svg" xmlns:xlink="http://www.w3.org/1999/xlink" x="0px" y="0px"
	 viewBox="0 0 463.8 184.2" style="enable-background:new 0 0 463.8 184.2;" xml:space="preserve">
<style type="text/css">
	.st0{fill:#231F20;}
</style>
<g>
	<g id="iconos">
		<g>
			<path class="st0" d="M459.8,176.2h-16.3c-3.3-5.2-12.3-23.8,0.7-55.6c0.8,0.2,1.7,0.3,2.6,0.3c7.4,0,13.4-6,13.4-13.4
				s-6-13.4-13.4-13.4s-13.4,6-13.4,13.4c0,3.6,1.4,6.8,3.7,9.2c-12.5,29.8-7.2,49.9-2.7,59.5h-19.6c-1.2-5.5-3.4-17.9-3.8-33
				c-0.4-18.4,2-44.5,15.8-65.5c1.6,0.7,3.3,1,5.2,1c7.4,0,13.4-6,13.4-13.4s-6-13.4-13.4-13.4s-13.4,6-13.4,13.4
				c0,2.6,0.8,5.1,2.1,7.1c0,0,0,0,0,0c-15.4,22.9-18.1,51.3-17.6,71.1c0.3,14.4,2.3,26.3,3.6,32.6h-17.6
				c1.2-9.6,0.7-31.1-20.9-55.7c4.6,3.1,12.1,7.3,19.3,7.3c1.9,0,3.7-0.3,5.4-0.9c5.6-2,9.1-7.1,10.6-15.1
				c2.9-15.5-11.5-29.3-24.1-38.2c0.6-2,1.4-5.6,1.6-9.6c0.1-3-0.2-5.7-0.9-8.1l8.2-5.4c1.9-1.2,2.4-3.7,1.2-5.5
				c-1.2-1.8-3.7-2.4-5.5-1.2l-7.9,5.1c-1.2-1.3-2.6-2.3-4.3-3.2s-3.4-1.4-5.1-1.7l-0.7-9.7c-0.2-2.2-2.1-3.9-4.3-3.7
				c-2.2,0.2-3.9,2.1-3.7,4.3l0.7,10.1c-2.3,0.8-4.7,2.2-6.9,4c-2.9,2.3-5.1,5-6.4,6.7c-14.7-5.4-35.3-9.8-46.7,1.8
				c-5.6,5.8-7.7,11.7-6.2,17.4c0.5,1.8,1.3,3.4,2.4,4.9c-0.9-0.2-1.8-0.3-2.8-0.3c-7.4,0-13.4,6-13.4,13.4s6,13.4,13.4,13.4
				c0.2,0,0.4,0,0.6,0c9.4,17,13.1,34.2,11.1,51.1c-1.1,9.1-3.6,15.8-5,18.9h-38.1c2.2-9.4,5-30.1-3.8-55.7c4-2.3,6.6-6.6,6.6-11.6
				c0-7.4-6-13.4-13.4-13.4c-1.1,0-2.2,0.1-3.2,0.4c0.6-0.6,1.1-1.2,1.6-1.8c3.3-4.3,5.2-9.8,5.5-15.4c4.5,2.9,9.9,4.6,15.1,4.6
				c0.2,0,0.4,0,0.6,0c7.6-0.2,13.6-4.2,16.6-10.9c2.2-5,2.3-9.9,0.2-14.3c-2.1-4.4-6.1-7.6-9.8-9.7c3.2-2.2,5.7-4.8,7.5-7.8
				c5.8-10,1.4-20.4,0.5-22.1c-0.7-1.7-5.2-12.6-14.7-16.9c-5-2.3-10.4-2.3-16-0.1c-12,4.6-18.6,16.3-22,24.8l-0.1-0.2
				c-1-2-3.4-2.8-5.4-1.8c-2,1-2.8,3.4-1.8,5.4L225,30c-8.9-2.3-22.2-3.9-33,3c-5.1,3.2-8.3,7.6-9.4,13c-2.2,10.2,3.9,20.3,4.9,21.8
				c0.9,1.7,6.6,11.5,18.1,12.7c0.8,0.1,1.5,0.1,2.3,0.1c2.7,0,5.6-0.5,8.4-1.5c-0.5,4.2-0.4,9.3,2,13.6c2.3,4.2,6.3,7.1,11.6,8.3
				c1.4,0.3,2.8,0.5,4.2,0.5c2,0,3.9-0.3,5.6-0.9c-1.9,2.3-3,5.2-3,8.4c0,7,5.4,12.8,12.3,13.3c9.2,25.9,5.3,46.8,3.4,53.9h-50.6
				c-3.2-7-12.2-30.8,1-54c0.2-0.4,0.4-0.9,0.5-1.4c0.2,0,0.4,0,0.6,0c7.4,0,13.4-6,13.4-13.4s-6-13.4-13.4-13.4s-13.4,6-13.4,13.4
				c0,4.4,2.1,8.3,5.4,10.7c0,0,0,0-0.1,0.1c-13.4,23.7-7,47.2-2.7,58h-32.5c1.5-5.3,0.4-9.2-1-11.7c-2.4-4.4-6.7-6.9-10-8.2
				c0-0.1,0.1-0.2,0.1-0.3l3.1-7.6l16.4,6.6c0.5,0.2,1,0.3,1.5,0.3c1.6,0,3.1-0.9,3.7-2.5c0.8-2.1-0.2-4.4-2.2-5.2l-16.4-6.6
				l4.1-10.2c6.9,1.1,16.9,0.2,20.8-9.4c0.8-2.1-0.2-4.4-2.2-5.2c-2.1-0.8-4.4,0.2-5.2,2.2c-1.9,4.7-7,5.1-10.7,4.7
				c1.2-5.9,0.3-11.8-2.5-16.9l11.1-10.4c1.6-1.5,1.7-4,0.2-5.6c-1.5-1.6-4-1.7-5.6-0.2l-10.6,9.9c-2.2-2-4.7-3.7-7.6-4.9l-6-2.4
				c-2.4-1-4.9-1.6-7.5-1.7l-1.7-14.9c-0.2-2.2-2.2-3.8-4.4-3.5c-2.2,0.2-3.8,2.2-3.5,4.4l1.7,14.8c-1.2,0.3-2.4,0.7-3.5,1.2
				c-5,2.1-9.1,5.7-11.7,10.3c-3.1-1.7-5-3.7-5.7-5.8c-0.8-2.7,0.7-5,0.8-5.2c1.3-1.8,0.8-4.3-0.9-5.5c-1.8-1.3-4.3-0.9-5.6,0.9
				c-0.4,0.6-3.8,5.6-2,12c1.3,4.4,4.7,8,10.1,10.9l-3.9,9.6l-15.3-6.2c-2.1-0.8-4.4,0.2-5.2,2.2s0.2,4.4,2.2,5.2l15.3,6.2l-3.1,7.6
				c0,0.1-0.1,0.2-0.1,0.3c-3.2-1.1-7.4-1.9-11.6-0.6c-3.1,0.9-7.2,3.4-9.8,9.9c-0.8,2.1,0.2,4.4,2.2,5.2c0.5,0.2,1,0.3,1.5,0.3
				c1.6,0,3.1-0.9,3.7-2.5c1.2-2.9,2.7-4.6,4.8-5.3c2.4-0.8,5.4,0,7.6,0.9c-0.4,10.2,5.5,20,15.5,24.1l6,2.4c3,1.2,6.2,1.8,9.3,1.8
				c7.1,0,13.8-3,18.5-8.3c2.4,0.8,5.9,2.4,7.4,5.1c1,1.9,1,4.2-0.2,7.1c-0.1,0.2-0.2,0.5-0.2,0.8H68.9c-1.2-5.5-3.4-17.9-3.8-33
				c-0.4-18.2,2-44,15.4-64.9c1.1,0.3,2.2,0.4,3.4,0.4c7.4,0,13.4-6,13.4-13.4s-6-13.4-13.4-13.4s-13.4,6-13.4,13.4
				c0,3.3,1.2,6.4,3.2,8.7c-14.5,22.6-17,50.2-16.6,69.5c0.3,14.4,2.3,26.3,3.6,32.6h-9.6c1.3-10.3,0.6-34.6-26.5-61.6
				c1.3-2.1,2.1-4.5,2.1-7.1c0-7.4-6-13.4-13.4-13.4S0,100.1,0,107.4s6,13.4,13.4,13.4c1.8,0,3.6-0.4,5.2-1.1
				c26.4,26.1,25.7,48.7,24.5,56.4H10.4c-2.2,0-4,1.8-4,4s1.8,4,4,4h35.9c0,0,0,0,0,0s0,0,0,0h153h0c0,0,0,0,0,0h56.1c0,0,0,0,0,0
				c0,0,0,0,0,0h45.8c0,0,0,0,0,0c0,0,0,0,0,0h82.9c0,0,0,0,0,0s0,0,0,0h75.6c2.2,0,4-1.8,4-4S462,176.2,459.8,176.2L459.8,176.2z
				 M446.8,102.1c3,0,5.4,2.4,5.4,5.4s-2.4,5.4-5.4,5.4s-5.4-2.4-5.4-5.4S443.8,102.1,446.8,102.1z M432,59.9c3,0,5.4,2.4,5.4,5.4
				s-2.4,5.4-5.4,5.4s-5.4-2.4-5.4-5.4S429.1,59.9,432,59.9z M292,98.3c-3,0-5.4-2.4-5.4-5.4s2.4-5.4,5.4-5.4s5.4,2.4,5.4,5.4
				S295,98.3,292,98.3z M203.8,102.1c3,0,5.4,2.4,5.4,5.4s-2.4,5.4-5.4,5.4s-5.4-2.4-5.4-5.4S200.9,102.1,203.8,102.1z M125.8,100.1
				c0.9-0.4,1.7-0.6,2.6-0.9c0.7,0.5,1.4,0.7,2.3,0.7c0.1,0,0.3,0,0.4,0c0.9-0.1,1.8-0.5,2.4-1.2c1.7,0.1,3.5,0.5,5.1,1.2l6,2.4
				c2.1,0.9,3.9,2.1,5.5,3.6c-0.1,1.1,0.2,2.3,1,3.1c0.6,0.6,1.3,1,2.1,1.2c1.6,3.2,2.3,6.9,1.6,10.6c-8.4-2.8-15.4-3-20.7-0.5
				c-0.3-1-0.7-2-1.2-2.9c-3.2-6.1-9.9-9.6-14.5-11.4C120.3,103.4,122.8,101.4,125.8,100.1L125.8,100.1z M113.7,159.5
				c-6.2-2.9-9.9-9.1-9.8-15.6c0.1-0.1,0.2-0.3,0.3-0.4c0.8-1.2,0.8-2.6,0.3-3.8c0.2-0.6,0.4-1.1,0.6-1.6l4.2-10.4
				c0.2-0.3,0.4-0.5,0.5-0.9c0.1-0.3,0.2-0.6,0.2-0.9l5.1-12.5c3.7,1.4,8.8,4,10.8,7.9c1.1,2.1,1.2,4.4,0.4,7
				c-0.3,0.7-0.5,1.2-0.6,1.6L113.7,159.5L113.7,159.5z M142.3,153c-3.4,8.4-12.8,12.5-21.2,9.5l12.1-29.9c0.2-0.5,0.4-1,0.6-1.5
				c0.5-0.9,1.4-2.3,3.3-3.3c2.5-1.2,7-2,15.1,0.6L142.3,153L142.3,153z M83.9,59.9c3,0,5.4,2.4,5.4,5.4s-2.4,5.4-5.4,5.4
				s-5.4-2.4-5.4-5.4S80.9,59.9,83.9,59.9z M13.4,112.8c-3,0-5.4-2.4-5.4-5.4s2.4-5.4,5.4-5.4s5.4,2.4,5.4,5.4
				S16.3,112.8,13.4,112.8z M279.4,61.6c1.1,2.2,1,4.7-0.3,7.6c-1.8,4-5,6.1-9.5,6.2c-0.1,0-0.2,0-0.4,0c-6.9,0-14.7-4.7-17.8-10.9
				l0,0l-3.8-7.5c7.8-0.7,14.4-2,19.9-3.9C270.8,54.2,277.2,57.2,279.4,61.6z M256.9,9.1c3.6-1.4,6.8-1.4,9.9-0.1
				c7,3.1,10.6,12.5,10.6,12.6c0,0.1,0.1,0.3,0.2,0.4c0,0.1,3.8,7.9-0.2,14.7c-4.3,7.2-15.9,11.6-33.7,12.6l-6.4-12.7
				C238.4,31.7,243.7,14.2,256.9,9.1L256.9,9.1z M206.4,72.6c-7.9-0.8-12-8.5-12-8.5c-0.1-0.1-0.1-0.3-0.2-0.4
				c-0.1-0.1-5.5-8.5-3.9-16c0.7-3.2,2.6-5.8,5.9-7.9c11.9-7.6,29.2-1.5,33.8,0.4l6.4,12.7C225.1,66.6,214.8,73.4,206.4,72.6
				L206.4,72.6z M231.6,93.2c-3.1-0.7-5.1-2.1-6.3-4.2c-2.3-4.4-0.9-11.2,0.2-14.6c4.8-3.3,9.8-7.9,15-13.7l3.8,7.5
				c3.2,6.3,2.3,15.5-2,21.1C239.4,92.8,235.9,94.2,231.6,93.2L231.6,93.2z M250.1,114.3c-3,0-5.4-2.4-5.4-5.4s2.4-5.4,5.4-5.4
				s5.4,2.4,5.4,5.4S253.1,114.3,250.1,114.3z M395.6,110.4c-0.9,5-2.8,8-5.5,9c-5.6,2-15.5-3.6-20.8-8c-0.2-0.2-0.4-0.6-0.6-1.1
				c-0.1-0.6-0.3-1.3-0.6-1.8c-1.2-4.3-2.3-12.4-3-21.7l8,13.2c0.8,1.2,2.1,1.9,3.4,1.9c0.7,0,1.4-0.2,2.1-0.6
				c1.9-1.1,2.5-3.6,1.4-5.5l-12.3-20.5C380.7,83.4,398.1,97.2,395.6,110.4L395.6,110.4z M368.1,52.8c6,3.1,5.2,11.3,4.2,16.1
				c-5-3.1-8.9-5-10-5.5c0,0,0,0,0,0c-0.5-0.3-4-2.2-9.2-4.5C356.2,55.2,362.1,49.8,368.1,52.8L368.1,52.8z M323,97.9
				c0.7-2.6,1.4-4.7,1.9-6.1c1.9-0.7,4.2-1.7,7-3.1l25.1,13c0.5,0.3,1.1,0.4,1.7,0.4c0.5,3.3,1,5.9,1.6,7.9
				c-0.5,0.8-1.3,1.7-2.1,2.9c-0.7,0.2-1.3,0.5-1.8,1c-0.2,0.2-0.4,0.5-0.6,0.8L323,97.9L323,97.9z M351,121.4
				c-0.8,0.9-1.7,1.7-2.5,2.5c-6.2,5.8-15.1,12-22,8.4c-6.9-3.6-7-14.4-5.8-22.8c0.2-1.2,0.4-2.4,0.6-3.5L351,121.4L351,121.4z
				 M356.5,74.2c0.1,4.1,0.4,9.5,0.8,15c0.1,1.4,0.2,2.7,0.3,3.9l-17.3-8.9c1.1-0.6,2.2-1.3,3.4-2C348.5,79.3,353,76.4,356.5,74.2z
				 M304.4,63.1c9.3-9.6,30.4-3.5,44.4,2.6l-24.3,1.5c-2.2,0.1-3.9,2-3.7,4.2s2,3.9,4.2,3.7l16.5-1c-8.1,4.9-15.5,8.8-19.8,10.3
				c-0.6,0-1.3,0.2-1.8,0.5c-0.5,0.1-0.9,0.1-1.2,0.1c-6.6-1.8-16.9-6.6-18.5-12.4C299.4,70,300.8,66.8,304.4,63.1L304.4,63.1z
				 M381,176.2h-73.6c4.5-11.6,11-38.9-7.2-72.8c3.1-2.4,5.1-6.3,5.1-10.5c0-1.8-0.4-3.4-1-5c4.8,2.7,9.6,4.2,11.8,4.8
				c-1.2,3.9-2.7,9.5-3.5,15.5c-2.8,20,3.9,28,10,31.2c2.2,1.1,4.9,2,8.1,2c5.9,0,13.6-2.8,23.1-11.8c2.2-2.1,4.2-4.2,6-6.3
				C382.8,147.9,382.2,168.8,381,176.2L381,176.2z"/>
			<path class="st0" d="M225.3,163.7c7.4,0,13.4-6,13.4-13.4s-6-13.4-13.4-13.4s-13.4,6-13.4,13.4S218,163.7,225.3,163.7z
				 M225.3,144.9c3,0,5.4,2.4,5.4,5.4s-2.4,5.4-5.4,5.4s-5.4-2.4-5.4-5.4S222.4,144.9,225.3,144.9z"/>
			<path class="st0" d="M54.6,71.6c0-7.4-6-13.4-13.4-13.4s-13.4,6-13.4,13.4S33.8,85,41.2,85S54.6,79,54.6,71.6z M35.8,71.6
				c0-3,2.4-5.4,5.4-5.4s5.4,2.4,5.4,5.4S44.2,77,41.2,77S35.8,74.6,35.8,71.6z"/>
			<path class="st0" d="M337.3,159.7c0,7.4,6,13.4,13.4,13.4s13.4-6,13.4-13.4s-6-13.4-13.4-13.4S337.3,152.3,337.3,159.7z
				 M356.1,159.7c0,3-2.4,5.4-5.4,5.4s-5.4-2.4-5.4-5.4s2.4-5.4,5.4-5.4S356.1,156.7,356.1,159.7z"/>
		</g>
	</g>
</g>
</svg>
