<?xml version="1.0" encoding="UTF-8"?>
<svg xmlns="http://www.w3.org/2000/svg" version="1.1" viewBox="0 0 283.46 283.46">
  <defs>
    <style>
      .cls-1 {
        fill: #f27f1f;
      }

      .cls-2 {
        fill: #fdc905;
      }

      .cls-3 {
        fill: #231f20;
      }

      .cls-4 {
        fill: #abdfea;
      }

      .cls-5 {
        fill: #84bc41;
      }

      .cls-6 {
        fill: #ffe400;
      }
    </style>
  </defs>
  <!-- Generator: Adobe Illustrator 28.6.0, SVG Export Plug-In . SVG Version: 1.2.0 Build 709)  -->
  <g>
    <g id="iconos">
      <g>
        <g>
          <path class="cls-4" d="M141.17,57.13c23.94-9.12,50.13-12.26,75.55-9.07,2.71.34,5.54.8,7.71,2.46,4.24,3.23,4.33,9.65,2.79,14.75-1.43,4.73-3.88,9-6.6,13.1-1.87,2.81-9.36,9.72-9.26,13.01.22,7.39,18.46,16.36,23.61,20.41,21.65,17.04,33.23,46.32,28.21,73.41-5.01,27.09-26.82,50.55-53.68,56.69-8.99,2.06-18.3,2.28-27.53,2.15-5.98-.08-12.24-.39-17.4-3.42-5.86-3.45-9.43-10.2-9.65-17-.22-6.8,2.69-13.5,7.3-18.5,4.41-4.77,10.2-8.01,15.19-12.16,5-4.15,9.44-9.82,9.46-16.31.02-5.76-3.54-11.07-8.16-14.51s-10.21-5.29-15.74-6.88c-4.62-1.33-9.62-2.73-12.55-6.54-6.25-8.09,4.72-15.27,8.9-20.69,5.87-7.63,7.3-18.45,3.6-27.35-2.65-6.37-7.87-11.62-14.13-14.48-6.38-2.92-14.8-.78-20.59-4.32-14.24-8.71,4.66-21.6,12.95-24.76Z"/>
          <path class="cls-1" d="M87.94,60.78c1.14.74,2.21,1.58,3.2,2.54,2.19,2.11,3.89,4.69,5.34,7.37,4.56,8.41,8.38,20.45,6.26,30.08-.67,3.02-4.09,5.53-1.58,8.49,2.78,3.27,6.93-.33,8.82-2.72,3.06-3.87,6.12-7.74,9.18-11.61,2.61-3.3,5.38-6.73,9.25-8.39s9.14-.85,11.12,2.86c.59,1.1.83,2.44.4,3.6-.4,1.07-1.3,1.85-2.15,2.61-4.3,3.89-8.11,8.78-8.95,14.52s2.17,12.32,7.73,13.96c3.76,1.1,7.76-.15,11.67-.39,3.91-.24,8.63,1.22,9.58,5.03.79,3.18-1.49,6.27-3.86,8.53-5.64,5.39-12.28,8.43-19.36,11.18,14.28-.43,23.05,1.06,35.06,9.92,5.8,4.28,11.8,8.79,15.11,15.2,4.11,7.97,3.14,18.29-2.38,25.35-5.52,7.06-15.31,10.49-24.03,8.42-6.61-1.57-11.64-8.38-16.97-12.42-7.45-5.64-14.29-12.05-22.13-17.17-9.11-5.94-19.43-10.11-27.58-17.3-12.35-10.89-18.05-26.86-25.9-40.87-7.87-14.03-23.66-29.5-20.87-47.09.9-5.68,3.4-11.49,8.27-14.55,4.43-2.78,10.01-2.83,15.23-2.47,6.8.47,13.94,1.65,19.55,5.31Z"/>
          <path class="cls-2" d="M62.29,104.29c-4.4-7.02-9.79-13.8-17.19-17.53-7.4-3.73-17.2-3.7-23.28,1.93-3.98,3.68-5.86,9.2-6.23,14.61-.86,12.67,5.89,24.96,15.33,33.44,9.45,8.48,21.34,13.69,33.27,18.04,4.18,1.52,8.54,3.05,11.74,6.13,5,4.81,6.12,12.25,7.45,19.07,3.24,16.58,9.92,33.35,23.08,43.94,13.16,10.59,33.98,12.87,46.55,1.59,3.48-3.12,6.24-7.28,6.79-11.92,1.33-11.2-9.7-19.54-19.39-25.32-17.21-10.27-41.65-19.57-55.75-33.95-11.9-12.14-13.55-35.14-22.39-50.03Z"/>
          <path class="cls-6" d="M103.01,125.15c2.68.85,4.92,2.71,6.8,4.8,9.33,10.37,10.35,25.66,9.56,39.58-6.64,1.47-13.47-.89-19.86-3.21-4.15-1.51-8.44-3.1-11.57-6.21-5.26-5.22-9.13-19.47-8.07-26.89,1.56-10.97,12.99-11.29,23.15-8.07Z"/>
          <path class="cls-5" d="M24.87,251.03c-.63,3.46-.58,8.08,2.73,9.25,3.31,1.17,6.24-2.36,7.99-5.41,5.29-9.24,10.57-18.47,15.86-27.71,4.13-7.22,8.84-14.95,16.6-17.96,3.47-1.34,28.92-1.58,31.8-3.94,2-1.64-6.53-10.88-7.07-13.41-8.1-37.53-54.37-30.27-36.29-2.57-18.79,16.27-27.21,37.61-31.62,61.75Z"/>
          <path class="cls-6" d="M187.3,107.51c-6.66-4.52-14.19-7.76-22.05-9.5-1.52,6.63-8.59,10.96-9.87,17.64-1.19,6.21,4.1,12.84,10.42,13.06,3.19.11,6.68-1.1,9.41.56,1.74,1.06,2.67,3.03,3.43,4.93,2.49,6.23,4.38,13.15,9.49,17.5,2.75,2.34,6.18,3.69,9.54,5,8.83,3.43,18,6.88,27.46,6.34,9.46-.53,19.31-6.18,21.65-15.36,2.11-8.28-2.2-16.69-6.37-24.15-3.48-6.23-7.05-12.57-12.27-17.45-5.22-4.88-12.44-8.14-19.47-6.89-6.49,1.15-12.3,5.98-18.86,5.37-6.65-.62-12.83-6.78-19.11-4.49"/>
        </g>
        <path class="cls-3" d="M21.51,264.96c.26.05.52.08.78.08,1.87,0,3.54-1.32,3.92-3.23,7.47-37.92,24.19-58.36,30.41-64.87,2.3,1.69,4.86,3.08,7.6,4.08,3.27,1.19,6.62,1.78,10,1.78,5.88,0,11.81-1.79,17.45-5.3,7.73,10.81,17.67,15.87,25.42,19.8,6.13,3.11,11.07,3.99,14.7,3.99,4.27,0,6.73-1.22,7.18-1.46.12-.07.24-.14.36-.22,7.35-5.07,8.64-10.88,8.37-15,3.95.91,7.65,1.38,11.08,1.38,5.41,0,10.15-1.14,14.19-3.41,6.54-3.67,11.01-10.2,13.29-19.38,2.71-10.91,1.02-19.72-5.04-26.19-7.77-8.29-21.5-10.86-33.78-11.28,2.97-1.95,5.91-4.29,8.61-7.09,1.54-1.59,1.49-4.12-.1-5.66-1.59-1.54-4.12-1.49-5.66.1-10.72,11.1-26.68,13.95-26.83,13.98-.35.06-.67.18-.98.32-.16.03-.28.05-.34.06-.56.1-1.07.32-1.51.61-2.41-7.48-6.3-13.51-11.65-18.05-1.71-1.45-3.5-2.67-5.32-3.71,4.05-10.64,14.65-32.59,27.68-38.38,2.02-.9,2.93-3.26,2.03-5.28-.9-2.02-3.26-2.93-5.28-2.03-10.34,4.59-18.58,16.03-24.23,26.3,0-13.25-2.18-29.99-11.77-39.21-6.5-6.25-15.31-8.27-26.18-6.01-14.96,3.1-22.88,11.86-23.19,25.41-3.82-.17-8.7,1.11-13.64,6.48-.1.1-.18.21-.27.32-.57.76-5.4,7.86-.58,22.02,3.32,9.73,7.74,22.73,21.94,32.84-1.38,3.43-7.24,19.12-4.37,32.32.8,3.69,2.56,7.22,5.02,10.32-7.08,7.32-24.57,28.8-32.47,68.88-.43,2.17.98,4.27,3.15,4.7ZM135.07,212.81c-.96.36-5.74,1.73-14.37-2.65-12.26-6.22-28.76-14.59-32.54-46.1,21.54,10.51,50.42,28.58,51.54,40.88.17,1.85-.14,4.67-4.62,7.86ZM178.48,181.27c-1.73,6.96-4.91,11.78-9.44,14.33-5.69,3.2-13.81,3.19-24.12-.04-.13-.04-.27-.05-.4-.08-4.26-7.07-12.3-14.06-21.14-20.25,0-.05.02-.1.02-.15.41-7.28.07-13.86-.99-19.74.37.04.75.05,1.14-.02,10.74-1.93,40.99-4.41,51.83,7.17,4.14,4.42,5.15,10.56,3.11,18.79ZM115.56,170.06c-12.91-8.08-25.67-14.09-29.65-15.9-1.41-4.64-4.55-14.43-9-25.13,6.18-.54,18.11-.39,26.93,7.12,7.96,6.77,11.88,18.18,11.72,33.92ZM67.54,69.52c8.24-1.71,14.46-.42,19,3.94,12.03,11.56,9.39,40.62,8.31,49.16-8.84-2.51-17.25-1.85-21.3-1.27-6.09-13.17-13.94-26.2-22.8-31.63-.65-11.25,4.69-17.69,16.78-20.2ZM35.8,113.33c-3.12-9.16-1.09-13.71-.6-14.6,3.79-3.99,6.62-3.9,8.44-3.47,12.01,2.83,25.84,33.97,33.23,56.77-30.67-8.17-36.63-25.69-41.06-38.7ZM79.81,160.95c1.05,12.6,3.87,22.22,7.69,29.7-8.48,5.35-15.76,4.6-20.55,2.85-2.9-1.05-5.55-2.73-7.73-4.77-.06-.06-.12-.13-.19-.18-2.73-2.63-4.69-5.85-5.42-9.18-2.11-9.71,1.83-21.88,3.49-26.36,6.07,3.21,13.53,5.94,22.71,7.95Z"/>
        <path class="cls-3" d="M253.89,31.72h-.06c-11.91.17-23.41,4.09-34.11,11.51-.85-8.79-5.09-23.77-23.02-33.67-1.39-.77-3.1-.64-4.36.32-.73.56-17.89,14.03-20.57,48.24-1.09,13.97-.82,25.33.81,33.74,0,.04.02.08.02.11-1.17-.16-2.42-.12-3.94.19-2.28-2.61-6.71-6.31-13.89-7.23-.75-8.93-5.45-23.11-19.55-25.22-2.2-.33-4.22,1.18-4.55,3.36-.33,2.19,1.18,4.22,3.36,4.55,9.93,1.48,12.18,12.62,12.69,17.48-14.26,2.73-20.55,20.87-20.82,21.68-.29.88-2.77,8.79,1.05,14.29,1.4,2.01,4.19,4.45,9.52,4.62,7.45.24,12.35-.7,15.58-2.05.83,1.34,1.94,2.55,3.32,3.59,6.48,4.9,11.95,7.25,16.97,7.25.87,0,1.72-.07,2.56-.21.48-.08.96-.19,1.44-.32.6,3.84,2.2,8.93,6.05,14.48.12.49.32.97.64,1.41.33.46.75.81,1.21,1.08,2.28,2.85,5.17,5.79,8.84,8.73,7.23,5.77,18.41,9.5,28.49,9.49,6.67,0,12.86-1.63,17.09-5.38.46-.36,1.75-1.4,3.3-3l8.81,5.49c.66.41,1.39.61,2.11.61,1.33,0,2.64-.67,3.4-1.88,1.17-1.88.6-4.34-1.28-5.51l-8.2-5.11c1.73-3.05,3.04-6.71,3.03-10.81-.05-20.78-15.32-36.51-29.65-42.49,8.99-3.39,18.05-7.73,23.69-12.85,14.86-13.48,14.03-51.01,13.99-52.6-.06-2.17-1.83-3.89-4-3.89ZM179.74,58.74c1.24-15.91,5.93-26.63,9.65-32.82,2.25-3.76,4.43-6.35,5.91-7.9,18.61,11.88,16.61,30.43,16.5,31.29,0,.06,0,.12,0,.17-5.18,4.62-10.14,10.12-14.82,16.47-7.82,10.61-13.06,21.09-15.86,27.33-1.31-4.78-2.91-15.02-1.38-34.54ZM150.42,115.41c-.71.61-3.8,2.6-13.67,2.28-2.43-.08-3.01-.91-3.21-1.19-1.23-1.75-.55-5.61-.04-7.17.05-.16,5.45-15.63,15.86-16.54.66-.06,1.29-.08,1.9-.08,5.24,0,8.56,2.02,10.4,3.7-3.85,3.95-10.29,11.55-11.24,19.01ZM173.62,126.38c-3.41.57-7.67-1.19-13.4-5.53-1.27-.96-1.86-2.01-1.91-3.4,0-.17,0-.33,0-.51,0-.07.01-.14.01-.22.38-5.07,6.5-12.44,10.82-16.46,2.2-.7,2.49-.56,5.44.93,1.49.75,3.53,1.78,6.41,2.94,3.37,1.36,5.23,2.74,5.68,4.22.44,1.43.06,4.46-4.21,10.75-2.99,4.41-5.88,6.79-8.83,7.28ZM189.07,123.59c3.67-5.4,5.52-9.74,5.72-13.5.81-.76,1.7-1.42,2.67-1.97,2.11-.54,4.7-1.22,7.6-2.06,1.3-.06,2.65,0,4.05.18-.97,5.94-5.05,21.82-21.62,35.32-3.17-5.48-3.53-9.9-3.48-11.96,1.75-1.6,3.43-3.59,5.07-6ZM192.25,147.98c18.06-14.58,23.18-31.94,24.59-39.66,4.4,1.79,8.93,4.69,12.9,8.48-.18,1.53-.97,6.85-4.04,13.48-4.84,10.45-12.76,19.03-23.53,25.5-.09.06-.17.13-.25.19-1.37-.78-2.66-1.64-3.84-2.57-2.3-1.84-4.22-3.65-5.83-5.42ZM233.75,157.47c-.11.08-.21.16-.3.25-4.36,3.95-13.73,4.36-22.55,1.93,16.54-11.61,22.93-26.08,25.38-34.88,3.39,5.39,5.56,11.75,5.58,18.81.02,7.71-8.04,13.84-8.11,13.89ZM238.52,82.29c-7.64,6.93-23.42,12.49-34.89,15.84-3.25.27-6.3,1.09-9.04,2.46-1.3.33-2.35.58-3.1.75-1.16-1.18-2.5-2.13-3.86-2.9,5.36-12.4,26.28-54.99,62.27-58.5-.23,11.89-2.47,34.27-11.37,42.35Z"/>
      </g>
    </g>
  </g>
</svg>