<?xml version="1.0" encoding="utf-8"?>
<!-- Generator: Adobe Illustrator 22.1.0, SVG Export Plug-In . SVG Version: 6.00 Build 0)  -->
<svg version="1.1" id="Layer_1" xmlns="http://www.w3.org/2000/svg" xmlns:xlink="http://www.w3.org/1999/xlink" x="0px" y="0px"
	 viewBox="0 0 463.8 186" style="enable-background:new 0 0 463.8 186;" xml:space="preserve">
<style type="text/css">
	.st0{fill:#FFE400;}
	.st1{fill:#FDC905;}
	.st2{fill:#ABDFEA;}
	.st3{fill:#F27F1F;}
	.st4{fill:#FFFFFF;}
	.st5{fill:#84BC41;}
	.st6{fill:#231F20;}
</style>
<g>
	<g id="iconos">
		<g>
			<g>
				<circle class="st0" cx="41.2" cy="73.4" r="20.4"/>
				<circle class="st0" cx="432" cy="67.1" r="20.4"/>
				<path class="st1" d="M136.2,48.2c-11.6,5.7-15.5,19.9-20.6,31.8c-4,9.3-9.3,18.1-15.8,25.9c-7.1,8.5-15.8,16.5-18.1,27.2
					c-2.6,12.1,4.2,25.1,14.9,31.4c10.7,6.3,24.3,6.3,35.9,1.8c11.6-4.5,21.1-13.1,28.6-23c12.8-16.9,21.5-38.7,18.6-60.4
					C177.2,62.9,160.3,36.3,136.2,48.2L136.2,48.2z"/>
				<path class="st2" d="M183.8,34.2c-2.9,2.1-5,5.2-6.4,8.5c-4,9.6-1.6,21.5,5.8,28.9c7.4,7.3,19.3,9.6,28.9,5.6
					c-4.3,5.9-8.8,12.8-7.1,19.8c1.7,6.9,8.9,11.1,15.9,12.6c5.8,1.2,12,1.1,17.3-1.5c8-4,12.4-13.3,12.7-22.2
					c0.4-14.6-9.2-39.4-21.2-48.8C219.6,29,194.1,26.5,183.8,34.2L183.8,34.2z"/>
				<path class="st3" d="M243.3,10.1c6.9-5.9,15.9-8.9,24.9-9.8c5.3-0.5,11-0.2,15.3,2.8c4.1,2.9,6.3,7.9,7.7,12.8
					c2.5,8.4,3.1,18.3-2.4,25c-4,4.9-10.5,7.1-16.5,9.1c9.2-1.2,18.7,5.5,20.8,14.5c2.1,9-3.1,19.1-11.6,22.9
					c-8.5,3.7-19.3,0.8-25-6.5c-2.6-3.4-4.2-7.4-5.8-11.4c-4.6-11.9-9.3-23.4-15-34.7c-2.1-4.1-3.1-6.4-1.9-11.2
					C234.9,19.8,243.3,12.6,243.3,10.1L243.3,10.1z"/>
				<path class="st0" d="M369.9,51.8c1.4,0.2,2.8,0.6,3.9,1.4c2.5,1.7,3.2,5.1,3.4,8.1c0.2,2.7,0.1,5.4-0.2,8.1
					c-0.3,2.5-1.1,5.4-3.4,6.3c-2,0.8-4.3-0.2-6.2-1.3c-4.2-2.4-16.5-8.9-16.7-14.5C350.5,52.5,364.8,51,369.9,51.8L369.9,51.8z"/>
				<path class="st0" d="M343.8,79.8c-5.3,3.5-10.7,7-16,10.5c-2.3,1.5-4.7,3.1-6.3,5.3c-1.4,1.9-2.1,4.2-2.7,6.4
					c-1.4,4.9-2.6,9.8-3.5,14.8c-0.8,4.6-1.5,9.4-0.5,13.9c1,4.6,3.8,9,8.1,10.8c6.9,2.8,14.5-1.7,20-6.6
					c6.7-5.8,12.7-12.5,18.6-19.1c0.7-0.8,1.5-1.6,1.8-2.6c0.4-1.2,0.1-2.5-0.1-3.8c-1.8-9-3.7-18-5.5-27
					C355.4,71.2,352.1,75.6,343.8,79.8L343.8,79.8z"/>
				<path class="st4" d="M321.3,102.2c2.3,3.7,7.2,4.2,11.5,5.1c3.3,0.6,6.5,1.7,9.2,3.6c2.9,2.1,5.2,5.1,8.6,6.3
					c3.8,1.4,8.5-0.2,10.6-3.6c2.2-3.4,1.6-8.3-1.3-11.1c-3.3-3.2-8.4-3.8-12.4-5.9c-3.9-2-6.8-6.1-10.6-7.8
					C329.7,85.4,316,93.5,321.3,102.2L321.3,102.2z"/>
				<path class="st5" d="M99.4,179c-9.7-3.2-17.2-11.5-21.2-20.9c-4-9.4-4.9-19.9-4.4-30c0.3-5.1,0.6-11-3.1-14.6
					c-1.8-1.8-4.3-2.7-6.8-3.3c-5.2-1.4-11.4-1.9-15.4,1.7c-7.6,6.8-1.6,22-9.8,28c-3.3,2.4-7.7,2.3-11.3,4.2
					c-6.5,3.4-8,11.8-8.4,19.1c-0.3,5-0.3,10.4,2.8,14.4c4.4,5.6,12.7,5.5,19.8,5c14-1.1,27.9-2.1,41.9-3.2"/>
				<path class="st5" d="M170.7,182.8c0,0,0.4-0.7,1.4-1.9c6.7-7.9,38.6-38.7,133.4-41.6c108.9-3.3,150.6,42.8,150.6,42.8"/>
				<path class="st3" d="M115.9,112.3l31.2,41.3c0,0-6.1,21.1-32.7,12.1S115.9,112.3,115.9,112.3z"/>
			</g>
			<path class="st6" d="M459.8,178h-16.3c-3.3-5.2-12.3-23.8,0.7-55.6c0.8,0.2,1.7,0.3,2.6,0.3c7.4,0,13.4-6,13.4-13.4
				s-6-13.4-13.4-13.4s-13.4,6-13.4,13.4c0,3.6,1.4,6.8,3.7,9.2c-12.5,29.8-7.2,49.9-2.7,59.5h-19.6c-1.2-5.5-3.4-17.9-3.8-33
				c-0.4-18.4,2-44.5,15.8-65.5c1.6,0.7,3.3,1,5.2,1c7.4,0,13.4-6,13.4-13.4s-6-13.4-13.4-13.4s-13.4,6-13.4,13.4
				c0,2.6,0.8,5.1,2.1,7.1c0,0,0,0,0,0c-15.4,22.9-18.1,51.3-17.6,71.1c0.3,14.4,2.3,26.3,3.6,32.6h-17.6
				c1.2-9.6,0.7-31.1-20.9-55.7c4.6,3.1,12.1,7.3,19.3,7.3c1.9,0,3.7-0.3,5.4-0.9c5.6-2,9.1-7.1,10.6-15.1
				c2.9-15.5-11.5-29.3-24.1-38.2c0.6-2,1.4-5.6,1.6-9.6c0.1-3-0.2-5.7-0.9-8.1l8.2-5.4c1.9-1.2,2.4-3.7,1.2-5.5
				c-1.2-1.8-3.7-2.4-5.5-1.2l-7.9,5.1c-1.2-1.3-2.6-2.3-4.3-3.2s-3.4-1.4-5.1-1.7l-0.7-9.7c-0.2-2.2-2.1-3.9-4.3-3.7
				c-2.2,0.2-3.9,2.1-3.7,4.3l0.7,10.1c-2.3,0.8-4.7,2.2-6.9,4c-2.9,2.3-5.1,5-6.4,6.7c-14.7-5.4-35.3-9.8-46.7,1.8
				c-5.6,5.8-7.7,11.7-6.2,17.4c0.5,1.8,1.3,3.4,2.4,4.9c-0.9-0.2-1.8-0.3-2.8-0.3c-7.4,0-13.4,6-13.4,13.4s6,13.4,13.4,13.4
				c0.2,0,0.4,0,0.6,0c9.4,17,13.1,34.1,11.1,51.1c-1.1,9.1-3.6,15.8-5,18.9h-38.1c2.2-9.4,5-30.1-3.8-55.7c4-2.3,6.6-6.6,6.6-11.6
				c0-7.4-6-13.4-13.4-13.4c-1.1,0-2.2,0.1-3.2,0.4c0.6-0.6,1.1-1.2,1.6-1.8c3.3-4.3,5.2-9.8,5.5-15.4c4.5,2.9,9.9,4.6,15.1,4.6
				c0.2,0,0.4,0,0.6,0c7.6-0.2,13.6-4.2,16.6-10.9c2.2-5,2.3-9.9,0.2-14.3c-2.1-4.4-6.1-7.6-9.8-9.7c3.2-2.2,5.7-4.8,7.5-7.8
				c5.8-10,1.4-20.4,0.5-22.1c-0.7-1.7-5.2-12.6-14.7-16.9c-5-2.3-10.4-2.3-16-0.1c-12,4.6-18.6,16.3-22,24.8L232,28
				c-1-2-3.4-2.8-5.4-1.8c-2,1-2.8,3.4-1.8,5.4l0.1,0.2c-8.9-2.3-22.2-3.9-33,3c-5.1,3.2-8.3,7.6-9.4,13
				c-2.2,10.2,3.9,20.3,4.9,21.8c0.9,1.7,6.6,11.5,18.1,12.7c0.8,0.1,1.5,0.1,2.3,0.1c2.7,0,5.6-0.5,8.4-1.5
				c-0.5,4.2-0.4,9.3,2,13.6c2.3,4.2,6.3,7.1,11.6,8.3c1.4,0.3,2.8,0.5,4.2,0.5c2,0,3.9-0.3,5.6-0.9c-1.9,2.3-3,5.2-3,8.4
				c0,7,5.4,12.8,12.3,13.3c9.2,25.9,5.3,46.8,3.4,53.9h-50.6c-3.2-7-12.2-30.8,1-54c0.2-0.4,0.4-0.9,0.5-1.4c0.2,0,0.4,0,0.6,0
				c7.4,0,13.4-6,13.4-13.4s-6-13.4-13.4-13.4s-13.4,6-13.4,13.4c0,4.4,2.1,8.3,5.4,10.7c0,0,0,0-0.1,0.1c-13.4,23.7-7,47.2-2.7,58
				h-32.5c1.5-5.3,0.4-9.2-1-11.7c-2.4-4.4-6.7-6.9-10-8.2c0-0.1,0.1-0.2,0.1-0.3l3.1-7.6l16.4,6.6c0.5,0.2,1,0.3,1.5,0.3
				c1.6,0,3.1-0.9,3.7-2.5c0.8-2.1-0.2-4.4-2.2-5.2l-16.4-6.6l4.1-10.2c6.9,1.1,16.9,0.2,20.8-9.4c0.8-2.1-0.2-4.4-2.2-5.2
				c-2.1-0.8-4.4,0.2-5.2,2.2c-1.9,4.7-7,5.1-10.7,4.7c1.2-5.9,0.3-11.8-2.5-16.9l11.1-10.4c1.6-1.5,1.7-4,0.2-5.6
				c-1.5-1.6-4-1.7-5.6-0.2l-10.6,9.9c-2.2-2-4.7-3.7-7.6-4.9l-6-2.4c-2.4-1-5-1.6-7.5-1.7l-1.7-14.9c-0.2-2.2-2.2-3.8-4.4-3.5
				c-2.2,0.2-3.8,2.2-3.5,4.4l1.7,14.8c-6.3,1.6-11.9,5.7-15.3,11.5c-3.1-1.7-5-3.7-5.6-5.8c-0.8-2.7,0.7-5,0.8-5.2
				c1.3-1.8,0.8-4.3-0.9-5.5c-1.8-1.3-4.3-0.9-5.6,0.9c-0.4,0.6-3.8,5.6-2,12c1.3,4.4,4.7,8,10.1,10.9l-3.9,9.6l-15.3-6.2
				c-2.1-0.8-4.4,0.2-5.2,2.2s0.2,4.4,2.2,5.2l15.3,6.2l-3.1,7.6c0,0.1-0.1,0.2-0.1,0.3c-3.2-1.1-7.4-1.9-11.6-0.6
				c-3.1,0.9-7.2,3.4-9.8,9.9c-0.8,2.1,0.2,4.4,2.2,5.2c0.5,0.2,1,0.3,1.5,0.3c1.6,0,3.1-0.9,3.7-2.5c1.2-2.9,2.7-4.6,4.8-5.3
				c2.4-0.8,5.4,0,7.6,0.9c-0.4,10.2,5.5,20,15.5,24.1l6,2.4c3,1.2,6.2,1.8,9.3,1.8c7.1,0,13.8-3,18.5-8.3c2.4,0.8,5.9,2.4,7.4,5.1
				c1,1.9,1,4.2-0.2,7.1c-0.1,0.2-0.2,0.5-0.2,0.8H68.9c-1.2-5.5-3.4-17.9-3.8-33c-0.4-18.2,2-44,15.4-64.9c1.1,0.3,2.2,0.4,3.4,0.4
				c7.4,0,13.4-6,13.4-13.4s-6-13.4-13.4-13.4s-13.4,6-13.4,13.4c0,3.3,1.2,6.4,3.2,8.7c-14.5,22.6-17,50.2-16.6,69.5
				c0.3,14.4,2.3,26.3,3.6,32.6h-9.6c1.3-10.3,0.6-34.6-26.5-61.6c1.3-2.1,2.1-4.5,2.1-7.1c0-7.4-6-13.4-13.4-13.4S0,101.9,0,109.2
				s6,13.4,13.4,13.4c1.8,0,3.6-0.4,5.2-1.1C45,147.7,44.3,170.3,43.1,178H10.4c-2.2,0-4,1.8-4,4s1.8,4,4,4h35.9c0,0,0,0,0,0
				s0,0,0,0h153c0,0,0,0,0,0c0,0,0,0,0,0h56.1c0,0,0,0,0,0c0,0,0,0,0,0h45.8c0,0,0,0,0,0s0,0,0,0h82.9c0,0,0,0,0,0s0,0,0,0h75.6
				c2.2,0,4-1.8,4-4S462,178,459.8,178L459.8,178z M446.8,103.8c3,0,5.4,2.4,5.4,5.4s-2.4,5.4-5.4,5.4s-5.4-2.4-5.4-5.4
				S443.8,103.8,446.8,103.8z M432,61.7c3,0,5.4,2.4,5.4,5.4s-2.4,5.4-5.4,5.4s-5.4-2.4-5.4-5.4S429.1,61.7,432,61.7z M279.4,63.4
				c1.1,2.2,1,4.7-0.3,7.6c-1.8,4-5,6.1-9.5,6.2c-0.1,0-0.2,0-0.4,0c-6.9,0-14.7-4.7-17.8-10.9l0,0l-3.8-7.5
				c7.8-0.7,14.4-2,19.9-3.9C270.8,56,277.2,59,279.4,63.4z M256.9,10.8c3.6-1.4,6.8-1.4,9.9-0.1c7,3.1,10.6,12.5,10.6,12.6
				c0,0.1,0.1,0.3,0.2,0.4c0,0.1,3.8,7.9-0.2,14.7c-4.3,7.2-15.9,11.6-33.7,12.6l-6.4-12.7C238.4,33.5,243.7,16,256.9,10.8
				L256.9,10.8z M206.4,74.4c-7.9-0.8-12-8.5-12-8.5c-0.1-0.1-0.1-0.3-0.2-0.4c-0.1-0.1-5.5-8.5-3.9-16c0.7-3.2,2.6-5.8,5.9-7.9
				c11.9-7.6,29.2-1.5,33.8,0.4l6.4,12.7C225.1,68.4,214.8,75.2,206.4,74.4L206.4,74.4z M231.6,95c-3.1-0.7-5.1-2.1-6.3-4.2
				c-2.3-4.4-0.9-11.2,0.2-14.6c4.8-3.3,9.8-7.9,15-13.7l3.8,7.5c3.2,6.3,2.3,15.5-2,21.1C239.4,94.6,235.9,96,231.6,95L231.6,95z
				 M244.7,110.7c0-3,2.4-5.4,5.4-5.4s5.4,2.4,5.4,5.4s-2.4,5.4-5.4,5.4S244.7,113.7,244.7,110.7z M203.8,103.8c3,0,5.4,2.4,5.4,5.4
				s-2.4,5.4-5.4,5.4s-5.4-2.4-5.4-5.4S200.9,103.8,203.8,103.8z M128.4,101c0.7,0.5,1.5,0.8,2.3,0.8c0.1,0,0.3,0,0.5,0
				c0.9-0.1,1.8-0.5,2.4-1.2c1.7,0.1,3.4,0.5,5.1,1.2l6,2.4c2.1,0.9,3.9,2.1,5.5,3.6c-0.1,1.1,0.2,2.3,1,3.1c0.6,0.6,1.3,1,2.1,1.2
				c1.6,3.2,2.3,6.9,1.6,10.6c-8.4-2.8-15.4-3-20.7-0.5c-0.3-1-0.7-2-1.2-2.9c-3.2-6.1-9.9-9.6-14.5-11.4
				C120.9,104.4,124.5,102,128.4,101L128.4,101z M104,145.7c0.1-0.1,0.2-0.3,0.3-0.4c0.8-1.2,0.8-2.6,0.3-3.8
				c0.2-0.6,0.4-1.1,0.6-1.6l4.2-10.4c0.2-0.3,0.4-0.5,0.5-0.9c0.1-0.3,0.2-0.6,0.2-0.9l5.1-12.5c3.7,1.4,8.8,4,10.8,7.9
				c1.1,2.1,1.2,4.4,0.4,7c-0.3,0.7-0.5,1.2-0.6,1.6l-12,29.7C107.5,158.5,103.8,152.2,104,145.7L104,145.7z M121.2,164.3l12.1-29.9
				c0.2-0.5,0.4-1,0.6-1.5c0.5-0.9,1.4-2.3,3.3-3.3c2.5-1.2,7-2,15.1,0.6l-9.9,24.6C138.9,163.1,129.6,167.3,121.2,164.3
				L121.2,164.3z M83.9,61.7c3,0,5.4,2.4,5.4,5.4s-2.4,5.4-5.4,5.4s-5.4-2.4-5.4-5.4S80.9,61.7,83.9,61.7z M13.4,114.6
				c-3,0-5.4-2.4-5.4-5.4s2.4-5.4,5.4-5.4s5.4,2.4,5.4,5.4S16.3,114.6,13.4,114.6z M331.9,90.5l25.1,13c0.5,0.3,1.1,0.4,1.7,0.4
				c0.5,3.3,1,5.9,1.6,7.9c-0.5,0.8-1.3,1.7-2.1,2.9c-0.7,0.2-1.3,0.5-1.8,1c-0.2,0.2-0.4,0.5-0.6,0.8L323,99.7
				c0.7-2.6,1.4-4.7,1.9-6.1C326.8,92.9,329.1,91.9,331.9,90.5L331.9,90.5z M356.5,76c0.1,4.1,0.4,9.5,0.8,15
				c0.1,1.4,0.2,2.7,0.3,3.9l-17.3-8.9c1.1-0.6,2.2-1.3,3.4-2C348.5,81.1,353,78.2,356.5,76z M320.6,111.3c0.2-1.2,0.4-2.4,0.6-3.5
				l29.8,15.4c-0.8,0.9-1.7,1.7-2.5,2.5c-6.2,5.8-15.1,12-22,8.4C319.5,130.5,319.4,119.7,320.6,111.3L320.6,111.3z M395.6,112.1
				c-0.9,5-2.8,8-5.5,9c-5.6,2-15.5-3.6-20.8-8c-0.2-0.2-0.4-0.6-0.6-1.1c-0.1-0.6-0.3-1.3-0.6-1.8c-1.2-4.3-2.3-12.4-3-21.7l8,13.2
				c0.8,1.2,2.1,1.9,3.4,1.9c0.7,0,1.4-0.2,2.1-0.6c1.9-1.1,2.5-3.6,1.4-5.5l-12.3-20.5C380.7,85.2,398.1,99,395.6,112.1
				L395.6,112.1z M368.1,54.6c6,3.1,5.2,11.3,4.2,16.1c-5-3.1-8.9-5-10-5.5c0,0,0,0,0,0c-0.5-0.3-4-2.2-9.2-4.5
				C356.2,57,362.1,51.6,368.1,54.6L368.1,54.6z M304.4,64.9c9.3-9.6,30.4-3.5,44.4,2.6L324.5,69c-2.2,0.1-3.9,2-3.7,4.2
				c0.1,2.2,2,3.9,4.2,3.7l16.5-1c-8.1,4.9-15.5,8.8-19.8,10.3c-0.6,0-1.3,0.2-1.8,0.5c-0.5,0.1-0.9,0.1-1.2,0.1
				c-6.6-1.8-16.9-6.6-18.5-12.4C299.4,71.8,300.8,68.6,304.4,64.9L304.4,64.9z M286.6,94.7c0-3,2.4-5.4,5.4-5.4s5.4,2.4,5.4,5.4
				s-2.4,5.4-5.4,5.4S286.6,97.7,286.6,94.7z M300.2,105.2c3.1-2.4,5.1-6.3,5.1-10.5c0-1.8-0.4-3.4-1-5c4.8,2.7,9.6,4.2,11.8,4.8
				c-1.2,3.9-2.7,9.5-3.5,15.5c-2.8,20,3.9,28,10,31.2c2.2,1.1,4.9,2,8.1,2c5.9,0,13.6-2.8,23.1-11.8c2.2-2.1,4.2-4.2,6-6.2
				c22.9,24.6,22.2,45.5,21,52.8h-73.5C311.9,166.4,318.5,139.1,300.2,105.2L300.2,105.2z"/>
			<path class="st6" d="M225.3,165.5c7.4,0,13.4-6,13.4-13.4s-6-13.4-13.4-13.4s-13.4,6-13.4,13.4S218,165.5,225.3,165.5z
				 M225.3,146.7c3,0,5.4,2.4,5.4,5.4s-2.4,5.4-5.4,5.4s-5.4-2.4-5.4-5.4S222.4,146.7,225.3,146.7z"/>
			<path class="st6" d="M54.6,73.4c0-7.4-6-13.4-13.4-13.4s-13.4,6-13.4,13.4s6,13.4,13.4,13.4S54.6,80.8,54.6,73.4z M35.8,73.4
				c0-3,2.4-5.4,5.4-5.4s5.4,2.4,5.4,5.4s-2.4,5.4-5.4,5.4S35.8,76.4,35.8,73.4z"/>
			<path class="st6" d="M350.7,174.9c7.4,0,13.4-6,13.4-13.4s-6-13.4-13.4-13.4s-13.4,6-13.4,13.4S343.3,174.9,350.7,174.9z
				 M350.7,156.1c3,0,5.4,2.4,5.4,5.4s-2.4,5.4-5.4,5.4s-5.4-2.4-5.4-5.4S347.7,156.1,350.7,156.1z"/>
		</g>
	</g>
</g>
</svg>
