<?xml version="1.0" encoding="UTF-8"?>
<svg xmlns="http://www.w3.org/2000/svg" version="1.1" viewBox="0 0 283.46 283.46">
  <defs>
    <style>
      .cls-1 {
        fill: #231f20;
      }
    </style>
  </defs>
  <!-- Generator: Adobe Illustrator 28.6.0, SVG Export Plug-In . SVG Version: 1.2.0 Build 709)  -->
  <g>
    <g id="iconos">
      <g>
        <path class="cls-1" d="M172.76,202.58c6.54-3.67,11.01-10.2,13.29-19.38,2.71-10.91,1.02-19.72-5.04-26.19-7.77-8.29-21.5-10.86-33.78-11.28,2.97-1.95,5.91-4.29,8.61-7.09,1.53-1.59,1.49-4.12-.1-5.66-1.59-1.53-4.12-1.49-5.66.1-10.72,11.1-26.68,13.95-26.83,13.98-.35.06-.68.18-.98.32-.16.03-.28.05-.34.06-.56.1-1.07.32-1.51.61-2.41-7.48-6.3-13.51-11.65-18.05-1.71-1.45-3.5-2.67-5.32-3.71,4.05-10.64,14.65-32.59,27.68-38.38,2.02-.9,2.93-3.26,2.03-5.28-.9-2.02-3.26-2.93-5.28-2.03-10.34,4.59-18.58,16.03-24.23,26.3,0-13.25-2.18-29.99-11.77-39.21-6.5-6.25-15.31-8.27-26.18-6.01-14.96,3.1-22.88,11.86-23.19,25.41-3.82-.17-8.7,1.11-13.64,6.48-.1.1-.18.21-.27.32-.57.76-5.4,7.86-.58,22.02,3.32,9.73,7.74,22.73,21.94,32.84-1.38,3.43-7.24,19.12-4.37,32.32.8,3.69,2.56,7.22,5.02,10.32-7.08,7.32-24.57,28.8-32.47,68.88-.43,2.17.98,4.27,3.15,4.7.26.05.52.08.78.08,1.87,0,3.54-1.32,3.92-3.23,7.47-37.92,24.19-58.36,30.41-64.87,2.3,1.69,4.86,3.08,7.6,4.08,3.27,1.19,6.62,1.78,10,1.78,5.88,0,11.81-1.79,17.45-5.3,7.73,10.81,17.67,15.87,25.42,19.8,6.13,3.11,11.07,3.99,14.7,3.99,4.27,0,6.73-1.22,7.18-1.46.12-.07.24-.14.36-.22,7.35-5.07,8.64-10.88,8.37-15,3.95.91,7.65,1.38,11.08,1.38,5.41,0,10.15-1.14,14.19-3.41ZM103.64,136.14c7.96,6.77,11.88,18.18,11.72,33.92-12.91-8.08-25.67-14.09-29.65-15.91-1.41-4.64-4.55-14.43-9-25.13,6.18-.54,18.11-.39,26.93,7.12ZM67.34,69.52c8.24-1.71,14.46-.42,19,3.94,12.03,11.56,9.38,40.62,8.31,49.16-8.84-2.51-17.25-1.85-21.3-1.27-6.09-13.17-13.94-26.2-22.8-31.63-.65-11.25,4.69-17.69,16.78-20.2ZM35.6,113.33c-3.12-9.16-1.09-13.71-.6-14.6,3.79-3.99,6.62-3.9,8.44-3.47,12.01,2.83,25.84,33.97,33.23,56.77-30.67-8.17-36.63-25.69-41.06-38.7ZM66.75,193.51c-2.9-1.05-5.55-2.73-7.73-4.77-.06-.06-.12-.12-.18-.18-2.73-2.63-4.7-5.85-5.42-9.19-2.11-9.71,1.83-21.89,3.49-26.36,6.07,3.21,13.53,5.94,22.71,7.95,1.05,12.6,3.87,22.22,7.69,29.7-8.48,5.35-15.76,4.6-20.55,2.85ZM134.87,212.81c-.95.36-5.74,1.73-14.37-2.65-12.26-6.22-28.76-14.59-32.54-46.09,21.54,10.52,50.42,28.59,51.54,40.88.17,1.85-.14,4.67-4.63,7.86ZM144.72,195.57c-.13-.04-.27-.05-.4-.08-4.26-7.07-12.3-14.06-21.14-20.25,0-.05.02-.1.02-.15.41-7.28.07-13.86-.99-19.74.37.04.75.05,1.14-.02,10.74-1.93,40.99-4.41,51.83,7.17,4.14,4.42,5.15,10.56,3.11,18.79-1.73,6.96-4.91,11.78-9.44,14.33-5.69,3.2-13.8,3.19-24.12-.04Z"/>
        <path class="cls-1" d="M253.63,31.72c-11.91.17-23.41,4.09-34.11,11.51-.85-8.79-5.09-23.77-23.02-33.67-1.39-.77-3.1-.64-4.36.32-.73.56-17.89,14.03-20.57,48.24-1.09,13.97-.82,25.33.81,33.74,0,.04.02.08.02.12-1.17-.16-2.42-.12-3.94.18-2.28-2.61-6.71-6.31-13.89-7.23-.75-8.93-5.45-23.11-19.55-25.22-2.2-.33-4.22,1.18-4.55,3.36-.33,2.19,1.18,4.22,3.36,4.55,9.93,1.48,12.18,12.62,12.69,17.48-14.26,2.73-20.55,20.87-20.82,21.68-.29.88-2.77,8.79,1.05,14.29,1.4,2.01,4.19,4.45,9.52,4.62,7.44.24,12.35-.7,15.58-2.05.83,1.34,1.94,2.55,3.32,3.59,6.48,4.9,11.95,7.25,16.97,7.25.87,0,1.72-.07,2.56-.21.48-.08.96-.19,1.44-.32.6,3.84,2.2,8.93,6.05,14.48.12.49.32.97.64,1.41.33.46.75.81,1.21,1.08,2.28,2.85,5.17,5.79,8.84,8.73,7.23,5.77,18.41,9.5,28.49,9.5,6.67,0,12.86-1.63,17.09-5.38.46-.36,1.75-1.4,3.3-3l8.81,5.49c.66.41,1.39.61,2.11.61,1.33,0,2.64-.67,3.4-1.88,1.17-1.88.6-4.34-1.28-5.51l-8.2-5.11c1.73-3.05,3.04-6.71,3.03-10.8-.05-20.78-15.32-36.51-29.65-42.49,8.99-3.39,18.05-7.73,23.69-12.85,14.86-13.48,14.03-51.01,13.99-52.6-.06-2.19-1.86-3.89-4.06-3.89ZM179.54,58.74c1.24-15.91,5.93-26.63,9.65-32.82,2.25-3.76,4.43-6.35,5.91-7.9,18.61,11.88,16.61,30.43,16.5,31.29,0,.06,0,.12,0,.17-5.18,4.62-10.14,10.12-14.82,16.47-7.82,10.61-13.06,21.09-15.86,27.33-1.31-4.78-2.91-15.02-1.38-34.54ZM150.22,115.41c-.71.61-3.8,2.6-13.67,2.28-2.43-.08-3.01-.91-3.21-1.19-1.23-1.75-.55-5.61-.04-7.17.05-.16,5.45-15.63,15.86-16.54.66-.06,1.29-.08,1.9-.08,5.25,0,8.56,2.02,10.41,3.7-3.85,3.95-10.29,11.55-11.24,19.01ZM182.25,119.1c-2.99,4.41-5.88,6.79-8.83,7.28-3.41.57-7.67-1.19-13.4-5.53-1.27-.96-1.86-2.01-1.91-3.4,0-.17,0-.33,0-.51,0-.07.01-.14.01-.22.38-5.07,6.5-12.44,10.82-16.46,2.2-.7,2.49-.56,5.44.93,1.49.75,3.53,1.78,6.41,2.94,3.37,1.36,5.23,2.74,5.68,4.22.44,1.43.06,4.46-4.21,10.75ZM187.28,141.56c-3.17-5.48-3.53-9.9-3.48-11.96,1.75-1.6,3.43-3.59,5.07-6,3.67-5.4,5.52-9.74,5.72-13.5.81-.76,1.7-1.42,2.67-1.97,2.11-.54,4.7-1.22,7.6-2.06,1.3-.06,2.65,0,4.05.18-.97,5.94-5.05,21.82-21.62,35.32ZM236.08,124.76c3.39,5.39,5.56,11.75,5.58,18.81.02,7.71-8.04,13.84-8.11,13.89-.1.08-.21.16-.3.25-4.36,3.95-13.73,4.36-22.55,1.93,16.54-11.61,22.93-26.08,25.38-34.88ZM229.55,116.8c-.18,1.53-.97,6.85-4.04,13.48-4.84,10.45-12.76,19.03-23.53,25.5-.09.06-.17.13-.25.19-1.37-.78-2.66-1.64-3.84-2.57-2.3-1.84-4.22-3.65-5.83-5.42,18.06-14.58,23.18-31.94,24.59-39.66,4.4,1.79,8.93,4.69,12.9,8.48ZM238.32,82.29c-7.64,6.93-23.42,12.49-34.89,15.84-3.25.27-6.3,1.09-9.04,2.46-1.3.33-2.35.58-3.1.75-1.16-1.18-2.5-2.13-3.86-2.9,5.36-12.4,26.28-54.99,62.27-58.5-.23,11.89-2.47,34.27-11.37,42.35Z"/>
      </g>
    </g>
  </g>
</svg>