<?xml version="1.0" encoding="UTF-8"?>
<svg xmlns="http://www.w3.org/2000/svg" version="1.1" viewBox="0 0 542.29 283.46">
  <defs>
    <style>
      .cls-1 {
        fill: #f27f1f;
      }

      .cls-2 {
        fill: #fdc905;
      }

      .cls-3 {
        fill: #231f20;
      }

      .cls-4 {
        fill: #fff;
      }

      .cls-5 {
        fill: #abdfea;
      }

      .cls-6 {
        fill: #84bc41;
      }

      .cls-7 {
        fill: #ffe400;
      }
    </style>
  </defs>
  <!-- Generator: Adobe Illustrator 28.6.0, SVG Export Plug-In . SVG Version: 1.2.0 Build 709)  -->
  <g>
    <g id="iconos">
      <g>
        <g>
          <circle class="cls-7" cx="82.15" cy="137.87" r="20.43"/>
          <circle class="cls-7" cx="473" cy="131.53" r="20.43"/>
          <path class="cls-2" d="M177.17,112.6c-11.6,5.73-15.54,19.9-20.59,31.82-3.96,9.33-9.29,18.07-15.76,25.87-7.05,8.49-15.78,16.47-18.12,27.25-2.64,12.11,4.24,25.15,14.93,31.41,10.69,6.26,24.34,6.26,35.89,1.75s21.13-13.11,28.64-22.97c12.81-16.85,21.46-38.67,18.61-60.43-2.62-19.97-19.53-46.58-43.58-34.7Z"/>
          <path class="cls-5" d="M224.74,98.63c-2.88,2.14-4.99,5.21-6.36,8.53-3.99,9.61-1.6,21.53,5.79,28.86,7.39,7.33,19.32,9.63,28.9,5.57-4.27,5.85-8.77,12.75-7.06,19.78,1.69,6.93,8.92,11.11,15.9,12.59,5.76,1.22,12,1.11,17.27-1.53,8-4,12.39-13.26,12.66-22.21.44-14.59-9.24-39.37-21.18-48.77-10.14-7.99-35.6-10.49-45.92-2.83Z"/>
          <path class="cls-1" d="M284.31,74.49c6.92-5.87,15.91-8.94,24.93-9.84,5.27-.53,10.96-.25,15.28,2.81,4.13,2.93,6.28,7.89,7.71,12.75,2.47,8.38,3.09,18.27-2.43,25.04-4.04,4.95-10.46,7.13-16.54,9.09,9.19-1.23,18.66,5.48,20.82,14.5,2.15,9.01-3.07,19.13-11.56,22.85-8.49,3.71-19.29.83-25.02-6.46-2.63-3.35-4.22-7.39-5.77-11.36-4.63-11.87-9.27-23.36-15.01-34.66-2.1-4.14-3.13-6.44-1.9-11.16,1-3.83,9.49-11.01,9.49-13.55Z"/>
          <path class="cls-7" d="M410.84,116.23c1.38.21,2.77.56,3.91,1.36,2.49,1.73,3.2,5.09,3.4,8.12.18,2.69.11,5.4-.2,8.08-.29,2.5-1.09,5.36-3.42,6.3-2.02.81-4.27-.22-6.16-1.3-4.21-2.41-16.54-8.88-16.68-14.46-.18-7.41,14.12-8.88,19.15-8.1Z"/>
          <path class="cls-7" d="M384.73,144.22c-5.34,3.5-10.69,7-16.03,10.49-2.31,1.51-4.67,3.07-6.28,5.32-1.35,1.89-2.08,4.16-2.73,6.39-1.42,4.87-2.58,9.8-3.49,14.79-.84,4.6-1.46,9.35-.49,13.93.96,4.58,3.78,8.99,8.1,10.77,6.87,2.81,14.45-1.73,20.04-6.61,6.7-5.84,12.67-12.46,18.63-19.05.72-.8,1.46-1.63,1.78-2.65.38-1.22.13-2.53-.12-3.78-1.84-9-3.68-17.99-5.52-26.99-2.28-11.15-5.56-6.77-13.88-2.61Z"/>
          <path class="cls-4" d="M362.3,166.66c2.26,3.68,7.23,4.25,11.47,5.07,3.26.63,6.5,1.67,9.22,3.58,2.92,2.06,5.21,5.11,8.57,6.33,3.8,1.38,8.45-.22,10.61-3.63,2.16-3.42,1.6-8.31-1.28-11.14-3.27-3.23-8.4-3.82-12.37-5.87-3.9-2.02-6.78-6.05-10.64-7.82-7.18-3.3-20.95,4.74-15.58,13.49Z"/>
          <path class="cls-6" d="M140.41,243.47c-9.68-3.25-17.16-11.47-21.18-20.86-4.02-9.38-4.89-19.85-4.37-30.04.26-5.12.6-10.97-3.06-14.56-1.83-1.79-4.35-2.66-6.82-3.32-5.22-1.39-11.4-1.9-15.44,1.68-7.64,6.75-1.59,21.98-9.84,27.96-3.27,2.37-7.73,2.29-11.3,4.18-6.45,3.41-8.01,11.84-8.44,19.12-.29,4.98-.27,10.43,2.82,14.35,4.39,5.57,12.68,5.53,19.75,4.99,13.97-1.07,27.94-2.15,41.91-3.22"/>
          <path class="cls-6" d="M211.69,247.21s.43-.67,1.43-1.85c6.67-7.93,38.56-38.73,133.38-41.57,108.93-3.27,150.64,42.78,150.64,42.78"/>
          <path class="cls-1" d="M156.89,176.71l31.19,41.3s-6.15,21.13-32.74,12.14c-26.59-8.99,1.55-53.44,1.55-53.44Z"/>
        </g>
        <path class="cls-3" d="M500.77,242.42h-16.34c-3.26-5.16-12.32-23.77.7-55.62.84.17,1.72.26,2.61.26,7.38,0,13.39-6.01,13.39-13.39s-6.01-13.39-13.39-13.39-13.39,6.01-13.39,13.39c0,3.59,1.42,6.84,3.73,9.24-12.45,29.82-7.2,49.89-2.71,59.5h-19.58c-1.16-5.46-3.42-17.89-3.76-33.02-.41-18.35,2.02-44.51,15.78-65.52,1.59.67,3.34,1.04,5.18,1.04,7.38,0,13.39-6.01,13.39-13.39s-6.01-13.39-13.39-13.39-13.39,6.01-13.39,13.39c0,2.62.77,5.05,2.07,7.12-.01.01-.02.03-.03.04-15.39,22.93-18.06,51.31-17.6,71.08.34,14.42,2.3,26.29,3.57,32.64h-17.58c1.2-9.57.69-31.12-20.92-55.73,4.58,3.13,12.06,7.32,19.26,7.32,1.85,0,3.68-.28,5.43-.91,5.56-2.02,9.13-7.09,10.61-15.05,2.88-15.47-11.5-29.31-24.11-38.23.58-2,1.44-5.57,1.58-9.55.11-3.01-.21-5.73-.93-8.14l8.25-5.36c1.85-1.2,2.38-3.68,1.17-5.53-1.2-1.85-3.68-2.38-5.53-1.17l-7.86,5.11c-1.22-1.26-2.65-2.33-4.31-3.19-1.66-.86-3.38-1.4-5.14-1.65l-.68-9.69c-.16-2.2-2.08-3.86-4.27-3.71-2.2.16-3.87,2.07-3.71,4.27l.71,10.05c-2.34.85-4.67,2.18-6.94,4.03-2.89,2.34-5.12,5-6.4,6.69-14.69-5.42-35.3-9.84-46.66,1.84-5.65,5.82-7.73,11.66-6.17,17.36.48,1.77,1.3,3.4,2.35,4.89-.91-.19-1.84-.3-2.81-.3-7.38,0-13.39,6.01-13.39,13.39s6.01,13.39,13.39,13.39c.22,0,.43-.02.65-.03,9.36,16.97,13.12,34.15,11.13,51.07-1.07,9.13-3.61,15.75-5.02,18.87h-38.07c2.21-9.39,5.04-30.14-3.83-55.7,3.97-2.33,6.65-6.63,6.65-11.55,0-7.38-6.01-13.39-13.39-13.39-1.11,0-2.17.15-3.2.4.56-.57,1.1-1.18,1.61-1.84,3.31-4.27,5.18-9.77,5.54-15.35,4.54,2.91,9.85,4.64,15.07,4.64.19,0,.39,0,.58,0,7.56-.19,13.63-4.18,16.64-10.95,2.22-5,2.3-9.94.22-14.29-2.13-4.45-6.1-7.57-9.8-9.66,3.21-2.21,5.73-4.81,7.49-7.82,5.84-9.96,1.35-20.39.54-22.1-.66-1.69-5.24-12.6-14.7-16.87-5.01-2.26-10.41-2.31-16.05-.13-11.99,4.63-18.6,16.28-21.96,24.82l-.11-.21c-1-1.97-3.41-2.76-5.37-1.76-1.97,1-2.76,3.4-1.76,5.37l.11.21c-8.87-2.35-22.18-3.94-33.01,2.97-5.1,3.25-8.26,7.63-9.41,13.01-2.17,10.16,3.9,20.31,4.87,21.84.89,1.66,6.63,11.46,18.12,12.66.77.08,1.54.12,2.32.12,2.74,0,5.55-.51,8.42-1.5-.51,4.21-.35,9.26,1.97,13.61,2.27,4.25,6.29,7.12,11.64,8.29,1.42.31,2.82.46,4.2.46,1.96,0,3.85-.32,5.65-.93-1.85,2.3-2.96,5.21-2.96,8.38,0,7.01,5.42,12.77,12.28,13.33,9.22,25.89,5.28,46.81,3.41,53.92h-50.65c-3.2-7-12.16-30.78.99-54.02.25-.44.39-.9.46-1.37.2,0,.4.03.6.03,7.38,0,13.39-6.01,13.39-13.39s-6.01-13.39-13.39-13.39-13.39,6.01-13.39,13.39c0,4.39,2.13,8.28,5.41,10.72-.01.02-.03.04-.05.06-13.39,23.67-7.01,47.24-2.74,57.96h-32.49c1.53-5.31.38-9.25-.96-11.72-2.39-4.38-6.68-6.85-10.01-8.2.04-.09.08-.17.12-.26l3.07-7.6,16.42,6.64c.49.2,1,.29,1.5.29,1.58,0,3.08-.94,3.71-2.5.83-2.05-.16-4.38-2.21-5.21l-16.42-6.65,4.12-10.19c6.91,1.15,16.88.19,20.78-9.44.83-2.05-.16-4.38-2.21-5.21-2.05-.83-4.38.16-5.21,2.21-1.92,4.74-7.04,5.13-10.67,4.73,1.23-5.85.28-11.82-2.45-16.89l11.13-10.39c1.61-1.51,1.7-4.04.19-5.65-1.51-1.61-4.04-1.7-5.65-.19l-10.58,9.88c-2.16-2.01-4.71-3.68-7.6-4.85l-6.01-2.43c-2.45-.99-4.97-1.56-7.48-1.74l-1.68-14.93c-.25-2.2-2.23-3.79-4.42-3.53-2.2.25-3.78,2.23-3.53,4.42l1.66,14.75c-6.29,1.62-11.87,5.67-15.28,11.53-3.09-1.73-5.02-3.68-5.65-5.75-.81-2.67.71-5.02.82-5.19,1.26-1.79.84-4.27-.95-5.54-1.79-1.29-4.29-.88-5.58.92-.4.56-3.84,5.61-2,11.96,1.27,4.38,4.67,8.04,10.11,10.93l-3.86,9.55-15.26-6.18c-2.05-.83-4.38.16-5.21,2.21s.16,4.38,2.21,5.21l15.26,6.18-3.07,7.6c-.04.1-.07.2-.11.3-3.22-1.13-7.45-1.91-11.64-.6-3.05.95-7.23,3.44-9.85,9.9-.83,2.05.16,4.38,2.21,5.21.49.2,1,.29,1.5.29,1.58,0,3.08-.94,3.71-2.5,1.17-2.89,2.74-4.61,4.79-5.26,2.43-.77,5.38-.02,7.61.89-.43,10.19,5.49,20.03,15.47,24.07l6.01,2.43c3.04,1.23,6.18,1.81,9.27,1.81,7.05,0,13.83-3.04,18.54-8.31,2.35.77,5.89,2.41,7.36,5.1,1.04,1.9.97,4.23-.2,7.13-.1.25-.18.51-.22.77h-83.29c-1.16-5.46-3.42-17.89-3.76-33.02-.41-18.17,1.98-44.01,15.39-64.92,1.08.28,2.2.44,3.36.44,7.38,0,13.39-6.01,13.39-13.39s-6.01-13.39-13.39-13.39-13.39,6.01-13.39,13.39c0,3.32,1.23,6.36,3.24,8.71-14.49,22.65-17.05,50.2-16.6,69.54.34,14.42,2.3,26.29,3.58,32.64h-9.55c1.3-10.33.59-34.61-26.47-61.63,1.3-2.06,2.07-4.5,2.07-7.11,0-7.38-6.01-13.39-13.39-13.39s-13.39,6.01-13.39,13.39,6.01,13.39,13.39,13.39c1.85,0,3.62-.38,5.22-1.06,26.41,26.11,25.74,48.71,24.5,56.42h-32.73c-2.21,0-4,1.79-4,4s1.79,4,4,4h35.92s0,0,.01,0,0,0,.01,0h152.98s0,0,.01,0,.01,0,.02,0h56.08s0,0,.01,0c0,0,0,0,.01,0h45.81s.01,0,.02,0,.01,0,.02,0h82.94s0,0,.01,0,0,0,.01,0h75.57c2.21,0,4-1.79,4-4s-1.79-4-4-4ZM487.74,168.28c2.97,0,5.39,2.42,5.39,5.39s-2.42,5.39-5.39,5.39-5.39-2.42-5.39-5.39,2.42-5.39,5.39-5.39ZM473,126.15c2.97,0,5.39,2.42,5.39,5.39s-2.42,5.39-5.39,5.39-5.39-2.42-5.39-5.39,2.42-5.39,5.39-5.39ZM320.34,127.86c1.06,2.23.96,4.7-.32,7.57-1.78,4-4.99,6.09-9.53,6.2-.12,0-.25,0-.37,0-6.92,0-14.67-4.71-17.78-10.85,0,0,0,0,0,0l-3.81-7.53c7.75-.66,14.39-1.96,19.9-3.91,3.37,1.13,9.78,4.05,11.91,8.52ZM297.9,75.28c3.61-1.39,6.83-1.41,9.85-.05,6.99,3.14,10.57,12.49,10.6,12.57.05.13.12.29.18.41.04.08,3.83,7.88-.24,14.73-4.29,7.22-15.91,11.55-33.67,12.58l-6.44-12.74c1.22-4.87,6.45-22.37,19.72-27.49ZM247.39,138.79c-7.92-.79-11.96-8.46-11.99-8.52-.07-.13-.15-.27-.23-.4-.06-.08-5.47-8.51-3.85-16,.7-3.24,2.62-5.82,5.88-7.9,11.94-7.62,29.18-1.48,33.83.42l6.44,12.73c-11.36,13.69-21.74,20.48-30.09,19.66ZM272.53,159.44c-3.06-.67-5.12-2.05-6.28-4.23-2.33-4.35-.9-11.22.19-14.61,4.84-3.29,9.83-7.88,14.96-13.73l3.81,7.53c3.16,6.26,2.27,15.5-2.03,21.05-2.78,3.59-6.36,4.94-10.64,4ZM285.71,175.17c0-2.97,2.42-5.39,5.39-5.39s5.39,2.42,5.39,5.39-2.42,5.39-5.39,5.39-5.39-2.42-5.39-5.39ZM244.81,168.28c2.97,0,5.39,2.42,5.39,5.39s-2.42,5.39-5.39,5.39-5.39-2.42-5.39-5.39,2.42-5.39,5.39-5.39ZM169.39,165.47c.66.47,1.45.75,2.31.75.15,0,.3,0,.45-.03.94-.11,1.76-.54,2.38-1.17,1.71.12,3.43.5,5.1,1.18l6.01,2.43c2.11.85,3.94,2.09,5.47,3.6-.11,1.11.22,2.26,1.04,3.13.59.63,1.33,1.03,2.12,1.19,1.64,3.2,2.26,6.91,1.61,10.58-8.42-2.77-15.37-2.96-20.72-.53-.3-.99-.69-1.97-1.19-2.92-3.2-6.13-9.91-9.65-14.48-11.42,2.38-3.47,5.95-5.84,9.91-6.8ZM144.92,210.11c.12-.14.24-.27.34-.42.78-1.19.84-2.64.29-3.84.16-.55.35-1.1.57-1.65l4.21-10.4c.19-.26.36-.54.49-.85.13-.31.2-.63.24-.94l5.05-12.47c3.67,1.36,8.75,3.97,10.77,7.88,1.08,2.07,1.22,4.39.42,7.04-.3.7-.48,1.25-.59,1.63l-12.01,29.68c-6.23-2.85-9.93-9.11-9.79-15.64ZM162.12,228.75l12.1-29.9c.21-.51.39-1.02.56-1.52.46-.92,1.44-2.33,3.33-3.28,2.47-1.24,7.02-2.02,15.1.63l-9.94,24.55c-3.38,8.35-12.75,12.49-21.16,9.52ZM124.84,126.15c2.97,0,5.39,2.42,5.39,5.39s-2.42,5.39-5.39,5.39-5.39-2.42-5.39-5.39,2.42-5.39,5.39-5.39ZM54.33,179.06c-2.97,0-5.39-2.42-5.39-5.39s2.42-5.39,5.39-5.39,5.39,2.42,5.39,5.39-2.42,5.39-5.39,5.39ZM372.84,154.96l25.14,13.01c.55.28,1.13.42,1.71.44.5,3.31,1.04,5.9,1.6,7.94-.54.75-1.27,1.73-2.15,2.87-.66.18-1.29.51-1.8,1.03-.25.25-.44.53-.61.82l-32.75-16.95c.71-2.58,1.4-4.71,1.88-6.11,1.89-.68,4.17-1.66,6.96-3.06ZM397.44,140.41c.15,4.09.41,9.47.84,14.97.11,1.37.22,2.68.33,3.92l-17.27-8.94c1.09-.63,2.21-1.28,3.41-2,4.73-2.82,9.26-5.71,12.69-7.95ZM361.54,175.7c.17-1.2.36-2.38.58-3.54l29.8,15.42c-.82.85-1.67,1.69-2.55,2.52-6.21,5.83-15.07,12.04-22.01,8.44-6.94-3.59-7-14.4-5.82-22.84ZM436.56,176.58c-.93,4.98-2.77,8.01-5.48,9-5.62,2.04-15.48-3.62-20.77-7.96-.2-.24-.4-.6-.6-1.05-.07-.64-.27-1.26-.62-1.8-1.23-4.31-2.27-12.45-2.96-21.69l7.96,13.21c.75,1.25,2.07,1.94,3.43,1.94.7,0,1.41-.19,2.06-.57,1.89-1.14,2.5-3.6,1.36-5.49l-12.33-20.48c13.03,7.91,30.41,21.72,27.96,34.89ZM409.02,119.06c5.98,3.1,5.24,11.32,4.21,16.1-4.98-3.05-8.86-4.99-10-5.54-.02-.01-.03-.02-.05-.03-.49-.28-3.99-2.21-9.18-4.51,3.13-3.64,9.11-9.07,15.02-6.02ZM345.34,129.36c9.29-9.56,30.43-3.46,44.42,2.58l-24.26,1.51c-2.21.14-3.88,2.04-3.74,4.24.14,2.21,2.04,3.87,4.24,3.74l16.47-1.03c-8.1,4.88-15.53,8.84-19.81,10.34-.65.02-1.26.22-1.82.53-.47.1-.88.14-1.19.12-6.61-1.82-16.93-6.59-18.5-12.35-.76-2.78.65-6.04,4.19-9.68ZM327.59,159.12c0-2.97,2.42-5.39,5.39-5.39s5.39,2.42,5.39,5.39-2.42,5.39-5.39,5.39-5.39-2.42-5.39-5.39ZM341.21,169.65c3.13-2.45,5.15-6.26,5.15-10.53,0-1.76-.35-3.43-.97-4.97,4.81,2.69,9.65,4.24,11.75,4.84-1.2,3.93-2.67,9.5-3.52,15.47-2.82,20.02,3.91,28.01,10.05,31.18,2.17,1.12,4.87,1.96,8.11,1.96,5.92,0,13.64-2.8,23.15-11.76,2.2-2.07,4.22-4.21,6.01-6.25,22.86,24.57,22.2,45.47,21.02,52.83h-73.55c4.46-11.62,11.02-38.92-7.21-72.76Z"/>
        <path class="cls-3" d="M266.31,229.9c7.38,0,13.39-6.01,13.39-13.39s-6.01-13.39-13.39-13.39-13.39,6.01-13.39,13.39,6.01,13.39,13.39,13.39ZM266.31,211.12c2.97,0,5.39,2.42,5.39,5.39s-2.42,5.39-5.39,5.39-5.39-2.42-5.39-5.39,2.42-5.39,5.39-5.39Z"/>
        <path class="cls-3" d="M95.54,137.87c0-7.38-6.01-13.39-13.39-13.39s-13.39,6.01-13.39,13.39,6.01,13.39,13.39,13.39,13.39-6.01,13.39-13.39ZM76.76,137.87c0-2.97,2.42-5.39,5.39-5.39s5.39,2.42,5.39,5.39-2.42,5.39-5.39,5.39-5.39-2.42-5.39-5.39Z"/>
        <path class="cls-3" d="M391.63,239.29c7.38,0,13.39-6.01,13.39-13.39s-6.01-13.39-13.39-13.39-13.39,6.01-13.39,13.39,6.01,13.39,13.39,13.39ZM391.63,220.51c2.97,0,5.39,2.42,5.39,5.39s-2.42,5.39-5.39,5.39-5.39-2.42-5.39-5.39,2.42-5.39,5.39-5.39Z"/>
      </g>
    </g>
  </g>
</svg>